# https://github.com/mikedh/trimesh
v -0.18750000 -0.93750000 -0.18750000
v -0.18750000 0.81250000 -0.18750000
v -0.06250000 0.43750000 -0.18750000
v -0.06250000 0.56250000 -0.18750000
v -0.06250000 0.68750000 -0.18750000
v -0.06250000 0.81250000 -0.18750000
v -0.06250000 0.93750000 -0.18750000
v 0.06250000 0.43750000 -0.18750000
v 0.06250000 0.56250000 -0.18750000
v 0.06250000 0.68750000 -0.18750000
v 0.06250000 0.81250000 -0.18750000
v 0.06250000 0.93750000 -0.18750000
v 0.18750000 -0.93750000 -0.18750000
v 0.18750000 0.56250000 -0.18750000
v 0.18750000 0.81250000 -0.18750000
v 0.18750000 0.93750000 -0.18750000
v -0.31250000 -0.93750000 -0.06250000
v -0.31250000 -0.81250000 -0.06250000
v -0.31250000 -0.18750000 -0.06250000
v -0.31250000 -0.06250000 -0.06250000
v -0.18750000 -0.93750000 -0.06250000
v -0.18750000 -0.81250000 -0.06250000
v -0.18750000 -0.68750000 -0.06250000
v -0.18750000 -0.56250000 -0.06250000
v -0.18750000 -0.43750000 -0.06250000
v -0.18750000 -0.31250000 -0.06250000
v -0.18750000 -0.18750000 -0.06250000
v -0.18750000 -0.06250000 -0.06250000
v -0.18750000 0.06250000 -0.06250000
v -0.18750000 0.18750000 -0.06250000
v -0.18750000 0.43750000 -0.06250000
v -0.18750000 0.56250000 -0.06250000
v -0.18750000 0.68750000 -0.06250000
v -0.18750000 0.81250000 -0.06250000
v -0.18750000 0.93750000 -0.06250000
v -0.06250000 -0.93750000 -0.06250000
v -0.06250000 -0.81250000 -0.06250000
v -0.06250000 -0.68750000 -0.06250000
v -0.06250000 -0.56250000 -0.06250000
v -0.06250000 -0.43750000 -0.06250000
v -0.06250000 -0.31250000 -0.06250000
v -0.06250000 -0.18750000 -0.06250000
v -0.06250000 -0.06250000 -0.06250000
v -0.06250000 0.06250000 -0.06250000
v -0.06250000 0.18750000 -0.06250000
v -0.06250000 0.31250000 -0.06250000
v -0.06250000 0.43750000 -0.06250000
v -0.06250000 0.56250000 -0.06250000
v -0.06250000 0.68750000 -0.06250000
v -0.06250000 0.93750000 -0.06250000
v 0.06250000 -0.93750000 -0.06250000
v 0.06250000 -0.81250000 -0.06250000
v 0.06250000 -0.68750000 -0.06250000
v 0.06250000 -0.56250000 -0.06250000
v 0.06250000 -0.43750000 -0.06250000
v 0.06250000 -0.31250000 -0.06250000
v 0.06250000 -0.18750000 -0.06250000
v 0.06250000 -0.06250000 -0.06250000
v 0.06250000 0.06250000 -0.06250000
v 0.06250000 0.18750000 -0.06250000
v 0.06250000 0.31250000 -0.06250000
v 0.06250000 0.43750000 -0.06250000
v 0.06250000 0.56250000 -0.06250000
v 0.06250000 0.68750000 -0.06250000
v 0.06250000 0.81250000 -0.06250000
v 0.06250000 0.93750000 -0.06250000
v 0.18750000 -0.93750000 -0.06250000
v 0.18750000 -0.81250000 -0.06250000
v 0.18750000 -0.68750000 -0.06250000
v 0.18750000 -0.56250000 -0.06250000
v 0.18750000 -0.43750000 -0.06250000
v 0.18750000 -0.31250000 -0.06250000
v 0.18750000 -0.18750000 -0.06250000
v 0.18750000 -0.06250000 -0.06250000
v 0.18750000 0.06250000 -0.06250000
v 0.18750000 0.18750000 -0.06250000
v 0.18750000 0.43750000 -0.06250000
v 0.18750000 0.56250000 -0.06250000
v 0.18750000 0.68750000 -0.06250000
v 0.18750000 0.81250000 -0.06250000
v 0.18750000 0.93750000 -0.06250000
v 0.31250000 -0.93750000 -0.06250000
v 0.31250000 -0.81250000 -0.06250000
v 0.31250000 -0.18750000 -0.06250000
v 0.31250000 -0.06250000 -0.06250000
v -0.31250000 -0.93750000 0.06250000
v -0.31250000 -0.56250000 0.06250000
v -0.31250000 -0.43750000 0.06250000
v -0.31250000 -0.31250000 0.06250000
v -0.31250000 -0.18750000 0.06250000
v -0.31250000 -0.06250000 0.06250000
v -0.18750000 -0.93750000 0.06250000
v -0.18750000 -0.81250000 0.06250000
v -0.18750000 -0.68750000 0.06250000
v -0.18750000 -0.56250000 0.06250000
v -0.18750000 -0.43750000 0.06250000
v -0.18750000 -0.31250000 0.06250000
v -0.18750000 -0.18750000 0.06250000
v -0.18750000 -0.06250000 0.06250000
v -0.18750000 0.06250000 0.06250000
v -0.18750000 0.18750000 0.06250000
v -0.18750000 0.31250000 0.06250000
v -0.18750000 0.56250000 0.06250000
v -0.18750000 0.68750000 0.06250000
v -0.18750000 0.81250000 0.06250000
v -0.18750000 0.93750000 0.06250000
v -0.06250000 -0.81250000 0.06250000
v -0.06250000 -0.68750000 0.06250000
v -0.06250000 -0.56250000 0.06250000
v -0.06250000 -0.18750000 0.06250000
v -0.06250000 -0.06250000 0.06250000
v -0.06250000 0.06250000 0.06250000
v -0.06250000 0.18750000 0.06250000
v -0.06250000 0.31250000 0.06250000
v -0.06250000 0.43750000 0.06250000
v -0.06250000 0.56250000 0.06250000
v -0.06250000 0.68750000 0.06250000
v -0.06250000 0.81250000 0.06250000
v -0.06250000 0.93750000 0.06250000
v 0.06250000 -0.93750000 0.06250000
v 0.06250000 -0.81250000 0.06250000
v 0.06250000 -0.68750000 0.06250000
v 0.06250000 -0.56250000 0.06250000
v 0.06250000 -0.43750000 0.06250000
v 0.06250000 -0.18750000 0.06250000
v 0.06250000 -0.06250000 0.06250000
v 0.06250000 0.06250000 0.06250000
v 0.06250000 0.18750000 0.06250000
v 0.06250000 0.31250000 0.06250000
v 0.06250000 0.43750000 0.06250000
v 0.06250000 0.56250000 0.06250000
v 0.06250000 0.68750000 0.06250000
v 0.06250000 0.81250000 0.06250000
v 0.06250000 0.93750000 0.06250000
v 0.18750000 -0.93750000 0.06250000
v 0.18750000 -0.81250000 0.06250000
v 0.18750000 -0.68750000 0.06250000
v 0.18750000 -0.56250000 0.06250000
v 0.18750000 -0.43750000 0.06250000
v 0.18750000 -0.31250000 0.06250000
v 0.18750000 -0.18750000 0.06250000
v 0.18750000 -0.06250000 0.06250000
v 0.18750000 0.06250000 0.06250000
v 0.18750000 0.18750000 0.06250000
v 0.18750000 0.31250000 0.06250000
v 0.18750000 0.56250000 0.06250000
v 0.18750000 0.68750000 0.06250000
v 0.18750000 0.93750000 0.06250000
v 0.31250000 -0.93750000 0.06250000
v 0.31250000 -0.56250000 0.06250000
v 0.31250000 -0.43750000 0.06250000
v 0.31250000 -0.31250000 0.06250000
v 0.31250000 -0.18750000 0.06250000
v 0.31250000 -0.06250000 0.06250000
v -0.31250000 -0.93750000 0.18750000
v -0.31250000 -0.43750000 0.18750000
v -0.31250000 -0.31250000 0.18750000
v -0.18750000 -0.93750000 0.18750000
v -0.18750000 -0.56250000 0.18750000
v -0.18750000 -0.43750000 0.18750000
v -0.18750000 -0.31250000 0.18750000
v -0.18750000 -0.06250000 0.18750000
v -0.18750000 0.68750000 0.18750000
v -0.06250000 -0.56250000 0.18750000
v -0.06250000 -0.43750000 0.18750000
v -0.06250000 -0.31250000 0.18750000
v -0.06250000 -0.18750000 0.18750000
v -0.06250000 -0.06250000 0.18750000
v -0.06250000 0.06250000 0.18750000
v -0.06250000 0.18750000 0.18750000
v -0.06250000 0.31250000 0.18750000
v -0.06250000 0.43750000 0.18750000
v -0.06250000 0.56250000 0.18750000
v -0.06250000 0.68750000 0.18750000
v -0.06250000 0.81250000 0.18750000
v 0.06250000 -0.56250000 0.18750000
v 0.06250000 -0.43750000 0.18750000
v 0.06250000 -0.31250000 0.18750000
v 0.06250000 -0.18750000 0.18750000
v 0.06250000 -0.06250000 0.18750000
v 0.06250000 0.06250000 0.18750000
v 0.06250000 0.18750000 0.18750000
v 0.06250000 0.31250000 0.18750000
v 0.06250000 0.43750000 0.18750000
v 0.06250000 0.56250000 0.18750000
v 0.06250000 0.68750000 0.18750000
v 0.06250000 0.81250000 0.18750000
v 0.18750000 -0.93750000 0.18750000
v 0.18750000 -0.56250000 0.18750000
v 0.18750000 -0.43750000 0.18750000
v 0.18750000 -0.31250000 0.18750000
v 0.31250000 -0.93750000 0.18750000
v 0.31250000 -0.43750000 0.18750000
v 0.31250000 -0.31250000 0.18750000
f 1 21 22
f 2 6 7
f 2 34 6
f 2 35 7
f 2 34 35
f 3 4 9
f 3 4 48
f 3 8 9
f 3 47 8
f 3 47 48
f 4 5 9
f 4 5 49
f 32 4 48
f 4 48 49
f 5 6 10
f 5 49 6
f 5 9 10
f 6 7 12
f 6 10 11
f 6 11 12
f 49 34 6
f 7 12 66
f 35 7 50
f 7 50 66
f 8 62 9
f 47 8 62
f 9 10 64
f 9 14 78
f 62 9 63
f 62 9 78
f 9 63 64
f 9 63 78
f 10 64 11
f 11 15 12
f 11 65 15
f 64 11 65
f 15 12 16
f 12 66 16
f 51 13 67
f 51 13 68
f 13 67 68
f 15 16 81
f 65 15 80
f 15 80 81
f 66 16 81
f 17 18 22
f 17 18 93
f 17 21 22
f 17 21 86
f 17 21 92
f 17 22 93
f 17 86 92
f 17 92 93
f 18 22 93
f 19 20 28
f 19 20 90
f 19 27 28
f 19 27 90
f 19 27 98
f 19 28 98
f 19 90 98
f 20 28 29
f 20 29 100
f 20 90 91
f 20 91 100
f 21 22 37
f 21 36 37
f 21 36 92
f 21 37 92
f 21 86 92
f 22 23 38
f 22 23 93
f 22 37 38
f 22 37 93
f 23 24 39
f 23 24 95
f 23 38 39
f 23 93 94
f 23 94 95
f 24 25 40
f 24 25 96
f 24 39 40
f 24 95 96
f 25 26 41
f 25 26 96
f 25 40 41
f 26 41 42
f 26 42 98
f 26 96 97
f 26 97 98
f 27 28 98
f 27 42 98
f 27 90 98
f 28 29 99
f 28 43 98
f 28 43 99
f 28 98 99
f 29 30 45
f 29 30 101
f 29 44 45
f 29 44 99
f 29 44 100
f 29 99 100
f 29 100 101
f 30 45 46
f 30 46 102
f 30 101 102
f 31 47 32
f 31 32 48
f 31 32 103
f 31 47 48
f 31 47 115
f 31 115 103
f 32 48 33
f 32 33 104
f 47 32 48
f 32 103 104
f 48 33 49
f 33 49 117
f 33 104 117
f 34 35 106
f 49 34 118
f 34 105 106
f 34 105 118
f 34 118 106
f 35 50 106
f 36 37 92
f 37 38 108
f 37 92 93
f 37 93 107
f 37 93 108
f 37 107 108
f 38 39 109
f 38 108 109
f 39 40 54
f 39 54 124
f 39 109 124
f 40 41 56
f 40 54 55
f 40 55 56
f 41 42 57
f 41 56 57
f 42 43 58
f 42 43 98
f 42 57 58
f 43 44 58
f 43 44 99
f 43 98 99
f 44 45 60
f 44 58 59
f 44 59 60
f 44 99 100
f 44 99 112
f 44 100 112
f 45 46 61
f 45 60 61
f 46 47 61
f 46 47 114
f 46 61 114
f 46 61 129
f 46 102 114
f 46 114 129
f 47 61 62
f 47 61 114
f 47 114 115
f 49 117 118
f 50 66 119
f 50 106 119
f 51 52 68
f 51 52 135
f 51 67 68
f 51 67 135
f 51 120 135
f 52 68 53
f 52 53 122
f 52 68 136
f 52 121 122
f 52 121 136
f 52 136 122
f 52 135 136
f 53 69 54
f 53 54 123
f 68 53 69
f 53 122 123
f 54 55 71
f 69 54 70
f 54 70 71
f 54 123 124
f 55 71 56
f 56 72 57
f 71 56 72
f 57 58 141
f 72 57 141
f 57 73 141
f 58 59 142
f 58 74 142
f 58 141 142
f 59 75 60
f 59 60 128
f 59 75 127
f 59 75 142
f 59 127 128
f 59 142 127
f 60 76 61
f 75 60 76
f 61 62 129
f 76 61 145
f 61 114 129
f 61 129 145
f 62 77 63
f 62 63 78
f 62 77 78
f 62 77 130
f 62 129 130
f 63 64 79
f 77 63 78
f 63 78 79
f 64 65 133
f 64 79 147
f 64 132 133
f 64 132 147
f 65 80 133
f 66 81 134
f 66 119 134
f 67 68 82
f 67 82 135
f 67 82 149
f 67 135 149
f 68 69 136
f 68 82 83
f 68 82 136
f 68 83 136
f 69 70 138
f 69 136 137
f 69 137 138
f 70 71 138
f 71 72 140
f 71 138 139
f 71 139 140
f 72 140 141
f 73 84 141
f 73 84 153
f 73 141 153
f 74 75 85
f 74 75 142
f 74 75 143
f 74 84 85
f 74 85 142
f 74 142 143
f 75 76 144
f 75 85 142
f 75 142 127
f 75 127 143
f 75 142 143
f 75 143 144
f 76 144 145
f 77 78 146
f 77 130 146
f 78 79 147
f 78 146 147
f 80 81 148
f 80 133 148
f 81 134 148
f 82 83 136
f 82 135 136
f 82 135 149
f 84 85 153
f 84 141 153
f 85 142 153
f 85 142 154
f 85 153 154
f 86 155 92
f 86 92 158
f 86 155 158
f 87 88 95
f 87 88 96
f 87 95 96
f 88 89 96
f 88 156 89
f 88 89 157
f 88 89 160
f 88 95 96
f 88 96 160
f 88 156 157
f 88 156 160
f 88 157 160
f 89 90 97
f 89 96 97
f 89 96 160
f 89 160 97
f 89 97 161
f 156 89 157
f 156 89 160
f 89 157 160
f 89 157 161
f 89 160 161
f 90 91 99
f 90 97 98
f 90 98 99
f 91 99 100
f 155 92 158
f 93 94 108
f 93 107 108
f 94 95 109
f 94 108 109
f 95 159 96
f 95 159 164
f 96 160 97
f 159 96 160
f 97 166 98
f 160 97 161
f 97 161 166
f 98 167 99
f 98 110 167
f 166 98 167
f 99 100 112
f 99 111 111
f 99 168 112
f 99 162 168
f 167 99 168
f 100 101 113
f 100 112 113
f 101 113 102
f 113 102 114
f 103 116 104
f 103 173 104
f 115 103 116
f 115 103 173
f 103 116 173
f 116 104 117
f 116 173 104
f 116 104 174
f 104 163 117
f 104 117 174
f 173 104 163
f 104 163 174
f 173 104 174
f 105 118 106
f 118 106 119
f 112 169 113
f 168 112 169
f 113 170 114
f 169 113 170
f 114 115 130
f 114 129 130
f 170 114 129
f 170 114 171
f 115 116 173
f 115 130 184
f 115 172 173
f 115 172 184
f 115 173 184
f 116 117 174
f 116 173 174
f 117 174 132
f 117 132 186
f 163 117 174
f 117 174 186
f 118 119 134
f 118 133 134
f 121 136 122
f 122 137 123
f 136 122 137
f 123 138 124
f 137 123 138
f 125 141 126
f 125 126 180
f 125 179 141
f 125 179 180
f 141 126 142
f 126 180 142
f 127 143 128
f 127 181 128
f 142 127 143
f 180 142 127
f 180 127 181
f 128 129 145
f 128 182 129
f 143 128 144
f 128 144 145
f 181 128 182
f 170 182 129
f 182 129 183
f 130 131 146
f 130 131 185
f 130 184 185
f 131 146 132
f 131 185 132
f 132 186 133
f 146 132 147
f 174 185 132
f 174 132 186
f 185 132 186
f 133 134 148
f 135 188 149
f 135 149 192
f 135 188 192
f 138 139 150
f 138 139 151
f 138 177 139
f 138 189 139
f 138 150 151
f 176 138 177
f 176 138 189
f 138 189 177
f 139 140 152
f 139 140 191
f 139 150 151
f 139 151 152
f 139 151 193
f 139 191 152
f 139 193 152
f 189 177 139
f 177 139 190
f 177 139 191
f 189 139 190
f 139 190 191
f 139 190 193
f 140 141 152
f 140 179 141
f 140 191 152
f 178 140 179
f 178 140 191
f 141 142 153
f 141 152 153
f 142 143 154
f 142 153 154
f 188 149 192
f 151 193 152
f 151 152 194
f 151 193 194
f 191 152 194
f 193 152 194
f 156 157 160
f 157 160 161
f 159 160 165
f 159 164 165
f 160 165 161
f 165 161 166
f 173 163 174
f 164 165 176
f 164 165 177
f 164 176 177
f 165 166 178
f 165 176 177
f 165 177 178
f 166 167 179
f 166 178 179
f 167 168 179
f 168 169 180
f 168 179 180
f 169 170 181
f 169 180 181
f 170 181 182
f 172 173 184
f 173 174 185
f 173 184 185
f 174 175 186
f 174 175 187
f 174 185 186
f 174 186 187
f 175 186 187
f 176 189 177
f 177 178 191
f 189 177 190
f 177 190 191
f 190 191 194
f 190 193 194

