# https://github.com/mikedh/trimesh
v -0.15625000 0.78125000 -0.21875000
v -0.15625000 0.84375000 -0.21875000
v -0.09375000 0.78125000 -0.21875000
v -0.09375000 0.84375000 -0.21875000
v -0.03125000 0.53125000 -0.21875000
v -0.03125000 0.59375000 -0.21875000
v -0.03125000 0.78125000 -0.21875000
v -0.03125000 0.84375000 -0.21875000
v 0.03125000 0.53125000 -0.21875000
v 0.03125000 0.59375000 -0.21875000
v 0.03125000 0.78125000 -0.21875000
v 0.03125000 0.84375000 -0.21875000
v 0.03125000 0.90625000 -0.21875000
v 0.09375000 0.78125000 -0.21875000
v 0.09375000 0.84375000 -0.21875000
v 0.09375000 0.90625000 -0.21875000
v 0.15625000 0.84375000 -0.21875000
v -0.21875000 0.78125000 -0.15625000
v -0.21875000 0.84375000 -0.15625000
v -0.15625000 -0.96875000 -0.15625000
v -0.15625000 -0.90625000 -0.15625000
v -0.15625000 0.78125000 -0.15625000
v -0.15625000 0.84375000 -0.15625000
v -0.09375000 0.46875000 -0.15625000
v -0.09375000 0.53125000 -0.15625000
v -0.09375000 0.59375000 -0.15625000
v -0.09375000 0.78125000 -0.15625000
v -0.09375000 0.90625000 -0.15625000
v -0.03125000 0.46875000 -0.15625000
v -0.03125000 0.53125000 -0.15625000
v -0.03125000 0.59375000 -0.15625000
v -0.03125000 0.65625000 -0.15625000
v -0.03125000 0.71875000 -0.15625000
v -0.03125000 0.78125000 -0.15625000
v -0.03125000 0.90625000 -0.15625000
v 0.03125000 0.46875000 -0.15625000
v 0.03125000 0.53125000 -0.15625000
v 0.03125000 0.59375000 -0.15625000
v 0.03125000 0.65625000 -0.15625000
v 0.03125000 0.71875000 -0.15625000
v 0.03125000 0.78125000 -0.15625000
v 0.03125000 0.90625000 -0.15625000
v 0.09375000 0.46875000 -0.15625000
v 0.09375000 0.53125000 -0.15625000
v 0.09375000 0.59375000 -0.15625000
v 0.09375000 0.78125000 -0.15625000
v 0.09375000 0.90625000 -0.15625000
v 0.15625000 -0.96875000 -0.15625000
v 0.15625000 -0.90625000 -0.15625000
v 0.15625000 0.59375000 -0.15625000
v 0.15625000 0.78125000 -0.15625000
v 0.15625000 0.84375000 -0.15625000
v 0.15625000 0.90625000 -0.15625000
v -0.28125000 -0.90625000 -0.09375000
v -0.28125000 -0.84375000 -0.09375000
v -0.21875000 -0.96875000 -0.09375000
v -0.21875000 -0.90625000 -0.09375000
v -0.21875000 -0.84375000 -0.09375000
v -0.21875000 -0.78125000 -0.09375000
v -0.21875000 0.46875000 -0.09375000
v -0.21875000 0.53125000 -0.09375000
v -0.21875000 0.78125000 -0.09375000
v -0.21875000 0.84375000 -0.09375000
v -0.15625000 -0.96875000 -0.09375000
v -0.15625000 -0.90625000 -0.09375000
v -0.15625000 -0.84375000 -0.09375000
v -0.15625000 -0.78125000 -0.09375000
v -0.15625000 -0.65625000 -0.09375000
v -0.15625000 -0.53125000 -0.09375000
v -0.15625000 -0.46875000 -0.09375000
v -0.15625000 -0.40625000 -0.09375000
v -0.15625000 0.46875000 -0.09375000
v -0.15625000 0.53125000 -0.09375000
v -0.15625000 0.59375000 -0.09375000
v -0.15625000 0.65625000 -0.09375000
v -0.15625000 0.78125000 -0.09375000
v -0.15625000 0.90625000 -0.09375000
v -0.09375000 -0.96875000 -0.09375000
v -0.09375000 -0.90625000 -0.09375000
v -0.09375000 -0.84375000 -0.09375000
v -0.09375000 -0.53125000 -0.09375000
v -0.09375000 -0.46875000 -0.09375000
v -0.09375000 -0.40625000 -0.09375000
v -0.09375000 -0.34375000 -0.09375000
v -0.09375000 -0.28125000 -0.09375000
v -0.09375000 -0.21875000 -0.09375000
v -0.09375000 -0.15625000 -0.09375000
v -0.09375000 -0.09375000 -0.09375000
v -0.09375000 -0.03125000 -0.09375000
v -0.09375000 0.46875000 -0.09375000
v -0.09375000 0.53125000 -0.09375000
v -0.09375000 0.59375000 -0.09375000
v -0.09375000 0.65625000 -0.09375000
v -0.09375000 0.71875000 -0.09375000
v -0.09375000 0.90625000 -0.09375000
v -0.03125000 -0.53125000 -0.09375000
v -0.03125000 -0.46875000 -0.09375000
v -0.03125000 -0.40625000 -0.09375000
v -0.03125000 -0.34375000 -0.09375000
v -0.03125000 -0.28125000 -0.09375000
v -0.03125000 -0.21875000 -0.09375000
v -0.03125000 -0.15625000 -0.09375000
v -0.03125000 -0.09375000 -0.09375000
v -0.03125000 -0.03125000 -0.09375000
v -0.03125000 0.03125000 -0.09375000
v -0.03125000 0.09375000 -0.09375000
v -0.03125000 0.15625000 -0.09375000
v -0.03125000 0.21875000 -0.09375000
v -0.03125000 0.40625000 -0.09375000
v -0.03125000 0.46875000 -0.09375000
v -0.03125000 0.90625000 -0.09375000
v 0.03125000 -0.53125000 -0.09375000
v 0.03125000 -0.46875000 -0.09375000
v 0.03125000 -0.40625000 -0.09375000
v 0.03125000 -0.34375000 -0.09375000
v 0.03125000 -0.28125000 -0.09375000
v 0.03125000 -0.21875000 -0.09375000
v 0.03125000 -0.15625000 -0.09375000
v 0.03125000 -0.09375000 -0.09375000
v 0.03125000 -0.03125000 -0.09375000
v 0.03125000 0.03125000 -0.09375000
v 0.03125000 0.09375000 -0.09375000
v 0.03125000 0.15625000 -0.09375000
v 0.03125000 0.21875000 -0.09375000
v 0.03125000 0.40625000 -0.09375000
v 0.03125000 0.46875000 -0.09375000
v 0.03125000 0.65625000 -0.09375000
v 0.03125000 0.71875000 -0.09375000
v 0.03125000 0.90625000 -0.09375000
v 0.09375000 -0.96875000 -0.09375000
v 0.09375000 -0.90625000 -0.09375000
v 0.09375000 -0.84375000 -0.09375000
v 0.09375000 -0.53125000 -0.09375000
v 0.09375000 -0.46875000 -0.09375000
v 0.09375000 -0.40625000 -0.09375000
v 0.09375000 -0.34375000 -0.09375000
v 0.09375000 -0.28125000 -0.09375000
v 0.09375000 -0.21875000 -0.09375000
v 0.09375000 -0.15625000 -0.09375000
v 0.09375000 -0.09375000 -0.09375000
v 0.09375000 -0.03125000 -0.09375000
v 0.09375000 0.46875000 -0.09375000
v 0.09375000 0.53125000 -0.09375000
v 0.09375000 0.59375000 -0.09375000
v 0.09375000 0.65625000 -0.09375000
v 0.09375000 0.71875000 -0.09375000
v 0.09375000 0.78125000 -0.09375000
v 0.09375000 0.90625000 -0.09375000
v 0.09375000 0.96875000 -0.09375000
v 0.15625000 -0.96875000 -0.09375000
v 0.15625000 -0.90625000 -0.09375000
v 0.15625000 -0.84375000 -0.09375000
v 0.15625000 -0.78125000 -0.09375000
v 0.15625000 -0.65625000 -0.09375000
v 0.15625000 -0.53125000 -0.09375000
v 0.15625000 -0.46875000 -0.09375000
v 0.15625000 -0.40625000 -0.09375000
v 0.15625000 0.46875000 -0.09375000
v 0.15625000 0.53125000 -0.09375000
v 0.15625000 0.59375000 -0.09375000
v 0.15625000 0.65625000 -0.09375000
v 0.15625000 0.84375000 -0.09375000
v 0.15625000 0.90625000 -0.09375000
v 0.21875000 -0.96875000 -0.09375000
v 0.21875000 -0.90625000 -0.09375000
v 0.21875000 -0.84375000 -0.09375000
v 0.21875000 -0.78125000 -0.09375000
v 0.21875000 0.46875000 -0.09375000
v 0.21875000 0.53125000 -0.09375000
v 0.21875000 0.90625000 -0.09375000
v 0.28125000 -0.96875000 -0.09375000
v 0.28125000 -0.90625000 -0.09375000
v 0.28125000 -0.84375000 -0.09375000
v -0.28125000 -0.96875000 -0.03125000
v -0.28125000 -0.90625000 -0.03125000
v -0.28125000 -0.84375000 -0.03125000
v -0.28125000 -0.21875000 -0.03125000
v -0.28125000 -0.15625000 -0.03125000
v -0.28125000 -0.09375000 -0.03125000
v -0.28125000 -0.03125000 -0.03125000
v -0.21875000 -0.96875000 -0.03125000
v -0.21875000 -0.84375000 -0.03125000
v -0.21875000 -0.78125000 -0.03125000
v -0.21875000 -0.65625000 -0.03125000
v -0.21875000 -0.53125000 -0.03125000
v -0.21875000 -0.46875000 -0.03125000
v -0.21875000 -0.21875000 -0.03125000
v -0.21875000 -0.15625000 -0.03125000
v -0.21875000 -0.09375000 -0.03125000
v -0.21875000 -0.03125000 -0.03125000
v -0.21875000 0.03125000 -0.03125000
v -0.21875000 0.09375000 -0.03125000
v -0.21875000 0.46875000 -0.03125000
v -0.21875000 0.84375000 -0.03125000
v -0.21875000 0.90625000 -0.03125000
v -0.15625000 -0.96875000 -0.03125000
v -0.15625000 -0.65625000 -0.03125000
v -0.15625000 -0.59375000 -0.03125000
v -0.15625000 -0.53125000 -0.03125000
v -0.15625000 -0.46875000 -0.03125000
v -0.15625000 -0.40625000 -0.03125000
v -0.15625000 -0.34375000 -0.03125000
v -0.15625000 -0.28125000 -0.03125000
v -0.15625000 -0.15625000 -0.03125000
v -0.15625000 -0.09375000 -0.03125000
v -0.15625000 -0.03125000 -0.03125000
v -0.15625000 0.03125000 -0.03125000
v -0.15625000 0.09375000 -0.03125000
v -0.15625000 0.15625000 -0.03125000
v -0.15625000 0.21875000 -0.03125000
v -0.15625000 0.46875000 -0.03125000
v -0.15625000 0.53125000 -0.03125000
v -0.15625000 0.59375000 -0.03125000
v -0.15625000 0.65625000 -0.03125000
v -0.15625000 0.78125000 -0.03125000
v -0.15625000 0.90625000 -0.03125000
v -0.09375000 -0.96875000 -0.03125000
v -0.09375000 -0.90625000 -0.03125000
v -0.09375000 -0.84375000 -0.03125000
v -0.09375000 -0.78125000 -0.03125000
v -0.09375000 -0.65625000 -0.03125000
v -0.09375000 -0.59375000 -0.03125000
v -0.09375000 -0.53125000 -0.03125000
v -0.09375000 -0.21875000 -0.03125000
v -0.09375000 -0.15625000 -0.03125000
v -0.09375000 -0.09375000 -0.03125000
v -0.09375000 -0.03125000 -0.03125000
v -0.09375000 0.03125000 -0.03125000
v -0.09375000 0.09375000 -0.03125000
v -0.09375000 0.15625000 -0.03125000
v -0.09375000 0.21875000 -0.03125000
v -0.09375000 0.28125000 -0.03125000
v -0.09375000 0.40625000 -0.03125000
v -0.09375000 0.46875000 -0.03125000
v -0.09375000 0.53125000 -0.03125000
v -0.09375000 0.65625000 -0.03125000
v -0.09375000 0.71875000 -0.03125000
v -0.09375000 0.96875000 -0.03125000
v -0.03125000 -0.53125000 -0.03125000
v -0.03125000 0.28125000 -0.03125000
v -0.03125000 0.34375000 -0.03125000
v -0.03125000 0.40625000 -0.03125000
v -0.03125000 0.96875000 -0.03125000
v 0.03125000 -0.53125000 -0.03125000
v 0.03125000 0.28125000 -0.03125000
v 0.03125000 0.34375000 -0.03125000
v 0.03125000 0.40625000 -0.03125000
v 0.03125000 0.90625000 -0.03125000
v 0.03125000 0.96875000 -0.03125000
v 0.09375000 -0.96875000 -0.03125000
v 0.09375000 -0.90625000 -0.03125000
v 0.09375000 -0.84375000 -0.03125000
v 0.09375000 -0.78125000 -0.03125000
v 0.09375000 -0.65625000 -0.03125000
v 0.09375000 -0.59375000 -0.03125000
v 0.09375000 -0.53125000 -0.03125000
v 0.09375000 -0.21875000 -0.03125000
v 0.09375000 -0.15625000 -0.03125000
v 0.09375000 -0.09375000 -0.03125000
v 0.09375000 -0.03125000 -0.03125000
v 0.09375000 0.03125000 -0.03125000
v 0.09375000 0.09375000 -0.03125000
v 0.09375000 0.15625000 -0.03125000
v 0.09375000 0.21875000 -0.03125000
v 0.09375000 0.28125000 -0.03125000
v 0.09375000 0.40625000 -0.03125000
v 0.09375000 0.46875000 -0.03125000
v 0.09375000 0.53125000 -0.03125000
v 0.09375000 0.65625000 -0.03125000
v 0.09375000 0.71875000 -0.03125000
v 0.09375000 0.78125000 -0.03125000
v 0.09375000 0.96875000 -0.03125000
v 0.15625000 -0.96875000 -0.03125000
v 0.15625000 -0.65625000 -0.03125000
v 0.15625000 -0.59375000 -0.03125000
v 0.15625000 -0.53125000 -0.03125000
v 0.15625000 -0.46875000 -0.03125000
v 0.15625000 -0.40625000 -0.03125000
v 0.15625000 -0.34375000 -0.03125000
v 0.15625000 -0.28125000 -0.03125000
v 0.15625000 -0.15625000 -0.03125000
v 0.15625000 -0.09375000 -0.03125000
v 0.15625000 -0.03125000 -0.03125000
v 0.15625000 0.03125000 -0.03125000
v 0.15625000 0.09375000 -0.03125000
v 0.15625000 0.15625000 -0.03125000
v 0.15625000 0.21875000 -0.03125000
v 0.15625000 0.46875000 -0.03125000
v 0.15625000 0.53125000 -0.03125000
v 0.15625000 0.59375000 -0.03125000
v 0.15625000 0.65625000 -0.03125000
v 0.15625000 0.84375000 -0.03125000
v 0.15625000 0.90625000 -0.03125000
v 0.15625000 0.96875000 -0.03125000
v 0.21875000 -0.96875000 -0.03125000
v 0.21875000 -0.84375000 -0.03125000
v 0.21875000 -0.78125000 -0.03125000
v 0.21875000 -0.65625000 -0.03125000
v 0.21875000 -0.53125000 -0.03125000
v 0.21875000 -0.46875000 -0.03125000
v 0.21875000 -0.21875000 -0.03125000
v 0.21875000 -0.15625000 -0.03125000
v 0.21875000 -0.09375000 -0.03125000
v 0.21875000 -0.03125000 -0.03125000
v 0.21875000 0.03125000 -0.03125000
v 0.21875000 0.09375000 -0.03125000
v 0.21875000 0.53125000 -0.03125000
v 0.28125000 -0.96875000 -0.03125000
v 0.28125000 -0.90625000 -0.03125000
v 0.28125000 -0.84375000 -0.03125000
v 0.28125000 -0.21875000 -0.03125000
v 0.28125000 -0.15625000 -0.03125000
v 0.28125000 -0.09375000 -0.03125000
v 0.28125000 -0.03125000 -0.03125000
v -0.34375000 -0.96875000 0.03125000
v -0.34375000 -0.40625000 0.03125000
v -0.34375000 -0.34375000 0.03125000
v -0.34375000 -0.21875000 0.03125000
v -0.34375000 -0.15625000 0.03125000
v -0.28125000 -0.96875000 0.03125000
v -0.28125000 -0.90625000 0.03125000
v -0.28125000 -0.46875000 0.03125000
v -0.28125000 -0.40625000 0.03125000
v -0.28125000 -0.34375000 0.03125000
v -0.28125000 -0.28125000 0.03125000
v -0.28125000 -0.21875000 0.03125000
v -0.28125000 -0.15625000 0.03125000
v -0.28125000 -0.09375000 0.03125000
v -0.28125000 -0.03125000 0.03125000
v -0.21875000 -0.96875000 0.03125000
v -0.21875000 -0.90625000 0.03125000
v -0.21875000 -0.84375000 0.03125000
v -0.21875000 -0.78125000 0.03125000
v -0.21875000 -0.65625000 0.03125000
v -0.21875000 -0.59375000 0.03125000
v -0.21875000 -0.53125000 0.03125000
v -0.21875000 -0.46875000 0.03125000
v -0.21875000 -0.40625000 0.03125000
v -0.21875000 -0.34375000 0.03125000
v -0.21875000 -0.28125000 0.03125000
v -0.21875000 -0.21875000 0.03125000
v -0.21875000 -0.15625000 0.03125000
v -0.21875000 -0.09375000 0.03125000
v -0.21875000 -0.03125000 0.03125000
v -0.21875000 0.03125000 0.03125000
v -0.21875000 0.09375000 0.03125000
v -0.21875000 0.90625000 0.03125000
v -0.15625000 -0.96875000 0.03125000
v -0.15625000 -0.90625000 0.03125000
v -0.15625000 -0.84375000 0.03125000
v -0.15625000 -0.78125000 0.03125000
v -0.15625000 -0.65625000 0.03125000
v -0.15625000 -0.59375000 0.03125000
v -0.15625000 -0.53125000 0.03125000
v -0.15625000 -0.28125000 0.03125000
v -0.15625000 -0.21875000 0.03125000
v -0.15625000 -0.15625000 0.03125000
v -0.15625000 -0.09375000 0.03125000
v -0.15625000 -0.03125000 0.03125000
v -0.15625000 0.03125000 0.03125000
v -0.15625000 0.09375000 0.03125000
v -0.15625000 0.15625000 0.03125000
v -0.15625000 0.21875000 0.03125000
v -0.15625000 0.28125000 0.03125000
v -0.15625000 0.53125000 0.03125000
v -0.15625000 0.59375000 0.03125000
v -0.15625000 0.65625000 0.03125000
v -0.15625000 0.84375000 0.03125000
v -0.15625000 0.90625000 0.03125000
v -0.15625000 0.96875000 0.03125000
v -0.09375000 -0.78125000 0.03125000
v -0.09375000 -0.65625000 0.03125000
v -0.09375000 -0.59375000 0.03125000
v -0.09375000 -0.53125000 0.03125000
v -0.09375000 0.03125000 0.03125000
v -0.09375000 0.09375000 0.03125000
v -0.09375000 0.15625000 0.03125000
v -0.09375000 0.21875000 0.03125000
v -0.09375000 0.28125000 0.03125000
v -0.09375000 0.40625000 0.03125000
v -0.09375000 0.46875000 0.03125000
v -0.09375000 0.65625000 0.03125000
v -0.09375000 0.71875000 0.03125000
v -0.09375000 0.78125000 0.03125000
v -0.09375000 0.84375000 0.03125000
v -0.09375000 0.96875000 0.03125000
v -0.03125000 0.28125000 0.03125000
v -0.03125000 0.34375000 0.03125000
v -0.03125000 0.96875000 0.03125000
v 0.03125000 -0.46875000 0.03125000
v 0.03125000 0.28125000 0.03125000
v 0.03125000 0.34375000 0.03125000
v 0.03125000 0.96875000 0.03125000
v 0.09375000 -0.90625000 0.03125000
v 0.09375000 -0.78125000 0.03125000
v 0.09375000 -0.65625000 0.03125000
v 0.09375000 -0.59375000 0.03125000
v 0.09375000 -0.53125000 0.03125000
v 0.09375000 0.03125000 0.03125000
v 0.09375000 0.09375000 0.03125000
v 0.09375000 0.15625000 0.03125000
v 0.09375000 0.28125000 0.03125000
v 0.09375000 0.40625000 0.03125000
v 0.09375000 0.46875000 0.03125000
v 0.09375000 0.53125000 0.03125000
v 0.09375000 0.59375000 0.03125000
v 0.09375000 0.65625000 0.03125000
v 0.09375000 0.71875000 0.03125000
v 0.09375000 0.78125000 0.03125000
v 0.09375000 0.84375000 0.03125000
v 0.09375000 0.90625000 0.03125000
v 0.09375000 0.96875000 0.03125000
v 0.15625000 -0.96875000 0.03125000
v 0.15625000 -0.90625000 0.03125000
v 0.15625000 -0.84375000 0.03125000
v 0.15625000 -0.78125000 0.03125000
v 0.15625000 -0.65625000 0.03125000
v 0.15625000 -0.59375000 0.03125000
v 0.15625000 -0.53125000 0.03125000
v 0.15625000 -0.34375000 0.03125000
v 0.15625000 -0.28125000 0.03125000
v 0.15625000 -0.21875000 0.03125000
v 0.15625000 -0.15625000 0.03125000
v 0.15625000 -0.09375000 0.03125000
v 0.15625000 -0.03125000 0.03125000
v 0.15625000 0.03125000 0.03125000
v 0.15625000 0.09375000 0.03125000
v 0.15625000 0.15625000 0.03125000
v 0.15625000 0.21875000 0.03125000
v 0.15625000 0.28125000 0.03125000
v 0.15625000 0.53125000 0.03125000
v 0.15625000 0.59375000 0.03125000
v 0.15625000 0.65625000 0.03125000
v 0.15625000 0.90625000 0.03125000
v 0.15625000 0.96875000 0.03125000
v 0.21875000 -0.96875000 0.03125000
v 0.21875000 -0.90625000 0.03125000
v 0.21875000 -0.84375000 0.03125000
v 0.21875000 -0.78125000 0.03125000
v 0.21875000 -0.65625000 0.03125000
v 0.21875000 -0.59375000 0.03125000
v 0.21875000 -0.53125000 0.03125000
v 0.21875000 -0.46875000 0.03125000
v 0.21875000 -0.40625000 0.03125000
v 0.21875000 -0.34375000 0.03125000
v 0.21875000 -0.28125000 0.03125000
v 0.21875000 -0.21875000 0.03125000
v 0.21875000 -0.15625000 0.03125000
v 0.21875000 -0.09375000 0.03125000
v 0.21875000 -0.03125000 0.03125000
v 0.21875000 0.03125000 0.03125000
v 0.21875000 0.09375000 0.03125000
v 0.28125000 -0.96875000 0.03125000
v 0.28125000 -0.90625000 0.03125000
v 0.28125000 -0.46875000 0.03125000
v 0.28125000 -0.40625000 0.03125000
v 0.28125000 -0.34375000 0.03125000
v 0.28125000 -0.28125000 0.03125000
v 0.28125000 -0.21875000 0.03125000
v 0.28125000 -0.15625000 0.03125000
v 0.28125000 -0.09375000 0.03125000
v 0.28125000 -0.03125000 0.03125000
v 0.34375000 -0.96875000 0.03125000
v 0.34375000 -0.40625000 0.03125000
v 0.34375000 -0.34375000 0.03125000
v 0.34375000 -0.21875000 0.03125000
v 0.34375000 -0.15625000 0.03125000
v -0.34375000 -0.96875000 0.09375000
v -0.34375000 -0.90625000 0.09375000
v -0.34375000 -0.21875000 0.09375000
v -0.34375000 -0.15625000 0.09375000
v -0.28125000 -0.96875000 0.09375000
v -0.28125000 -0.90625000 0.09375000
v -0.28125000 -0.53125000 0.09375000
v -0.28125000 -0.46875000 0.09375000
v -0.28125000 -0.40625000 0.09375000
v -0.28125000 -0.34375000 0.09375000
v -0.28125000 -0.28125000 0.09375000
v -0.28125000 -0.21875000 0.09375000
v -0.28125000 -0.15625000 0.09375000
v -0.28125000 -0.09375000 0.09375000
v -0.21875000 -0.96875000 0.09375000
v -0.21875000 -0.90625000 0.09375000
v -0.21875000 -0.59375000 0.09375000
v -0.21875000 -0.53125000 0.09375000
v -0.21875000 -0.46875000 0.09375000
v -0.21875000 -0.40625000 0.09375000
v -0.21875000 -0.34375000 0.09375000
v -0.21875000 -0.28125000 0.09375000
v -0.21875000 -0.21875000 0.09375000
v -0.21875000 -0.15625000 0.09375000
v -0.21875000 -0.09375000 0.09375000
v -0.15625000 -0.96875000 0.09375000
v -0.15625000 -0.59375000 0.09375000
v -0.15625000 -0.53125000 0.09375000
v -0.15625000 -0.46875000 0.09375000
v -0.15625000 -0.40625000 0.09375000
v -0.15625000 -0.34375000 0.09375000
v -0.15625000 -0.28125000 0.09375000
v -0.15625000 -0.21875000 0.09375000
v -0.15625000 -0.15625000 0.09375000
v -0.15625000 -0.09375000 0.09375000
v -0.15625000 -0.03125000 0.09375000
v -0.15625000 0.53125000 0.09375000
v -0.15625000 0.59375000 0.09375000
v -0.15625000 0.65625000 0.09375000
v -0.15625000 0.90625000 0.09375000
v -0.15625000 0.96875000 0.09375000
v -0.09375000 -0.53125000 0.09375000
v -0.09375000 -0.15625000 0.09375000
v -0.09375000 -0.09375000 0.09375000
v -0.09375000 0.03125000 0.09375000
v -0.09375000 0.09375000 0.09375000
v -0.09375000 0.15625000 0.09375000
v -0.09375000 0.21875000 0.09375000
v -0.09375000 0.28125000 0.09375000
v -0.09375000 0.40625000 0.09375000
v -0.09375000 0.46875000 0.09375000
v -0.09375000 0.53125000 0.09375000
v -0.09375000 0.59375000 0.09375000
v -0.09375000 0.65625000 0.09375000
v -0.09375000 0.71875000 0.09375000
v -0.09375000 0.78125000 0.09375000
v -0.09375000 0.84375000 0.09375000
v -0.09375000 0.90625000 0.09375000
v -0.09375000 0.96875000 0.09375000
v -0.03125000 0.28125000 0.09375000
v -0.03125000 0.34375000 0.09375000
v -0.03125000 0.40625000 0.09375000
v -0.03125000 0.59375000 0.09375000
v -0.03125000 0.65625000 0.09375000
v -0.03125000 0.71875000 0.09375000
v -0.03125000 0.78125000 0.09375000
v -0.03125000 0.84375000 0.09375000
v -0.03125000 0.90625000 0.09375000
v -0.03125000 0.96875000 0.09375000
v 0.03125000 0.28125000 0.09375000
v 0.03125000 0.34375000 0.09375000
v 0.03125000 0.40625000 0.09375000
v 0.03125000 0.65625000 0.09375000
v 0.03125000 0.71875000 0.09375000
v 0.03125000 0.78125000 0.09375000
v 0.03125000 0.84375000 0.09375000
v 0.03125000 0.90625000 0.09375000
v 0.03125000 0.96875000 0.09375000
v 0.09375000 -0.53125000 0.09375000
v 0.09375000 -0.21875000 0.09375000
v 0.09375000 -0.15625000 0.09375000
v 0.09375000 -0.09375000 0.09375000
v 0.09375000 0.03125000 0.09375000
v 0.09375000 0.09375000 0.09375000
v 0.09375000 0.15625000 0.09375000
v 0.09375000 0.21875000 0.09375000
v 0.09375000 0.28125000 0.09375000
v 0.09375000 0.40625000 0.09375000
v 0.09375000 0.46875000 0.09375000
v 0.09375000 0.53125000 0.09375000
v 0.09375000 0.59375000 0.09375000
v 0.09375000 0.65625000 0.09375000
v 0.09375000 0.71875000 0.09375000
v 0.09375000 0.90625000 0.09375000
v 0.09375000 0.96875000 0.09375000
v 0.15625000 -0.96875000 0.09375000
v 0.15625000 -0.59375000 0.09375000
v 0.15625000 -0.53125000 0.09375000
v 0.15625000 -0.46875000 0.09375000
v 0.15625000 -0.40625000 0.09375000
v 0.15625000 -0.34375000 0.09375000
v 0.15625000 -0.28125000 0.09375000
v 0.15625000 -0.21875000 0.09375000
v 0.15625000 -0.15625000 0.09375000
v 0.15625000 -0.09375000 0.09375000
v 0.15625000 -0.03125000 0.09375000
v 0.15625000 0.15625000 0.09375000
v 0.21875000 -0.96875000 0.09375000
v 0.21875000 -0.90625000 0.09375000
v 0.21875000 -0.59375000 0.09375000
v 0.21875000 -0.53125000 0.09375000
v 0.21875000 -0.46875000 0.09375000
v 0.21875000 -0.40625000 0.09375000
v 0.21875000 -0.34375000 0.09375000
v 0.21875000 -0.28125000 0.09375000
v 0.21875000 -0.21875000 0.09375000
v 0.21875000 -0.15625000 0.09375000
v 0.21875000 -0.09375000 0.09375000
v 0.28125000 -0.96875000 0.09375000
v 0.28125000 -0.90625000 0.09375000
v 0.28125000 -0.53125000 0.09375000
v 0.28125000 -0.46875000 0.09375000
v 0.28125000 -0.40625000 0.09375000
v 0.28125000 -0.34375000 0.09375000
v 0.28125000 -0.28125000 0.09375000
v 0.28125000 -0.21875000 0.09375000
v 0.28125000 -0.15625000 0.09375000
v 0.34375000 -0.96875000 0.09375000
v 0.34375000 -0.90625000 0.09375000
v 0.34375000 -0.21875000 0.09375000
v 0.34375000 -0.15625000 0.09375000
v -0.34375000 -0.96875000 0.15625000
v -0.34375000 -0.90625000 0.15625000
v -0.28125000 -0.96875000 0.15625000
v -0.28125000 -0.90625000 0.15625000
v -0.28125000 -0.46875000 0.15625000
v -0.28125000 -0.40625000 0.15625000
v -0.28125000 -0.34375000 0.15625000
v -0.21875000 -0.96875000 0.15625000
v -0.21875000 -0.90625000 0.15625000
v -0.21875000 -0.46875000 0.15625000
v -0.21875000 -0.40625000 0.15625000
v -0.21875000 -0.34375000 0.15625000
v -0.21875000 -0.28125000 0.15625000
v -0.15625000 -0.96875000 0.15625000
v -0.15625000 -0.59375000 0.15625000
v -0.15625000 -0.53125000 0.15625000
v -0.15625000 -0.46875000 0.15625000
v -0.15625000 -0.40625000 0.15625000
v -0.15625000 -0.34375000 0.15625000
v -0.15625000 -0.09375000 0.15625000
v -0.15625000 0.65625000 0.15625000
v -0.15625000 0.71875000 0.15625000
v -0.09375000 -0.59375000 0.15625000
v -0.09375000 -0.53125000 0.15625000
v -0.09375000 -0.46875000 0.15625000
v -0.09375000 -0.40625000 0.15625000
v -0.09375000 -0.34375000 0.15625000
v -0.09375000 -0.28125000 0.15625000
v -0.09375000 -0.21875000 0.15625000
v -0.09375000 -0.15625000 0.15625000
v -0.09375000 -0.09375000 0.15625000
v -0.09375000 -0.03125000 0.15625000
v -0.09375000 0.03125000 0.15625000
v -0.09375000 0.09375000 0.15625000
v -0.09375000 0.15625000 0.15625000
v -0.09375000 0.21875000 0.15625000
v -0.09375000 0.28125000 0.15625000
v -0.09375000 0.46875000 0.15625000
v -0.09375000 0.53125000 0.15625000
v -0.09375000 0.59375000 0.15625000
v -0.09375000 0.65625000 0.15625000
v -0.09375000 0.71875000 0.15625000
v -0.09375000 0.78125000 0.15625000
v -0.03125000 -0.59375000 0.15625000
v -0.03125000 -0.53125000 0.15625000
v -0.03125000 -0.46875000 0.15625000
v -0.03125000 -0.40625000 0.15625000
v -0.03125000 -0.34375000 0.15625000
v -0.03125000 -0.28125000 0.15625000
v -0.03125000 -0.21875000 0.15625000
v -0.03125000 -0.15625000 0.15625000
v -0.03125000 -0.09375000 0.15625000
v -0.03125000 0.03125000 0.15625000
v -0.03125000 0.09375000 0.15625000
v -0.03125000 0.15625000 0.15625000
v -0.03125000 0.21875000 0.15625000
v -0.03125000 0.40625000 0.15625000
v -0.03125000 0.46875000 0.15625000
v -0.03125000 0.53125000 0.15625000
v -0.03125000 0.59375000 0.15625000
v -0.03125000 0.65625000 0.15625000
v -0.03125000 0.71875000 0.15625000
v -0.03125000 0.78125000 0.15625000
v 0.03125000 -0.59375000 0.15625000
v 0.03125000 -0.53125000 0.15625000
v 0.03125000 -0.46875000 0.15625000
v 0.03125000 -0.40625000 0.15625000
v 0.03125000 -0.34375000 0.15625000
v 0.03125000 -0.28125000 0.15625000
v 0.03125000 -0.21875000 0.15625000
v 0.03125000 -0.15625000 0.15625000
v 0.03125000 -0.09375000 0.15625000
v 0.03125000 0.03125000 0.15625000
v 0.03125000 0.09375000 0.15625000
v 0.03125000 0.15625000 0.15625000
v 0.03125000 0.21875000 0.15625000
v 0.03125000 0.40625000 0.15625000
v 0.03125000 0.46875000 0.15625000
v 0.03125000 0.53125000 0.15625000
v 0.03125000 0.59375000 0.15625000
v 0.03125000 0.65625000 0.15625000
v 0.03125000 0.71875000 0.15625000
v 0.03125000 0.78125000 0.15625000
v 0.09375000 -0.59375000 0.15625000
v 0.09375000 -0.53125000 0.15625000
v 0.09375000 -0.46875000 0.15625000
v 0.09375000 -0.40625000 0.15625000
v 0.09375000 -0.34375000 0.15625000
v 0.09375000 -0.28125000 0.15625000
v 0.09375000 -0.21875000 0.15625000
v 0.09375000 -0.15625000 0.15625000
v 0.09375000 -0.09375000 0.15625000
v 0.09375000 -0.03125000 0.15625000
v 0.09375000 0.03125000 0.15625000
v 0.09375000 0.09375000 0.15625000
v 0.09375000 0.15625000 0.15625000
v 0.09375000 0.21875000 0.15625000
v 0.09375000 0.28125000 0.15625000
v 0.09375000 0.46875000 0.15625000
v 0.09375000 0.53125000 0.15625000
v 0.09375000 0.59375000 0.15625000
v 0.09375000 0.71875000 0.15625000
v 0.15625000 -0.96875000 0.15625000
v 0.15625000 -0.59375000 0.15625000
v 0.15625000 -0.53125000 0.15625000
v 0.15625000 -0.46875000 0.15625000
v 0.15625000 -0.40625000 0.15625000
v 0.15625000 -0.34375000 0.15625000
v 0.21875000 -0.96875000 0.15625000
v 0.21875000 -0.90625000 0.15625000
v 0.21875000 -0.46875000 0.15625000
v 0.21875000 -0.40625000 0.15625000
v 0.21875000 -0.34375000 0.15625000
v 0.21875000 -0.28125000 0.15625000
v 0.28125000 -0.96875000 0.15625000
v 0.28125000 -0.90625000 0.15625000
v 0.28125000 -0.46875000 0.15625000
v 0.28125000 -0.40625000 0.15625000
v 0.28125000 -0.34375000 0.15625000
v 0.34375000 -0.96875000 0.15625000
v 0.34375000 -0.90625000 0.15625000
v -0.34375000 -0.96875000 0.21875000
v -0.28125000 -0.96875000 0.21875000
v -0.28125000 -0.90625000 0.21875000
v -0.21875000 -0.96875000 0.21875000
v -0.21875000 -0.40625000 0.21875000
v -0.21875000 -0.34375000 0.21875000
v -0.09375000 -0.21875000 0.21875000
v -0.09375000 -0.15625000 0.21875000
v -0.09375000 -0.09375000 0.21875000
v -0.09375000 -0.03125000 0.21875000
v -0.09375000 0.71875000 0.21875000
v -0.03125000 -0.59375000 0.21875000
v -0.03125000 -0.21875000 0.21875000
v -0.03125000 -0.15625000 0.21875000
v -0.03125000 -0.09375000 0.21875000
v -0.03125000 -0.03125000 0.21875000
v -0.03125000 0.40625000 0.21875000
v -0.03125000 0.46875000 0.21875000
v -0.03125000 0.53125000 0.21875000
v -0.03125000 0.71875000 0.21875000
v -0.03125000 0.78125000 0.21875000
v 0.03125000 -0.59375000 0.21875000
v 0.03125000 -0.28125000 0.21875000
v 0.03125000 -0.21875000 0.21875000
v 0.03125000 -0.15625000 0.21875000
v 0.03125000 -0.09375000 0.21875000
v 0.03125000 -0.03125000 0.21875000
v 0.03125000 0.40625000 0.21875000
v 0.03125000 0.46875000 0.21875000
v 0.03125000 0.53125000 0.21875000
v 0.03125000 0.71875000 0.21875000
v 0.09375000 -0.09375000 0.21875000
v 0.09375000 -0.03125000 0.21875000
v 0.15625000 -0.40625000 0.21875000
v 0.21875000 -0.96875000 0.21875000
v 0.28125000 -0.96875000 0.21875000
v 0.28125000 -0.90625000 0.21875000
v 0.34375000 -0.96875000 0.21875000
f 1 2 3
f 1 19 2
f 1 22 3
f 18 1 19
f 18 1 22
f 2 3 4
f 2 23 4
f 19 2 23
f 3 7 4
f 3 27 7
f 22 3 27
f 7 4 8
f 4 8 28
f 23 4 28
f 5 6 9
f 5 26 6
f 5 9 37
f 25 5 26
f 25 5 30
f 5 30 37
f 6 9 10
f 6 10 38
f 26 6 31
f 6 31 38
f 7 8 11
f 7 34 11
f 27 7 34
f 8 11 12
f 8 12 13
f 8 35 13
f 8 28 35
f 9 37 10
f 37 10 45
f 10 38 45
f 11 12 15
f 11 14 15
f 11 14 46
f 34 11 41
f 11 41 46
f 12 13 16
f 12 15 16
f 13 16 47
f 35 13 42
f 13 42 47
f 14 15 17
f 14 17 52
f 14 46 52
f 15 16 47
f 15 47 17
f 47 17 53
f 17 52 53
f 18 19 63
f 18 22 62
f 18 62 63
f 19 23 63
f 20 21 56
f 20 21 64
f 20 56 64
f 21 56 57
f 21 56 64
f 21 57 58
f 21 58 66
f 21 64 65
f 21 65 66
f 22 27 76
f 22 62 76
f 23 28 77
f 23 63 77
f 24 29 25
f 24 25 91
f 24 29 90
f 24 90 91
f 25 26 74
f 29 25 30
f 25 74 91
f 26 31 92
f 26 74 92
f 33 27 34
f 33 27 94
f 27 76 94
f 28 35 95
f 28 77 95
f 29 30 37
f 29 36 37
f 29 36 109
f 29 109 90
f 31 32 38
f 31 32 93
f 31 92 93
f 32 33 39
f 32 33 94
f 32 38 39
f 32 93 94
f 33 34 40
f 33 39 40
f 34 40 41
f 35 42 129
f 35 95 111
f 35 111 129
f 36 37 44
f 36 43 44
f 36 43 142
f 36 44 142
f 36 109 125
f 36 125 142
f 37 44 45
f 38 39 145
f 38 45 144
f 38 144 145
f 39 40 128
f 39 127 128
f 39 127 145
f 40 41 46
f 40 46 146
f 40 128 146
f 42 47 129
f 43 44 142
f 44 45 50
f 44 45 160
f 44 50 160
f 44 142 143
f 44 143 160
f 45 50 160
f 45 144 160
f 46 51 52
f 46 51 147
f 46 146 147
f 47 53 148
f 47 129 148
f 47 129 149
f 47 148 149
f 48 49 150
f 48 49 164
f 48 130 150
f 48 150 164
f 49 150 164
f 49 151 152
f 49 152 166
f 49 164 165
f 49 165 166
f 51 52 162
f 51 147 162
f 52 53 170
f 52 162 170
f 53 148 163
f 53 163 170
f 54 55 58
f 54 175 55
f 54 56 57
f 54 175 56
f 54 57 58
f 55 58 182
f 175 55 176
f 55 176 182
f 56 181 64
f 174 175 56
f 174 56 181
f 58 59 67
f 58 59 183
f 58 66 67
f 58 182 183
f 59 67 197
f 59 183 184
f 59 184 197
f 60 61 73
f 60 193 61
f 60 72 73
f 60 72 211
f 60 193 211
f 61 73 212
f 193 61 212
f 62 63 194
f 62 76 215
f 62 215 194
f 63 195 77
f 63 194 195
f 64 65 78
f 64 196 78
f 181 64 196
f 65 66 80
f 65 78 79
f 65 79 80
f 66 67 220
f 66 80 219
f 66 219 220
f 67 68 197
f 67 197 221
f 67 220 221
f 68 197 198
f 69 70 82
f 69 70 200
f 69 81 82
f 69 199 81
f 185 69 199
f 185 69 200
f 70 71 83
f 70 71 201
f 70 82 83
f 70 200 201
f 71 83 84
f 71 202 84
f 71 201 202
f 72 73 234
f 72 211 234
f 73 213 91
f 73 91 235
f 73 212 213
f 73 212 235
f 73 213 235
f 73 234 235
f 74 75 92
f 74 75 214
f 74 213 91
f 74 213 92
f 74 213 214
f 75 92 93
f 75 214 93
f 76 215 94
f 77 216 95
f 195 77 216
f 78 217 79
f 196 78 217
f 79 218 80
f 217 79 218
f 218 80 219
f 81 96 82
f 81 223 96
f 199 81 223
f 82 97 83
f 96 82 97
f 83 84 99
f 97 83 98
f 83 98 99
f 84 85 100
f 202 84 85
f 84 99 100
f 85 86 101
f 85 86 224
f 85 100 101
f 202 203 85
f 203 85 224
f 86 87 102
f 86 87 225
f 86 101 102
f 86 224 225
f 87 102 103
f 87 226 103
f 87 225 226
f 88 103 89
f 205 88 89
f 88 226 103
f 205 88 226
f 103 89 104
f 89 227 104
f 205 206 89
f 206 89 227
f 90 91 235
f 109 90 110
f 90 234 110
f 90 234 235
f 213 91 235
f 93 236 94
f 214 93 236
f 215 94 237
f 236 94 237
f 95 111 238
f 216 95 238
f 96 97 112
f 96 112 244
f 223 96 239
f 96 239 244
f 97 98 113
f 97 112 113
f 98 99 115
f 98 113 114
f 98 114 115
f 99 100 116
f 99 115 116
f 100 101 117
f 100 116 117
f 101 102 118
f 101 117 118
f 102 103 119
f 102 118 119
f 103 104 119
f 104 105 120
f 227 104 105
f 104 119 120
f 105 106 121
f 228 105 106
f 105 120 121
f 227 228 105
f 106 107 123
f 106 230 107
f 106 121 122
f 106 122 123
f 228 229 106
f 229 106 230
f 107 108 124
f 107 231 108
f 107 123 124
f 230 107 231
f 108 124 245
f 231 108 240
f 108 240 245
f 109 110 125
f 110 125 126
f 110 247 126
f 242 234 110
f 242 110 247
f 111 129 248
f 111 238 243
f 111 243 248
f 112 113 134
f 112 133 134
f 112 244 133
f 113 134 114
f 114 135 115
f 134 114 135
f 115 136 116
f 135 115 136
f 116 137 117
f 136 116 137
f 117 138 118
f 137 117 138
f 118 139 119
f 138 118 139
f 119 140 120
f 139 119 259
f 119 140 259
f 120 260 121
f 140 120 141
f 120 141 260
f 121 261 122
f 260 121 261
f 122 262 123
f 261 122 262
f 123 124 264
f 262 123 263
f 123 263 264
f 124 264 245
f 125 126 142
f 126 142 267
f 247 126 267
f 127 128 146
f 127 145 146
f 129 148 149
f 129 249 149
f 129 248 249
f 130 131 150
f 130 250 131
f 130 250 150
f 131 132 152
f 131 251 132
f 250 131 150
f 131 151 152
f 250 131 251
f 132 252 152
f 251 132 252
f 133 134 156
f 133 155 156
f 133 256 155
f 244 133 256
f 134 135 156
f 135 136 157
f 135 156 157
f 136 137 279
f 136 157 279
f 137 138 257
f 137 257 280
f 137 279 280
f 138 257 139
f 257 139 258
f 139 258 259
f 140 141 282
f 140 259 282
f 141 260 283
f 141 282 283
f 142 143 268
f 142 267 268
f 143 159 160
f 143 268 159
f 144 145 161
f 144 160 161
f 145 146 270
f 145 161 291
f 145 269 270
f 145 269 291
f 146 147 271
f 146 270 271
f 147 271 162
f 148 149 163
f 149 163 294
f 249 149 272
f 149 272 294
f 150 164 295
f 250 150 273
f 150 273 295
f 152 166 153
f 253 152 153
f 252 253 152
f 254 153 154
f 153 154 274
f 166 153 167
f 153 167 274
f 253 254 153
f 254 255 154
f 255 154 275
f 154 274 275
f 155 156 277
f 256 155 276
f 155 276 299
f 155 299 277
f 156 157 278
f 156 277 278
f 157 278 279
f 158 159 169
f 268 158 159
f 158 168 169
f 158 288 168
f 267 268 158
f 267 158 288
f 159 160 290
f 159 289 169
f 268 159 289
f 159 289 290
f 160 161 291
f 160 290 291
f 162 293 170
f 271 162 292
f 162 292 293
f 163 293 170
f 163 293 294
f 164 165 172
f 164 171 172
f 164 171 308
f 164 295 308
f 165 166 172
f 166 296 167
f 166 172 173
f 166 296 173
f 167 297 274
f 296 167 297
f 168 169 307
f 288 168 307
f 289 169 307
f 171 172 309
f 171 308 309
f 172 309 173
f 296 173 310
f 309 173 310
f 174 175 321
f 174 181 320
f 174 315 320
f 174 315 321
f 174 320 321
f 175 176 332
f 175 321 331
f 175 331 332
f 176 182 332
f 177 178 188
f 177 178 319
f 177 187 188
f 177 187 341
f 177 318 319
f 177 318 326
f 177 326 341
f 178 179 189
f 178 179 327
f 178 188 189
f 178 188 327
f 178 319 327
f 179 180 190
f 179 180 328
f 179 189 190
f 179 327 328
f 180 190 191
f 180 191 345
f 180 328 329
f 180 329 345
f 181 196 348
f 181 320 330
f 181 330 348
f 182 183 333
f 182 332 333
f 183 184 333
f 184 197 198
f 184 198 335
f 184 333 334
f 184 334 335
f 185 186 200
f 185 186 337
f 185 199 336
f 185 336 337
f 186 200 201
f 186 201 337
f 187 188 342
f 187 341 342
f 188 189 342
f 188 327 342
f 189 190 206
f 189 205 206
f 189 342 343
f 190 191 207
f 190 206 207
f 191 192 208
f 191 192 346
f 191 207 208
f 191 345 346
f 192 208 209
f 192 209 362
f 192 346 362
f 193 211 212
f 194 195 347
f 215 194 368
f 194 368 347
f 195 216 347
f 196 217 348
f 197 198 222
f 197 221 222
f 198 199 222
f 198 199 335
f 199 222 223
f 199 335 336
f 201 202 338
f 201 337 338
f 202 203 339
f 202 338 339
f 203 224 356
f 203 355 356
f 204 224 225
f 204 224 356
f 204 225 357
f 204 356 357
f 205 206 359
f 205 226 358
f 205 358 359
f 206 207 359
f 206 227 359
f 207 208 229
f 207 229 360
f 207 359 360
f 208 209 230
f 208 229 230
f 209 210 231
f 209 210 363
f 209 230 231
f 209 362 363
f 210 231 232
f 210 232 364
f 210 363 364
f 211 212 235
f 211 212 365
f 211 234 235
f 211 234 381
f 211 365 381
f 212 213 235
f 212 213 366
f 212 365 366
f 213 214 367
f 213 366 367
f 214 236 382
f 214 367 382
f 215 237 384
f 215 368 384
f 216 238 370
f 216 347 370
f 217 218 348
f 218 219 349
f 218 348 349
f 219 220 371
f 219 349 350
f 219 350 371
f 220 221 372
f 220 371 372
f 221 222 373
f 221 372 373
f 222 223 374
f 222 373 374
f 223 239 390
f 223 374 390
f 225 226 357
f 226 357 358
f 227 228 359
f 228 229 375
f 228 359 375
f 229 360 376
f 229 375 376
f 231 232 240
f 232 240 379
f 232 364 379
f 233 242 234
f 233 234 381
f 233 242 380
f 233 380 381
f 236 237 383
f 236 382 383
f 237 383 384
f 238 243 389
f 238 370 386
f 238 386 389
f 239 244 390
f 240 241 246
f 240 241 388
f 240 245 246
f 240 246 388
f 240 379 387
f 240 387 388
f 241 242 246
f 241 242 388
f 241 246 388
f 241 246 392
f 241 388 392
f 242 246 247
f 242 246 388
f 242 388 380
f 243 248 249
f 243 249 389
f 244 256 390
f 245 246 392
f 264 245 265
f 245 265 391
f 245 391 392
f 246 247 392
f 246 388 392
f 247 266 267
f 247 266 403
f 247 392 403
f 249 272 393
f 249 389 393
f 250 251 394
f 250 273 413
f 250 394 413
f 251 252 414
f 251 394 414
f 252 253 395
f 252 395 415
f 252 414 415
f 253 254 396
f 253 395 396
f 254 255 397
f 254 396 397
f 255 256 276
f 255 256 398
f 255 275 276
f 255 397 398
f 256 398 390
f 257 258 281
f 257 280 422
f 257 281 422
f 258 259 423
f 258 281 423
f 259 282 424
f 259 423 424
f 260 261 425
f 260 283 425
f 261 262 399
f 261 399 425
f 262 263 285
f 262 263 401
f 262 284 285
f 262 284 400
f 262 399 400
f 262 400 401
f 263 264 286
f 263 285 286
f 264 265 287
f 264 286 287
f 265 287 430
f 265 391 402
f 265 402 430
f 266 267 404
f 266 403 404
f 267 268 289
f 267 288 289
f 267 288 404
f 269 270 408
f 269 291 433
f 269 407 408
f 269 407 433
f 270 271 409
f 270 408 409
f 271 292 410
f 271 409 410
f 272 294 412
f 272 393 412
f 273 295 413
f 274 298 275
f 297 274 298
f 275 276 418
f 298 275 418
f 276 299 442
f 276 441 442
f 277 300 278
f 299 277 300
f 278 279 420
f 300 278 444
f 278 444 420
f 279 280 421
f 279 420 421
f 280 421 422
f 281 422 423
f 282 303 283
f 282 283 425
f 282 424 425
f 283 304 284
f 283 284 426
f 303 283 304
f 283 425 426
f 284 305 285
f 304 284 305
f 284 400 426
f 285 306 286
f 305 285 306
f 286 287 429
f 306 286 428
f 286 428 429
f 287 429 430
f 288 289 307
f 288 289 431
f 288 404 431
f 289 290 432
f 289 431 432
f 290 291 433
f 290 432 433
f 292 293 434
f 292 410 434
f 293 294 435
f 293 434 435
f 294 412 435
f 295 308 453
f 295 413 436
f 295 436 453
f 296 297 438
f 296 310 438
f 297 298 439
f 297 438 439
f 298 440 418
f 298 439 440
f 299 300 442
f 300 442 443
f 300 443 444
f 301 302 312
f 301 302 447
f 301 311 312
f 301 311 447
f 302 312 460
f 302 447 448
f 302 448 460
f 303 304 313
f 303 312 313
f 304 305 314
f 304 313 314
f 305 306 452
f 305 314 450
f 305 450 451
f 305 451 452
f 306 452 428
f 308 309 454
f 308 453 454
f 308 453 463
f 308 463 454
f 309 310 438
f 309 437 438
f 309 437 454
f 311 312 466
f 311 447 459
f 311 459 466
f 312 313 460
f 312 466 460
f 312 460 467
f 312 466 467
f 313 314 461
f 313 460 461
f 314 450 461
f 314 450 462
f 314 461 462
f 315 320 321
f 315 468 320
f 315 469 321
f 315 468 469
f 316 317 324
f 316 317 477
f 322 316 323
f 322 316 476
f 316 323 324
f 316 323 476
f 316 323 477
f 316 324 477
f 316 476 477
f 317 324 325
f 317 324 477
f 317 325 478
f 317 477 478
f 318 319 471
f 318 470 326
f 318 470 471
f 319 471 327
f 320 472 330
f 468 320 472
f 321 473 331
f 469 321 473
f 322 323 337
f 322 323 476
f 322 336 337
f 474 322 336
f 322 475 337
f 322 476 337
f 474 322 475
f 322 475 476
f 323 324 477
f 323 476 337
f 323 476 477
f 324 325 340
f 324 488 340
f 324 477 488
f 325 326 340
f 325 478 326
f 326 340 341
f 470 326 479
f 478 326 479
f 327 480 328
f 327 480 342
f 471 327 480
f 328 329 344
f 328 343 344
f 328 481 343
f 480 328 481
f 329 344 345
f 330 348 493
f 472 330 482
f 330 482 493
f 331 332 350
f 331 349 350
f 331 483 349
f 473 331 483
f 332 333 351
f 332 350 351
f 333 334 352
f 333 351 352
f 334 335 353
f 334 352 353
f 335 353 336
f 336 485 337
f 353 336 354
f 336 485 354
f 474 336 485
f 337 486 338
f 475 476 337
f 475 485 337
f 475 337 486
f 476 337 486
f 485 337 486
f 338 487 339
f 486 338 487
f 339 488 340
f 340 489 341
f 488 340 489
f 341 342 357
f 341 490 342
f 341 342 491
f 341 356 357
f 489 341 490
f 341 490 491
f 342 491 343
f 480 342 491
f 490 342 491
f 343 344 359
f 343 358 359
f 481 343 492
f 491 343 492
f 344 345 360
f 344 359 360
f 345 346 361
f 345 360 361
f 346 361 362
f 368 347 507
f 347 369 370
f 347 369 507
f 347 507 370
f 348 493 349
f 493 483 349
f 350 351 371
f 351 352 372
f 351 371 372
f 352 353 494
f 352 372 373
f 352 494 373
f 353 494 354
f 485 354 495
f 494 354 495
f 355 499 356
f 498 355 499
f 356 500 357
f 499 356 500
f 357 501 358
f 500 357 501
f 358 502 359
f 501 358 502
f 359 503 375
f 502 359 503
f 360 361 376
f 361 362 377
f 361 376 377
f 362 363 378
f 362 377 378
f 363 364 378
f 364 378 379
f 365 366 505
f 365 504 381
f 365 504 505
f 366 505 367
f 367 382 521
f 505 367 506
f 367 506 521
f 368 384 385
f 368 385 524
f 368 507 524
f 369 507 370
f 370 508 386
f 507 370 508
f 373 374 509
f 494 373 509
f 495 374 509
f 375 512 376
f 503 375 512
f 376 513 377
f 512 376 513
f 377 378 515
f 513 377 514
f 377 514 515
f 378 515 379
f 379 387 527
f 515 379 516
f 379 516 527
f 380 517 381
f 388 380 517
f 504 381 518
f 517 381 518
f 382 521 383
f 383 522 384
f 521 383 522
f 384 523 385
f 522 384 523
f 523 385 524
f 386 526 389
f 508 386 526
f 387 388 528
f 387 527 528
f 388 528 392
f 388 528 517
f 389 536 393
f 526 389 536
f 398 390 565
f 391 537 392
f 391 537 402
f 392 403 555
f 528 392 538
f 537 392 538
f 392 538 555
f 393 545 412
f 536 393 545
f 394 413 414
f 395 396 416
f 395 415 416
f 396 397 417
f 396 416 417
f 397 398 546
f 397 417 564
f 397 546 564
f 398 546 565
f 399 550 400
f 399 425 573
f 399 550 573
f 400 401 427
f 400 551 401
f 400 426 427
f 550 400 551
f 401 427 574
f 551 401 552
f 401 552 553
f 401 553 574
f 402 554 430
f 537 402 554
f 403 555 404
f 404 405 431
f 404 405 557
f 555 404 556
f 404 556 557
f 405 406 432
f 405 406 558
f 405 431 432
f 405 557 558
f 406 407 432
f 406 407 559
f 406 558 559
f 407 408 560
f 407 432 433
f 407 559 433
f 407 559 560
f 408 560 409
f 542 409 410
f 560 542 409
f 410 411 434
f 543 410 411
f 542 543 410
f 411 561 434
f 543 544 411
f 544 411 561
f 412 562 435
f 545 412 562
f 413 563 414
f 413 563 436
f 414 437 415
f 414 437 576
f 563 414 576
f 415 438 416
f 437 415 438
f 416 439 417
f 438 416 439
f 417 440 418
f 439 417 440
f 419 419 419
f 420 568 421
f 444 580 420
f 580 420 568
f 421 569 422
f 568 421 569
f 422 447 423
f 422 570 423
f 569 422 570
f 549 423 424
f 423 584 424
f 447 423 448
f 423 448 584
f 548 549 423
f 548 570 423
f 548 423 571
f 424 449 425
f 424 572 425
f 584 424 449
f 549 424 572
f 425 450 426
f 449 425 450
f 572 425 573
f 426 451 427
f 450 426 451
f 451 427 452
f 427 452 574
f 428 574 429
f 452 428 574
f 553 429 430
f 553 574 429
f 553 554 430
f 561 434 435
f 561 562 435
f 436 575 453
f 563 436 575
f 437 454 587
f 437 576 587
f 441 577 442
f 442 443 455
f 442 578 443
f 442 443 579
f 442 588 455
f 577 565 442
f 565 442 578
f 577 442 578
f 442 578 579
f 442 578 588
f 442 579 588
f 443 579 444
f 443 455 456
f 443 579 456
f 578 443 579
f 579 444 580
f 445 446 457
f 445 581 446
f 445 581 457
f 446 447 458
f 446 582 447
f 446 457 458
f 581 446 457
f 581 446 582
f 447 583 448
f 447 458 459
f 582 447 583
f 448 460 594
f 583 448 584
f 583 448 594
f 448 584 594
f 449 585 450
f 584 449 585
f 450 451 462
f 450 461 462
f 585 450 461
f 453 463 454
f 453 463 595
f 575 453 586
f 453 586 595
f 463 454 596
f 454 587 596
f 455 456 464
f 455 589 456
f 455 589 464
f 588 455 589
f 456 464 457
f 456 457 591
f 589 456 464
f 456 590 464
f 456 464 591
f 579 589 456
f 579 456 590
f 589 456 590
f 456 590 591
f 457 465 458
f 457 591 458
f 464 457 465
f 464 457 591
f 457 591 465
f 581 457 591
f 458 592 459
f 591 465 458
f 591 458 592
f 459 466 597
f 592 459 593
f 459 593 597
f 460 594 461
f 466 460 467
f 466 460 598
f 460 594 598
f 585 594 461
f 463 595 596
f 464 591 465
f 589 590 464
f 590 464 591
f 466 597 598
f 468 469 600
f 468 472 599
f 468 599 600
f 469 473 600
f 470 471 480
f 470 479 480
f 472 482 606
f 472 599 601
f 472 601 606
f 473 483 602
f 473 600 602
f 474 475 485
f 474 475 486
f 474 485 486
f 475 476 486
f 475 476 604
f 475 485 486
f 475 603 604
f 475 603 608
f 475 604 608
f 476 477 604
f 476 477 605
f 476 604 605
f 477 478 605
f 477 487 487
f 477 488 609
f 477 604 605
f 477 604 609
f 477 605 609
f 478 479 489
f 478 489 610
f 478 489 611
f 478 605 610
f 478 610 611
f 479 480 491
f 479 489 490
f 479 490 491
f 480 481 492
f 480 491 492
f 482 493 606
f 493 483 607
f 483 602 607
f 484 484 484
f 485 486 496
f 485 495 613
f 485 496 614
f 485 613 614
f 486 496 487
f 496 487 497
f 487 497 498
f 488 489 610
f 488 609 610
f 489 610 611
f 493 606 607
f 493 606 612
f 494 495 509
f 494 495 613
f 495 613 621
f 495 613 622
f 495 621 622
f 496 497 615
f 496 614 615
f 497 498 616
f 497 615 616
f 498 499 617
f 498 616 617
f 499 500 626
f 499 617 625
f 499 625 626
f 500 501 510
f 500 510 627
f 500 626 627
f 501 502 628
f 501 510 628
f 502 503 629
f 502 511 511
f 502 618 629
f 502 628 629
f 503 512 630
f 503 629 630
f 504 505 519
f 504 518 519
f 505 506 520
f 505 506 638
f 505 519 638
f 505 520 638
f 506 520 638
f 506 521 619
f 506 521 639
f 506 619 638
f 506 619 639
f 506 638 639
f 507 508 525
f 507 524 525
f 508 525 526
f 510 627 628
f 512 513 631
f 512 630 631
f 513 514 632
f 513 631 632
f 514 515 633
f 514 632 633
f 515 516 634
f 515 633 634
f 516 527 635
f 516 634 635
f 517 518 636
f 528 517 529
f 517 529 636
f 518 519 637
f 518 636 637
f 519 637 638
f 521 531 522
f 521 522 640
f 521 531 659
f 521 619 639
f 521 619 640
f 521 639 659
f 522 532 523
f 531 522 532
f 522 532 660
f 522 640 660
f 523 533 524
f 532 523 533
f 524 534 525
f 533 524 534
f 525 535 526
f 534 525 535
f 535 526 536
f 527 528 538
f 527 537 538
f 527 537 654
f 527 654 635
f 528 529 539
f 528 538 539
f 529 539 675
f 529 636 656
f 529 655 656
f 529 655 675
f 530 531 659
f 530 658 659
f 531 532 540
f 531 540 659
f 532 540 541
f 532 540 680
f 532 541 680
f 532 660 680
f 533 534 543
f 533 542 543
f 534 535 544
f 534 543 544
f 535 536 544
f 536 544 545
f 537 554 696
f 537 654 674
f 537 674 696
f 538 539 555
f 539 555 697
f 539 675 676
f 539 676 697
f 540 559 541
f 540 541 680
f 540 559 679
f 540 659 679
f 540 679 680
f 541 560 542
f 541 542 680
f 559 541 560
f 541 560 680
f 560 542 680
f 544 545 562
f 544 561 562
f 546 564 565
f 547 548 570
f 547 548 689
f 547 570 688
f 547 688 689
f 548 549 690
f 548 689 690
f 549 572 690
f 550 551 692
f 550 573 691
f 550 691 692
f 551 552 693
f 551 692 693
f 552 553 694
f 552 693 694
f 553 554 695
f 553 694 695
f 554 695 696
f 555 556 697
f 556 557 698
f 556 697 698
f 557 558 699
f 557 698 699
f 558 559 699
f 559 699 679
f 560 680 700
f 563 575 707
f 563 576 708
f 563 701 707
f 563 707 708
f 564 577 565
f 564 565 702
f 564 577 702
f 565 578 566
f 565 566 684
f 565 566 703
f 577 565 578
f 577 565 702
f 577 565 703
f 565 578 703
f 565 683 684
f 565 683 702
f 565 683 703
f 565 684 703
f 565 702 703
f 578 566 579
f 578 566 703
f 566 684 703
f 566 684 704
f 566 703 704
f 567 567 567
f 568 569 706
f 580 568 706
f 569 570 688
f 569 687 688
f 569 687 706
f 572 573 690
f 573 690 691
f 575 586 707
f 576 587 714
f 576 708 714
f 577 578 703
f 577 702 703
f 578 579 588
f 578 579 589
f 578 588 589
f 579 580 709
f 579 588 589
f 579 589 590
f 579 589 715
f 579 709 715
f 580 591 591
f 580 709 710
f 581 582 711
f 581 591 711
f 582 583 592
f 582 592 711
f 582 592 712
f 582 711 712
f 583 584 594
f 583 592 593
f 583 593 594
f 584 585 594
f 586 595 718
f 586 707 713
f 586 713 718
f 587 596 719
f 587 714 719
f 589 590 716
f 589 715 716
f 590 591 716
f 590 591 717
f 590 716 717
f 591 592 711
f 591 592 717
f 591 711 717
f 591 716 717
f 592 711 712
f 592 711 717
f 593 597 594
f 597 594 598
f 595 596 719
f 595 718 719
f 599 720 600
f 599 720 601
f 600 602 722
f 720 600 722
f 601 721 606
f 720 601 721
f 602 722 607
f 603 604 608
f 604 605 609
f 604 608 609
f 605 609 610
f 721 606 607
f 606 723 607
f 721 606 723
f 721 722 607
f 721 723 607
f 609 724 610
f 616 610 617
f 724 610 725
f 613 614 621
f 613 614 622
f 613 621 622
f 614 615 623
f 614 621 622
f 614 622 623
f 615 616 623
f 616 617 624
f 616 623 624
f 617 624 625
f 619 620 639
f 619 620 640
f 619 638 639
f 620 639 730
f 620 640 730
f 621 622 643
f 621 642 643
f 621 642 731
f 622 623 644
f 622 643 644
f 623 644 624
f 624 645 625
f 644 624 645
f 625 646 626
f 645 625 646
f 626 647 627
f 646 626 647
f 627 628 649
f 647 627 648
f 627 648 649
f 628 649 629
f 629 728 630
f 649 629 650
f 629 650 734
f 629 728 734
f 630 729 631
f 728 630 729
f 631 651 632
f 729 631 651
f 632 652 633
f 651 632 652
f 633 653 634
f 652 633 653
f 634 654 635
f 653 634 654
f 636 637 657
f 636 656 657
f 637 657 638
f 638 658 639
f 657 638 658
f 658 639 659
f 639 659 739
f 639 730 739
f 640 641 661
f 640 730 641
f 640 660 661
f 641 661 740
f 730 641 740
f 642 643 663
f 642 662 663
f 642 731 662
f 643 644 663
f 643 644 664
f 643 663 664
f 644 645 665
f 644 663 664
f 644 664 665
f 645 646 666
f 645 665 666
f 646 647 667
f 646 666 667
f 647 648 668
f 647 667 668
f 648 649 668
f 648 649 669
f 726 648 649
f 648 732 649
f 648 668 669
f 726 648 732
f 649 650 669
f 649 668 669
f 726 727 649
f 726 732 649
f 726 649 733
f 727 649 733
f 732 649 733
f 650 669 670
f 650 734 670
f 651 652 671
f 651 746 671
f 729 735 651
f 735 651 746
f 652 653 672
f 652 671 672
f 653 654 673
f 653 672 673
f 654 673 674
f 655 736 656
f 655 736 675
f 656 657 738
f 736 656 737
f 656 737 738
f 657 658 677
f 657 677 749
f 657 738 749
f 658 659 678
f 658 677 678
f 659 678 679
f 659 739 679
f 660 661 680
f 661 680 681
f 661 740 681
f 662 663 683
f 662 682 683
f 662 741 682
f 731 662 741
f 663 683 664
f 663 664 684
f 663 683 684
f 664 684 665
f 683 664 684
f 665 685 666
f 684 665 685
f 666 667 687
f 685 666 686
f 666 686 687
f 667 687 668
f 668 688 669
f 668 743 669
f 668 669 744
f 687 668 688
f 742 668 743
f 668 743 744
f 669 689 670
f 688 669 689
f 743 669 744
f 689 670 690
f 670 745 690
f 734 670 745
f 671 672 693
f 671 692 693
f 746 671 692
f 672 673 694
f 672 693 694
f 673 674 695
f 673 694 695
f 674 695 696
f 675 747 676
f 736 675 747
f 676 697 677
f 676 748 677
f 747 676 748
f 677 698 678
f 697 677 698
f 748 677 749
f 678 699 679
f 698 678 699
f 679 680 750
f 739 679 750
f 680 750 681
f 739 740 681
f 739 750 681
f 682 683 702
f 682 683 703
f 682 702 703
f 683 684 703
f 683 702 703
f 684 685 704
f 684 703 704
f 685 686 706
f 685 705 706
f 686 687 706
f 690 751 691
f 745 690 751
f 691 752 692
f 751 691 752
f 746 752 692
f 705 706 711
f 705 753 706
f 705 710 711
f 705 753 711
f 753 706 711
f 707 754 708
f 707 713 755
f 707 754 755
f 708 714 756
f 754 708 756
f 709 710 716
f 709 715 716
f 710 711 717
f 710 716 717
f 713 718 757
f 713 755 757
f 714 756 719
f 718 757 719
f 757 756 719
f 720 721 722
f 726 727 733
f 726 732 733
f 728 734 729
f 734 729 735
f 730 739 740
f 734 735 745
f 735 745 746
f 736 737 747
f 737 738 748
f 737 747 748
f 738 748 749
f 745 751 746
f 751 746 752
f 754 755 756
f 755 757 756

