# https://github.com/mikedh/trimesh
v -0.25000000 -0.75000000 -0.25000000
v -0.25000000 -0.25000000 -0.25000000
v -0.25000000 0.25000000 -0.25000000
v -0.25000000 0.75000000 -0.25000000
v 0.25000000 -0.75000000 -0.25000000
v 0.25000000 -0.25000000 -0.25000000
v 0.25000000 0.25000000 -0.25000000
v 0.25000000 0.75000000 -0.25000000
v -0.25000000 -0.75000000 0.25000000
v -0.25000000 -0.25000000 0.25000000
v -0.25000000 0.25000000 0.25000000
v -0.25000000 0.75000000 0.25000000
v 0.25000000 -0.75000000 0.25000000
v 0.25000000 -0.25000000 0.25000000
v 0.25000000 0.25000000 0.25000000
v 0.25000000 0.75000000 0.25000000
f 1 2 5
f 1 2 10
f 1 5 14
f 1 9 10
f 1 9 14
f 1 10 14
f 2 3 6
f 2 3 10
f 2 3 11
f 2 5 6
f 2 10 11
f 3 4 8
f 3 4 12
f 3 6 7
f 3 6 15
f 3 7 8
f 3 7 11
f 3 7 15
f 3 8 12
f 3 10 11
f 3 11 12
f 3 11 15
f 3 12 15
f 4 8 12
f 5 6 13
f 5 6 14
f 5 13 14
f 6 7 14
f 6 7 15
f 6 13 14
f 6 14 15
f 7 8 16
f 7 11 14
f 7 11 15
f 7 14 15
f 7 15 16
f 8 12 16
f 9 10 13
f 9 10 14
f 9 13 14
f 10 11 14
f 10 13 14
f 11 12 15
f 11 14 15
f 12 15 16

