# https://github.com/mikedh/trimesh
v -0.37500000 -0.87500000 -0.12500000
v -0.37500000 -0.12500000 -0.12500000
v -0.12500000 -0.87500000 -0.12500000
v -0.12500000 -0.62500000 -0.12500000
v -0.12500000 -0.37500000 -0.12500000
v -0.12500000 -0.12500000 -0.12500000
v -0.12500000 0.12500000 -0.12500000
v -0.12500000 0.37500000 -0.12500000
v -0.12500000 0.62500000 -0.12500000
v -0.12500000 0.87500000 -0.12500000
v 0.12500000 -0.87500000 -0.12500000
v 0.12500000 -0.62500000 -0.12500000
v 0.12500000 -0.37500000 -0.12500000
v 0.12500000 -0.12500000 -0.12500000
v 0.12500000 0.12500000 -0.12500000
v 0.12500000 0.37500000 -0.12500000
v 0.12500000 0.62500000 -0.12500000
v 0.12500000 0.87500000 -0.12500000
v 0.37500000 -0.87500000 -0.12500000
v 0.37500000 -0.12500000 -0.12500000
v -0.37500000 -0.87500000 0.12500000
v -0.37500000 -0.62500000 0.12500000
v -0.37500000 -0.37500000 0.12500000
v -0.37500000 -0.12500000 0.12500000
v -0.12500000 -0.87500000 0.12500000
v -0.12500000 -0.62500000 0.12500000
v -0.12500000 -0.37500000 0.12500000
v -0.12500000 -0.12500000 0.12500000
v -0.12500000 0.12500000 0.12500000
v -0.12500000 0.37500000 0.12500000
v -0.12500000 0.62500000 0.12500000
v -0.12500000 0.87500000 0.12500000
v 0.12500000 -0.87500000 0.12500000
v 0.12500000 -0.62500000 0.12500000
v 0.12500000 -0.37500000 0.12500000
v 0.12500000 -0.12500000 0.12500000
v 0.12500000 0.12500000 0.12500000
v 0.12500000 0.37500000 0.12500000
v 0.12500000 0.62500000 0.12500000
v 0.12500000 0.87500000 0.12500000
v 0.37500000 -0.87500000 0.12500000
v 0.37500000 -0.62500000 0.12500000
v 0.37500000 -0.37500000 0.12500000
v 0.37500000 -0.12500000 0.12500000
f 1 3 21
f 1 3 25
f 1 21 25
f 2 6 7
f 2 6 24
f 2 6 28
f 2 7 28
f 2 7 29
f 2 24 28
f 2 24 29
f 2 28 29
f 3 4 25
f 3 4 26
f 3 21 25
f 3 25 26
f 4 5 12
f 4 5 27
f 4 12 35
f 4 25 26
f 4 26 27
f 4 26 35
f 4 27 35
f 5 6 14
f 5 6 28
f 5 12 13
f 5 13 14
f 5 27 28
f 6 7 14
f 6 7 28
f 6 24 28
f 7 8 16
f 7 8 30
f 7 14 15
f 7 15 16
f 7 16 30
f 7 28 29
f 7 29 30
f 8 9 17
f 8 9 31
f 8 16 17
f 8 16 30
f 8 16 38
f 8 30 31
f 8 30 38
f 8 31 38
f 9 10 17
f 9 10 32
f 9 31 32
f 10 17 18
f 10 18 32
f 11 12 33
f 11 12 34
f 11 19 33
f 11 19 41
f 11 33 34
f 11 33 41
f 12 13 34
f 12 13 35
f 12 33 34
f 12 34 35
f 13 14 36
f 13 34 35
f 13 35 36
f 14 20 15
f 14 15 36
f 14 15 37
f 14 20 36
f 14 20 44
f 14 36 37
f 14 36 44
f 14 44 37
f 15 16 38
f 20 15 36
f 15 36 37
f 15 37 38
f 16 17 39
f 16 30 38
f 16 38 39
f 17 18 40
f 17 39 40
f 18 32 40
f 19 33 41
f 20 36 44
f 22 26 23
f 22 23 27
f 22 26 27
f 23 27 24
f 26 23 27
f 27 24 28
f 24 28 29
f 26 27 34
f 26 27 35
f 26 34 35
f 27 28 36
f 27 34 35
f 27 35 36
f 28 29 36
f 29 30 38
f 29 36 37
f 29 37 38
f 30 31 38
f 31 32 39
f 31 32 40
f 31 38 39
f 31 39 40
f 32 39 40
f 34 42 35
f 34 35 43
f 34 42 43
f 35 43 36
f 42 35 43
f 36 44 37
f 43 36 44

