# https://github.com/mikedh/trimesh
v -0.01888021 -0.03841146 -0.96940106
v -0.01627604 -0.03841146 -0.97200519
v 0.21289062 -0.02539062 0.90039062
v -0.05273438 -0.04492188 0.97460938
v -0.03710938 -0.03320312 0.86914062
v -0.03710938 -0.03710938 0.95898438
v 0.22851562 -0.01757812 0.89257812
v 0.22851562 -0.02539062 0.89257812
v 0.22460938 -0.02539062 0.97460938
v 0.21289062 -0.03320312 0.89257812
v 0.21289062 -0.02539062 0.90820312
v 0.22851562 -0.02539062 0.75195312
v 0.22851562 -0.00976562 0.75195312
v 0.15820312 -0.03320312 0.75195312
v -0.48632812 -0.08398438 0.52148438
v -0.48632812 -0.03710938 0.52929688
v -0.46679688 -0.03710938 0.51367188
v -0.51757812 0.04882812 0.48242188
v -0.52929688 0.04882812 0.48242188
v -0.51757812 0.02929688 0.50585938
v -0.44335938 -0.03710938 0.49023438
v -0.42382812 -0.03320312 0.46679688
v -0.52929688 0.05273438 0.47460938
v -0.43554688 -0.00195312 0.42382812
v 0.13085938 0.01757812 0.38085938
v -0.36523438 -0.07226562 0.31835938
v -0.38476562 -0.11523438 0.31835938
v -0.38476562 -0.07617188 0.31835938
v 0.04492188 0.04101562 0.29101562
v 0.04492188 0.02929688 0.29101562
v 0.04492188 0.01367188 0.29101562
v 0.08007812 0.01367188 0.26757812
v -0.63476562 -0.06445312 0.24414062
v -0.63867188 -0.02539062 0.25195312
v -0.43554688 0.13476562 -0.04492188
v -0.36523438 0.13476562 -0.06835938
v -0.46679688 0.05273438 -0.25976562
v 0.13085938 0.01757812 -0.25195312
v 0.13085938 0.04101562 -0.25195312
v 0.09570312 0.02929688 -0.28320312
v 0.08007812 0.04882812 -0.26757812
v -0.45507812 0.02929688 -0.24414062
v -0.39648438 -0.03320312 -0.32617188
v -0.43554688 0.00195312 -0.33398438
v -0.38476562 -0.06445312 -0.34179688
v -0.45507812 -0.00976562 -0.36523438
v -0.45507812 -0.03320312 -0.40039062
v -0.69726562 -0.10742188 -0.40039062
v -0.69726562 -0.04492188 -0.43164062
v -0.69726562 -0.01757812 -0.43945312
v -0.69726562 -0.08789062 -0.42382812
v -0.65429688 -0.07226562 -0.45507812
v -0.50585938 -0.00976562 -0.47460938
v -0.53710938 -0.01757812 -0.45507812
v -0.49414062 -0.00195312 -0.49023438
v 0.21289062 -0.02539062 -0.75195312
v 0.22460938 -0.02539062 -0.97460938
v 0.21289062 -0.03320312 -0.89257812
v 0.21289062 -0.02539062 -0.90820312
v 0.22851562 -0.02539062 -0.89257812
v 0.21289062 -0.03320312 -0.97460938
v -0.04492188 -0.03710938 -0.95898438
v -0.03710938 -0.03710938 -0.96679688
v -0.02539062 -0.04492188 -0.98242188
v -0.04492188 -0.05273438 -0.95898438
v -0.05273438 -0.04492188 -0.96679688
v 0.03320312 -0.03320312 -0.99804688
v 0.03320312 -0.02539062 -0.99023438
v -0.05273438 -0.04492188 -0.97460938
v 0.22460938 -0.01757812 -0.97460938
v 0.22851562 -0.01757812 -0.88476562
v 0.22851562 -0.02539062 -0.75195312
v -0.51757812 -0.03320312 -0.49804688
v -0.51757812 0.05273438 -0.49023438
v -0.53710938 0.01757812 -0.46679688
v -0.41210938 -0.09570312 -0.43945312
v -0.43554688 -0.08789062 -0.48242188
v -0.43554688 -0.07226562 -0.40039062
v -0.66992188 -0.09570312 -0.43164062
v -0.70898438 -0.01757812 -0.40039062
v -0.68554688 -0.09570312 -0.40820312
v -0.45507812 -0.03320312 -0.37304688
v -0.41210938 -0.07226562 -0.36523438
v -0.43554688 -0.03710938 -0.34960938
v -0.43554688 0.00195312 -0.34960938
v -0.41210938 -0.00195312 -0.31835938
v -0.43554688 0.02929688 -0.27539062
v -0.41210938 0.06054688 -0.29882812
v -0.43554688 0.00195312 -0.25976562
v 0.08007812 0.02929688 -0.26757812
v 0.04492188 0.02929688 -0.29101562
v 0.14257812 0.02929688 -0.27539062
v -0.51757812 0.04882812 -0.23632812
v -0.46679688 0.04882812 -0.25195312
v -0.39648438 0.15820312 -0.04492188
v -0.43554688 0.11523438 -0.06054688
v 0.72460938 -0.05664062 -0.03710938
v 0.72460938 -0.07226562 -0.03710938
v 0.71679688 -0.07617188 -0.03710938
v 0.72460938 -0.07226562 0.00585938
v -0.53710938 -0.07226562 0.06835938
v -0.66992188 -0.07617188 0.26757812
v 0.08007812 0.01757812 0.26757812
v 0.08007812 0.04101562 0.26757812
v 0.04492188 0.02929688 0.29882812
v -0.39648438 -0.04492188 0.29101562
v -0.39648438 -0.08398438 0.28320312
v -0.39648438 -0.04492188 0.32617188
v -0.43554688 0.01367188 0.40039062
v -0.43554688 0.00976562 0.37304688
v 0.08007812 0.02929688 0.39257812
v 0.13085938 0.03320312 0.38085938
v 0.08007812 0.03320312 0.39257812
v -0.42382812 -0.00195312 0.40039062
v -0.45507812 0.00195312 0.42382812
v -0.45507812 -0.02539062 0.43945312
v -0.43554688 -0.03320312 0.43164062
v -0.43554688 -0.06445312 0.45507812
v -0.42382812 -0.07617188 0.49023438
v -0.49414062 0.05273438 0.47460938
v -0.45507812 -0.08398438 0.51367188
v -0.50585938 -0.03710938 0.52148438
v -0.48632812 -0.03710938 0.52148438
v 0.21289062 -0.02539062 0.75195312
v 0.22851562 -0.01757812 0.75195312
v 0.22851562 -0.01757812 0.88476562
v -0.04492188 -0.05273438 0.95898438
v -0.05273438 -0.04492188 0.96679688
v -0.04492188 -0.04492188 0.96679688
v -0.02539062 -0.03710938 0.97460938
v 0.21289062 -0.03320312 0.97460938
v 0.09570312 -0.03320312 0.75195312
v -0.63867188 -0.01757812 0.25976562
v -0.62695312 -0.07226562 0.23632812
v -0.53710938 -0.10742188 0.06835938
v -0.57226562 -0.09960938 0.05273438
v 0.71679688 -0.07226562 0.00585938
v 0.69726562 -0.04492188 -0.03710938
v 0.69726562 -0.04492188 -0.06054688
v -0.36523438 -0.07617188 -0.32617188
v -0.46679688 -0.00195312 -0.39257812
v -0.66210938 -0.11523438 -0.43945312
v 0.22851562 -0.01757812 -0.89257812
v 0.09570312 -0.03320312 -0.99804688
v 0.10742188 -0.03320312 -0.99804688
v 0.10742188 -0.02539062 -0.99804688
v 0.15820312 -0.03320312 -0.99804688
v 0.15820312 -0.02539062 -0.99804688
v 0.03320312 -0.04492188 -0.99023438
v 0.10742188 -0.02539062 -0.99023438
v 0.15820312 -0.01757812 -0.99023438
v 0.16992188 -0.03320312 -0.99023438
v 0.19726562 -0.03320312 -0.99023438
v 0.19726562 -0.02539062 -0.99023438
v 0.19726562 -0.01757812 -0.99023438
v 0.03320312 -0.04492188 -0.98242188
v 0.10742188 -0.03710938 -0.98242188
v 0.03320312 -0.02539062 -0.97460938
v 0.10742188 -0.01757812 -0.97460938
v 0.16992188 -0.01757812 -0.97460938
v 0.18164062 -0.03320312 -0.97460938
v 0.20898438 -0.01757812 -0.97460938
v 0.01757812 -0.04492188 -0.93554688
v 0.10742188 -0.03710938 -0.93554688
v 0.03320312 -0.01757812 -0.88476562
v 0.10742188 -0.01757812 -0.88476562
v 0.16992188 -0.01757812 -0.88476562
v 0.20898438 -0.01757812 -0.88476562
v -0.03710938 -0.03320312 -0.86914062
v -0.01757812 -0.04492188 -0.86914062
v -0.01757812 -0.02539062 -0.86914062
v 0.13085938 -0.03710938 -0.86914062
v 0.03320312 -0.03320312 -0.75195312
v 0.04492188 -0.00195312 -0.75195312
v 0.09570312 -0.03320312 -0.75195312
v 0.10742188 -0.00195312 -0.75195312
v 0.15820312 -0.03320312 -0.75195312
v 0.15820312 -0.00195312 -0.75195312
v 0.16992188 -0.00195312 -0.75195312
v 0.20898438 -0.00195312 -0.75195312
v 0.22851562 -0.01757812 -0.75195312
v 0.22851562 -0.00976562 -0.75195312
v -0.03710938 -0.02539062 -0.74414062
v -0.02539062 -0.01757812 -0.74414062
v -0.02539062 -0.00976562 -0.74414062
v -0.01757812 -0.02539062 -0.74414062
v -0.00585938 -0.00195312 -0.74414062
v -0.03710938 -0.02539062 -0.62304688
v -0.03710938 -0.00976562 -0.62304688
v -0.03710938 0.00195312 -0.62304688
v -0.02539062 0.00195312 -0.62304688
v -0.02539062 0.00976562 -0.62304688
v -0.01757812 -0.02539062 -0.62304688
v -0.00585938 0.00976562 -0.62304688
v 0.03320312 -0.03320312 -0.62304688
v 0.04492188 0.01757812 -0.62304688
v 0.09570312 -0.03710938 -0.62304688
v 0.10742188 0.01757812 -0.62304688
v 0.14257812 0.01757812 -0.62304688
v 0.15820312 -0.03320312 -0.62304688
v 0.16992188 0.01757812 -0.62304688
v 0.20898438 -0.01757812 -0.62304688
v 0.20898438 0.00976562 -0.62304688
v 0.22851562 -0.00976562 -0.62304688
v 0.22851562 -0.00195312 -0.62304688
v 0.22851562 0.00195312 -0.62304688
v -0.50585938 -0.08789062 -0.51367188
v -0.50585938 -0.03710938 -0.51367188
v -0.48632812 -0.08398438 -0.51367188
v -0.48632812 -0.03320312 -0.51367188
v -0.46679688 -0.08398438 -0.51367188
v -0.49023438 0.00195312 -0.50585938
v -0.45507812 -0.06445312 -0.50585938
v -0.45507812 -0.03320312 -0.50585938
v -0.51757812 -0.07226562 -0.49804688
v -0.51757812 0.00195312 -0.49804688
v -0.50585938 -0.10742188 -0.49804688
v -0.48632812 -0.06445312 -0.49804688
v -0.46679688 -0.10742188 -0.49804688
v -0.46679688 -0.07617188 -0.49804688
v -0.45507812 0.00195312 -0.49804688
v -0.04492188 0.00976562 -0.49804688
v -0.03710938 -0.01757812 -0.49804688
v -0.03710938 -0.00976562 -0.49804688
v -0.03710938 0.01757812 -0.49804688
v -0.02539062 0.01757812 -0.49804688
v -0.01757812 -0.01757812 -0.49804688
v -0.00585938 0.02929688 -0.49804688
v 0.03320312 -0.03320312 -0.49804688
v 0.04492188 0.02929688 -0.49804688
v 0.09570312 -0.03710938 -0.49804688
v 0.09570312 0.02929688 -0.49804688
v 0.13085938 0.02929688 -0.49804688
v 0.15820312 -0.03320312 -0.49804688
v 0.16992188 0.01757812 -0.49804688
v 0.20898438 -0.01757812 -0.49804688
v 0.20898438 0.01367188 -0.49804688
v 0.22851562 -0.00195312 -0.49804688
v 0.22851562 0.00195312 -0.49804688
v 0.22851562 0.00976562 -0.49804688
v -0.52929688 0.06054688 -0.49023438
v -0.48632812 0.04882812 -0.49023438
v -0.43554688 -0.06445312 -0.49023438
v -0.43554688 -0.03320312 -0.49023438
v -0.61523438 0.00976562 -0.48242188
v -0.60742188 -0.01757812 -0.48242188
v -0.59570312 -0.10742188 -0.48242188
v -0.57617188 0.05273438 -0.48242188
v -0.55273438 -0.10742188 -0.48242188
v -0.51757812 0.02929688 -0.48242188
v -0.45507812 0.04101562 -0.48242188
v -0.43554688 0.00195312 -0.48242188
v -0.63476562 -0.09570312 -0.47460938
v -0.63476562 -0.00976562 -0.47460938
v -0.62695312 0.02929688 -0.47460938
v -0.57617188 -0.00976562 -0.47460938
v -0.66210938 0.01367188 -0.46679688
v -0.57617188 -0.14257812 -0.46679688
v -0.57617188 0.01757812 -0.46679688
v -0.51757812 -0.14257812 -0.46679688
v -0.43554688 0.03320312 -0.46679688
v -0.68554688 0.00195312 -0.45507812
v -0.62695312 -0.12695312 -0.45507812
v -0.51757812 0.09179688 -0.45507812
v -0.47851562 0.08398438 -0.45507812
v -0.46679688 -0.13476562 -0.45507812
v -0.44335938 0.07226562 -0.45507812
v -0.42382812 -0.06445312 -0.45507812
v -0.69726562 -0.05273438 -0.44726562
v -0.67382812 -0.02539062 -0.44726562
v -0.63476562 -0.03710938 -0.44726562
v -0.60351562 -0.07617188 -0.44726562
v -0.59570312 -0.04492188 -0.44726562
v -0.57617188 0.08398438 -0.44726562
v -0.57226562 -0.08398438 -0.44726562
v -0.42382812 -0.11523438 -0.44726562
v -0.42382812 -0.03320312 -0.44726562
v -0.42382812 0.00195312 -0.44726562
v -0.70898438 -0.03320312 -0.43945312
v -0.63476562 0.06054688 -0.43945312
v -0.43554688 -0.08398438 -0.43945312
v -0.43554688 0.02929688 -0.43945312
v -0.43554688 0.05273438 -0.43945312
v -0.68554688 0.03320312 -0.43164062
v -0.44335938 0.01367188 -0.43164062
v -0.43554688 -0.00195312 -0.42382812
v -0.70898438 0.00195312 -0.41601562
v -0.58398438 -0.16992188 -0.41601562
v -0.51757812 -0.16992188 -0.41601562
v -0.46679688 0.10351562 -0.41601562
v -0.45507812 -0.15429688 -0.41601562
v -0.45507812 -0.00976562 -0.41601562
v -0.43554688 -0.03710938 -0.41601562
v -0.43554688 0.09179688 -0.41601562
v -0.69726562 -0.07617188 -0.40820312
v -0.63476562 -0.15429688 -0.40820312
v -0.57617188 0.09960938 -0.40820312
v -0.51757812 0.10351562 -0.40820312
v -0.46679688 0.01367188 -0.40820312
v -0.45507812 0.02929688 -0.40820312
v -0.43554688 0.03320312 -0.40820312
v -0.43554688 0.06054688 -0.40820312
v -0.41210938 -0.12695312 -0.40820312
v -0.39648438 -0.08398438 -0.40820312
v -0.68554688 -0.13476562 -0.40039062
v -0.68554688 -0.02539062 -0.40039062
v -0.63476562 0.08007812 -0.40039062
v -0.39648438 -0.09570312 -0.40039062
v -0.05273438 -0.00976562 -0.40039062
v -0.05273438 0.01367188 -0.40039062
v -0.05273438 0.03320312 -0.40039062
v -0.04492188 -0.01757812 -0.40039062
v -0.04492188 0.03320312 -0.40039062
v -0.02539062 -0.01757812 -0.40039062
v -0.01757812 0.04101562 -0.40039062
v 0.03320312 -0.02539062 -0.40039062
v 0.03320312 0.04101562 -0.40039062
v 0.09570312 -0.03320312 -0.40039062
v 0.15820312 -0.02539062 -0.40039062
v 0.20898438 -0.00195312 -0.40039062
v 0.20898438 0.02929688 -0.40039062
v 0.22851562 0.00195312 -0.40039062
v 0.22851562 0.00976562 -0.40039062
v 0.22851562 0.01757812 -0.40039062
v -0.68554688 -0.04492188 -0.39257812
v -0.68554688 0.04882812 -0.39257812
v 0.08007812 0.02929688 -0.39257812
v 0.08007812 0.04101562 -0.39257812
v 0.09179688 0.01367188 -0.39257812
v 0.16992188 0.03320312 -0.39257812
v -0.68554688 -0.06445312 -0.38085938
v -0.45507812 0.01367188 -0.38085938
v -0.43554688 -0.05273438 -0.38085938
v -0.43554688 0.01757812 -0.38085938
v -0.43554688 0.03320312 -0.38085938
v 0.12304688 0.01367188 -0.38085938
v 0.13085938 0.02929688 -0.38085938
v 0.13085938 0.04101562 -0.38085938
v -0.70898438 0.01757812 -0.37304688
v -0.67382812 -0.08398438 -0.37304688
v -0.42382812 0.06054688 -0.37304688
v -0.42382812 0.09179688 -0.37304688
v -0.39648438 -0.09960938 -0.37304688
v 0.09179688 0.01367188 -0.37304688
v -0.70898438 -0.00976562 -0.36523438
v -0.68554688 -0.02539062 -0.36523438
v -0.45507812 -0.16210938 -0.36523438
v -0.45507812 0.00976562 -0.36523438
v -0.45507812 0.10351562 -0.36523438
v -0.43554688 0.01757812 -0.36523438
v -0.41210938 -0.12695312 -0.36523438
v 0.14257812 0.01367188 -0.36523438
v 0.14257812 0.02929688 -0.36523438
v -0.68554688 -0.09960938 -0.35742188
v -0.67382812 -0.13476562 -0.35742188
v -0.63476562 -0.16210938 -0.35742188
v -0.58398438 -0.17773438 -0.35742188
v -0.57617188 0.10351562 -0.35742188
v -0.51757812 -0.17773438 -0.35742188
v -0.51757812 0.11132812 -0.35742188
v 0.11132812 0.00976562 -0.35742188
v -0.66210938 -0.04492188 -0.34960938
v -0.63476562 0.08398438 -0.34960938
v -0.42382812 0.04101562 -0.34960938
v -0.41210938 -0.08789062 -0.34960938
v 0.05273438 0.01367188 -0.34179688
v 0.05273438 0.02929688 -0.34179688
v 0.05273438 0.04101562 -0.34179688
v -0.68554688 -0.00976562 -0.33398438
v -0.68554688 0.04882812 -0.33398438
v -0.41210938 -0.12695312 -0.33398438
v -0.41210938 0.08007812 -0.33398438
v -0.07226562 -0.01757812 -0.33398438
v -0.07226562 0.01757812 -0.33398438
v -0.07226562 0.04101562 -0.33398438
v -0.05273438 -0.00976562 -0.33398438
v -0.05273438 0.04101562 -0.33398438
v -0.02539062 -0.01757812 -0.33398438
v -0.02539062 0.04882812 -0.33398438
v 0.01757812 0.04882812 -0.33398438
v 0.03320312 -0.01757812 -0.33398438
v 0.06835938 0.01367188 -0.33398438
v 0.09570312 -0.01757812 -0.33398438
v 0.15820312 -0.00976562 -0.33398438
v 0.20898438 0.00976562 -0.33398438
v 0.20898438 0.02929688 -0.33398438
v 0.22851562 0.01367188 -0.33398438
v 0.22851562 0.01757812 -0.33398438
v -0.69726562 0.01757812 -0.32617188
v -0.68554688 -0.07617188 -0.32617188
v -0.67382812 -0.12695312 -0.32617188
v -0.42382812 0.02929688 -0.32617188
v 0.08007812 0.00976562 -0.32617188
v 0.13085938 0.00976562 -0.32617188
v 0.15039062 0.01367188 -0.32617188
v 0.15039062 0.02929688 -0.32617188
v 0.16992188 0.03320312 -0.32617188
v -0.45507812 -0.15429688 -0.31835938
v -0.45507812 0.09960938 -0.31835938
v -0.63476562 -0.15429688 -0.31054688
v -0.58398438 -0.16992188 -0.31054688
v -0.51757812 -0.16992188 -0.31054688
v -0.51757812 0.10351562 -0.31054688
v -0.38476562 -0.07226562 -0.31054688
v -0.68554688 -0.01757812 -0.29882812
v -0.67382812 -0.09960938 -0.29882812
v -0.63476562 0.07226562 -0.29882812
v -0.57617188 0.09960938 -0.29882812
v -0.41210938 -0.10742188 -0.29882812
v -0.41210938 0.02929688 -0.29882812
v 0.10742188 0.01367188 -0.29882812
v -0.69726562 0.00976562 -0.29101562
v -0.39648438 -0.03710938 -0.29101562
v 0.03320312 -0.01757812 -0.29101562
v 0.04492188 0.01367188 -0.29101562
v 0.04492188 0.04101562 -0.29101562
v -0.45507812 -0.12695312 -0.28320312
v -0.45507812 0.07226562 -0.28320312
v -0.02539062 -0.00976562 -0.28320312
v 0.08007812 -0.01757812 -0.28320312
v 0.24023438 0.01757812 -0.28320312
v -0.68554688 -0.05273438 -0.27539062
v -0.67382812 0.02929688 -0.27539062
v -0.63476562 -0.12304688 -0.27539062
v -0.42382812 -0.07617188 -0.27539062
v -0.42382812 -0.04492188 -0.27539062
v -0.42382812 -0.00195312 -0.27539062
v -0.09960938 0.01757812 -0.27539062
v -0.09179688 0.05273438 -0.27539062
v -0.04492188 0.05273438 -0.27539062
v 0.01367188 0.05273438 -0.27539062
v 0.14257812 0.01367188 -0.27539062
v 0.21289062 0.02929688 -0.27539062
v -0.67382812 -0.08398438 -0.26757812
v -0.67382812 -0.00195312 -0.26757812
v -0.57617188 -0.14257812 -0.26757812
v -0.51757812 -0.14257812 -0.26757812
v -0.51757812 0.08007812 -0.26757812
v -0.42382812 -0.03710938 -0.26757812
v -0.09179688 -0.00976562 -0.26757812
v -0.08398438 0.05273438 -0.26757812
v 0.09179688 0.01367188 -0.26757812
v 0.15039062 -0.01757812 -0.26757812
v 0.16992188 0.04101562 -0.26757812
v 0.25195312 0.01367188 -0.26757812
v -0.67382812 -0.06445312 -0.25976562
v -0.67382812 -0.03710938 -0.25976562
v -0.62695312 0.06054688 -0.25976562
v -0.57617188 0.07226562 -0.25976562
v 0.03320312 -0.03320312 -0.25976562
v -0.63476562 -0.09960938 -0.25195312
v -0.63476562 0.02929688 -0.25195312
v -0.45507812 -0.10742188 -0.25195312
v 0.08007812 -0.02539062 -0.25195312
v -0.57617188 -0.11523438 -0.24414062
v -0.51757812 -0.12695312 -0.24414062
v -0.03710938 -0.02539062 -0.24414062
v 0.05273438 -0.07617188 -0.24414062
v 0.23242188 -0.00195312 -0.24414062
v -0.63476562 -0.07226562 -0.23632812
v -0.63476562 -0.03710938 -0.23632812
v -0.63476562 -0.00195312 -0.23632812
v -0.57617188 0.04882812 -0.23632812
v -0.39648438 0.01757812 -0.23632812
v -0.38476562 -0.07617188 -0.23632812
v -0.38476562 -0.03710938 -0.23632812
v -0.38476562 -0.00195312 -0.23632812
v 0.14257812 -0.08398438 -0.23632812
v 0.15039062 -0.08789062 -0.23632812
v 0.15039062 -0.02539062 -0.23632812
v 0.25195312 0.02929688 -0.23632812
v 0.05273438 -0.12695312 -0.22460938
v 0.14257812 -0.14257812 -0.22460938
v 0.15039062 -0.14257812 -0.22460938
v -0.57617188 -0.07617188 -0.21679688
v -0.57617188 0.01757812 -0.21679688
v -0.51757812 0.01757812 -0.21679688
v -0.44335938 -0.07617188 -0.21679688
v -0.44335938 0.01757812 -0.21679688
v -0.09179688 0.07226562 -0.21679688
v -0.03710938 -0.05273438 -0.21679688
v 0.04492188 0.06054688 -0.21679688
v 0.15039062 0.05273438 -0.21679688
v 0.23242188 -0.07226562 -0.21679688
v 0.23242188 -0.02539062 -0.21679688
v -0.57617188 -0.03710938 -0.20898438
v -0.57617188 -0.00195312 -0.20898438
v -0.51757812 -0.07617188 -0.20898438
v -0.17382812 0.01757812 -0.20898438
v -0.16601562 0.04101562 -0.20898438
v -0.15820312 0.08398438 -0.20898438
v -0.04492188 -0.09570312 -0.20898438
v -0.04492188 0.06835938 -0.20898438
v 0.23242188 -0.12695312 -0.20898438
v 0.23242188 -0.06445312 -0.20898438
v -0.51757812 -0.03710938 -0.20117188
v -0.51757812 -0.00195312 -0.20117188
v -0.16601562 -0.00195312 -0.20117188
v -0.16601562 0.06054688 -0.20117188
v -0.14648438 0.09179688 -0.20117188
v 0.23242188 0.04101562 -0.20117188
v 0.31835938 -0.05273438 -0.19335938
v 0.33007812 -0.09570312 -0.19335938
v 0.33007812 -0.05664062 -0.19335938
v 0.33007812 -0.03320312 -0.19335938
v 0.33007812 -0.00195312 -0.19335938
v 0.33007812 0.00976562 -0.19335938
v 0.24023438 -0.16992188 -0.18554688
v 0.33007812 -0.12695312 -0.18554688
v -0.16601562 -0.02539062 -0.17773438
v -0.13085938 0.09179688 -0.17773438
v 0.06835938 -0.18945312 -0.17773438
v 0.15039062 -0.19726562 -0.17773438
v 0.19726562 -0.19726562 -0.17773438
v 0.33007812 0.02929688 -0.17773438
v -0.35351562 -0.00195312 -0.16992188
v -0.34179688 -0.07617188 -0.16992188
v -0.34179688 -0.03710938 -0.16992188
v -0.16601562 -0.05664062 -0.16992188
v 0.24023438 -0.17773438 -0.16992188
v 0.33007812 -0.14257812 -0.16992188
v -0.03710938 -0.14257812 -0.16210938
v 0.08007812 -0.19726562 -0.16210938
v 0.43554688 -0.00976562 -0.16210938
v -0.48632812 -0.03710938 -0.15039062
v -0.48632812 -0.00195312 -0.15039062
v -0.47851562 -0.07226562 -0.15039062
v -0.47851562 0.00976562 -0.15039062
v -0.43554688 -0.08789062 -0.15039062
v -0.43554688 0.01367188 -0.15039062
v -0.36523438 -0.10742188 -0.15039062
v -0.36523438 0.01757812 -0.15039062
v -0.27539062 -0.00195312 -0.15039062
v -0.27539062 0.01757812 -0.15039062
v -0.25976562 0.11132812 -0.15039062
v 0.15039062 0.07226562 -0.15039062
v 0.23242188 0.06835938 -0.15039062
v 0.33007812 -0.15039062 -0.15039062
v 0.43554688 -0.05664062 -0.15039062
v 0.43554688 -0.03320312 -0.15039062
v 0.43554688 -0.00195312 -0.15039062
v -0.26757812 0.04101562 -0.14257812
v -0.26757812 0.06054688 -0.14257812
v -0.26757812 0.08007812 -0.14257812
v -0.24804688 0.11523438 -0.14257812
v -0.16601562 -0.11523438 -0.14257812
v -0.09179688 0.09179688 -0.14257812
v 0.04492188 0.08398438 -0.14257812
v 0.15820312 -0.21289062 -0.14257812
v 0.20898438 -0.20507812 -0.14257812
v 0.33007812 0.05273438 -0.14257812
v 0.43554688 -0.13476562 -0.14257812
v 0.43554688 -0.09960938 -0.14257812
v 0.43554688 0.01757812 -0.14257812
v -0.27539062 -0.05664062 -0.13476562
v -0.27539062 -0.01757812 -0.13476562
v -0.03710938 -0.16992188 -0.13476562
v 0.08007812 -0.20507812 -0.13476562
v 0.25195312 -0.17773438 -0.13476562
v 0.53320312 -0.02539062 -0.13476562
v -0.27539062 -0.10742188 -0.12695312
v 0.43554688 -0.15820312 -0.12695312
v 0.53320312 -0.04492188 -0.12695312
v 0.53320312 -0.01757812 -0.12695312
v -0.43554688 0.02929688 -0.11914062
v -0.36523438 0.03320312 -0.11914062
v -0.36523438 0.06054688 -0.11914062
v -0.36523438 0.08007812 -0.11914062
v -0.36523438 0.11132812 -0.11914062
v -0.24023438 0.12304688 -0.11914062
v -0.16601562 -0.15039062 -0.11914062
v -0.03710938 -0.17773438 -0.11914062
v 0.33007812 -0.15039062 -0.11914062
v 0.43554688 0.03320312 -0.11914062
v 0.53320312 -0.06445312 -0.11914062
v 0.53320312 -0.00195312 -0.11914062
v -0.50585938 -0.03710938 -0.11132812
v -0.49414062 -0.00195312 -0.11132812
v -0.47851562 0.01367188 -0.11132812
v -0.43554688 0.04882812 -0.11132812
v -0.43554688 0.06054688 -0.11132812
v -0.09179688 0.11523438 -0.11132812
v 0.04492188 0.11132812 -0.11132812
v 0.15039062 0.08398438 -0.11132812
v 0.43554688 -0.16992188 -0.11132812
v 0.53320312 -0.09960938 -0.11132812
v 0.53320312 -0.06445312 -0.11132812
v -0.48632812 -0.08398438 -0.10351562
v -0.47851562 0.02929688 -0.10351562
v -0.47851562 0.06054688 -0.10351562
v -0.43554688 -0.11523438 -0.10351562
v -0.43554688 0.09179688 -0.10351562
v -0.36523438 -0.12695312 -0.10351562
v -0.36523438 0.12304688 -0.10351562
v -0.27539062 -0.15429688 -0.10351562
v -0.24023438 0.12304688 -0.10351562
v 0.04492188 0.14257812 -0.10351562
v 0.23242188 0.07226562 -0.10351562
v 0.33007812 0.07226562 -0.10351562
v 0.53320312 -0.13476562 -0.10351562
v 0.53320312 0.00976562 -0.10351562
v 0.63476562 -0.04492188 -0.10351562
v -0.51757812 -0.00195312 -0.09570312
v -0.50585938 0.02929688 -0.09570312
v -0.16601562 -0.16210938 -0.09570312
v -0.09179688 0.14648438 -0.09570312
v 0.08007812 -0.18945312 -0.09570312
v 0.15039062 0.10351562 -0.09570312
v 0.15820312 -0.20507812 -0.09570312
v 0.20898438 -0.18945312 -0.09570312
v 0.25195312 -0.15820312 -0.09570312
v 0.63476562 -0.05273438 -0.09570312
v 0.63476562 -0.03320312 -0.09570312
v -0.53710938 -0.07617188 -0.08789062
v -0.53710938 -0.03710938 -0.08789062
v -0.48632812 -0.11523438 -0.08789062
v -0.43554688 -0.13476562 -0.08789062
v -0.43554688 0.10351562 -0.08789062
v -0.36523438 -0.16210938 -0.08789062
v -0.27539062 -0.17773438 -0.08789062
v -0.24023438 0.15039062 -0.08789062
v -0.03710938 -0.16992188 -0.08789062
v 0.04492188 0.17382812 -0.08789062
v 0.21289062 0.08398438 -0.08789062
v 0.33007812 -0.14257812 -0.08789062
v 0.43554688 0.05273438 -0.08789062
v 0.53320312 -0.16210938 -0.08789062
v 0.63476562 -0.06445312 -0.08789062
v 0.63476562 -0.02539062 -0.08789062
v -0.53710938 0.00195312 -0.08007812
v -0.50585938 0.04101562 -0.08007812
v -0.47851562 0.07226562 -0.08007812
v -0.24023438 0.18164062 -0.08007812
v -0.09179688 0.18164062 -0.08007812
v 0.15820312 0.12304688 -0.08007812
v 0.43554688 -0.16210938 -0.08007812
v 0.53320312 0.01757812 -0.08007812
v 0.63476562 -0.10742188 -0.08007812
v 0.63476562 -0.07226562 -0.08007812
v -0.53710938 -0.10742188 -0.06835938
v -0.48632812 -0.14257812 -0.06835938
v -0.43554688 -0.17773438 -0.06835938
v -0.36523438 -0.17773438 -0.06835938
v -0.24023438 0.20117188 -0.06835938
v -0.16601562 -0.16210938 -0.06835938
v -0.09179688 0.20507812 -0.06835938
v 0.04492188 0.19335938 -0.06835938
v 0.20898438 0.09179688 -0.06835938
v 0.53320312 -0.17773438 -0.06835938
v 0.61523438 -0.12695312 -0.06835938
v 0.63476562 -0.00976562 -0.06835938
v 0.69726562 -0.07226562 -0.06835938
v 0.69726562 -0.06445312 -0.06835938
v 0.69726562 -0.05273438 -0.06835938
v -0.56445312 -0.03710938 -0.06054688
v -0.53710938 -0.12695312 -0.06054688
v -0.48632812 -0.16992188 -0.06054688
v -0.40429688 0.17382812 -0.06054688
v -0.40429688 0.18554688 -0.06054688
v -0.36523438 0.17382812 -0.06054688
v -0.36523438 0.19335938 -0.06054688
v -0.27539062 -0.18945312 -0.06054688
v 0.15820312 0.14257812 -0.06054688
v -0.57226562 -0.09570312 -0.05273438
v -0.55273438 0.01757812 -0.05273438
v -0.53710938 -0.13476562 -0.05273438
v -0.51757812 0.05273438 -0.05273438
v -0.47851562 0.08398438 -0.05273438
v -0.43554688 -0.18945312 -0.05273438
v -0.40429688 0.18164062 -0.05273438
v -0.36523438 -0.19726562 -0.05273438
v 0.33007812 0.07226562 -0.05273438
v 0.53320312 -0.18945312 -0.05273438
v 0.59570312 -0.18945312 -0.05273438
v 0.59570312 -0.16210938 -0.05273438
v 0.69726562 -0.07617188 -0.05273438
v 0.69726562 -0.04492188 -0.05273438
v -0.59570312 -0.03710938 -0.04492188
v -0.58398438 -0.09570312 -0.04492188
v -0.58398438 0.00195312 -0.04492188
v -0.57226562 -0.12304688 -0.04492188
v -0.57226562 0.02929688 -0.04492188
v -0.53710938 -0.15039062 -0.04492188
v -0.53710938 0.07226562 -0.04492188
v -0.48632812 -0.17773438 -0.04492188
v -0.48632812 0.10351562 -0.04492188
v -0.39648438 0.18554688 -0.04492188
v -0.39648438 0.20117188 -0.04492188
v -0.36523438 0.21289062 -0.04492188
v -0.27539062 -0.18945312 -0.04492188
v -0.24023438 0.20507812 -0.04492188
v -0.09179688 0.21289062 -0.04492188
v -0.03710938 -0.16992188 -0.04492188
v 0.04492188 0.20117188 -0.04492188
v 0.08007812 -0.18945312 -0.04492188
v 0.15820312 -0.20507812 -0.04492188
v 0.15820312 0.15039062 -0.04492188
v 0.20898438 -0.17773438 -0.04492188
v 0.22851562 0.10351562 -0.04492188
v 0.25195312 -0.14257812 -0.04492188
v 0.25195312 0.08398438 -0.04492188
v 0.33007812 -0.13476562 -0.04492188
v 0.43554688 0.05273438 -0.04492188
v 0.53320312 0.02929688 -0.04492188
v 0.59570312 -0.19726562 -0.04492188
v 0.63476562 -0.17773438 -0.04492188
v 0.66210938 -0.13476562 -0.04492188
v 0.67773438 -0.09960938 -0.04492188
v -0.57226562 -0.12695312 -0.03710938
v -0.53710938 -0.16210938 -0.03710938
v -0.48632812 -0.18945312 -0.03710938
v -0.43554688 -0.18945312 -0.03710938
v -0.36523438 -0.19726562 -0.03710938
v -0.16601562 -0.16992188 -0.03710938
v 0.43554688 -0.16210938 -0.03710938
v 0.63476562 -0.00976562 -0.03710938
v 0.72460938 -0.06445312 -0.03710938
v -0.61523438 -0.07617188 -0.02929688
v -0.61523438 -0.03710938 -0.02929688
v -0.59570312 -0.10742188 -0.02929688
v -0.59570312 0.00195312 -0.02929688
v -0.58398438 0.04101562 -0.02929688
v -0.53710938 0.08007812 -0.02929688
v -0.48632812 0.11132812 -0.02929688
v -0.43554688 0.14257812 -0.02929688
v -0.39648438 0.19335938 -0.02929688
v -0.37695312 0.20507812 -0.02929688
v -0.36523438 0.21289062 -0.02929688
v -0.27539062 -0.18945312 -0.02929688
v -0.24023438 0.21289062 -0.02929688
v -0.09179688 0.21289062 -0.02929688
v 0.04492188 0.20117188 -0.02929688
v 0.15820312 0.15429688 -0.02929688
v 0.53320312 -0.18945312 -0.02929688
v 0.59570312 -0.19726562 -0.02929688
v 0.63476562 -0.18945312 -0.02929688
v 0.66210938 -0.13476562 -0.02929688
v 0.67773438 -0.09960938 -0.02929688
v 0.69726562 -0.07617188 -0.02929688
v -0.58398438 -0.13476562 -0.02148438
v -0.53710938 -0.16992188 -0.02148438
v -0.48632812 -0.18945312 -0.02148438
v -0.43554688 -0.18945312 -0.02148438
v -0.36523438 -0.19726562 -0.02148438
v -0.61523438 -0.07617188 0.00585938
v -0.61523438 -0.03710938 0.00585938
v -0.59570312 -0.10742188 0.00585938
v -0.59570312 0.00195312 0.00585938
v -0.58398438 -0.13476562 0.00585938
v -0.58398438 0.04101562 0.00585938
v -0.53710938 -0.16992188 0.00585938
v -0.53710938 0.08007812 0.00585938
v -0.48632812 -0.18945312 0.00585938
v -0.48632812 0.11523438 0.00585938
v -0.43554688 -0.18945312 0.00585938
v -0.43554688 0.14257812 0.00585938
v -0.39648438 0.19335938 0.00585938
v -0.37695312 0.20507812 0.00585938
v -0.36523438 -0.19726562 0.00585938
v -0.36523438 0.21289062 0.00585938
v -0.27539062 -0.18945312 0.00585938
v -0.24023438 0.21289062 0.00585938
v -0.16601562 -0.16992188 0.00585938
v -0.09179688 0.21289062 0.00585938
v -0.03710938 -0.16992188 0.00585938
v 0.04492188 0.20117188 0.00585938
v 0.08007812 -0.18945312 0.00585938
v 0.15820312 -0.19726562 0.00585938
v 0.15820312 0.15429688 0.00585938
v 0.20898438 -0.17773438 0.00585938
v 0.23242188 0.10351562 0.00585938
v 0.25195312 -0.14257812 0.00585938
v 0.25195312 0.08398438 0.00585938
v 0.33007812 -0.13476562 0.00585938
v 0.33007812 0.07226562 0.00585938
v 0.43554688 -0.16210938 0.00585938
v 0.43554688 0.05273438 0.00585938
v 0.53320312 -0.18945312 0.00585938
v 0.53320312 0.02929688 0.00585938
v 0.59570312 -0.20507812 0.00585938
v 0.63476562 -0.18945312 0.00585938
v 0.63476562 -0.00976562 0.00585938
v 0.66210938 -0.13476562 0.00585938
v 0.66992188 -0.09960938 0.00585938
v 0.69726562 -0.07617188 0.00585938
v 0.69726562 -0.04492188 0.00585938
v 0.72460938 -0.06445312 0.00585938
v 0.72460938 -0.05664062 0.00585938
v -0.61523438 -0.07617188 0.02929688
v -0.61523438 -0.03710938 0.02929688
v -0.59570312 -0.10742188 0.02929688
v -0.59570312 0.00195312 0.02929688
v -0.58398438 -0.13476562 0.02929688
v -0.57617188 0.04101562 0.02929688
v -0.53710938 -0.16992188 0.02929688
v -0.53710938 0.08007812 0.02929688
v -0.48632812 -0.18945312 0.02929688
v -0.48632812 0.11132812 0.02929688
v -0.43554688 -0.18945312 0.02929688
v -0.43554688 0.14257812 0.02929688
v -0.37695312 0.20507812 0.02929688
v -0.36523438 -0.19726562 0.02929688
v -0.36523438 0.21289062 0.02929688
v -0.27539062 -0.18945312 0.02929688
v -0.24023438 0.21289062 0.02929688
v -0.09179688 0.21289062 0.02929688
v 0.04492188 0.20117188 0.02929688
v 0.15820312 0.15429688 0.02929688
v 0.53320312 -0.18945312 0.02929688
v 0.59570312 -0.19726562 0.02929688
v 0.63476562 -0.18945312 0.02929688
v 0.66210938 -0.13476562 0.02929688
v 0.66992188 -0.09960938 0.02929688
v 0.69726562 -0.07617188 0.02929688
v 0.69726562 -0.04492188 0.02929688
v -0.59570312 -0.03710938 0.03710938
v -0.58398438 -0.09960938 0.03710938
v -0.58398438 0.00195312 0.03710938
v -0.57226562 -0.12695312 0.03710938
v -0.57226562 0.02929688 0.03710938
v -0.53710938 -0.16210938 0.03710938
v -0.53710938 0.07226562 0.03710938
v -0.48632812 -0.18945312 0.03710938
v -0.48632812 0.10351562 0.03710938
v -0.43554688 -0.18945312 0.03710938
v -0.43554688 0.13476562 0.03710938
v -0.39648438 0.18554688 0.03710938
v -0.36523438 -0.19726562 0.03710938
v -0.16601562 -0.16992188 0.03710938
v 0.15820312 0.15039062 0.03710938
v 0.43554688 -0.16210938 0.03710938
v 0.53320312 -0.18945312 0.03710938
v 0.59570312 -0.19726562 0.03710938
v 0.63476562 -0.00976562 0.03710938
v 0.71679688 -0.07226562 0.03710938
v 0.71679688 -0.06445312 0.03710938
v 0.72460938 -0.05664062 0.03710938
v -0.57226562 -0.12304688 0.04492188
v -0.53710938 -0.15039062 0.04492188
v -0.48632812 -0.17773438 0.04492188
v -0.40429688 0.16210938 0.04492188
v -0.39648438 0.20117188 0.04492188
v -0.36523438 0.20507812 0.04492188
v -0.27539062 -0.18945312 0.04492188
v -0.24023438 0.21289062 0.04492188
v -0.09179688 0.21289062 0.04492188
v -0.03710938 -0.16992188 0.04492188
v 0.04492188 0.20117188 0.04492188
v 0.22851562 0.10351562 0.04492188
v 0.25195312 0.08398438 0.04492188
v 0.33007812 -0.13476562 0.04492188
v 0.43554688 0.05273438 0.04492188
v 0.53320312 0.02929688 0.04492188
v 0.59570312 -0.18945312 0.04492188
v 0.63476562 -0.17773438 0.04492188
v 0.66210938 -0.13476562 0.04492188
v 0.66992188 -0.09960938 0.04492188
v -0.57226562 -0.03710938 0.05273438
v -0.55273438 0.01757812 0.05273438
v -0.53710938 -0.13476562 0.05273438
v -0.53710938 -0.08789062 0.05273438
v -0.51757812 0.05273438 0.05273438
v -0.48632812 -0.16210938 0.05273438
v -0.47851562 0.08398438 0.05273438
v -0.43554688 -0.18945312 0.05273438
v -0.43554688 0.12304688 0.05273438
v -0.40429688 0.17382812 0.05273438
v -0.40429688 0.18554688 0.05273438
v -0.36523438 -0.19726562 0.05273438
v 0.08007812 -0.18945312 0.05273438
v 0.15820312 -0.20507812 0.05273438
v 0.15820312 0.14648438 0.05273438
v 0.20898438 -0.17773438 0.05273438
v 0.25195312 -0.14257812 0.05273438
v 0.33007812 0.07226562 0.05273438
v 0.53320312 -0.18945312 0.05273438
v 0.59570312 -0.16210938 0.05273438
v 0.69726562 -0.07617188 0.05273438
v -0.53710938 -0.00195312 0.06054688
v -0.43554688 -0.17773438 0.06054688
v -0.40429688 0.18554688 0.06054688
v -0.36523438 -0.18945312 0.06054688
v -0.36523438 0.17382812 0.06054688
v -0.36523438 0.19335938 0.06054688
v -0.27539062 -0.18945312 0.06054688
v 0.04492188 0.19335938 0.06054688
v 0.43554688 -0.16210938 0.06054688
v -0.53710938 -0.03710938 0.06835938
v -0.53710938 0.00195312 0.06835938
v -0.48632812 -0.13476562 0.06835938
v -0.43554688 -0.15429688 0.06835938
v -0.43554688 0.10351562 0.06835938
v -0.36523438 -0.16992188 0.06835938
v -0.36523438 0.13476562 0.06835938
v -0.24023438 0.18164062 0.06835938
v -0.24023438 0.20117188 0.06835938
v -0.16601562 -0.16992188 0.06835938
v -0.09179688 0.18164062 0.06835938
v -0.09179688 0.20117188 0.06835938
v 0.04492188 0.17382812 0.06835938
v 0.15820312 0.12304688 0.06835938
v 0.21289062 0.09179688 0.06835938
v 0.59570312 -0.12695312 0.06835938
v 0.63476562 -0.00976562 0.06835938
v 0.69726562 -0.07226562 0.06835938
v 0.69726562 -0.06445312 0.06835938
v 0.69726562 -0.04492188 0.06835938
v -0.52929688 0.03320312 0.08007812
v -0.48632812 0.07226562 0.08007812
v -0.27539062 -0.16992188 0.08007812
v 0.21289062 0.08398438 0.08007812
v 0.53320312 0.01757812 0.08007812
v 0.63476562 -0.10742188 0.08007812
v 0.63476562 -0.07226562 0.08007812
v 0.69726562 -0.05273438 0.08007812
v -0.53710938 -0.08398438 0.08789062
v -0.53710938 -0.03320312 0.08789062
v -0.48632812 -0.11523438 0.08789062
v -0.43554688 -0.13476562 0.08789062
v -0.43554688 0.08007812 0.08789062
v -0.36523438 -0.14257812 0.08789062
v -0.36523438 0.12304688 0.08789062
v -0.24023438 0.14648438 0.08789062
v -0.09179688 0.15039062 0.08789062
v -0.03710938 -0.16992188 0.08789062
v 0.15039062 0.10351562 0.08789062
v 0.33007812 -0.14257812 0.08789062
v 0.43554688 0.05273438 0.08789062
v 0.53320312 -0.16992188 0.08789062
v 0.63476562 -0.06445312 0.08789062
v 0.63476562 -0.02539062 0.08789062
v -0.51757812 0.00976562 0.09570312
v -0.47851562 0.04101562 0.09570312
v -0.43554688 0.04882812 0.09570312
v -0.36523438 0.08398438 0.09570312
v -0.27539062 -0.14257812 0.09570312
v -0.16601562 -0.16992188 0.09570312
v 0.04492188 0.14257812 0.09570312
v 0.08007812 -0.20507812 0.09570312
v 0.15820312 -0.21289062 0.09570312
v 0.20898438 -0.18945312 0.09570312
v 0.23242188 0.07226562 0.09570312
v 0.25195312 -0.15820312 0.09570312
v 0.43554688 -0.16992188 0.09570312
v 0.63476562 -0.05273438 0.09570312
v 0.63476562 -0.03320312 0.09570312
v -0.47851562 0.02929688 0.10351562
v -0.36523438 0.05273438 0.10351562
v -0.24023438 0.11523438 0.10351562
v -0.16601562 -0.15820312 0.10351562
v -0.09179688 0.12304688 0.10351562
v 0.04492188 0.11132812 0.10351562
v 0.15039062 0.08398438 0.10351562
v 0.33007812 0.07226562 0.10351562
v 0.53320312 -0.13476562 0.10351562
v 0.53320312 0.00976562 0.10351562
v 0.63476562 -0.04492188 0.10351562
v -0.49414062 -0.00195312 0.11132812
v -0.42382812 -0.12304688 0.11132812
v -0.36523438 -0.12695312 0.11132812
v -0.24023438 0.11523438 0.11132812
v 0.53320312 -0.09960938 0.11132812
v 0.53320312 -0.06445312 0.11132812
v -0.51757812 -0.07617188 0.11914062
v -0.51757812 -0.03710938 0.11914062
v -0.48632812 -0.10742188 0.11914062
v -0.47851562 0.00976562 0.11914062
v -0.42382812 0.01757812 0.11914062
v -0.16601562 -0.14257812 0.11914062
v -0.03710938 -0.17773438 0.11914062
v 0.33007812 -0.15039062 0.11914062
v 0.43554688 0.03320312 0.11914062
v 0.53320312 -0.06445312 0.11914062
v 0.53320312 -0.00195312 0.11914062
v -0.36523438 0.02929688 0.12695312
v -0.27539062 -0.11523438 0.12695312
v -0.09179688 0.09179688 0.12695312
v 0.04492188 0.08398438 0.12695312
v 0.08007812 -0.21289062 0.12695312
v 0.15820312 -0.21289062 0.12695312
v 0.20898438 -0.20507812 0.12695312
v 0.25195312 -0.17773438 0.12695312
v 0.43554688 -0.15820312 0.12695312
v 0.53320312 -0.04492188 0.12695312
v 0.53320312 -0.01757812 0.12695312
v -0.27539062 -0.05664062 0.13476562
v -0.27539062 -0.01757812 0.13476562
v -0.27539062 0.04882812 0.13476562
v -0.27539062 0.07226562 0.13476562
v -0.26757812 0.11132812 0.13476562
v -0.24804688 0.11523438 0.13476562
v 0.53320312 -0.02539062 0.13476562
v -0.09179688 0.09179688 0.14257812
v -0.03710938 -0.16210938 0.14257812
v 0.15039062 0.07226562 0.14257812
v 0.25195312 -0.17773438 0.14257812
v 0.33007812 0.05273438 0.14257812
v 0.43554688 0.01757812 0.14257812
v -0.48632812 -0.01757812 0.15039062
v -0.27539062 -0.00195312 0.15039062
v -0.27539062 0.01757812 0.15039062
v -0.16601562 -0.10742188 0.15039062
v 0.06835938 -0.19726562 0.15039062
v 0.20898438 -0.19726562 0.15039062
v 0.23242188 0.06835938 0.15039062
v 0.43554688 -0.13476562 0.15039062
v 0.43554688 -0.09960938 0.15039062
v 0.43554688 -0.05664062 0.15039062
v 0.43554688 -0.03320312 0.15039062
v 0.43554688 -0.00195312 0.15039062
v -0.50585938 -0.03710938 0.16210938
v -0.46679688 -0.00195312 0.16210938
v -0.42382812 -0.00195312 0.16210938
v -0.41210938 -0.11523438 0.16210938
v -0.36523438 -0.11523438 0.16210938
v -0.36523438 -0.00195312 0.16210938
v -0.33007812 -0.07617188 0.16210938
v -0.33007812 -0.03710938 0.16210938
v 0.15820312 -0.19726562 0.16210938
v 0.33007812 -0.15039062 0.16210938
v 0.43554688 -0.00976562 0.16210938
v -0.50585938 -0.07617188 0.16992188
v -0.47851562 -0.09960938 0.16992188
v -0.35351562 -0.00195312 0.16992188
v -0.34179688 -0.07617188 0.16992188
v -0.34179688 -0.03320312 0.16992188
v -0.16601562 -0.05664062 0.16992188
v 0.24023438 -0.16992188 0.16992188
v -0.16601562 -0.01757812 0.17773438
v -0.13085938 0.09179688 0.17773438
v 0.33007812 0.02929688 0.17773438
v 0.33007812 -0.12695312 0.18554688
v -0.15039062 0.09179688 0.19335938
v 0.01757812 0.06054688 0.19335938
v 0.31835938 -0.05273438 0.19335938
v 0.33007812 -0.09570312 0.19335938
v 0.33007812 -0.05664062 0.19335938
v 0.33007812 -0.03320312 0.19335938
v 0.33007812 -0.00195312 0.19335938
v 0.33007812 0.00976562 0.19335938
v -0.18554688 0.06054688 0.20117188
v -0.16601562 -0.00195312 0.20117188
v -0.16601562 0.09179688 0.20117188
v 0.23242188 -0.12695312 0.20117188
v 0.23242188 0.04101562 0.20117188
v -0.52929688 -0.03710938 0.20898438
v -0.51757812 -0.00195312 0.20898438
v -0.18554688 0.04101562 0.20898438
v -0.17382812 0.01757812 0.20898438
v -0.03710938 -0.09570312 0.20898438
v 0.15039062 0.04882812 0.20898438
v 0.23242188 -0.07226562 0.20898438
v 0.23242188 -0.02539062 0.20898438
v -0.51757812 -0.07226562 0.21679688
v -0.49414062 0.00195312 0.21679688
v -0.48632812 -0.00976562 0.21679688
v -0.07226562 0.07226562 0.21679688
v -0.03710938 -0.10742188 0.21679688
v -0.03710938 -0.04492188 0.21679688
v 0.05273438 -0.13476562 0.21679688
v 0.15820312 -0.14257812 0.21679688
v 0.23242188 -0.06445312 0.21679688
v -0.57617188 -0.07226562 0.22460938
v -0.57617188 -0.03710938 0.22460938
v -0.46679688 -0.09570312 0.22460938
v -0.41210938 -0.10742188 0.22460938
v -0.57617188 -0.12304688 0.23632812
v -0.57617188 -0.00195312 0.23632812
v -0.51757812 -0.12695312 0.23632812
v -0.44335938 -0.01757812 0.23632812
v -0.37695312 -0.09960938 0.23632812
v -0.37695312 -0.07617188 0.23632812
v -0.04492188 -0.02539062 0.23632812
v 0.05273438 -0.06445312 0.23632812
v 0.15039062 -0.07617188 0.23632812
v 0.15039062 -0.06445312 0.23632812
v 0.15039062 -0.02539062 0.23632812
v 0.25195312 0.02929688 0.23632812
v -0.57617188 -0.09570312 0.24414062
v -0.52929688 0.00195312 0.24414062
v -0.51757812 -0.09570312 0.24414062
v -0.50585938 -0.00976562 0.24414062
v -0.37695312 -0.03710938 0.24414062
v 0.05273438 -0.06445312 0.24414062
v 0.23242188 -0.00195312 0.24414062
v -0.62695312 -0.12304688 0.25195312
v -0.62695312 -0.09570312 0.25195312
v -0.58398438 -0.16992188 0.25195312
v -0.50585938 0.00195312 0.25195312
v -0.46679688 -0.11523438 0.25195312
v -0.39648438 -0.00195312 0.25195312
v -0.38476562 0.00195312 0.25195312
v 0.08007812 -0.02539062 0.25195312
v 0.13085938 0.01367188 0.25195312
v 0.13085938 0.03320312 0.25195312
v -0.66992188 -0.04492188 0.25976562
v -0.57617188 0.02929688 0.25976562
v -0.51757812 -0.16210938 0.25976562
v -0.51757812 0.03320312 0.25976562
v -0.45507812 -0.01757812 0.25976562
v -0.63476562 -0.16210938 0.26757812
v -0.45507812 -0.15429688 0.26757812
v -0.45507812 -0.00195312 0.26757812
v -0.09179688 -0.00976562 0.26757812
v -0.09179688 0.06054688 0.26757812
v -0.08398438 0.06054688 0.26757812
v -0.04492188 0.06054688 0.26757812
v 0.15039062 -0.01757812 0.26757812
v 0.16992188 0.04101562 0.26757812
v 0.25195312 0.01367188 0.26757812
v -0.62695312 0.00976562 0.27539062
v -0.45507812 0.02929688 0.27539062
v -0.42382812 -0.10742188 0.27539062
v -0.10351562 0.01757812 0.27539062
v -0.02539062 -0.02539062 0.27539062
v 0.00976562 0.04882812 0.27539062
v 0.14257812 0.01367188 0.27539062
v 0.15039062 0.02929688 0.27539062
v 0.21289062 0.02929688 0.27539062
v 0.03320312 -0.03320312 0.28320312
v 0.08007812 -0.02539062 0.28320312
v 0.24023438 0.01757812 0.28320312
v -0.66992188 -0.14257812 0.29101562
v -0.66992188 -0.10742188 0.29101562
v -0.41210938 -0.13476562 0.29101562
v -0.41210938 0.01367188 0.29101562
v -0.39648438 -0.00195312 0.29101562
v -0.69726562 -0.03710938 0.29882812
v -0.68554688 -0.00976562 0.29882812
v -0.58398438 -0.19726562 0.29882812
v -0.51757812 -0.19726562 0.29882812
v -0.51757812 0.06054688 0.29882812
v 0.10742188 0.00976562 0.29882812
v -0.69726562 -0.07226562 0.31054688
v -0.67382812 -0.00195312 0.31054688
v -0.63476562 -0.18945312 0.31054688
v -0.57617188 0.05273438 0.31054688
v -0.45507812 -0.17773438 0.31054688
v -0.45507812 0.05273438 0.31054688
v -0.62695312 0.03320312 0.31835938
v -0.69726562 -0.09960938 0.32617188
v -0.67382812 -0.16210938 0.32617188
v -0.41210938 -0.15820312 0.32617188
v -0.41210938 0.02929688 0.32617188
v 0.08007812 0.00976562 0.32617188
v 0.13085938 0.00976562 0.32617188
v 0.15039062 0.01367188 0.32617188
v 0.15039062 0.02929688 0.32617188
v 0.16992188 0.03320312 0.32617188
v -0.67382812 -0.12304688 0.33398438
v -0.07226562 -0.00976562 0.33398438
v -0.07226562 0.01757812 0.33398438
v -0.07226562 0.04882812 0.33398438
v -0.05273438 -0.01757812 0.33398438
v -0.05273438 0.04882812 0.33398438
v -0.02539062 -0.01757812 0.33398438
v -0.02539062 0.04882812 0.33398438
v 0.01757812 0.04101562 0.33398438
v 0.03320312 -0.02539062 0.33398438
v 0.09570312 -0.02539062 0.33398438
v 0.15820312 -0.01757812 0.33398438
v 0.20898438 0.00195312 0.33398438
v 0.20898438 0.02929688 0.33398438
v 0.22851562 0.01367188 0.33398438
v 0.22851562 0.01757812 0.33398438
v -0.39648438 -0.08398438 0.34179688
v 0.05273438 0.01367188 0.34179688
v 0.05273438 0.02929688 0.34179688
v 0.05273438 0.04101562 0.34179688
v 0.06835938 0.01367188 0.34179688
v -0.71679688 -0.07226562 0.34960938
v -0.71679688 -0.03710938 0.34960938
v -0.43554688 -0.04492188 0.34960938
v -0.43554688 -0.00976562 0.34960938
v -0.39648438 -0.13476562 0.34960938
v -0.69726562 -0.08789062 0.35742188
v -0.69726562 -0.00976562 0.35742188
v -0.63476562 -0.20507812 0.35742188
v -0.58398438 -0.21289062 0.35742188
v -0.57617188 0.06054688 0.35742188
v -0.51757812 -0.21289062 0.35742188
v -0.51757812 0.07226562 0.35742188
v -0.46679688 0.06835938 0.35742188
v -0.45507812 -0.19726562 0.35742188
v -0.43554688 -0.09570312 0.35742188
v -0.42382812 -0.00195312 0.35742188
v 0.11132812 0.00976562 0.35742188
v -0.68554688 -0.13476562 0.36523438
v -0.68554688 -0.10742188 0.36523438
v -0.67382812 -0.17773438 0.36523438
v -0.67382812 0.00976562 0.36523438
v -0.63476562 0.04101562 0.36523438
v -0.46679688 -0.01757812 0.36523438
v -0.42382812 0.02929688 0.36523438
v -0.42382812 0.05273438 0.36523438
v -0.41210938 -0.16992188 0.36523438
v 0.14257812 0.01367188 0.36523438
v 0.15039062 0.02929688 0.36523438
v -0.46679688 -0.05273438 0.37304688
v -0.45507812 0.00195312 0.37304688
v -0.41210938 -0.12304688 0.37304688
v -0.39648438 -0.13476562 0.37304688
v 0.09179688 0.00976562 0.37304688
v 0.11132812 0.00976562 0.38085938
v -0.69726562 -0.09570312 0.39257812
v -0.45507812 -0.07617188 0.39257812
v -0.43554688 -0.08789062 0.39257812
v 0.08007812 0.01367188 0.39257812
v 0.16992188 0.03320312 0.39257812
v -0.71679688 -0.07617188 0.40039062
v -0.71679688 -0.04492188 0.40039062
v -0.70898438 -0.13476562 0.40039062
v -0.46679688 -0.03710938 0.40039062
v -0.46679688 -0.00976562 0.40039062
v -0.45507812 0.01367188 0.40039062
v -0.05273438 -0.00976562 0.40039062
v -0.05273438 0.01367188 0.40039062
v -0.05273438 0.03320312 0.40039062
v -0.04492188 -0.01757812 0.40039062
v -0.04492188 0.03320312 0.40039062
v -0.02539062 -0.01757812 0.40039062
v -0.01757812 0.03320312 0.40039062
v 0.03320312 -0.02539062 0.40039062
v 0.03320312 0.03320312 0.40039062
v 0.09570312 -0.03320312 0.40039062
v 0.15820312 -0.02539062 0.40039062
v 0.20898438 -0.00976562 0.40039062
v 0.20898438 0.02929688 0.40039062
v 0.22851562 0.00195312 0.40039062
v 0.22851562 0.00976562 0.40039062
v 0.22851562 0.01757812 0.40039062
v -0.69726562 -0.00976562 0.40820312
v -0.68554688 -0.17773438 0.40820312
v -0.67382812 0.00976562 0.40820312
v -0.43554688 0.03320312 0.40820312
v -0.42382812 -0.10742188 0.40820312
v -0.41210938 -0.16210938 0.40820312
v -0.41210938 -0.12695312 0.40820312
v -0.39648438 -0.13476562 0.40820312
v -0.63476562 -0.20507812 0.41601562
v -0.63476562 0.04101562 0.41601562
v -0.58398438 -0.21289062 0.41601562
v -0.57617188 0.06054688 0.41601562
v -0.51757812 -0.21289062 0.41601562
v -0.51757812 0.07226562 0.41601562
v -0.47851562 0.06835938 0.41601562
v -0.45507812 -0.18945312 0.41601562
v -0.45507812 -0.07226562 0.41601562
v -0.44335938 0.06054688 0.41601562
v -0.70898438 -0.12304688 0.42382812
v -0.46679688 -0.00976562 0.42382812
v -0.43554688 -0.08398438 0.42382812
v -0.59570312 -0.08398438 0.43945312
v -0.59570312 -0.04492188 0.43945312
v -0.45507812 0.00195312 0.43945312
v -0.41210938 -0.08789062 0.43945312
v -0.69726562 -0.08398438 0.44726562
v -0.69726562 -0.04492188 0.44726562
v -0.68554688 -0.15039062 0.44726562
v -0.68554688 -0.01757812 0.44726562
v -0.62695312 -0.08398438 0.44726562
v -0.62695312 -0.05273438 0.44726562
v -0.57226562 -0.08398438 0.44726562
v -0.43554688 0.00976562 0.44726562
v -0.42382812 -0.05273438 0.44726562
v -0.41210938 -0.14257812 0.44726562
v -0.66210938 0.00195312 0.45507812
v -0.63476562 -0.17773438 0.45507812
v -0.62695312 0.02929688 0.45507812
v -0.55273438 -0.05273438 0.45507812
v -0.66992188 -0.12695312 0.46679688
v -0.66210938 -0.08398438 0.46679688
v -0.65429688 -0.04492188 0.46679688
v -0.58398438 -0.19726562 0.46679688
v -0.57617188 0.04882812 0.46679688
v -0.51757812 -0.18945312 0.46679688
v -0.45507812 -0.16992188 0.46679688
v -0.44335938 0.02929688 0.46679688
v -0.63476562 -0.00976562 0.47460938
v -0.60742188 -0.02539062 0.47460938
v -0.57617188 -0.01757812 0.47460938
v -0.53710938 -0.12695312 0.47460938
v -0.47851562 0.04101562 0.47460938
v -0.42382812 -0.11523438 0.47460938
v -0.63476562 -0.15039062 0.48242188
v -0.63476562 -0.10742188 0.48242188
v -0.58398438 -0.12695312 0.48242188
v -0.55273438 -0.09570312 0.48242188
v -0.62695312 -0.12695312 0.49023438
v -0.61523438 0.00976562 0.49023438
v -0.59570312 -0.10742188 0.49023438
v -0.59570312 -0.00976562 0.49023438
v -0.58398438 -0.16210938 0.49023438
v -0.53710938 -0.01757812 0.49023438
v -0.52929688 -0.07226562 0.49023438
v -0.57617188 0.02539062 0.49804688
v -0.57226562 -0.00195312 0.49804688
v -0.52929688 -0.16210938 0.49804688
v -0.52929688 -0.04492188 0.49804688
v -0.52929688 0.02929688 0.49804688
v -0.51757812 -0.10742188 0.49804688
v -0.46679688 -0.13476562 0.49804688
v -0.46679688 0.00195312 0.49804688
v -0.03710938 -0.01757812 0.49804688
v -0.03710938 -0.00195312 0.49804688
v -0.03710938 0.00976562 0.49804688
v -0.03710938 0.01757812 0.49804688
v -0.02539062 0.01757812 0.49804688
v -0.01757812 -0.01757812 0.49804688
v -0.00585938 0.02929688 0.49804688
v 0.03320312 -0.03320312 0.49804688
v 0.04492188 0.02929688 0.49804688
v 0.09570312 -0.03710938 0.49804688
v 0.09570312 0.02929688 0.49804688
v 0.13085938 0.01757812 0.49804688
v 0.15820312 -0.03320312 0.49804688
v 0.16992188 0.01757812 0.49804688
v 0.20898438 -0.01757812 0.49804688
v 0.20898438 0.01367188 0.49804688
v 0.22851562 -0.00195312 0.49804688
v 0.22851562 0.00195312 0.49804688
v 0.22851562 0.00976562 0.49804688
v -0.49414062 0.02539062 0.50585938
v -0.52929688 -0.00195312 0.51367188
v -0.50585938 -0.12695312 0.51367188
v -0.50585938 -0.07617188 0.51367188
v -0.49414062 -0.00195312 0.51367188
v -0.03710938 -0.02539062 0.62304688
v -0.03710938 -0.00976562 0.62304688
v -0.03710938 0.00195312 0.62304688
v -0.02539062 0.00195312 0.62304688
v -0.02539062 0.00976562 0.62304688
v -0.01757812 -0.02539062 0.62304688
v -0.00585938 0.00976562 0.62304688
v 0.03320312 -0.03320312 0.62304688
v 0.04492188 0.01757812 0.62304688
v 0.09570312 -0.03710938 0.62304688
v 0.10742188 0.01757812 0.62304688
v 0.14257812 0.01757812 0.62304688
v 0.15820312 -0.03320312 0.62304688
v 0.16992188 0.01367188 0.62304688
v 0.20898438 -0.01757812 0.62304688
v 0.20898438 0.00976562 0.62304688
v 0.22851562 -0.00976562 0.62304688
v 0.22851562 -0.00195312 0.62304688
v 0.22851562 0.00195312 0.62304688
v -0.03710938 -0.02539062 0.74414062
v -0.03710938 -0.01757812 0.74414062
v -0.02539062 -0.00976562 0.74414062
v -0.01757812 -0.02539062 0.74414062
v -0.00585938 -0.00976562 0.74414062
v 0.03320312 -0.03320312 0.75195312
v 0.04492188 -0.00195312 0.75195312
v 0.10742188 -0.03320312 0.75195312
v 0.10742188 -0.00195312 0.75195312
v 0.15820312 -0.00195312 0.75195312
v 0.16992188 -0.00195312 0.75195312
v 0.20898438 -0.00195312 0.75195312
v -0.01757812 -0.04492188 0.86914062
v -0.01757812 -0.02539062 0.86914062
v 0.13085938 -0.03710938 0.86914062
v 0.03320312 -0.01757812 0.88476562
v 0.10742188 -0.01757812 0.88476562
v 0.16992188 -0.01757812 0.88476562
v 0.20898438 -0.01757812 0.88476562
v 0.01757812 -0.04492188 0.93554688
v 0.10742188 -0.03710938 0.93554688
v 0.03320312 -0.02539062 0.97460938
v 0.10742188 -0.01757812 0.97460938
v 0.16992188 -0.01757812 0.97460938
v 0.18164062 -0.03320312 0.97460938
v 0.20898438 -0.01757812 0.97460938
v 0.22460938 -0.01757812 0.97460938
v -0.02539062 -0.04492188 0.98242188
v 0.03320312 -0.04492188 0.98242188
v 0.10742188 -0.03710938 0.98242188
v 0.03320312 -0.04492188 0.99023438
v 0.03320312 -0.02539062 0.99023438
v 0.10742188 -0.02539062 0.99023438
v 0.16992188 -0.03320312 0.99023438
v 0.16992188 -0.01757812 0.99023438
v 0.19726562 -0.03320312 0.99023438
v 0.19726562 -0.02539062 0.99023438
v 0.19726562 -0.01757812 0.99023438
v 0.03320312 -0.03320312 0.99804688
v 0.10742188 -0.03320312 0.99804688
v 0.10742188 -0.02539062 0.99804688
v 0.16992188 -0.02539062 0.99804688
f 128 130 129
f 4 128 129
f 127 4 129
f 127 129 5
f 128 5 130
f 129 5 4
f 125 7 13
f 8 126 7
f 126 125 7
f 124 3 10
f 124 11 3
f 10 12 124
f 11 10 124
f 124 9 10
f 8 8 126
f 11 10 9
f 10 11 8
f 11 11 10
f 10 11 11
f 131 11 9
f 9 131 9
f 11 126 9
f 11 9 9
f 11 8 126
f 3 8 11
f 7 8 125
f 7 8 8
f 9 131 10
f 131 3 8
f 9 10 124
f 8 10 131
f 11 8 10
f 9 10 124
f 9 131 10
f 10 131 11
f 124 3 8
f 124 11 3
f 123 15 17
f 15 121 17
f 16 121 17
f 16 15 121
f 16 15 17
f 15 121 17
f 23 20 120
f 20 19 120
f 23 20 120
f 20 18 120
f 119 22 118
f 119 21 22
f 113 112 111
f 112 25 111
f 107 28 27
f 107 26 28
f 27 107 26
f 27 106 107
f 26 106 108
f 106 108 106
f 26 27 106
f 106 106 27
f 107 26 27
f 26 28 27
f 105 30 31
f 105 29 30
f 29 30 105
f 103 32 104
f 31 30 31
f 31 105 30
f 31 32 31
f 32 31 104
f 37 87 94
f 87 88 94
f 88 42 94
f 38 40 39
f 38 90 40
f 92 38 38
f 90 40 38
f 41 40 90
f 92 40 38
f 40 39 38
f 38 39 38
f 41 90 91
f 40 39 38
f 37 87 42
f 87 88 42
f 43 45 84
f 84 86 85
f 86 44 85
f 141 82 47
f 141 46 82
f 74 54 75
f 75 53 55
f 75 55 74
f 55 73 53
f 73 54 53
f 54 75 53
f 53 74 54
f 58 57 60
f 57 61 60
f 60 59 56
f 59 61 56
f 1 2 62
f 62 65 1
f 62 2 67
f 64 63 66
f 64 1 63
f 1 65 63
f 68 67 2
f 2 1 64
f 68 2 64
f 64 68 67
f 65 69 62
f 69 67 62
f 67 69 64
f 59 61 58
f 59 57 61
f 61 60 58
f 66 67 65
f 66 64 67
f 67 62 64
f 62 66 64
f 62 63 66
f 69 65 66
f 67 65 64
f 65 69 64
f 66 67 63
f 65 63 62
f 63 67 62
f 69 64 66
f 64 62 66
f 65 66 62
f 66 69 62
f 64 68 67
f 63 69 62
f 67 62 64
f 69 64 62
f 62 65 63
f 69 62 66
f 63 67 65
f 63 66 62
f 63 62 63
f 63 63 68
f 63 68 67
f 60 59 57
f 61 56 60
f 60 59 61
f 59 59 58
f 58 59 60
f 58 59 59
f 60 58 59
f 70 71 57
f 71 143 57
f 58 59 60
f 59 57 60
f 73 54 55
f 54 53 55
f 74 54 75
f 53 54 75
f 53 55 73
f 53 73 54
f 42 94 37
f 42 37 93
f 88 37 87
f 37 37 87
f 37 37 94
f 90 91 41
f 37 93 42
f 42 94 37
f 96 95 35
f 96 36 95
f 98 100 99
f 100 137 99
f 104 30 31
f 104 105 30
f 29 104 105
f 29 30 104
f 108 28 106
f 108 26 28
f 108 26 106
f 26 28 106
f 27 107 28
f 27 106 107
f 25 113 112
f 25 111 113
f 25 111 112
f 111 113 112
f 117 22 118
f 22 118 117
f 23 18 19
f 19 120 23
f 23 20 18
f 19 120 23
f 23 20 18
f 23 18 19
f 123 122 17
f 123 15 122
f 17 15 121
f 15 123 15
f 123 15 15
f 17 123 15
f 15 122 17
f 17 16 15
f 124 9 11
f 11 10 12
f 11 12 124
f 10 9 8
f 9 7 8
f 131 3 9
f 3 10 9
f 11 8 9
f 8 126 9
f 8 12 11
f 8 10 12
f 4 5 127
f 4 128 5
f 4 5 130
f 4 129 5
f 126 11 8
f 126 9 11
f 11 3 8
f 9 7 10
f 7 8 10
f 11 10 131
f 8 10 3
f 10 11 3
f 131 11 9
f 11 8 9
f 128 5 4
f 5 130 4
f 138 97 139
f 43 140 84
f 140 45 84
f 77 78 76
f 110 24 109
f 1383 1388 1382
f 1383 1381 1388
f 1383 1384 1381
f 1387 1380 1388
f 1386 1380 1387
f 1382 1388 1380
f 1387 1388 1379
f 1385 1387 1379
f 1381 1379 1388
f 1379 1378 1385
f 1386 1387 1377
f 1385 1377 1387
f 1380 1386 1376
f 1377 1375 1386
f 1376 1386 1375
f 1378 1374 1385
f 1377 1385 1374
f 1375 1377 1374
f 1383 9 1384
f 1373 1384 9
f 1382 131 1383
f 9 1383 131
f 1373 1372 1384
f 1380 1371 1382
f 1376 1371 1380
f 131 1382 1371
f 1381 1384 1370
f 1372 1370 1384
f 1379 1381 1369
f 1378 1379 1369
f 1370 1369 1381
f 1369 1368 1378
f 1374 1378 130
f 1368 130 1378
f 130 4 1374
f 4 130 129
f 4 130 128
f 129 130 6
f 128 130 6
f 4 127 1374
f 129 4 127
f 128 4 127
f 1371 1376 1367
f 1375 1366 1376
f 1374 1366 1375
f 127 1366 1374
f 1367 1376 1366
f 131 9 11
f 131 9 3
f 11 9 3
f 11 131 3
f 9 7 1373
f 131 9 8
f 11 9 8
f 11 131 8
f 3 9 8
f 3 131 8
f 3 11 8
f 7 9 8
f 131 9 10
f 1371 10 131
f 1367 10 1371
f 11 9 10
f 11 131 10
f 3 9 10
f 3 131 10
f 3 11 10
f 7 9 10
f 8 9 10
f 8 131 10
f 8 11 10
f 8 3 10
f 8 7 10
f 11 9 126
f 7 9 126
f 8 9 126
f 8 11 126
f 8 7 126
f 1372 1373 1365
f 7 1365 1373
f 1370 1372 1364
f 1365 1364 1372
f 1369 1370 1363
f 1368 1369 1363
f 1364 1363 1370
f 130 1368 1362
f 6 130 1362
f 1363 1362 1368
f 10 1367 1361
f 1362 1360 6
f 1366 127 1359
f 1366 1359 1367
f 1361 1367 1359
f 4 130 5
f 129 130 5
f 129 4 5
f 128 130 5
f 128 4 5
f 6 130 5
f 6 5 129
f 6 5 128
f 127 4 5
f 127 5 129
f 127 5 128
f 1360 5 6
f 1359 127 5
f 126 13 7
f 8 7 125
f 126 7 125
f 126 8 125
f 13 7 125
f 13 126 125
f 8 11 12
f 10 11 12
f 10 8 12
f 125 8 12
f 11 9 124
f 3 9 124
f 3 11 124
f 8 9 124
f 8 11 124
f 8 3 124
f 10 9 124
f 10 11 124
f 10 3 124
f 10 8 124
f 1361 124 10
f 12 11 124
f 12 8 124
f 12 10 124
f 1365 7 1358
f 13 1358 7
f 1364 1365 1357
f 1358 1357 1365
f 1357 1356 1364
f 124 1361 14
f 1363 1364 1355
f 1362 1363 1355
f 1356 1355 1364
f 14 1361 132
f 1354 14 132
f 1360 1362 1353
f 1355 1353 1362
f 132 1361 1352
f 5 1360 1351
f 1353 1351 1360
f 1359 1350 1361
f 1352 1361 1350
f 1351 1349 5
f 1349 1348 5
f 5 1347 1359
f 1350 1359 1347
f 1348 1347 5
f 125 1346 13
f 12 1345 125
f 1346 125 1345
f 124 1344 12
f 1345 12 1344
f 1358 13 1343
f 1346 1343 13
f 14 1342 124
f 1344 124 1342
f 1357 1358 1341
f 1356 1357 1341
f 1343 1341 1358
f 132 1340 14
f 1342 14 1340
f 1355 1356 1339
f 1341 1339 1356
f 1339 1338 1355
f 1352 1337 132
f 1340 132 1337
f 1353 1355 1336
f 1338 1336 1355
f 1350 1335 1352
f 1337 1352 1335
f 1351 1353 1334
f 1336 1334 1353
f 1347 1333 1350
f 1335 1350 1333
f 1349 1351 1332
f 1334 1332 1351
f 1332 1331 1349
f 1331 1330 1349
f 1348 1349 1329
f 1330 1329 1349
f 1347 1348 1328
f 1333 1347 1328
f 1329 1328 1348
f 15 16 122
f 15 123 122
f 15 16 121
f 15 123 121
f 15 16 17
f 15 123 17
f 122 16 17
f 122 123 17
f 122 15 17
f 121 16 17
f 121 123 17
f 121 15 17
f 17 1327 123
f 122 1326 15
f 121 15 1325
f 122 123 1324
f 1327 1324 123
f 1345 1322 1346
f 1322 1345 1321
f 1344 1320 1345
f 1321 1345 1320
f 1343 1346 1319
f 1322 1319 1346
f 1342 1318 1344
f 1320 1344 1318
f 1341 1343 1317
f 1319 1317 1343
f 1340 1316 1342
f 1318 1342 1316
f 1339 1341 1315
f 1317 1315 1341
f 1338 1339 1314
f 1315 1314 1339
f 1337 1313 1340
f 1335 1313 1337
f 1316 1340 1313
f 1336 1338 1312
f 1314 1312 1338
f 1333 1311 1335
f 1313 1335 1311
f 1334 1336 1310
f 1312 1310 1336
f 1328 1309 1333
f 1311 1333 1309
f 1332 1334 1308
f 1310 1308 1334
f 1331 1332 1307
f 1308 1307 1332
f 1330 1331 1306
f 1307 1306 1331
f 1329 1330 1305
f 1306 1305 1330
f 1328 1329 1304
f 1309 1328 1304
f 1305 1304 1329
f 1327 17 1303
f 1325 1302 121
f 1326 1301 15
f 1325 15 1301
f 1324 1327 1300
f 20 1300 1323
f 1303 1300 1327
f 1303 1323 1300
f 1326 122 1299
f 1302 1325 1298
f 1300 1296 1324
f 1296 1297 1324
f 17 121 119
f 1303 17 21
f 119 21 17
f 1301 1326 1295
f 1299 1295 1326
f 1324 1294 122
f 1299 122 1294
f 1297 1294 1324
f 1297 1296 1290
f 1292 1297 1290
f 18 20 19
f 1295 1288 1301
f 1289 1287 1291
f 1288 1291 1287
f 1289 1291 1286
f 1287 1285 1293
f 1287 1289 1285
f 1302 1284 121
f 119 121 1284
f 1303 1283 1323
f 20 1323 120
f 18 20 120
f 19 20 120
f 19 18 120
f 1283 120 1323
f 1300 20 23
f 18 20 23
f 19 20 23
f 19 18 23
f 120 20 23
f 120 18 23
f 120 19 23
f 1301 1282 1325
f 1298 1325 1282
f 1293 1298 1282
f 1288 1282 1301
f 1287 1293 1282
f 1287 1282 1288
f 1294 1297 1281
f 1292 1281 1297
f 1281 1292 1280
f 1290 1279 1292
f 1280 1292 1279
f 21 119 22
f 1283 1303 1278
f 1298 1277 1302
f 1277 1298 1276
f 1296 1300 1275
f 23 1275 1300
f 1293 1274 1298
f 1276 1298 1274
f 1279 1273 1280
f 1286 1271 1289
f 1285 1289 1271
f 1272 1271 1286
f 21 119 118
f 22 119 118
f 22 21 118
f 1295 1299 1270
f 1294 1270 1299
f 1288 1295 1270
f 1281 1270 1294
f 1290 1296 1269
f 1275 1269 1296
f 1285 1268 1293
f 1274 1293 1268
f 1271 1268 1285
f 1279 1290 1267
f 1273 1279 1267
f 1269 1267 1290
f 1284 1302 1266
f 1277 1266 1302
f 118 22 1265
f 21 1264 1303
f 22 1264 21
f 1278 1303 1264
f 1288 1263 1291
f 1270 1263 1288
f 1273 1262 1280
f 1286 1291 1261
f 1272 1286 1261
f 1272 1261 1273
f 1262 1273 1261
f 1267 1260 1273
f 1268 1271 1259
f 1272 1273 1258
f 1260 1258 1273
f 1271 1272 1257
f 1259 1271 1257
f 1258 1257 1272
f 1284 1256 119
f 118 119 1256
f 1280 1254 1281
f 1270 1281 1254
f 1263 1270 1254
f 1262 1254 1280
f 1263 1253 1291
f 1261 1291 1253
f 1261 1253 1262
f 1254 1253 1263
f 1254 1262 1253
f 118 22 117
f 1265 22 117
f 1265 117 118
f 116 117 118
f 1264 22 24
f 116 1255 24
f 117 24 22
f 117 116 24
f 1256 1252 118
f 116 115 1255
f 24 1255 115
f 24 116 115
f 115 116 1251
f 1257 1250 1259
f 1278 1249 1283
f 1252 1248 118
f 1276 1247 1277
f 120 1283 1246
f 23 120 1246
f 1249 1246 1283
f 1246 1245 23
f 1247 1276 1244
f 1275 23 1243
f 1245 1243 23
f 1274 1242 1276
f 1244 1276 1242
f 1269 1275 1241
f 1267 1269 1241
f 1243 1241 1275
f 1268 1240 1274
f 1259 1240 1268
f 1242 1274 1240
f 1266 1239 1284
f 1239 1238 1284
f 1266 1277 1237
f 1247 1237 1277
f 1239 1266 1237
f 1256 1284 1236
f 1252 1256 1236
f 1238 1236 1284
f 1264 1235 1278
f 1249 1278 1235
f 1260 1267 1234
f 1241 1234 1267
f 1250 1233 1259
f 1240 1259 1233
f 1258 1260 1232
f 1234 1232 1260
f 1321 1231 1322
f 1320 1230 1321
f 1231 1321 1230
f 1318 1229 1320
f 1230 1320 1229
f 1319 1322 1228
f 1231 1228 1322
f 1316 1227 1318
f 1229 1318 1227
f 1313 1226 1316
f 1227 1316 1226
f 1311 1225 1313
f 1226 1313 1225
f 1312 1314 1224
f 1309 1223 1311
f 1225 1311 1223
f 1310 1312 1222
f 1224 1222 1312
f 1304 1221 1309
f 1223 1309 1221
f 1308 1310 1220
f 1222 1220 1310
f 1304 1305 1219
f 1221 1304 1219
f 1307 1308 1218
f 1220 1218 1308
f 1306 1307 1217
f 1218 1217 1307
f 1305 1306 1216
f 1219 1305 1216
f 1217 1216 1306
f 24 117 114
f 24 109 1264
f 115 109 24
f 1235 1264 109
f 114 109 24
f 1251 1215 115
f 109 115 1215
f 1215 1251 1214
f 116 118 1213
f 1251 116 1213
f 1248 1213 118
f 1214 1251 1213
f 1233 1250 1212
f 1257 1258 1211
f 1232 1211 1258
f 1250 1257 1210
f 1211 1210 1257
f 1317 1319 1209
f 1228 1209 1319
f 1314 1315 113
f 1224 1314 113
f 1236 1207 1252
f 1248 1252 1206
f 1213 1248 1206
f 1207 1206 1252
f 1212 1250 1205
f 1210 1205 1250
f 1315 1317 112
f 1209 112 1317
f 113 1315 112
f 111 112 113
f 111 25 113
f 1208 111 25
f 112 113 25
f 112 111 25
f 25 1204 1208
f 1204 1203 1208
f 1238 1239 1202
f 1236 1238 1201
f 1202 1201 1238
f 24 110 117
f 114 117 110
f 114 24 110
f 109 24 110
f 109 114 110
f 1215 110 109
f 1214 1200 1215
f 110 1215 1200
f 1206 1199 1213
f 112 1209 1198
f 25 112 1198
f 1198 1197 25
f 1237 1196 1239
f 1202 1239 1196
f 1235 1195 1249
f 109 1194 1235
f 110 1194 109
f 1195 1235 1194
f 1213 1193 1214
f 1200 1214 1193
f 1199 1193 1213
f 1241 1243 1192
f 1234 1241 1191
f 1232 1234 1191
f 1192 1191 1241
f 1212 1190 1233
f 1205 1189 1212
f 1190 1212 1188
f 1189 1188 1212
f 1204 25 1187
f 1203 1204 1187
f 1197 1187 25
f 1200 1186 110
f 1206 1207 1185
f 1199 1206 1185
f 1237 1247 1184
f 1196 1237 1184
f 1246 1249 1183
f 1245 1246 1183
f 1195 1183 1249
f 1183 1182 1245
f 1244 1181 1247
f 1184 1247 1181
f 1243 1245 1180
f 1192 1243 1180
f 1182 1180 1245
f 1242 1179 1244
f 1240 1179 1242
f 1181 1244 1179
f 1233 1178 1240
f 1190 1178 1233
f 1179 1240 1178
f 1211 1232 1177
f 1191 1177 1232
f 1193 1174 1200
f 1186 1200 1174
f 1193 1199 1173
f 1185 1173 1199
f 1174 1193 1173
f 1210 1211 1172
f 1177 1172 1211
f 1205 1210 1171
f 1176 1205 1171
f 1172 1171 1210
f 1203 1170 1208
f 1187 1170 1203
f 111 1169 113
f 1208 1168 111
f 1169 111 1168
f 1170 1167 1208
f 1168 1208 1167
f 1207 1236 1166
f 1201 1166 1236
f 1185 1207 1166
f 1173 1185 1166
f 1230 1165 1231
f 1229 1164 1230
f 1165 1230 1164
f 1228 1231 1163
f 1165 1163 1231
f 1227 1162 1229
f 1226 1162 1227
f 1164 1229 1162
f 1225 1161 1226
f 1162 1226 1161
f 1223 1160 1225
f 1161 1225 1160
f 1221 1159 1223
f 1160 1223 1159
f 113 1158 1224
f 1169 1158 113
f 1222 1224 1157
f 1158 1157 1224
f 1219 1156 1221
f 1159 1221 1156
f 1220 1222 1155
f 1157 1155 1222
f 1216 1154 1219
f 1156 1219 1154
f 1218 1220 1153
f 1155 1153 1220
f 1217 1218 1152
f 1153 1152 1218
f 1216 1217 1151
f 1154 1216 1151
f 1152 1151 1217
f 1188 1189 1150
f 1209 1228 1149
f 1198 1209 1149
f 1163 1149 1228
f 1149 1148 1198
f 1197 1198 1147
f 1148 1147 1198
f 1187 1197 1146
f 1147 1146 1197
f 1170 1187 1145
f 1146 1145 1187
f 1173 108 1174
f 1166 108 1173
f 1194 110 1144
f 1194 1144 1195
f 1186 1144 110
f 1196 1143 1202
f 1175 1202 1143
f 1188 1142 1190
f 1150 1142 1188
f 1189 1205 1141
f 1176 1141 1205
f 108 1166 26
f 26 108 28
f 1201 1202 27
f 1175 27 1202
f 1166 1201 27
f 26 1166 27
f 28 26 27
f 1191 1192 1140
f 1180 1140 1192
f 1183 1195 1139
f 1144 1139 1195
f 1184 1138 1196
f 1143 1196 1138
f 1180 1182 1137
f 1140 1180 1137
f 1178 1190 1136
f 1178 1136 1179
f 1142 1136 1190
f 1177 1191 1135
f 1140 1135 1191
f 1171 1134 1176
f 1141 1176 1134
f 1145 1146 1133
f 1182 1183 1132
f 1139 1132 1183
f 1137 1182 1132
f 1181 1131 1184
f 1138 1184 1131
f 1179 1130 1181
f 1136 1130 1179
f 1131 1181 1130
f 1172 1177 1129
f 1135 1129 1177
f 1171 1172 1128
f 1134 1171 1128
f 1129 1128 1172
f 1168 29 1169
f 1167 30 1168
f 29 1168 30
f 29 105 30
f 1167 1170 31
f 1145 31 1170
f 29 105 31
f 30 1167 31
f 30 105 31
f 30 29 31
f 1174 1127 1186
f 108 1127 1174
f 1144 1186 1127
f 26 108 106
f 28 108 106
f 28 26 106
f 27 26 106
f 27 28 106
f 1127 108 106
f 1127 1126 1144
f 1143 1125 1175
f 27 1175 1125
f 1150 1189 1124
f 1141 1124 1189
f 1142 1150 1123
f 1124 1123 1150
f 1163 1165 1122
f 1159 1121 1160
f 1156 1120 1159
f 1121 1159 1120
f 28 26 107
f 27 26 107
f 27 28 107
f 106 26 107
f 106 28 107
f 106 27 107
f 1122 1119 1163
f 1148 1149 1118
f 1147 1148 1118
f 1146 1147 1117
f 1133 1146 1117
f 1118 1117 1147
f 1158 1169 1116
f 29 1116 1169
f 1154 1115 1156
f 1120 1156 1115
f 1152 1153 1114
f 1125 1113 27
f 107 27 1113
f 1139 1144 1112
f 1126 1112 1144
f 1135 1140 1111
f 1164 1110 1165
f 1122 1165 1110
f 1149 1163 1109
f 1119 1109 1163
f 1118 1149 1109
f 1161 1108 1162
f 1160 1108 1161
f 1121 1108 1160
f 29 105 104
f 30 105 104
f 30 29 104
f 31 105 104
f 31 29 104
f 31 30 104
f 31 103 105
f 104 105 103
f 104 31 103
f 1133 32 1145
f 31 1145 32
f 31 32 30
f 104 30 32
f 104 31 32
f 103 31 32
f 103 104 32
f 1157 1158 1107
f 1116 1107 1158
f 1155 1157 1106
f 1107 1106 1157
f 1153 1155 1105
f 1114 1153 1105
f 1106 1105 1155
f 1151 1104 1154
f 1151 1152 1104
f 1115 1154 1104
f 1114 1104 1152
f 1126 1127 1103
f 1112 1126 1103
f 1138 1102 1143
f 1125 1143 1102
f 1136 1142 1101
f 1123 1101 1142
f 1134 102 1141
f 1124 1141 102
f 1103 1127 1100
f 1132 1139 1099
f 1132 1099 1137
f 1112 1099 1139
f 1131 1098 1138
f 1130 1098 1131
f 1102 1138 1098
f 1137 1097 1140
f 1111 1140 1097
f 1099 1097 1137
f 1129 1135 133
f 1111 133 1135
f 1128 1096 1134
f 102 1134 1096
f 1109 1095 1118
f 103 1095 104
f 1117 1094 1133
f 1117 1118 1094
f 32 1133 1094
f 32 1094 103
f 1095 1094 1118
f 1095 103 1094
f 1120 1093 1121
f 1108 1121 1093
f 1092 1091 1127
f 1113 1125 1090
f 1102 1090 1125
f 1103 1089 1112
f 1099 1112 1089
f 1130 1136 1088
f 1101 1088 1136
f 1098 1130 1088
f 102 1087 1124
f 1123 1124 1086
f 1101 1123 1086
f 1087 1086 1124
f 1128 1129 34
f 133 34 1129
f 1096 1128 34
f 1096 34 102
f 1162 1085 1164
f 1110 1164 1085
f 1108 1085 1162
f 1093 1120 1084
f 106 1083 1127
f 1092 1127 1083
f 1100 1082 1103
f 1089 1103 1082
f 1097 1099 1080
f 1089 1080 1099
f 1086 1087 1079
f 34 33 102
f 34 133 33
f 1119 1122 1078
f 1110 1078 1122
f 1093 1077 1108
f 1085 1108 1077
f 1084 1076 1093
f 1077 1093 1076
f 1076 1084 1075
f 1115 1074 1120
f 1084 1120 1074
f 1075 1084 1074
f 1104 1073 1115
f 1074 1115 1073
f 107 1072 106
f 1083 106 1072
f 1072 107 1071
f 1100 1127 1070
f 1091 1070 1127
f 1082 1100 1070
f 1098 1069 1102
f 1090 1102 1069
f 1088 1069 1098
f 1081 1090 1069
f 1097 1068 1111
f 133 1111 1068
f 34 133 1068
f 1080 1068 1097
f 1088 1101 1067
f 1086 1067 1101
f 1079 1067 1086
f 1079 1081 1067
f 1069 1088 1067
f 1069 1067 1081
f 1087 102 134
f 34 102 134
f 33 134 102
f 33 34 134
f 1113 1066 107
f 1071 107 1066
f 1090 1065 1113
f 1081 1065 1090
f 1066 1113 1065
f 1068 1064 34
f 134 34 1064
f 1079 1087 1063
f 1079 1063 1081
f 134 1063 1087
f 1064 1063 134
f 1076 1062 1077
f 1074 1060 1075
f 1061 1075 1060
f 1073 1059 1074
f 1060 1074 1058
f 1106 1107 1057
f 1070 1056 1082
f 1082 1055 1089
f 1080 1089 1055
f 1056 1055 1082
f 1065 1081 1054
f 1063 1054 1081
f 1063 1064 1054
f 1077 1053 1085
f 1062 1053 1077
f 1075 1052 1076
f 1062 1076 1052
f 1095 1109 1051
f 1095 1051 104
f 1059 1050 1074
f 1058 1074 1050
f 1105 1049 1114
f 1049 1105 1048
f 1068 1080 1047
f 1055 1047 1080
f 1064 1068 1046
f 1054 1064 1046
f 1047 1046 1068
f 1109 1119 1045
f 1078 1045 1119
f 1051 1109 1045
f 1061 1044 1075
f 1052 1075 1044
f 1105 1106 1043
f 1104 1114 1042
f 1073 1104 1042
f 1059 1073 1042
f 1049 1042 1114
f 1048 1105 1041
f 1043 1041 1105
f 1085 1040 1110
f 1078 1110 1040
f 1053 1039 1085
f 1040 1085 1039
f 1039 1053 1038
f 1052 1037 1062
f 1044 1036 1052
f 1037 1052 1036
f 1053 1062 1035
f 1038 1053 1035
f 1037 1035 1062
f 1116 29 1034
f 104 1034 29
f 1107 1116 1034
f 1057 1107 1034
f 1051 1034 104
f 1057 1033 1106
f 1043 1106 1033
f 1036 1044 1032
f 1045 1078 1031
f 1040 1031 1078
f 1033 1057 1030
f 1050 1059 1029
f 1042 1029 1059
f 1044 1061 1028
f 1032 1044 1028
f 1050 1027 1058
f 1029 1027 1050
f 1083 1026 1092
f 1072 1026 1083
f 1026 1072 1025
f 1026 1024 1092
f 1065 1023 1066
f 1054 1023 1065
f 1046 1022 1054
f 1023 1054 1022
f 1028 1020 1032
f 1028 1061 1019
f 1025 1018 1026
f 1018 1025 1017
f 1091 1092 1016
f 1024 1016 1092
f 1071 1015 1072
f 1025 1072 1015
f 1017 1025 1015
f 1066 1014 1071
f 1023 1014 1066
f 1015 1071 1014
f 1070 1091 1013
f 1016 1013 1091
f 1056 1070 1012
f 1055 1056 1012
f 1013 1012 1070
f 1046 1047 1011
f 1022 1046 1011
f 1039 1010 1040
f 1021 1010 1039
f 1038 1009 1039
f 1021 1039 1009
f 1036 1008 1037
f 1035 1008 1038
f 1035 1037 1008
f 1009 1038 1008
f 1032 1007 1036
f 1008 1036 1007
f 1020 1006 1032
f 1007 1032 1006
f 1045 1005 1051
f 1019 1004 1028
f 1060 1003 1061
f 1019 1061 1003
f 1027 1002 1058
f 1048 1001 1049
f 1042 1049 1000
f 1029 1042 1000
f 1016 1024 1000
f 1001 1000 1049
f 1001 1016 1000
f 1047 1055 999
f 1012 999 1055
f 1011 1047 999
f 1031 1040 998
f 1010 998 1040
f 1031 997 1045
f 1005 1045 997
f 1020 1028 996
f 1004 996 1028
f 1034 1051 995
f 1005 995 1051
f 1058 994 1060
f 1003 1060 994
f 1002 994 1058
f 1034 993 1057
f 1030 1057 993
f 1030 991 1033
f 1033 990 1043
f 991 990 1033
f 1041 1043 989
f 990 989 1043
f 1041 988 1048
f 1001 1048 988
f 989 988 1041
f 1027 1029 987
f 1024 1026 987
f 1018 987 1026
f 1000 987 1029
f 1000 1024 987
f 1017 986 1018
f 1002 1027 986
f 987 986 1027
f 987 1018 986
f 1010 1021 985
f 992 985 1021
f 1009 984 1021
f 992 1021 984
f 1006 1020 983
f 996 982 1020
f 996 1004 981
f 982 996 981
f 1004 1019 980
f 981 1004 980
f 1003 979 1019
f 980 1019 979
f 995 978 1034
f 993 1034 978
f 978 977 993
f 1015 976 1017
f 986 1017 976
f 986 976 1002
f 1013 1016 975
f 1001 975 1016
f 988 975 1001
f 998 1010 974
f 985 974 1010
f 1008 973 1009
f 984 1009 973
f 998 972 1031
f 997 1031 972
f 983 1020 971
f 982 971 1020
f 994 970 1003
f 979 1003 970
f 994 1002 969
f 976 969 1002
f 975 968 1013
f 1012 1013 967
f 968 967 1013
f 1014 1023 966
f 999 965 1011
f 1022 964 1023
f 1011 964 1022
f 966 1023 964
f 965 964 1011
f 973 1008 963
f 1007 962 1008
f 963 1008 962
f 993 961 1030
f 991 1030 961
f 976 1015 960
f 1014 959 1015
f 966 959 1014
f 960 1015 959
f 999 1012 958
f 967 958 1012
f 965 999 958
f 985 992 957
f 974 956 998
f 972 998 956
f 1006 955 1007
f 962 1007 955
f 997 954 1005
f 978 995 953
f 953 952 978
f 977 978 951
f 952 951 978
f 970 994 950
f 969 950 994
f 977 949 993
f 961 993 949
f 951 949 977
f 988 989 948
f 975 988 948
f 968 975 948
f 958 967 947
f 974 985 946
f 957 946 985
f 984 945 992
f 957 992 945
f 971 944 983
f 971 982 943
f 995 1005 942
f 954 942 1005
f 953 995 942
f 981 941 982
f 943 982 941
f 980 940 981
f 941 981 940
f 979 939 980
f 940 980 939
f 950 937 970
f 969 976 936
f 960 936 976
f 989 990 935
f 948 989 935
f 967 968 934
f 948 934 968
f 947 967 934
f 935 934 948
f 947 933 958
f 958 932 965
f 933 932 958
f 956 974 931
f 946 931 974
f 973 930 984
f 945 984 930
f 983 929 1006
f 955 1006 929
f 944 929 983
f 972 928 997
f 954 997 928
f 944 971 927
f 943 927 971
f 952 953 926
f 938 952 926
f 970 925 979
f 939 979 925
f 951 952 924
f 938 924 952
f 949 951 923
f 924 923 951
f 990 991 922
f 961 922 991
f 935 990 922
f 936 960 921
f 934 920 947
f 934 935 920
f 933 947 920
f 922 920 935
f 959 919 960
f 921 960 919
f 959 966 918
f 919 959 918
f 964 965 917
f 932 917 965
f 964 916 966
f 918 966 916
f 917 916 964
f 946 957 915
f 931 946 915
f 963 914 973
f 930 973 914
f 962 913 963
f 914 963 913
f 956 912 972
f 928 972 912
f 942 911 953
f 926 953 911
f 950 969 910
f 937 950 910
f 936 910 969
f 932 933 909
f 917 932 908
f 909 908 932
f 915 907 931
f 945 906 957
f 915 957 906
f 930 905 945
f 906 945 905
f 931 904 956
f 912 956 904
f 907 904 931
f 955 903 962
f 913 962 903
f 911 902 926
f 926 901 938
f 902 901 926
f 901 900 938
f 924 938 898
f 900 898 938
f 899 898 900
f 937 897 970
f 925 970 897
f 898 899 896
f 923 924 895
f 898 895 924
f 896 895 898
f 949 894 961
f 923 894 949
f 922 961 894
f 921 893 936
f 910 936 893
f 920 892 933
f 920 922 892
f 909 933 892
f 894 892 922
f 919 891 921
f 893 921 891
f 918 890 919
f 891 919 890
f 908 889 917
f 916 917 101
f 888 101 917
f 916 135 918
f 890 918 135
f 101 135 916
f 927 887 944
f 899 900 886
f 910 885 937
f 895 896 884
f 895 883 923
f 894 923 883
f 884 883 895
f 893 882 910
f 885 910 882
f 883 884 881
f 891 880 893
f 882 893 880
f 889 879 917
f 888 917 879
f 914 878 930
f 913 878 914
f 905 930 878
f 929 877 955
f 903 955 877
f 929 944 876
f 887 876 944
f 942 954 875
f 927 943 874
f 941 873 943
f 874 943 873
f 900 901 872
f 886 900 872
f 940 871 941
f 873 941 871
f 939 870 940
f 871 940 870
f 882 869 885
f 881 867 883
f 868 867 881
f 892 866 909
f 892 894 866
f 880 865 882
f 869 882 865
f 908 909 864
f 866 864 909
f 890 863 891
f 880 891 863
f 889 908 862
f 879 889 862
f 864 862 908
f 135 101 861
f 135 860 890
f 863 890 860
f 862 859 879
f 101 888 858
f 879 858 888
f 859 858 879
f 135 101 136
f 861 101 136
f 861 136 135
f 860 135 136
f 858 136 101
f 903 857 913
f 878 913 857
f 877 856 903
f 857 903 856
f 856 877 855
f 877 929 854
f 876 854 929
f 855 877 854
f 912 853 928
f 928 852 954
f 875 954 852
f 853 852 928
f 887 927 851
f 874 851 927
f 911 942 850
f 875 850 942
f 902 911 849
f 901 902 849
f 872 901 849
f 850 849 911
f 925 847 939
f 870 939 847
f 886 846 899
f 848 846 886
f 896 899 845
f 846 845 899
f 897 937 844
f 885 844 937
f 884 896 843
f 845 843 896
f 881 884 842
f 868 881 842
f 843 842 884
f 883 841 894
f 867 841 883
f 866 894 841
f 865 880 840
f 863 840 880
f 860 839 863
f 840 863 839
f 136 838 860
f 839 860 838
f 907 915 837
f 906 837 915
f 905 836 906
f 837 906 836
f 878 835 905
f 836 905 835
f 904 834 912
f 904 907 834
f 853 912 834
f 854 876 833
f 854 833 855
f 876 887 832
f 833 876 832
f 851 831 887
f 832 887 831
f 872 830 886
f 849 830 872
f 848 886 830
f 897 829 925
f 847 925 829
f 869 828 885
f 844 885 828
f 867 868 827
f 842 827 868
f 841 867 827
f 864 866 826
f 841 826 866
f 865 825 869
f 828 869 825
f 862 864 824
f 826 824 864
f 840 823 865
f 825 865 823
f 859 862 822
f 824 822 862
f 839 821 840
f 823 840 821
f 822 820 859
f 838 819 839
f 821 839 819
f 858 859 818
f 820 818 859
f 838 136 817
f 819 838 817
f 136 858 816
f 818 816 858
f 817 136 816
f 837 815 907
f 834 907 815
f 857 814 878
f 835 878 814
f 856 813 857
f 814 857 813
f 855 812 856
f 813 856 812
f 833 811 855
f 812 855 811
f 832 810 833
f 811 833 810
f 831 809 832
f 810 832 809
f 830 849 808
f 830 808 848
f 808 807 848
f 846 848 806
f 807 806 848
f 845 846 805
f 806 805 846
f 844 804 897
f 829 897 804
f 843 845 803
f 805 803 845
f 828 802 844
f 804 844 802
f 842 843 801
f 827 842 801
f 803 801 843
f 826 841 800
f 824 826 800
f 825 799 828
f 802 828 799
f 822 824 798
f 800 798 824
f 823 797 825
f 799 825 797
f 820 822 796
f 798 796 822
f 821 795 823
f 797 823 795
f 818 820 794
f 796 794 820
f 819 793 821
f 795 821 793
f 816 818 792
f 794 792 818
f 817 791 819
f 793 819 791
f 792 790 816
f 816 789 817
f 791 817 789
f 790 789 816
f 836 788 837
f 835 787 836
f 788 836 787
f 787 835 100
f 814 137 835
f 100 835 137
f 815 837 786
f 788 786 837
f 813 785 814
f 137 814 785
f 812 784 813
f 785 813 784
f 811 783 812
f 784 812 783
f 834 782 853
f 815 782 834
f 786 782 815
f 810 781 811
f 783 811 781
f 781 810 780
f 852 853 779
f 782 779 853
f 809 778 810
f 780 810 778
f 852 777 875
f 779 777 852
f 809 831 776
f 778 809 776
f 850 875 775
f 777 775 875
f 831 851 774
f 776 831 774
f 775 773 850
f 851 874 772
f 774 851 772
f 849 850 771
f 773 771 850
f 873 770 874
f 772 874 770
f 808 849 769
f 807 808 769
f 771 769 849
f 871 768 873
f 770 873 768
f 870 767 871
f 768 871 767
f 806 807 766
f 769 766 807
f 847 765 870
f 767 870 765
f 805 806 764
f 766 764 806
f 829 763 847
f 765 847 763
f 803 805 762
f 764 762 805
f 804 761 829
f 763 829 761
f 762 760 803
f 802 759 804
f 761 804 759
f 801 758 827
f 801 803 758
f 760 758 803
f 827 757 841
f 758 757 827
f 800 841 756
f 798 800 756
f 799 755 802
f 759 802 755
f 796 798 754
f 756 754 798
f 797 753 799
f 755 799 753
f 794 796 752
f 754 752 796
f 795 751 797
f 753 797 751
f 792 794 750
f 752 750 794
f 793 749 795
f 751 795 749
f 790 792 748
f 750 748 792
f 791 747 793
f 749 793 747
f 789 790 746
f 748 746 790
f 789 745 791
f 747 791 745
f 746 745 789
f 759 744 761
f 755 743 759
f 744 759 743
f 753 742 755
f 751 742 753
f 743 755 742
f 749 741 751
f 742 751 741
f 747 740 749
f 741 749 740
f 785 739 137
f 784 738 785
f 739 785 738
f 783 737 784
f 738 784 737
f 781 736 783
f 737 783 736
f 780 735 781
f 778 735 780
f 736 781 735
f 776 734 778
f 735 778 734
f 766 769 732
f 733 732 769
f 764 766 731
f 732 731 766
f 762 764 730
f 731 730 764
f 761 729 763
f 744 729 761
f 760 762 728
f 758 760 728
f 730 728 762
f 728 727 758
f 757 758 726
f 727 726 758
f 754 756 725
f 752 754 724
f 725 724 754
f 750 752 723
f 724 723 752
f 748 750 722
f 723 722 750
f 746 748 721
f 722 721 748
f 745 720 747
f 740 747 720
f 745 746 719
f 721 719 746
f 720 745 718
f 719 718 745
f 787 97 788
f 100 717 787
f 97 787 717
f 137 100 98
f 717 100 98
f 137 99 100
f 739 99 137
f 98 100 99
f 98 99 137
f 786 788 138
f 97 138 788
f 782 786 716
f 138 716 786
f 734 776 715
f 763 714 765
f 729 714 763
f 743 713 744
f 742 712 743
f 713 743 712
f 741 711 742
f 712 742 711
f 740 710 741
f 711 741 710
f 720 709 740
f 710 740 709
f 738 708 739
f 737 707 738
f 708 738 707
f 736 706 737
f 707 737 706
f 735 705 736
f 734 705 735
f 706 736 705
f 779 782 704
f 716 704 782
f 777 779 703
f 704 703 779
f 774 702 776
f 715 776 702
f 773 775 701
f 771 773 701
f 772 700 774
f 702 774 700
f 769 771 699
f 733 769 699
f 701 699 771
f 770 698 772
f 700 772 698
f 699 697 733
f 768 696 770
f 698 770 696
f 767 695 768
f 696 768 695
f 732 733 694
f 731 732 694
f 697 694 733
f 765 693 767
f 714 693 765
f 695 767 693
f 730 731 692
f 694 692 731
f 728 730 691
f 692 691 730
f 729 744 690
f 714 729 690
f 713 690 744
f 727 728 689
f 691 689 728
f 689 688 727
f 726 727 687
f 688 687 727
f 757 95 841
f 756 841 95
f 726 95 757
f 725 756 95
f 687 95 726
f 724 725 35
f 95 35 725
f 723 724 686
f 35 686 724
f 710 685 711
f 722 723 684
f 686 684 723
f 709 683 710
f 685 710 683
f 721 722 682
f 684 682 722
f 683 709 681
f 719 721 680
f 682 680 721
f 718 679 720
f 709 720 679
f 681 709 679
f 718 719 678
f 680 678 719
f 679 718 678
f 138 677 97
f 99 739 676
f 708 676 739
f 706 675 707
f 705 674 706
f 675 706 674
f 715 673 734
f 705 734 673
f 674 705 673
f 775 777 672
f 703 672 777
f 701 775 672
f 712 671 713
f 687 688 670
f 711 669 712
f 685 669 711
f 671 712 669
f 684 686 668
f 682 684 667
f 668 667 684
f 681 666 683
f 680 682 665
f 678 680 665
f 667 665 682
f 679 664 681
f 138 97 139
f 677 139 97
f 677 138 139
f 697 699 663
f 690 713 662
f 671 662 713
f 688 689 661
f 670 688 659
f 661 659 688
f 660 659 661
f 95 687 658
f 670 658 687
f 660 95 658
f 659 658 670
f 659 660 658
f 35 95 96
f 686 35 96
f 668 686 96
f 683 657 685
f 666 657 683
f 666 681 656
f 664 656 681
f 678 655 679
f 665 655 678
f 664 679 655
f 717 654 97
f 139 97 654
f 98 653 717
f 654 717 653
f 99 652 98
f 676 652 99
f 653 98 652
f 716 138 651
f 139 651 138
f 707 650 708
f 675 650 707
f 673 649 674
f 694 697 647
f 692 694 647
f 663 647 697
f 691 692 646
f 647 646 692
f 693 714 645
f 690 645 714
f 662 645 690
f 689 691 644
f 661 689 644
f 646 644 691
f 35 95 36
f 660 36 95
f 96 95 36
f 96 35 36
f 669 643 671
f 669 685 642
f 657 642 685
f 643 669 642
f 657 666 641
f 656 641 666
f 642 657 641
f 656 664 640
f 641 656 640
f 676 708 638
f 650 638 708
f 639 676 638
f 704 716 637
f 651 637 716
f 673 715 636
f 649 673 636
f 663 699 635
f 648 635 699
f 644 646 634
f 660 661 633
f 644 633 661
f 634 633 644
f 667 668 632
f 665 667 631
f 632 631 667
f 655 665 630
f 631 630 665
f 654 629 139
f 651 139 629
f 652 676 628
f 639 628 676
f 674 627 675
f 649 627 674
f 703 704 626
f 637 626 704
f 702 625 715
f 636 715 625
f 699 701 624
f 648 699 624
f 647 663 623
f 646 647 623
f 635 623 663
f 634 646 623
f 693 622 695
f 645 622 693
f 36 660 621
f 633 621 660
f 662 671 620
f 643 620 671
f 642 619 643
f 96 618 668
f 36 618 96
f 632 668 618
f 641 617 642
f 619 642 617
f 640 616 641
f 617 641 616
f 630 615 655
f 655 614 664
f 640 664 614
f 615 614 655
f 653 613 654
f 629 654 613
f 652 612 653
f 628 612 652
f 700 611 702
f 698 611 700
f 625 702 611
f 696 610 698
f 611 698 610
f 610 696 609
f 635 648 608
f 624 608 648
f 695 607 696
f 622 607 695
f 609 696 607
f 633 634 606
f 621 633 606
f 645 662 605
f 622 645 605
f 620 605 662
f 630 631 604
f 615 630 603
f 604 603 630
f 613 653 602
f 612 602 653
f 637 651 601
f 629 601 651
f 650 675 600
f 627 600 675
f 672 703 599
f 626 599 703
f 672 598 701
f 624 701 598
f 599 598 672
f 623 635 597
f 623 597 634
f 608 597 635
f 606 634 597
f 621 596 36
f 620 643 595
f 619 595 643
f 618 36 594
f 617 593 619
f 595 619 593
f 618 592 632
f 616 591 617
f 593 617 591
f 631 632 590
f 604 631 590
f 592 590 632
f 590 589 604
f 616 640 588
f 614 588 640
f 591 616 588
f 638 587 639
f 638 650 586
f 600 586 650
f 587 638 586
f 636 585 649
f 627 649 585
f 608 624 584
f 598 584 624
f 597 608 583
f 597 583 606
f 584 583 608
f 606 582 621
f 596 621 582
f 583 582 606
f 590 592 581
f 589 590 581
f 581 580 589
f 603 604 579
f 589 579 604
f 580 579 589
f 579 578 603
f 614 615 577
f 603 577 615
f 588 614 577
f 578 577 603
f 613 576 629
f 601 629 576
f 628 639 575
f 587 575 639
f 626 637 574
f 601 574 637
f 625 573 636
f 611 573 625
f 585 636 573
f 607 622 572
f 605 572 622
f 605 620 571
f 595 571 620
f 596 570 36
f 594 36 570
f 594 569 618
f 592 618 569
f 581 592 568
f 569 568 592
f 580 581 567
f 568 567 581
f 579 580 565
f 567 565 580
f 566 565 567
f 602 564 613
f 576 613 564
f 612 628 563
f 575 563 628
f 585 562 627
f 593 561 595
f 602 612 560
f 564 602 560
f 563 560 612
f 610 559 611
f 573 611 559
f 607 558 609
f 572 558 607
f 572 605 557
f 571 557 605
f 558 572 557
f 576 554 601
f 574 601 554
f 586 600 553
f 600 627 552
f 562 552 627
f 553 600 552
f 599 626 551
f 574 551 626
f 609 550 610
f 559 610 550
f 558 549 609
f 550 609 549
f 583 584 548
f 582 583 548
f 582 547 596
f 570 596 547
f 548 547 582
f 571 595 546
f 561 546 595
f 555 546 561
f 570 545 594
f 568 569 544
f 567 568 543
f 566 567 543
f 544 543 568
f 543 542 566
f 564 541 576
f 554 576 541
f 563 575 540
f 586 539 587
f 575 587 539
f 553 539 586
f 540 575 539
f 573 538 585
f 562 585 538
f 559 538 573
f 598 599 537
f 551 537 599
f 584 598 536
f 548 584 536
f 537 536 598
f 569 594 535
f 545 535 594
f 544 569 535
f 542 532 566
f 534 532 542
f 591 531 593
f 561 593 531
f 565 566 530
f 532 530 566
f 588 529 591
f 531 591 529
f 565 528 579
f 530 528 565
f 577 527 588
f 529 588 527
f 578 579 526
f 528 526 579
f 577 578 525
f 527 577 525
f 526 525 578
f 560 524 564
f 560 563 524
f 541 564 524
f 540 524 563
f 557 523 558
f 549 558 523
f 557 571 522
f 546 522 571
f 552 562 521
f 538 521 562
f 550 520 559
f 538 559 520
f 521 538 520
f 555 556 519
f 546 555 519
f 555 518 556
f 555 561 517
f 531 517 561
f 518 555 517
f 533 556 516
f 533 516 534
f 532 534 516
f 518 516 556
f 554 515 574
f 551 574 515
f 549 514 550
f 520 550 514
f 523 513 549
f 514 549 513
f 523 557 512
f 522 512 557
f 513 523 512
f 547 511 570
f 545 570 511
f 533 510 556
f 519 556 510
f 552 509 553
f 521 509 552
f 520 508 521
f 514 508 520
f 509 521 508
f 541 507 554
f 515 554 507
f 524 506 541
f 524 540 506
f 507 541 506
f 539 505 540
f 506 540 505
f 539 553 503
f 509 503 553
f 504 539 503
f 505 539 502
f 504 502 539
f 537 551 501
f 515 501 551
f 535 545 500
f 511 500 545
f 543 544 499
f 542 543 499
f 510 533 498
f 525 526 496
f 497 496 526
f 502 504 495
f 508 494 509
f 503 509 494
f 547 548 493
f 522 546 492
f 519 492 546
f 535 491 544
f 500 491 535
f 499 544 491
f 534 542 490
f 499 490 542
f 533 534 489
f 498 533 489
f 490 489 534
f 525 488 527
f 496 488 525
f 496 497 487
f 488 496 486
f 487 486 496
f 505 485 506
f 502 485 505
f 495 485 502
f 503 484 504
f 495 504 484
f 494 484 503
f 536 537 483
f 501 483 537
f 536 482 548
f 493 548 482
f 483 482 536
f 510 481 519
f 498 481 510
f 492 519 481
f 511 547 480
f 500 511 480
f 493 480 547
f 528 530 479
f 527 478 529
f 488 478 527
f 526 528 477
f 497 526 477
f 479 477 528
f 487 497 476
f 477 476 497
f 486 475 488
f 513 474 514
f 508 514 474
f 494 508 474
f 512 473 513
f 474 513 473
f 512 522 472
f 492 472 522
f 473 512 472
f 507 471 515
f 501 515 471
f 485 495 470
f 484 494 469
f 474 469 494
f 473 469 474
f 484 468 495
f 472 468 473
f 470 495 468
f 469 468 484
f 469 473 468
f 516 467 532
f 516 518 466
f 467 516 466
f 529 465 531
f 517 531 465
f 517 465 518
f 478 465 529
f 466 518 465
f 530 532 464
f 479 530 464
f 467 464 532
f 476 477 463
f 93 463 477
f 486 487 462
f 475 486 461
f 462 461 486
f 461 460 475
f 506 459 507
f 485 459 506
f 470 459 485
f 481 458 492
f 472 492 458
f 468 472 458
f 481 498 457
f 458 481 457
f 477 479 42
f 93 477 42
f 475 456 488
f 460 455 475
f 456 475 455
f 468 454 470
f 458 454 468
f 478 488 453
f 456 453 488
f 42 93 94
f 476 452 487
f 462 487 452
f 455 460 451
f 457 450 458
f 454 458 450
f 464 89 479
f 464 467 89
f 42 479 89
f 42 93 37
f 94 93 37
f 94 42 37
f 463 448 476
f 452 476 448
f 449 448 463
f 460 461 447
f 451 460 446
f 447 446 460
f 471 507 445
f 459 445 507
f 483 501 444
f 39 483 444
f 459 470 443
f 454 443 470
f 482 483 41
f 39 41 483
f 38 39 90
f 442 90 38
f 41 39 90
f 491 500 441
f 480 441 500
f 457 498 440
f 466 439 467
f 89 467 439
f 463 93 438
f 37 438 93
f 449 463 438
f 455 436 456
f 437 456 436
f 461 462 435
f 447 461 435
f 446 434 451
f 471 433 501
f 444 501 433
f 38 39 92
f 444 92 39
f 41 39 92
f 92 432 38
f 482 431 493
f 480 493 430
f 441 480 430
f 431 430 493
f 491 429 499
f 490 499 429
f 489 490 429
f 441 429 491
f 489 428 498
f 440 498 428
f 429 428 489
f 439 427 89
f 427 439 426
f 465 478 425
f 465 425 466
f 453 425 478
f 439 466 425
f 426 439 425
f 94 42 87
f 89 87 42
f 37 42 87
f 37 94 87
f 451 424 455
f 436 455 424
f 452 423 462
f 448 423 452
f 435 462 423
f 446 447 422
f 434 446 422
f 445 421 471
f 433 471 421
f 38 39 40
f 41 39 40
f 90 39 40
f 90 38 40
f 90 41 40
f 92 39 40
f 92 38 40
f 92 40 41
f 450 420 454
f 443 454 420
f 450 457 419
f 440 419 457
f 438 37 418
f 453 456 417
f 437 417 456
f 41 416 482
f 431 482 416
f 90 41 91
f 40 41 91
f 40 91 90
f 416 41 91
f 90 442 415
f 91 90 415
f 420 450 414
f 419 414 450
f 426 413 427
f 423 412 435
f 442 38 411
f 432 411 38
f 89 42 88
f 37 42 88
f 87 42 88
f 87 89 88
f 87 37 88
f 418 37 88
f 427 410 89
f 88 89 410
f 425 453 409
f 425 409 426
f 417 409 453
f 448 449 408
f 423 448 407
f 408 407 448
f 434 406 451
f 424 451 406
f 422 406 434
f 435 405 447
f 422 447 405
f 412 405 435
f 413 426 404
f 438 403 449
f 408 449 403
f 436 401 437
f 402 437 401
f 424 400 436
f 401 436 400
f 410 427 86
f 418 399 438
f 403 438 399
f 417 437 398
f 402 398 437
f 433 397 444
f 92 444 396
f 397 396 444
f 432 92 395
f 396 395 92
f 411 432 394
f 395 394 432
f 415 442 393
f 411 393 442
f 394 393 411
f 404 140 413
f 413 43 427
f 86 427 43
f 140 43 413
f 410 392 88
f 86 392 410
f 406 391 424
f 400 424 391
f 406 422 390
f 412 423 389
f 405 412 389
f 421 445 388
f 445 459 387
f 388 445 387
f 421 386 433
f 397 433 386
f 388 386 421
f 443 385 459
f 387 459 385
f 420 384 443
f 385 443 384
f 414 383 420
f 384 420 383
f 415 382 91
f 393 382 415
f 414 419 381
f 383 414 381
f 430 431 380
f 430 379 441
f 380 379 430
f 381 419 378
f 429 441 377
f 379 377 441
f 419 440 376
f 378 419 376
f 428 429 375
f 377 375 429
f 428 374 440
f 375 374 428
f 376 440 373
f 374 373 440
f 88 372 418
f 399 418 372
f 392 372 88
f 409 417 371
f 398 371 417
f 392 86 44
f 389 423 370
f 389 369 405
f 416 368 431
f 380 431 368
f 91 367 416
f 368 416 367
f 382 366 91
f 367 91 366
f 43 140 45
f 409 365 426
f 404 426 365
f 140 404 365
f 371 365 409
f 372 392 364
f 44 364 392
f 44 86 85
f 364 44 85
f 43 84 86
f 43 84 140
f 44 86 84
f 45 140 84
f 45 43 84
f 85 86 84
f 85 44 84
f 407 363 423
f 370 423 363
f 405 362 422
f 390 422 362
f 369 362 405
f 393 394 361
f 382 393 361
f 403 360 408
f 407 408 358
f 363 407 358
f 360 358 408
f 401 357 402
f 359 402 357
f 400 356 401
f 357 401 356
f 391 355 400
f 356 400 355
f 391 406 354
f 390 354 406
f 355 391 354
f 396 397 353
f 395 396 352
f 394 395 352
f 361 394 352
f 353 352 396
f 45 83 43
f 84 43 83
f 84 45 83
f 371 398 351
f 85 350 364
f 399 349 403
f 360 403 349
f 350 85 348
f 84 46 85
f 348 85 46
f 398 402 347
f 359 347 402
f 351 398 347
f 362 369 346
f 369 389 345
f 346 369 345
f 366 382 344
f 361 344 382
f 45 140 343
f 365 343 140
f 365 371 343
f 83 45 343
f 351 343 371
f 372 342 399
f 364 342 372
f 349 399 342
f 350 341 364
f 342 364 341
f 46 84 82
f 362 340 390
f 354 390 340
f 370 339 389
f 345 389 339
f 338 337 353
f 352 336 361
f 352 353 336
f 344 361 336
f 337 336 353
f 341 350 335
f 348 334 350
f 335 350 334
f 83 333 84
f 82 84 333
f 46 332 348
f 334 348 332
f 340 362 331
f 386 330 397
f 353 397 330
f 338 353 330
f 366 329 367
f 344 329 366
f 336 329 344
f 336 337 329
f 368 328 380
f 367 327 368
f 337 338 327
f 329 327 367
f 329 337 327
f 328 368 327
f 328 327 338
f 82 141 46
f 332 46 141
f 363 326 370
f 339 370 326
f 346 325 362
f 331 362 325
f 387 324 388
f 324 387 323
f 385 322 387
f 323 387 322
f 386 388 321
f 330 386 321
f 324 321 388
f 384 320 385
f 322 385 320
f 383 319 384
f 320 384 319
f 381 318 383
f 319 383 318
f 379 380 317
f 328 317 380
f 378 316 381
f 318 381 316
f 377 379 315
f 317 315 379
f 376 314 378
f 316 378 314
f 375 377 313
f 315 313 377
f 373 312 376
f 374 375 311
f 313 311 375
f 373 374 310
f 312 373 310
f 311 310 374
f 314 376 309
f 312 309 376
f 343 351 308
f 333 83 78
f 82 46 47
f 333 47 82
f 141 47 46
f 141 82 47
f 358 307 363
f 326 363 307
f 345 306 346
f 325 346 306
f 355 305 356
f 354 48 355
f 305 355 48
f 339 80 345
f 306 345 80
f 343 304 83
f 308 304 343
f 78 83 304
f 78 304 308
f 308 351 303
f 335 302 341
f 334 301 335
f 302 335 301
f 332 300 334
f 301 334 300
f 141 299 332
f 300 332 299
f 358 360 298
f 307 358 297
f 298 297 358
f 356 296 357
f 305 296 356
f 340 81 354
f 48 354 81
f 331 295 340
f 325 295 331
f 81 340 295
f 81 295 48
f 342 294 349
f 341 294 342
f 302 294 341
f 78 293 333
f 47 333 293
f 47 292 141
f 299 141 292
f 293 292 47
f 347 291 351
f 303 351 291
f 349 290 360
f 298 360 290
f 294 290 349
f 347 359 289
f 291 347 289
f 357 288 359
f 296 288 357
f 289 359 288
f 326 287 339
f 80 339 287
f 292 293 286
f 48 51 305
f 81 51 48
f 299 285 300
f 292 285 299
f 286 285 292
f 81 48 79
f 51 79 48
f 51 81 79
f 307 284 326
f 287 326 284
f 306 49 325
f 80 49 306
f 295 325 49
f 295 49 48
f 51 48 49
f 78 308 76
f 301 283 302
f 300 282 301
f 285 282 300
f 283 301 282
f 76 281 78
f 284 307 280
f 296 305 142
f 51 142 305
f 79 142 51
f 287 50 80
f 49 80 50
f 49 80 279
f 50 279 80
f 50 49 279
f 285 286 278
f 282 285 278
f 293 78 277
f 286 293 277
f 278 286 277
f 303 276 308
f 76 308 276
f 297 274 307
f 280 307 274
f 273 275 272
f 272 271 273
f 49 269 51
f 50 269 49
f 270 269 50
f 277 78 268
f 294 302 267
f 290 294 267
f 283 267 302
f 291 266 303
f 276 303 266
f 290 265 298
f 267 265 290
f 297 298 264
f 274 297 264
f 265 264 298
f 288 296 263
f 142 263 296
f 79 51 52
f 142 51 52
f 142 79 52
f 271 272 52
f 270 271 52
f 269 52 51
f 269 270 52
f 284 262 287
f 50 287 262
f 270 50 262
f 282 261 283
f 278 261 282
f 267 283 261
f 289 260 291
f 266 291 260
f 75 54 259
f 288 258 289
f 263 258 288
f 260 289 258
f 280 257 284
f 262 284 257
f 262 257 270
f 75 54 53
f 54 273 256
f 259 54 256
f 257 280 255
f 270 254 271
f 257 254 270
f 263 142 253
f 52 253 142
f 52 272 253
f 277 252 278
f 261 278 252
f 76 78 77
f 281 77 78
f 281 76 77
f 276 77 76
f 268 78 77
f 265 267 251
f 261 251 267
f 252 251 261
f 273 249 275
f 258 249 260
f 274 248 280
f 259 248 75
f 255 280 248
f 255 248 259
f 272 275 247
f 258 263 247
f 253 272 247
f 253 247 263
f 249 247 275
f 249 258 247
f 271 246 273
f 256 273 246
f 254 246 271
f 256 245 259
f 255 259 245
f 255 245 257
f 254 257 245
f 246 245 256
f 246 254 245
f 268 244 277
f 252 277 244
f 77 243 268
f 244 268 243
f 251 242 265
f 75 54 55
f 53 54 55
f 53 75 55
f 250 75 55
f 264 265 74
f 75 54 74
f 53 54 74
f 53 75 74
f 250 74 75
f 242 74 265
f 55 54 74
f 55 75 74
f 55 53 74
f 55 74 250
f 264 241 274
f 248 274 241
f 248 241 75
f 74 241 264
f 74 75 241
f 323 240 324
f 322 239 323
f 240 323 239
f 320 238 322
f 239 322 238
f 321 324 237
f 240 237 324
f 319 236 320
f 238 320 236
f 321 235 330
f 237 235 321
f 318 234 319
f 236 319 234
f 330 233 338
f 328 338 233
f 235 233 330
f 317 328 232
f 233 232 328
f 316 231 318
f 234 318 231
f 315 317 230
f 232 230 317
f 314 229 316
f 231 316 229
f 313 315 228
f 230 228 315
f 309 227 314
f 229 314 227
f 311 313 226
f 228 226 313
f 310 311 225
f 226 225 311
f 309 312 224
f 227 309 223
f 224 223 309
f 310 222 312
f 225 222 310
f 224 312 222
f 251 252 221
f 244 221 252
f 242 251 221
f 243 77 220
f 266 219 276
f 77 276 219
f 260 217 266
f 249 217 260
f 219 266 217
f 74 216 55
f 54 73 273
f 53 54 73
f 249 273 73
f 55 54 73
f 55 53 73
f 216 73 55
f 217 249 215
f 73 215 249
f 243 214 244
f 221 244 214
f 220 213 243
f 218 213 220
f 214 243 213
f 74 242 212
f 221 212 242
f 216 74 212
f 214 212 221
f 220 77 211
f 219 211 77
f 215 210 218
f 213 218 210
f 213 210 214
f 212 210 216
f 212 214 210
f 218 220 209
f 217 209 219
f 211 209 220
f 211 219 209
f 73 216 208
f 215 73 208
f 210 208 216
f 210 215 208
f 215 218 207
f 215 207 217
f 209 207 218
f 209 217 207
f 239 206 240
f 237 240 206
f 238 205 239
f 206 239 205
f 236 204 238
f 205 238 204
f 235 237 203
f 206 203 237
f 234 202 236
f 204 236 202
f 233 235 201
f 203 201 235
f 231 200 234
f 202 234 200
f 232 233 199
f 201 199 233
f 230 232 198
f 199 198 232
f 229 197 231
f 200 231 197
f 228 230 196
f 198 196 230
f 227 195 229
f 197 229 195
f 226 228 194
f 196 194 228
f 223 193 227
f 195 227 193
f 225 226 192
f 194 192 226
f 222 225 191
f 192 191 225
f 222 190 224
f 191 190 222
f 223 224 189
f 190 189 224
f 193 223 188
f 189 188 223
f 194 196 187
f 188 186 193
f 192 194 185
f 191 192 185
f 190 191 185
f 187 185 194
f 189 190 184
f 185 184 190
f 188 189 183
f 186 188 183
f 184 183 189
f 203 206 182
f 205 181 206
f 182 206 181
f 204 72 205
f 181 205 72
f 202 56 204
f 200 56 202
f 72 204 56
f 201 203 180
f 182 180 203
f 199 201 179
f 180 179 201
f 198 199 178
f 179 178 199
f 197 177 200
f 56 200 177
f 178 176 198
f 195 175 197
f 177 197 175
f 196 198 174
f 187 196 174
f 176 174 198
f 193 173 195
f 186 173 193
f 175 195 173
f 177 172 56
f 175 172 177
f 173 186 172
f 173 172 175
f 174 171 187
f 183 170 186
f 172 186 170
f 185 187 169
f 184 185 169
f 183 184 169
f 171 169 187
f 170 183 169
f 180 182 71
f 179 180 168
f 71 168 180
f 178 179 167
f 176 178 167
f 168 167 179
f 174 176 166
f 167 166 176
f 171 174 165
f 166 165 174
f 181 143 182
f 71 182 143
f 72 60 181
f 56 72 60
f 143 181 60
f 56 58 72
f 172 58 56
f 60 72 58
f 60 56 58
f 60 56 59
f 58 56 59
f 58 60 59
f 170 164 172
f 58 172 164
f 164 170 163
f 163 170 65
f 165 63 171
f 65 62 63
f 65 62 66
f 63 62 66
f 63 65 66
f 168 71 70
f 143 71 70
f 143 57 71
f 60 57 143
f 58 60 57
f 59 60 57
f 59 58 57
f 70 71 57
f 70 57 143
f 60 56 61
f 58 56 61
f 58 60 61
f 59 56 61
f 59 60 61
f 59 58 61
f 57 60 61
f 57 58 61
f 57 59 61
f 167 168 162
f 70 162 168
f 164 161 58
f 61 58 161
f 166 167 160
f 162 160 167
f 165 166 159
f 160 159 166
f 63 165 158
f 159 158 165
f 169 171 69
f 169 69 170
f 65 170 69
f 65 62 69
f 63 69 171
f 63 62 69
f 63 65 69
f 66 62 69
f 66 65 69
f 66 63 69
f 161 164 157
f 163 156 164
f 65 156 163
f 157 164 156
f 65 62 64
f 63 62 64
f 63 65 64
f 66 62 64
f 66 65 64
f 66 63 64
f 69 62 64
f 69 65 64
f 69 63 64
f 69 66 64
f 57 155 70
f 162 70 155
f 160 162 155
f 61 154 57
f 155 57 154
f 161 153 61
f 154 61 153
f 157 152 161
f 153 161 152
f 159 160 151
f 155 151 160
f 154 151 155
f 158 159 150
f 151 150 159
f 63 62 68
f 158 68 63
f 64 62 68
f 64 63 68
f 150 68 158
f 156 65 149
f 156 149 157
f 153 148 154
f 151 154 148
f 150 151 148
f 152 147 153
f 148 153 147
f 68 150 146
f 148 146 150
f 147 146 148
f 152 157 145
f 149 145 157
f 147 152 145
f 146 144 68
f 146 147 144
f 145 144 147
f 65 62 67
f 63 62 67
f 63 65 67
f 66 62 67
f 66 65 67
f 66 63 67
f 64 62 67
f 64 65 67
f 64 63 67
f 64 66 67
f 68 62 67
f 68 63 67
f 68 64 67
f 149 65 67
f 145 149 67
f 144 67 68
f 144 145 67

