# https://github.com/mikedh/trimesh
v 0.33789062 -0.04492188 0.58789062
v 0.34570312 -0.09179688 0.59570312
v 0.31835938 -0.07617188 0.61132812
v -0.31835938 -0.06054688 0.55664062
v 0.31835938 -0.06054688 0.55664062
v -0.11523438 -0.00585938 0.21679688
v 0.23242188 0.29492188 -0.00585938
v 0.28320312 0.29492188 -0.00585938
v -0.13867188 0.22851562 -0.00585938
v -0.11523438 0.23632812 -0.00585938
v -0.16601562 0.21289062 -0.00585938
v 0.21289062 0.22851562 0.00585938
v 0.22070312 0.21289062 0.00585938
v -0.40820312 0.29492188 0.00585938
v -0.40039062 0.27929688 -0.01367188
v -0.33789062 0.17382812 -0.04492188
v -0.31835938 0.11132812 -0.38085938
v 0.35351562 -0.08398438 -0.60351562
v 0.31835938 -0.04492188 -0.58789062
v -0.31835938 -0.06835938 -0.62304688
v -0.31835938 -0.31054688 -0.82617188
v -0.31835938 -0.32226562 -0.82617188
v -0.33007812 -0.32226562 -0.84179688
v -0.33007812 -0.31054688 -0.84179688
v -0.36132812 -0.32226562 -0.77929688
v -0.31835938 -0.07617188 -0.61132812
v -0.31835938 -0.04492188 -0.58789062
v 0.31835938 -0.06054688 -0.55664062
v 0.35351562 -0.04492188 -0.58789062
v -0.31835938 -0.06054688 -0.55664062
v -0.11523438 0.03710938 -0.43164062
v 0.08398438 -0.00585938 -0.24414062
v 0.33789062 0.17382812 -0.36523438
v 0.31835938 0.09179688 -0.34960938
v 0.31054688 0.11132812 -0.34960938
v 0.31054688 0.11132812 -0.33398438
v 0.31835938 0.11132812 -0.33398438
v -0.33789062 0.11132812 -0.22460938
v 0.33789062 0.17382812 -0.04492188
v 0.54492188 0.27929688 -0.02148438
v 0.53320312 0.24804688 0.01367188
v -0.40039062 0.29492188 -0.01367188
v -0.40039062 0.27929688 0.00585938
v 0.21289062 0.21289062 -0.01367188
v 0.21289062 0.22851562 -0.01367188
v -0.14648438 0.22851562 -0.00585938
v -0.15820312 0.21289062 -0.00585938
v 0.21289062 0.27929688 -0.00585938
v 0.27539062 0.29492188 -0.00585938
v 0.22460938 0.29492188 -0.00585938
v 0.21289062 0.21289062 0.00585938
v 0.33789062 0.17382812 0.04492188
v -0.33789062 0.17382812 0.04492188
v -0.33789062 0.17382812 0.35742188
v 0.11523438 0.04492188 0.40820312
v -0.31835938 -0.07617188 0.61132812
v 0.35351562 -0.06054688 0.55664062
v 0.31835938 -0.04492188 0.58789062
v -0.31835938 -0.02929688 0.60351562
v -0.31835938 -0.04492188 0.58789062
v 0.34570312 -0.03710938 0.60351562
v 0.36132812 -0.07617188 0.63085938
v -0.31835938 -0.05273438 0.63867188
v 0.35351562 -0.05273438 0.64648438
v 0.33789062 0.09179688 0.37304688
v -0.35351562 0.13476562 -0.18554688
v -0.31835938 0.09179688 -0.34960938
v 0.31835938 -0.07617188 -0.61132812
v -0.31835938 -0.31054688 -0.79492188
v -0.31835938 -0.32226562 -0.77929688
v -0.53320312 0.17382812 -0.99804688
v -0.53320312 0.22851562 -0.99804688
v 0.53320312 0.17382812 -0.99804688
v 0.53320312 0.22851562 -0.99804688
v -0.36132812 -0.32226562 -0.85351562
v -0.36132812 -0.31054688 -0.85351562
v 0.32617188 -0.31054688 -0.85351562
v 0.35351562 -0.32226562 -0.85351562
v 0.32617188 -0.32226562 -0.84179688
v 0.35351562 -0.31054688 -0.84179688
v -0.36132812 -0.32226562 -0.82617188
v -0.36132812 -0.31054688 -0.82617188
v 0.31835938 -0.32226562 -0.82617188
v 0.31835938 -0.31054688 -0.82617188
v 0.36132812 -0.32226562 -0.82617188
v 0.36132812 -0.31054688 -0.82617188
v -0.35351562 -0.31054688 -0.79492188
v 0.31835938 -0.31054688 -0.79492188
v 0.35351562 -0.31054688 -0.79492188
v -0.35351562 -0.32226562 -0.77929688
v -0.33789062 0.17382812 -0.77929688
v 0.31835938 -0.32226562 -0.77929688
v 0.33789062 0.17382812 -0.77929688
v 0.36132812 -0.32226562 -0.77929688
v -0.35351562 -0.32226562 -0.75976562
v -0.33789062 0.17382812 -0.72851562
v 0.33789062 0.17382812 -0.72851562
v -0.11523438 0.09960938 -0.69726562
v -0.35351562 -0.05273438 -0.63867188
v -0.31835938 -0.05273438 -0.63867188
v 0.31835938 -0.05273438 -0.63867188
v 0.35351562 -0.05273438 -0.63867188
v -0.36132812 -0.06835938 -0.63085938
v 0.36132812 -0.06835938 -0.63085938
v -0.33789062 -0.02929688 -0.61132812
v 0.33789062 -0.02929688 -0.61132812
v -0.35351562 -0.08398438 -0.60351562
v -0.31835938 -0.02929688 -0.60351562
v 0.31835938 -0.06835938 -0.60351562
v 0.31835938 -0.02929688 -0.60351562
v -0.35351562 -0.04492188 -0.58789062
v 0.31835938 -0.07617188 -0.58789062
v -0.33789062 -0.04492188 -0.57226562
v 0.33789062 -0.04492188 -0.57226562
v -0.35351562 -0.06054688 -0.55664062
v 0.35351562 -0.06054688 -0.55664062
v 0.08398438 0.03710938 -0.51367188
v -0.35351562 0.11132812 -0.38085938
v -0.22070312 0.09960938 -0.38085938
v -0.22070312 0.11132812 -0.38085938
v 0.22460938 0.09960938 -0.38085938
v 0.22460938 0.11132812 -0.38085938
v 0.31835938 0.11132812 -0.38085938
v 0.35351562 0.11132812 -0.38085938
v -0.22070312 0.08398438 -0.37304688
v 0.22460938 0.08398438 -0.37304688
v -0.33789062 0.17382812 -0.36523438
v -0.22460938 0.09960938 -0.36523438
v -0.22070312 0.11914062 -0.36523438
v 0.22460938 0.09960938 -0.36523438
v 0.22460938 0.11914062 -0.36523438
v -0.35351562 0.09179688 -0.34960938
v -0.33789062 0.12695312 -0.34960938
v -0.31835938 0.13476562 -0.34960938
v -0.31054688 0.11914062 -0.34960938
v -0.22070312 0.08398438 -0.34960938
v -0.22070312 0.11132812 -0.34960938
v 0.22460938 0.08398438 -0.34960938
v 0.22460938 0.11132812 -0.34960938
v 0.31835938 0.13476562 -0.34960938
v 0.33789062 0.12695312 -0.34960938
v 0.35351562 0.09179688 -0.34960938
v -0.22070312 0.09179688 -0.34179688
v 0.22460938 0.09179688 -0.34179688
v -0.33789062 0.11914062 -0.33398438
v -0.31835938 0.11132812 -0.33398438
v -0.31835938 0.12695312 -0.33398438
v -0.31054688 0.11132812 -0.33398438
v 0.31835938 0.12695312 -0.33398438
v 0.33789062 0.11914062 -0.33398438
v -0.35351562 0.11132812 -0.26757812
v -0.35351562 0.12695312 -0.26757812
v -0.31835938 0.11132812 -0.26757812
v -0.31835938 0.12695312 -0.26757812
v 0.31835938 0.11132812 -0.26757812
v 0.31835938 0.12695312 -0.26757812
v 0.35351562 0.11132812 -0.26757812
v 0.35351562 0.12695312 -0.26757812
v -0.35351562 0.11132812 -0.24414062
v -0.35351562 0.13476562 -0.24414062
v -0.31835938 0.11132812 -0.24414062
v -0.31835938 0.13476562 -0.24414062
v 0.31835938 0.11132812 -0.24414062
v 0.31835938 0.13476562 -0.24414062
v 0.35351562 0.11132812 -0.24414062
v 0.35351562 0.13476562 -0.24414062
v -0.34570312 0.11132812 -0.22460938
v 0.31835938 0.14257812 -0.22460938
v -0.33789062 0.11914062 -0.21679688
v -0.32617188 0.11914062 -0.21679688
v 0.31835938 0.11914062 -0.21679688
v 0.33789062 0.11914062 -0.21679688
v 0.34570312 0.14257812 -0.21679688
v -0.36132812 0.12695312 -0.20898438
v -0.36132812 0.14257812 -0.20898438
v -0.34570312 0.14257812 -0.20117188
v -0.35351562 0.14257812 -0.18554688
v -0.33789062 0.14257812 -0.18554688
v 0.33398438 0.13476562 -0.18554688
v 0.33398438 0.14257812 -0.18554688
v 0.35351562 0.13476562 -0.18554688
v 0.35351562 0.15039062 -0.18554688
v -0.54492188 0.24804688 -0.02148438
v -0.54492188 0.27929688 -0.02148438
v -0.54492188 0.28710938 -0.02148438
v -0.54492188 0.32226562 -0.02148438
v -0.35351562 0.24804688 -0.02148438
v -0.35351562 0.27929688 -0.02148438
v -0.35351562 0.28710938 -0.02148438
v -0.35351562 0.32226562 -0.02148438
v 0.35351562 0.24804688 -0.02148438
v 0.35351562 0.27929688 -0.02148438
v 0.35351562 0.28710938 -0.02148438
v 0.35351562 0.32226562 -0.02148438
v 0.53320312 0.24804688 -0.02148438
v 0.54492188 0.24804688 -0.02148438
v 0.54492188 0.32226562 -0.02148438
v -0.53320312 0.22851562 -0.01367188
v -0.53320312 0.24804688 -0.01367188
v -0.53320312 0.26367188 -0.01367188
v -0.53320312 0.29492188 -0.01367188
v -0.49804688 0.27929688 -0.01367188
v -0.49804688 0.29492188 -0.01367188
v -0.46679688 0.26367188 -0.01367188
v -0.46679688 0.27929688 -0.01367188
v -0.44335938 0.22851562 -0.01367188
v -0.44335938 0.24804688 -0.01367188
v -0.43164062 0.26367188 -0.01367188
v -0.43164062 0.27929688 -0.01367188
v -0.40820312 0.27929688 -0.01367188
v -0.31054688 0.29492188 -0.01367188
v -0.31054688 0.32226562 -0.01367188
v -0.30273438 0.27929688 -0.01367188
v -0.28320312 0.27929688 -0.01367188
v -0.25585938 0.29492188 -0.01367188
v -0.25585938 0.32226562 -0.01367188
v -0.24804688 0.27929688 -0.01367188
v -0.24804688 0.29492188 -0.01367188
v -0.22070312 0.21289062 -0.01367188
v -0.21289062 0.21289062 -0.01367188
v -0.21289062 0.22851562 -0.01367188
v -0.21289062 0.26367188 -0.01367188
v -0.21289062 0.27929688 -0.01367188
v -0.18164062 0.19726562 -0.01367188
v -0.18164062 0.21289062 -0.01367188
v -0.18164062 0.26367188 -0.01367188
v -0.18164062 0.27929688 -0.01367188
v -0.15039062 0.21289062 -0.01367188
v -0.15039062 0.22851562 -0.01367188
v -0.15039062 0.27929688 -0.01367188
v -0.15039062 0.29492188 -0.01367188
v -0.11523438 0.21289062 -0.01367188
v -0.11523438 0.22851562 -0.01367188
v -0.11523438 0.27929688 -0.01367188
v -0.11523438 0.29492188 -0.01367188
v -0.08398438 0.19726562 -0.01367188
v -0.08398438 0.21289062 -0.01367188
v -0.08398438 0.26367188 -0.01367188
v -0.08398438 0.27929688 -0.01367188
v -0.04882812 0.19726562 -0.01367188
v -0.04882812 0.21289062 -0.01367188
v -0.04882812 0.26367188 -0.01367188
v -0.04882812 0.27929688 -0.01367188
v -0.01757812 0.21289062 -0.01367188
v -0.01757812 0.22851562 -0.01367188
v -0.01757812 0.27929688 -0.01367188
v -0.01757812 0.29492188 -0.01367188
v 0.01757812 0.21289062 -0.01367188
v 0.01757812 0.22851562 -0.01367188
v 0.01757812 0.27929688 -0.01367188
v 0.01757812 0.29492188 -0.01367188
v 0.04882812 0.19726562 -0.01367188
v 0.04882812 0.21289062 -0.01367188
v 0.04882812 0.26367188 -0.01367188
v 0.04882812 0.27929688 -0.01367188
v 0.08398438 0.19726562 -0.01367188
v 0.08398438 0.21289062 -0.01367188
v 0.08398438 0.26367188 -0.01367188
v 0.08398438 0.27929688 -0.01367188
v 0.11523438 0.21289062 -0.01367188
v 0.11523438 0.22851562 -0.01367188
v 0.11523438 0.27929688 -0.01367188
v 0.11523438 0.29492188 -0.01367188
v 0.14648438 0.21289062 -0.01367188
v 0.14648438 0.22851562 -0.01367188
v 0.14648438 0.27929688 -0.01367188
v 0.14648438 0.29492188 -0.01367188
v 0.18164062 0.19726562 -0.01367188
v 0.18164062 0.21289062 -0.01367188
v 0.18164062 0.26367188 -0.01367188
v 0.18164062 0.27929688 -0.01367188
v 0.20507812 0.26367188 -0.01367188
v 0.21289062 0.27929688 -0.01367188
v 0.22070312 0.21289062 -0.01367188
v 0.24804688 0.27929688 -0.01367188
v 0.24804688 0.29492188 -0.01367188
v 0.25976562 0.29492188 -0.01367188
v 0.25976562 0.32226562 -0.01367188
v 0.26757812 0.27929688 -0.01367188
v 0.26757812 0.29492188 -0.01367188
v 0.31054688 0.29492188 -0.01367188
v 0.31054688 0.32226562 -0.01367188
v 0.40039062 0.27929688 -0.01367188
v 0.40039062 0.29492188 -0.01367188
v 0.43164062 0.26367188 -0.01367188
v 0.43164062 0.27929688 -0.01367188
v 0.44335938 0.22851562 -0.01367188
v 0.44335938 0.24804688 -0.01367188
v 0.46679688 0.26367188 -0.01367188
v 0.46679688 0.27929688 -0.01367188
v 0.49804688 0.27929688 -0.01367188
v 0.49804688 0.29492188 -0.01367188
v 0.52929688 0.27929688 -0.01367188
v 0.52929688 0.29492188 -0.01367188
v 0.53320312 0.22851562 -0.01367188
v 0.22070312 0.27929688 -0.00585938
v 0.23632812 0.28710938 -0.00585938
v -0.53320312 0.26367188 0.00585938
v -0.53320312 0.29492188 0.00585938
v -0.49804688 0.27929688 0.00585938
v -0.49804688 0.29492188 0.00585938
v -0.46679688 0.26367188 0.00585938
v -0.46679688 0.27929688 0.00585938
v -0.43164062 0.26367188 0.00585938
v -0.43164062 0.27929688 0.00585938
v -0.40820312 0.27929688 0.00585938
v -0.30273438 0.27929688 0.00585938
v -0.28320312 0.27929688 0.00585938
v -0.24804688 0.27929688 0.00585938
v -0.24804688 0.29492188 0.00585938
v -0.22070312 0.21289062 0.00585938
v -0.21289062 0.21289062 0.00585938
v -0.21289062 0.22851562 0.00585938
v -0.21289062 0.26367188 0.00585938
v -0.21289062 0.27929688 0.00585938
v -0.18164062 0.19726562 0.00585938
v -0.18164062 0.21289062 0.00585938
v -0.18164062 0.26367188 0.00585938
v -0.18164062 0.27929688 0.00585938
v -0.15039062 0.21289062 0.00585938
v -0.15039062 0.22851562 0.00585938
v -0.15039062 0.27929688 0.00585938
v -0.15039062 0.29492188 0.00585938
v -0.11523438 0.21289062 0.00585938
v -0.11523438 0.22851562 0.00585938
v -0.11523438 0.27929688 0.00585938
v -0.11523438 0.29492188 0.00585938
v -0.08398438 0.19726562 0.00585938
v -0.08398438 0.21289062 0.00585938
v -0.08398438 0.26367188 0.00585938
v -0.08398438 0.27929688 0.00585938
v -0.04882812 0.19726562 0.00585938
v -0.04882812 0.21289062 0.00585938
v -0.04882812 0.26367188 0.00585938
v -0.04882812 0.27929688 0.00585938
v -0.01757812 0.21289062 0.00585938
v -0.01757812 0.22851562 0.00585938
v -0.01757812 0.27929688 0.00585938
v -0.01757812 0.29492188 0.00585938
v 0.01757812 0.21289062 0.00585938
v 0.01757812 0.22851562 0.00585938
v 0.01757812 0.27929688 0.00585938
v 0.01757812 0.29492188 0.00585938
v 0.04882812 0.19726562 0.00585938
v 0.04882812 0.21289062 0.00585938
v 0.04882812 0.26367188 0.00585938
v 0.04882812 0.27929688 0.00585938
v 0.08398438 0.19726562 0.00585938
v 0.08398438 0.21289062 0.00585938
v 0.08398438 0.26367188 0.00585938
v 0.08398438 0.27929688 0.00585938
v 0.11523438 0.21289062 0.00585938
v 0.11523438 0.22851562 0.00585938
v 0.11523438 0.27929688 0.00585938
v 0.11523438 0.29492188 0.00585938
v 0.14648438 0.21289062 0.00585938
v 0.14648438 0.22851562 0.00585938
v 0.14648438 0.27929688 0.00585938
v 0.14648438 0.29492188 0.00585938
v 0.18164062 0.19726562 0.00585938
v 0.18164062 0.21289062 0.00585938
v 0.18164062 0.26367188 0.00585938
v 0.18164062 0.27929688 0.00585938
v 0.20507812 0.26367188 0.00585938
v 0.21289062 0.27929688 0.00585938
v 0.24804688 0.27929688 0.00585938
v 0.24804688 0.29492188 0.00585938
v 0.26757812 0.27929688 0.00585938
v 0.26757812 0.29492188 0.00585938
v 0.40039062 0.27929688 0.00585938
v 0.40039062 0.29492188 0.00585938
v 0.43164062 0.26367188 0.00585938
v 0.43164062 0.27929688 0.00585938
v 0.46679688 0.26367188 0.00585938
v 0.46679688 0.27929688 0.00585938
v 0.49804688 0.27929688 0.00585938
v 0.49804688 0.29492188 0.00585938
v 0.52929688 0.27929688 0.00585938
v 0.52929688 0.29492188 0.00585938
v -0.54492188 0.24804688 0.01367188
v -0.54492188 0.27929688 0.01367188
v -0.54492188 0.28710938 0.01367188
v -0.54492188 0.32226562 0.01367188
v -0.53320312 0.22851562 0.01367188
v -0.53320312 0.24804688 0.01367188
v -0.44335938 0.22851562 0.01367188
v -0.44335938 0.24804688 0.01367188
v -0.35351562 0.24804688 0.01367188
v -0.35351562 0.27929688 0.01367188
v -0.35351562 0.28710938 0.01367188
v -0.35351562 0.32226562 0.01367188
v -0.31054688 0.29492188 0.01367188
v -0.31054688 0.32226562 0.01367188
v -0.25585938 0.29492188 0.01367188
v -0.25585938 0.32226562 0.01367188
v 0.25976562 0.29492188 0.01367188
v 0.25976562 0.32226562 0.01367188
v 0.31054688 0.29492188 0.01367188
v 0.31054688 0.32226562 0.01367188
v 0.35351562 0.24804688 0.01367188
v 0.35351562 0.27929688 0.01367188
v 0.35351562 0.28710938 0.01367188
v 0.35351562 0.32226562 0.01367188
v 0.44335938 0.22851562 0.01367188
v 0.44335938 0.24804688 0.01367188
v 0.52929688 0.28710938 0.01367188
v 0.53320312 0.22851562 0.01367188
v 0.54492188 0.28710938 0.01367188
v 0.54492188 0.32226562 0.01367188
v -0.35351562 0.13476562 0.16210938
v -0.35351562 0.14257812 0.16210938
v -0.33789062 0.13476562 0.16210938
v -0.33789062 0.14257812 0.16210938
v 0.33398438 0.13476562 0.16210938
v 0.33398438 0.14257812 0.16210938
v 0.35351562 0.13476562 0.16210938
v 0.35351562 0.15039062 0.16210938
v -0.36132812 0.11914062 0.20898438
v -0.34570312 0.11914062 0.20898438
v -0.34570312 0.13476562 0.20898438
v 0.32617188 0.11914062 0.20898438
v 0.32617188 0.13476562 0.20898438
v 0.33789062 0.11914062 0.20898438
v 0.33789062 0.13476562 0.20898438
v -0.36132812 0.13476562 0.21679688
v -0.31835938 0.11132812 0.23632812
v -0.31835938 0.13476562 0.23632812
v 0.31835938 0.11132812 0.23632812
v 0.35351562 0.11132812 0.23632812
v 0.35351562 0.13476562 0.23632812
v -0.35351562 0.11132812 0.24414062
v -0.35351562 0.13476562 0.24414062
v 0.31835938 0.13476562 0.24414062
v -0.31835938 0.11132812 0.25976562
v -0.31835938 0.12695312 0.25976562
v 0.31835938 0.09960938 0.25976562
v 0.35351562 0.11132812 0.25976562
v 0.35351562 0.12695312 0.25976562
v -0.35351562 0.09960938 0.26757812
v -0.35351562 0.12695312 0.26757812
v 0.31835938 0.12695312 0.26757812
v -0.33789062 0.11914062 0.33398438
v -0.31835938 0.11132812 0.33398438
v -0.22070312 0.11132812 0.33398438
v 0.22460938 0.11132812 0.33398438
v 0.31835938 0.11132812 0.33398438
v 0.33789062 0.11914062 0.33398438
v -0.31835938 0.12695312 0.34179688
v -0.31054688 0.11132812 0.34179688
v -0.22460938 0.09960938 0.34179688
v -0.22070312 0.11132812 0.34179688
v -0.22070312 0.12695312 0.34179688
v 0.22460938 0.09960938 0.34179688
v 0.22460938 0.11132812 0.34179688
v 0.22460938 0.12695312 0.34179688
v 0.31054688 0.11132812 0.34179688
v 0.31835938 0.12695312 0.34179688
v -0.22070312 0.09960938 0.34960938
v -0.22070312 0.12695312 0.34960938
v 0.22460938 0.09960938 0.34960938
v 0.22460938 0.12695312 0.34960938
v 0.34570312 0.09179688 0.34960938
v -0.35351562 0.09179688 0.35742188
v -0.33789062 0.12695312 0.35742188
v -0.31835938 0.09179688 0.35742188
v -0.31835938 0.13476562 0.35742188
v -0.31054688 0.11914062 0.35742188
v -0.22070312 0.09179688 0.35742188
v -0.22070312 0.09960938 0.35742188
v -0.22070312 0.11914062 0.35742188
v -0.22070312 0.12695312 0.35742188
v -0.22070312 0.13476562 0.35742188
v 0.22460938 0.09179688 0.35742188
v 0.22460938 0.09960938 0.35742188
v 0.22460938 0.11914062 0.35742188
v 0.22460938 0.12695312 0.35742188
v 0.22460938 0.13476562 0.35742188
v 0.31054688 0.11914062 0.35742188
v 0.31835938 0.09179688 0.35742188
v 0.31835938 0.13476562 0.35742188
v 0.33789062 0.12695312 0.35742188
v 0.33789062 0.17382812 0.36523438
v -0.22460938 0.11132812 0.37304688
v -0.22070312 0.12695312 0.37304688
v 0.22460938 0.11132812 0.37304688
v 0.22460938 0.12695312 0.37304688
v -0.22460938 0.09960938 0.38085938
v -0.22070312 0.12695312 0.38085938
v 0.22460938 0.09960938 0.38085938
v 0.22460938 0.12695312 0.38085938
v -0.35351562 0.11132812 0.39257812
v -0.31835938 0.11132812 0.39257812
v -0.22070312 0.11132812 0.39257812
v 0.22460938 0.11132812 0.39257812
v 0.31835938 0.11132812 0.39257812
v 0.35351562 0.11132812 0.39257812
v -0.11523438 -0.00585938 0.49023438
v -0.35351562 -0.06054688 0.55664062
v -0.33789062 -0.04492188 0.57226562
v 0.33789062 -0.04492188 0.58007812
v -0.35351562 -0.04492188 0.59570312
v -0.34570312 -0.09179688 0.59570312
v 0.31835938 -0.02929688 0.60351562
v -0.33789062 -0.02929688 0.61132812
v -0.36132812 -0.07617188 0.63085938
v 0.31835938 -0.05273438 0.63867188
v -0.35351562 -0.05273438 0.64648438
v 0.08398438 0.03710938 0.66210938
v -0.33789062 0.17382812 0.72851562
v 0.33789062 0.17382812 0.72851562
v -0.31835938 -0.32226562 0.77148438
v 0.36132812 -0.32226562 0.77148438
v -0.36132812 -0.32226562 0.77929688
v -0.33789062 0.17382812 0.77929688
v 0.31835938 -0.32226562 0.77929688
v 0.33789062 0.17382812 0.77929688
v -0.31835938 -0.31054688 0.78710938
v 0.35351562 -0.31054688 0.78710938
v -0.35351562 -0.31054688 0.79492188
v 0.31835938 -0.31054688 0.79492188
v -0.31835938 -0.32226562 0.81835938
v -0.31835938 -0.31054688 0.81835938
v 0.36132812 -0.32226562 0.81835938
v 0.36132812 -0.31054688 0.81835938
v -0.35351562 -0.32226562 0.82617188
v -0.35351562 -0.31054688 0.82617188
v 0.32617188 -0.32226562 0.82617188
v 0.32617188 -0.31054688 0.82617188
v -0.31835938 -0.32226562 0.84179688
v 0.36132812 -0.32226562 0.84179688
v 0.36132812 -0.31054688 0.84179688
v -0.34570312 -0.32226562 0.85351562
v -0.33789062 -0.31054688 0.85351562
v -0.31835938 -0.31054688 0.85351562
v 0.33398438 -0.32226562 0.85351562
v 0.33398438 -0.31054688 0.85351562
v -0.53320312 0.17382812 0.99804688
v -0.53320312 0.22851562 0.99804688
v 0.53320312 0.17382812 0.99804688
v 0.53320312 0.22851562 0.99804688
f 1 5 2
f 1 57 5
f 1 58 3
f 58 5 3
f 60 4 56
f 60 60 4
f 60 63 59
f 60 59 60
f 53 6 52
f 11 10 46
f 10 9 46
f 9 46 11
f 46 47 11
f 11 10 9
f 51 44 13
f 13 12 51
f 43 42 15
f 43 14 42
f 14 15 43
f 14 42 15
f 32 39 16
f 68 19 18
f 30 26 27
f 26 20 27
f 20 30 26
f 20 27 30
f 26 27 30
f 26 20 27
f 39 16 32
f 36 35 37
f 35 34 37
f 15 43 42
f 43 14 42
f 44 13 12
f 12 51 44
f 51 44 13
f 13 12 51
f 11 9 47
f 11 10 9
f 9 46 47
f 48 8 50
f 7 8 49
f 7 50 8
f 48 49 50
f 48 8 49
f 50 49 7
f 50 8 49
f 58 3 1
f 3 2 1
f 58 5 3
f 56 60 4
f 59 60 56
f 59 56 63
f 5 1 57
f 5 3 1
f 2 5 3
f 58 5 1
f 5 2 1
f 58 3 1
f 3 2 1
f 2 1 3
f 62 64 61
f 1 62 61
f 1 61 1
f 58 3 1
f 58 1 1
f 64 61 62
f 61 1 62
f 1 64 61
f 1 62 64
f 7 48 8
f 7 50 48
f 8 49 7
f 33 16 32
f 539 540 537
f 538 537 540
f 535 536 530
f 531 530 536
f 533 534 529
f 532 533 529
f 535 528 536
f 530 527 535
f 528 535 527
f 532 526 533
f 529 525 532
f 526 532 525
f 531 536 524
f 528 524 536
f 530 531 523
f 527 530 523
f 524 523 531
f 533 522 534
f 526 522 533
f 529 534 521
f 525 529 521
f 522 521 534
f 527 520 528
f 525 519 526
f 524 528 518
f 520 518 528
f 522 526 517
f 519 517 526
f 523 515 527
f 520 527 515
f 521 513 525
f 519 525 513
f 523 524 512
f 518 512 524
f 515 523 512
f 521 522 511
f 517 511 522
f 513 521 511
f 514 510 516
f 510 514 509
f 514 516 508
f 518 520 506
f 64 518 506
f 517 519 63
f 507 63 519
f 512 518 62
f 64 62 518
f 513 505 519
f 507 519 505
f 515 3 520
f 506 520 3
f 511 517 56
f 63 56 517
f 63 506 56
f 3 56 506
f 63 507 504
f 506 61 64
f 62 61 64
f 63 503 506
f 61 506 503
f 56 59 63
f 504 59 63
f 503 63 59
f 512 2 515
f 62 2 512
f 3 515 2
f 511 502 513
f 505 513 502
f 56 502 511
f 505 501 507
f 504 507 501
f 59 504 501
f 502 501 505
f 62 1 64
f 61 64 1
f 61 62 1
f 503 1 61
f 2 62 1
f 2 3 1
f 59 58 503
f 2 3 58
f 1 3 58
f 1 503 58
f 1 2 58
f 56 63 60
f 56 3 60
f 59 63 60
f 59 56 60
f 501 60 59
f 58 60 3
f 58 59 60
f 510 500 516
f 508 516 500
f 509 514 499
f 2 3 57
f 1 3 57
f 1 2 57
f 2 3 5
f 1 3 5
f 1 2 5
f 58 3 5
f 58 2 5
f 58 1 5
f 57 3 5
f 57 2 5
f 57 1 5
f 56 4 63
f 502 56 4
f 60 63 4
f 60 56 4
f 501 502 498
f 4 498 502
f 508 497 514
f 499 514 497
f 500 55 508
f 497 508 55
f 58 1 496
f 5 58 495
f 496 495 58
f 4 60 492
f 60 501 491
f 492 60 491
f 493 494 490
f 490 488 493
f 493 487 494
f 489 494 487
f 57 65 1
f 55 1 65
f 496 1 65
f 490 494 486
f 489 485 494
f 486 494 485
f 488 484 493
f 487 493 483
f 484 483 493
f 509 482 510
f 500 510 482
f 55 500 482
f 495 496 481
f 65 481 496
f 481 480 495
f 495 479 5
f 480 478 495
f 479 495 478
f 488 490 477
f 486 476 490
f 477 490 476
f 485 475 486
f 476 486 475
f 485 489 474
f 475 485 474
f 474 489 473
f 477 472 488
f 484 488 471
f 472 471 488
f 483 484 470
f 471 470 484
f 483 469 487
f 470 469 483
f 487 468 489
f 473 489 468
f 469 468 487
f 467 492 466
f 498 4 465
f 492 465 4
f 467 465 492
f 499 54 509
f 497 54 499
f 482 509 54
f 491 464 492
f 466 492 464
f 498 463 501
f 491 501 463
f 465 463 498
f 464 491 463
f 5 462 57
f 65 57 462
f 479 462 5
f 475 461 476
f 474 460 475
f 473 460 474
f 470 471 459
f 469 470 458
f 468 469 458
f 478 480 456
f 478 456 479
f 457 456 480
f 476 455 477
f 472 477 455
f 461 455 476
f 461 475 454
f 460 454 475
f 460 473 453
f 454 460 453
f 471 472 452
f 459 471 452
f 455 452 472
f 459 451 470
f 458 470 451
f 468 450 473
f 458 450 468
f 453 473 450
f 451 450 458
f 466 449 467
f 465 467 449
f 449 466 448
f 481 65 447
f 480 481 447
f 462 447 65
f 457 480 447
f 456 446 479
f 456 457 446
f 447 446 457
f 455 461 445
f 454 445 461
f 453 445 454
f 452 455 445
f 452 444 459
f 451 459 444
f 450 444 453
f 450 451 444
f 445 453 444
f 445 444 452
f 449 443 465
f 448 443 449
f 464 442 466
f 463 442 464
f 448 466 442
f 443 448 442
f 463 465 439
f 442 463 439
f 440 442 439
f 446 447 438
f 441 446 438
f 447 462 437
f 438 447 437
f 462 479 436
f 446 436 479
f 441 436 446
f 437 462 436
f 442 435 443
f 440 435 442
f 443 434 465
f 439 465 434
f 435 434 443
f 436 441 433
f 439 432 440
f 434 431 439
f 432 439 431
f 438 430 441
f 433 441 430
f 437 429 438
f 430 438 429
f 436 428 437
f 433 428 436
f 429 437 428
f 435 440 427
f 432 427 440
f 434 435 426
f 431 434 426
f 427 426 435
f 55 6 497
f 54 497 6
f 431 425 432
f 430 424 433
f 429 423 430
f 424 430 423
f 428 433 422
f 424 422 433
f 428 421 429
f 423 429 421
f 422 421 428
f 427 432 420
f 425 420 432
f 426 427 419
f 420 419 427
f 426 418 431
f 425 431 418
f 419 418 426
f 422 424 417
f 423 416 424
f 417 424 416
f 421 422 415
f 417 415 422
f 416 415 417
f 421 414 423
f 416 423 414
f 415 414 421
f 415 416 414
f 420 425 413
f 419 420 412
f 413 412 420
f 418 411 425
f 413 425 411
f 412 413 411
f 418 419 410
f 412 410 419
f 411 418 410
f 411 410 412
f 482 52 55
f 54 52 482
f 6 55 52
f 6 54 52
f 6 53 54
f 52 54 53
f 52 6 53
f 407 41 404
f 405 404 41
f 408 409 402
f 403 402 409
f 406 401 41
f 401 400 41
f 398 399 397
f 397 396 398
f 394 393 395
f 393 394 392
f 402 403 390
f 391 390 403
f 400 401 388
f 389 388 401
f 386 387 384
f 385 384 387
f 390 391 382
f 383 382 391
f 388 389 380
f 381 380 389
f 378 376 379
f 377 379 376
f 376 374 377
f 375 377 374
f 374 372 375
f 373 375 372
f 372 370 373
f 371 373 370
f 368 369 366
f 367 366 369
f 12 13 51
f 366 367 364
f 365 364 367
f 364 365 362
f 363 362 365
f 51 12 360
f 361 360 12
f 362 363 358
f 359 358 363
f 360 361 356
f 357 356 361
f 358 359 354
f 355 354 359
f 356 357 352
f 353 352 357
f 354 355 350
f 351 350 355
f 352 353 348
f 349 348 353
f 350 351 346
f 347 346 351
f 348 349 344
f 345 344 349
f 346 347 342
f 343 342 347
f 344 345 340
f 341 340 345
f 342 343 338
f 339 338 343
f 340 341 336
f 337 336 341
f 338 339 334
f 335 334 339
f 336 337 332
f 333 332 337
f 334 335 330
f 331 330 335
f 332 333 328
f 329 328 333
f 330 331 326
f 327 326 331
f 328 329 324
f 325 324 329
f 326 327 322
f 323 322 327
f 324 325 320
f 321 320 325
f 322 323 318
f 319 318 323
f 320 321 316
f 317 316 321
f 318 319 314
f 315 314 319
f 316 317 312
f 313 312 317
f 312 313 311
f 314 315 309
f 310 309 315
f 392 394 308
f 308 307 392
f 14 43 304
f 305 14 304
f 304 302 305
f 303 305 302
f 302 300 303
f 301 303 300
f 300 298 301
f 299 301 298
f 49 8 297
f 49 8 7
f 49 8 50
f 7 8 50
f 7 49 50
f 49 8 296
f 49 8 48
f 7 8 48
f 7 49 48
f 50 8 48
f 50 49 48
f 50 7 48
f 296 8 48
f 296 48 49
f 9 10 46
f 9 10 47
f 46 10 47
f 46 9 47
f 9 10 11
f 46 10 11
f 46 9 11
f 47 10 11
f 47 9 11
f 47 46 11
f 377 294 379
f 378 379 293
f 294 293 379
f 375 292 377
f 294 377 292
f 293 294 292
f 376 378 291
f 293 291 378
f 292 291 293
f 373 290 375
f 292 375 290
f 291 292 290
f 374 376 289
f 291 289 376
f 290 289 291
f 404 405 288
f 404 287 407
f 295 407 287
f 288 287 404
f 288 295 287
f 371 286 373
f 290 373 286
f 289 290 286
f 372 374 285
f 289 285 374
f 286 285 289
f 370 284 371
f 286 371 284
f 285 286 284
f 370 372 283
f 285 283 372
f 284 370 283
f 284 283 285
f 397 399 282
f 398 281 399
f 282 399 281
f 367 369 280
f 368 279 369
f 280 369 279
f 396 397 278
f 282 278 397
f 396 277 398
f 281 398 277
f 281 277 282
f 278 277 396
f 278 282 277
f 365 367 276
f 280 276 367
f 279 276 280
f 366 275 368
f 279 368 275
f 276 279 275
f 363 365 273
f 276 273 365
f 275 273 276
f 12 13 45
f 361 12 45
f 274 12 45
f 12 13 44
f 51 13 44
f 51 12 44
f 274 44 12
f 45 13 44
f 45 12 44
f 45 44 274
f 364 272 366
f 275 366 272
f 273 275 272
f 359 363 271
f 273 271 363
f 272 271 273
f 362 270 364
f 272 364 270
f 271 272 270
f 357 361 269
f 45 269 361
f 44 269 45
f 360 268 51
f 44 51 268
f 269 44 268
f 355 359 267
f 271 267 359
f 270 267 271
f 358 266 362
f 270 362 266
f 267 270 266
f 353 357 265
f 269 265 357
f 268 265 269
f 356 264 360
f 268 360 264
f 265 268 264
f 351 355 263
f 267 263 355
f 266 263 267
f 354 262 358
f 266 358 262
f 263 266 262
f 349 353 261
f 265 261 353
f 264 261 265
f 352 260 356
f 264 356 260
f 261 264 260
f 347 351 259
f 263 259 351
f 262 259 263
f 350 258 354
f 262 354 258
f 259 262 258
f 345 349 257
f 261 257 349
f 260 257 261
f 348 256 352
f 260 352 256
f 257 260 256
f 343 347 255
f 259 255 347
f 258 255 259
f 346 254 350
f 258 350 254
f 255 258 254
f 341 345 253
f 257 253 345
f 256 253 257
f 344 252 348
f 256 348 252
f 253 256 252
f 339 343 251
f 255 251 343
f 254 251 255
f 342 250 346
f 254 346 250
f 251 254 250
f 337 341 249
f 253 249 341
f 252 249 253
f 340 248 344
f 252 344 248
f 249 252 248
f 335 339 247
f 251 247 339
f 250 247 251
f 338 246 342
f 250 342 246
f 247 250 246
f 333 337 245
f 249 245 337
f 248 245 249
f 336 244 340
f 248 340 244
f 245 248 244
f 331 335 243
f 247 243 335
f 246 243 247
f 334 242 338
f 246 338 242
f 243 246 242
f 329 333 241
f 245 241 333
f 244 241 245
f 332 240 336
f 244 336 240
f 241 244 240
f 327 331 239
f 243 239 331
f 242 239 243
f 330 238 334
f 242 334 238
f 239 242 238
f 325 329 237
f 241 237 329
f 240 237 241
f 328 236 332
f 240 332 236
f 237 240 236
f 323 327 235
f 239 235 327
f 238 235 239
f 326 234 330
f 238 330 234
f 235 238 234
f 321 325 233
f 237 233 325
f 236 233 237
f 324 232 328
f 236 328 232
f 233 236 232
f 319 323 231
f 235 231 323
f 322 230 326
f 234 326 230
f 234 230 235
f 231 235 230
f 317 321 229
f 233 229 321
f 232 229 233
f 320 228 324
f 232 324 228
f 229 232 228
f 315 319 227
f 231 227 319
f 230 227 231
f 318 226 322
f 230 322 226
f 227 230 226
f 313 317 225
f 229 225 317
f 228 225 229
f 316 224 320
f 228 320 224
f 225 228 224
f 310 315 223
f 227 223 315
f 226 223 227
f 314 222 318
f 226 318 222
f 223 226 222
f 311 313 221
f 225 221 313
f 224 221 225
f 311 220 312
f 221 220 311
f 312 219 316
f 224 316 219
f 221 224 219
f 220 219 312
f 220 221 219
f 309 310 218
f 223 218 310
f 222 218 223
f 309 217 314
f 222 314 217
f 218 217 309
f 218 222 217
f 393 216 395
f 394 395 215
f 216 215 395
f 308 394 214
f 215 214 394
f 307 308 213
f 214 213 308
f 214 215 213
f 392 212 393
f 216 393 212
f 307 211 392
f 215 216 211
f 213 211 307
f 213 215 211
f 212 392 211
f 212 211 216
f 14 43 42
f 306 14 42
f 305 42 14
f 14 43 15
f 42 43 15
f 42 14 15
f 306 210 14
f 42 14 210
f 42 210 306
f 303 209 305
f 42 305 209
f 15 42 209
f 304 43 208
f 15 208 43
f 209 208 15
f 386 207 387
f 385 387 207
f 207 386 206
f 301 205 303
f 209 303 205
f 208 209 205
f 302 304 204
f 208 204 304
f 205 204 208
f 299 203 301
f 205 301 203
f 204 205 203
f 300 302 202
f 204 202 302
f 203 202 204
f 298 201 299
f 203 299 201
f 202 203 201
f 298 300 200
f 202 200 300
f 201 298 200
f 201 200 202
f 207 199 385
f 206 199 207
f 384 198 386
f 384 385 198
f 206 386 198
f 199 198 385
f 199 206 198
f 403 409 197
f 408 40 409
f 401 406 40
f 197 409 40
f 406 41 196
f 40 406 196
f 407 195 41
f 405 41 195
f 295 195 407
f 288 405 195
f 288 195 295
f 391 403 194
f 197 194 403
f 402 193 408
f 40 408 193
f 40 193 197
f 194 197 193
f 389 401 192
f 40 192 401
f 196 192 40
f 400 191 41
f 196 41 191
f 192 196 191
f 383 391 190
f 194 190 391
f 193 190 194
f 390 189 402
f 193 402 189
f 190 193 189
f 381 389 188
f 192 188 389
f 191 188 192
f 388 187 400
f 191 400 187
f 188 191 187
f 382 383 186
f 190 186 383
f 189 186 190
f 382 185 390
f 189 390 185
f 186 185 382
f 186 189 185
f 380 381 184
f 188 184 381
f 380 183 388
f 187 388 183
f 187 183 188
f 184 183 380
f 184 188 183
f 53 39 52
f 53 6 16
f 39 53 16
f 181 182 180
f 180 179 181
f 177 178 176
f 66 177 175
f 176 175 177
f 175 174 66
f 180 182 173
f 181 172 182
f 173 182 172
f 179 171 181
f 172 181 171
f 176 178 170
f 177 169 178
f 170 178 169
f 179 180 168
f 173 168 180
f 171 179 168
f 66 38 177
f 174 38 66
f 169 177 38
f 38 66 167
f 168 173 166
f 172 165 173
f 166 173 165
f 168 164 171
f 166 164 168
f 171 163 172
f 165 172 163
f 164 163 171
f 52 32 6
f 39 32 52
f 16 6 32
f 16 39 32
f 175 176 162
f 170 161 176
f 162 176 161
f 174 175 160
f 162 160 175
f 169 159 170
f 38 174 159
f 38 159 169
f 161 170 159
f 160 159 174
f 164 166 158
f 165 157 166
f 158 166 157
f 163 164 156
f 158 156 164
f 163 155 165
f 157 165 155
f 156 155 163
f 160 162 154
f 161 153 162
f 154 162 153
f 159 160 152
f 154 152 160
f 159 151 161
f 153 161 151
f 152 151 159
f 156 158 150
f 155 156 37
f 150 37 156
f 149 37 150
f 37 149 36
f 153 146 154
f 152 154 146
f 147 146 148
f 151 152 145
f 146 145 152
f 146 147 145
f 157 142 158
f 150 158 142
f 149 150 141
f 36 149 140
f 141 140 149
f 155 34 157
f 37 34 155
f 36 37 34
f 142 157 34
f 36 35 37
f 140 35 36
f 34 37 35
f 34 35 36
f 143 144 139
f 139 137 143
f 143 136 144
f 138 144 136
f 147 148 135
f 145 147 134
f 135 134 147
f 146 153 67
f 146 67 148
f 135 148 67
f 134 133 145
f 151 132 153
f 145 132 151
f 67 153 132
f 16 39 33
f 32 33 39
f 32 16 33
f 137 139 131
f 139 144 130
f 138 130 144
f 131 139 130
f 131 129 137
f 137 128 143
f 136 143 128
f 129 128 137
f 33 127 16
f 130 138 126
f 136 125 138
f 128 125 136
f 126 138 125
f 142 124 150
f 141 150 124
f 140 141 123
f 35 140 123
f 35 123 34
f 124 123 141
f 130 122 131
f 129 131 122
f 126 121 130
f 122 130 121
f 128 129 120
f 122 120 129
f 121 120 122
f 125 128 119
f 125 119 126
f 121 126 119
f 120 119 128
f 120 121 119
f 134 135 17
f 67 17 135
f 133 134 17
f 133 118 145
f 132 145 118
f 17 118 133
f 32 16 31
f 127 31 16
f 17 67 31
f 33 32 117
f 31 117 32
f 34 116 142
f 123 28 34
f 116 34 28
f 17 67 30
f 132 115 67
f 30 67 115
f 117 114 33
f 31 127 113
f 124 142 29
f 116 29 142
f 123 124 19
f 28 123 19
f 29 19 124
f 19 112 28
f 118 17 27
f 30 27 17
f 118 111 132
f 115 132 111
f 27 111 118
f 28 18 116
f 29 116 18
f 19 18 28
f 19 29 18
f 19 29 110
f 27 19 110
f 19 28 109
f 112 109 28
f 112 19 109
f 111 27 108
f 110 108 27
f 111 107 115
f 110 29 106
f 19 68 29
f 18 29 68
f 18 19 68
f 115 26 30
f 27 26 30
f 107 26 115
f 108 105 111
f 27 20 30
f 27 20 19
f 68 19 20
f 26 30 20
f 26 27 20
f 18 104 29
f 107 111 103
f 106 29 102
f 104 102 29
f 108 110 101
f 106 101 110
f 102 101 106
f 105 108 100
f 20 100 68
f 101 100 108
f 101 68 100
f 105 99 111
f 103 111 99
f 100 99 105
f 117 31 98
f 113 98 31
f 127 33 97
f 114 97 33
f 113 127 96
f 97 96 127
f 104 18 94
f 114 117 93
f 98 93 117
f 97 114 93
f 96 97 93
f 68 92 18
f 94 18 92
f 26 107 70
f 20 26 70
f 98 113 91
f 96 91 113
f 93 98 91
f 93 91 96
f 103 25 107
f 70 107 25
f 90 95 25
f 102 104 89
f 101 102 89
f 94 89 104
f 101 88 68
f 92 68 88
f 89 88 101
f 100 20 69
f 70 69 20
f 99 87 103
f 99 100 87
f 25 103 87
f 69 87 100
f 88 89 86
f 89 94 85
f 86 89 85
f 88 84 92
f 86 84 88
f 92 83 94
f 85 94 83
f 84 83 92
f 87 69 21
f 69 70 22
f 21 69 22
f 87 82 25
f 21 82 87
f 25 81 70
f 22 70 81
f 82 81 25
f 84 86 80
f 83 79 85
f 21 69 24
f 82 21 24
f 22 70 23
f 22 23 21
f 24 21 23
f 85 78 86
f 80 86 78
f 79 78 85
f 83 84 77
f 80 77 84
f 79 83 77
f 78 77 80
f 78 79 77
f 81 82 76
f 24 76 82
f 81 75 22
f 23 22 75
f 23 75 24
f 76 75 81
f 76 24 75
f 539 74 540
f 538 540 74
f 537 73 539
f 74 539 73
f 74 72 538
f 73 72 74
f 537 538 71
f 73 537 71
f 72 71 538
f 72 73 71

