# https://github.com/mikedh/trimesh
v -0.06250000 -0.31250000 -0.81250000
v -0.06250000 -0.18750000 -0.81250000
v -0.06250000 -0.06250000 -0.81250000
v 0.06250000 -0.31250000 -0.81250000
v 0.06250000 -0.18750000 -0.81250000
v 0.06250000 -0.06250000 -0.81250000
v -0.18750000 -0.68750000 -0.68750000
v -0.06250000 -0.31250000 -0.68750000
v -0.06250000 -0.18750000 -0.68750000
v -0.06250000 -0.06250000 -0.68750000
v -0.06250000 0.06250000 -0.68750000
v 0.06250000 -0.31250000 -0.68750000
v 0.06250000 -0.18750000 -0.68750000
v 0.06250000 -0.06250000 -0.68750000
v 0.06250000 0.06250000 -0.68750000
v 0.18750000 -0.68750000 -0.68750000
v -0.31250000 -0.93750000 -0.56250000
v -0.31250000 -0.81250000 -0.56250000
v -0.31250000 -0.68750000 -0.56250000
v -0.31250000 -0.56250000 -0.56250000
v -0.18750000 -0.93750000 -0.56250000
v -0.18750000 -0.81250000 -0.56250000
v -0.18750000 -0.68750000 -0.56250000
v -0.18750000 -0.56250000 -0.56250000
v -0.18750000 -0.43750000 -0.56250000
v -0.18750000 -0.31250000 -0.56250000
v -0.06250000 -0.68750000 -0.56250000
v -0.06250000 -0.56250000 -0.56250000
v -0.06250000 -0.43750000 -0.56250000
v -0.06250000 -0.31250000 -0.56250000
v -0.06250000 -0.18750000 -0.56250000
v -0.06250000 -0.06250000 -0.56250000
v 0.06250000 -0.68750000 -0.56250000
v 0.06250000 -0.56250000 -0.56250000
v 0.06250000 -0.43750000 -0.56250000
v 0.06250000 -0.31250000 -0.56250000
v 0.06250000 -0.18750000 -0.56250000
v 0.06250000 -0.06250000 -0.56250000
v 0.18750000 -0.93750000 -0.56250000
v 0.18750000 -0.81250000 -0.56250000
v 0.18750000 -0.68750000 -0.56250000
v 0.18750000 -0.56250000 -0.56250000
v 0.18750000 -0.43750000 -0.56250000
v 0.18750000 -0.31250000 -0.56250000
v 0.31250000 -0.93750000 -0.56250000
v 0.31250000 -0.81250000 -0.56250000
v 0.31250000 -0.68750000 -0.56250000
v 0.31250000 -0.56250000 -0.56250000
v -0.31250000 -0.93750000 -0.43750000
v -0.31250000 -0.81250000 -0.43750000
v -0.31250000 -0.68750000 -0.43750000
v -0.31250000 -0.56250000 -0.43750000
v -0.31250000 -0.43750000 -0.43750000
v -0.18750000 -0.93750000 -0.43750000
v -0.18750000 -0.81250000 -0.43750000
v -0.18750000 -0.68750000 -0.43750000
v -0.18750000 -0.56250000 -0.43750000
v -0.18750000 -0.31250000 -0.43750000
v -0.18750000 -0.18750000 -0.43750000
v -0.06250000 -0.68750000 -0.43750000
v -0.06250000 -0.56250000 -0.43750000
v -0.06250000 -0.18750000 -0.43750000
v 0.06250000 -0.68750000 -0.43750000
v 0.06250000 -0.56250000 -0.43750000
v 0.06250000 -0.18750000 -0.43750000
v 0.18750000 -0.93750000 -0.43750000
v 0.18750000 -0.81250000 -0.43750000
v 0.18750000 -0.68750000 -0.43750000
v 0.18750000 -0.56250000 -0.43750000
v 0.18750000 -0.31250000 -0.43750000
v 0.18750000 -0.18750000 -0.43750000
v 0.31250000 -0.93750000 -0.43750000
v 0.31250000 -0.81250000 -0.43750000
v 0.31250000 -0.68750000 -0.43750000
v 0.31250000 -0.56250000 -0.43750000
v 0.31250000 -0.43750000 -0.43750000
v 0.31250000 -0.31250000 -0.43750000
v -0.31250000 -0.93750000 -0.31250000
v -0.31250000 -0.56250000 -0.31250000
v -0.31250000 -0.43750000 -0.31250000
v -0.31250000 -0.31250000 -0.31250000
v -0.18750000 -0.93750000 -0.31250000
v -0.18750000 -0.68750000 -0.31250000
v -0.18750000 -0.56250000 -0.31250000
v -0.18750000 -0.43750000 -0.31250000
v -0.18750000 -0.31250000 -0.31250000
v -0.18750000 -0.18750000 -0.31250000
v -0.18750000 -0.06250000 -0.31250000
v -0.06250000 -0.56250000 -0.31250000
v -0.06250000 -0.18750000 -0.31250000
v -0.06250000 -0.06250000 -0.31250000
v 0.06250000 -0.56250000 -0.31250000
v 0.06250000 -0.18750000 -0.31250000
v 0.06250000 -0.06250000 -0.31250000
v 0.18750000 -0.93750000 -0.31250000
v 0.18750000 -0.68750000 -0.31250000
v 0.18750000 -0.56250000 -0.31250000
v 0.18750000 -0.43750000 -0.31250000
v 0.18750000 -0.31250000 -0.31250000
v 0.18750000 -0.18750000 -0.31250000
v 0.18750000 -0.06250000 -0.31250000
v 0.31250000 -0.93750000 -0.31250000
v 0.31250000 -0.56250000 -0.31250000
v 0.31250000 -0.43750000 -0.31250000
v 0.31250000 -0.31250000 -0.31250000
v -0.31250000 -0.56250000 -0.18750000
v -0.31250000 -0.43750000 -0.18750000
v -0.31250000 -0.31250000 -0.18750000
v -0.18750000 -0.56250000 -0.18750000
v -0.18750000 -0.43750000 -0.18750000
v -0.18750000 -0.31250000 -0.18750000
v -0.18750000 -0.18750000 -0.18750000
v -0.18750000 -0.06250000 -0.18750000
v -0.06250000 -0.68750000 -0.18750000
v -0.06250000 -0.56250000 -0.18750000
v -0.06250000 -0.06250000 -0.18750000
v 0.06250000 -0.68750000 -0.18750000
v 0.06250000 -0.56250000 -0.18750000
v 0.06250000 -0.06250000 -0.18750000
v 0.18750000 -0.56250000 -0.18750000
v 0.18750000 -0.43750000 -0.18750000
v 0.18750000 -0.18750000 -0.18750000
v 0.18750000 -0.06250000 -0.18750000
v 0.31250000 -0.56250000 -0.18750000
v 0.31250000 -0.43750000 -0.18750000
v 0.31250000 -0.31250000 -0.18750000
v -0.31250000 -0.56250000 -0.06250000
v -0.31250000 -0.43750000 -0.06250000
v -0.31250000 -0.31250000 -0.06250000
v -0.31250000 -0.18750000 -0.06250000
v -0.18750000 -0.68750000 -0.06250000
v -0.18750000 -0.56250000 -0.06250000
v -0.18750000 -0.18750000 -0.06250000
v -0.18750000 -0.06250000 -0.06250000
v -0.06250000 -0.68750000 -0.06250000
v -0.06250000 -0.06250000 -0.06250000
v -0.06250000 0.18750000 -0.06250000
v 0.06250000 -0.68750000 -0.06250000
v 0.06250000 -0.06250000 -0.06250000
v 0.06250000 0.18750000 -0.06250000
v 0.06250000 0.31250000 -0.06250000
v 0.18750000 -0.68750000 -0.06250000
v 0.18750000 -0.56250000 -0.06250000
v 0.18750000 -0.18750000 -0.06250000
v 0.18750000 -0.06250000 -0.06250000
v 0.31250000 -0.56250000 -0.06250000
v 0.31250000 -0.43750000 -0.06250000
v 0.31250000 -0.31250000 -0.06250000
v 0.31250000 -0.18750000 -0.06250000
v 0.31250000 -0.06250000 -0.06250000
v 0.43750000 -0.43750000 -0.06250000
v 0.43750000 -0.31250000 -0.06250000
v 0.43750000 -0.18750000 -0.06250000
v 0.43750000 -0.06250000 -0.06250000
v -0.31250000 -0.56250000 0.06250000
v -0.31250000 -0.43750000 0.06250000
v -0.31250000 -0.31250000 0.06250000
v -0.31250000 -0.18750000 0.06250000
v -0.31250000 0.93750000 0.06250000
v -0.18750000 -0.56250000 0.06250000
v -0.18750000 -0.18750000 0.06250000
v -0.18750000 -0.06250000 0.06250000
v -0.18750000 0.06250000 0.06250000
v -0.18750000 0.18750000 0.06250000
v -0.06250000 -0.68750000 0.06250000
v -0.06250000 -0.06250000 0.06250000
v -0.06250000 0.06250000 0.06250000
v -0.06250000 0.18750000 0.06250000
v -0.06250000 0.31250000 0.06250000
v -0.06250000 0.43750000 0.06250000
v 0.06250000 -0.68750000 0.06250000
v 0.06250000 -0.06250000 0.06250000
v 0.06250000 0.06250000 0.06250000
v 0.06250000 0.18750000 0.06250000
v 0.06250000 0.31250000 0.06250000
v 0.06250000 0.43750000 0.06250000
v 0.18750000 -0.56250000 0.06250000
v 0.18750000 -0.18750000 0.06250000
v 0.18750000 -0.06250000 0.06250000
v 0.18750000 0.06250000 0.06250000
v 0.18750000 0.18750000 0.06250000
v 0.31250000 -0.56250000 0.06250000
v 0.31250000 -0.43750000 0.06250000
v 0.31250000 -0.31250000 0.06250000
v 0.31250000 -0.18750000 0.06250000
v 0.31250000 -0.06250000 0.06250000
v 0.31250000 0.18750000 0.06250000
v 0.31250000 0.93750000 0.06250000
v 0.43750000 -0.43750000 0.06250000
v 0.43750000 -0.31250000 0.06250000
v 0.43750000 -0.18750000 0.06250000
v 0.43750000 -0.06250000 0.06250000
v -0.43750000 0.93750000 0.18750000
v -0.31250000 -0.56250000 0.18750000
v -0.31250000 -0.43750000 0.18750000
v -0.31250000 -0.31250000 0.18750000
v -0.31250000 -0.18750000 0.18750000
v -0.31250000 0.18750000 0.18750000
v -0.31250000 0.81250000 0.18750000
v -0.31250000 0.93750000 0.18750000
v -0.18750000 -0.68750000 0.18750000
v -0.18750000 -0.56250000 0.18750000
v -0.18750000 -0.43750000 0.18750000
v -0.18750000 -0.18750000 0.18750000
v -0.18750000 -0.06250000 0.18750000
v -0.18750000 0.06250000 0.18750000
v -0.18750000 0.18750000 0.18750000
v -0.18750000 0.31250000 0.18750000
v -0.18750000 0.43750000 0.18750000
v -0.06250000 -0.68750000 0.18750000
v -0.06250000 -0.56250000 0.18750000
v -0.06250000 -0.06250000 0.18750000
v -0.06250000 0.06250000 0.18750000
v -0.06250000 0.18750000 0.18750000
v -0.06250000 0.31250000 0.18750000
v -0.06250000 0.43750000 0.18750000
v -0.06250000 0.56250000 0.18750000
v 0.06250000 -0.68750000 0.18750000
v 0.06250000 -0.56250000 0.18750000
v 0.06250000 0.06250000 0.18750000
v 0.06250000 0.18750000 0.18750000
v 0.06250000 0.31250000 0.18750000
v 0.06250000 0.43750000 0.18750000
v 0.06250000 0.56250000 0.18750000
v 0.18750000 -0.68750000 0.18750000
v 0.18750000 -0.56250000 0.18750000
v 0.18750000 -0.43750000 0.18750000
v 0.18750000 -0.18750000 0.18750000
v 0.18750000 -0.06250000 0.18750000
v 0.18750000 0.06250000 0.18750000
v 0.18750000 0.18750000 0.18750000
v 0.18750000 0.31250000 0.18750000
v 0.18750000 0.43750000 0.18750000
v 0.31250000 -0.68750000 0.18750000
v 0.31250000 -0.56250000 0.18750000
v 0.31250000 -0.43750000 0.18750000
v 0.31250000 -0.31250000 0.18750000
v 0.31250000 -0.18750000 0.18750000
v 0.31250000 -0.06250000 0.18750000
v 0.31250000 0.06250000 0.18750000
v 0.31250000 0.18750000 0.18750000
v 0.31250000 0.43750000 0.18750000
v 0.31250000 0.81250000 0.18750000
v 0.31250000 0.93750000 0.18750000
v 0.43750000 -0.43750000 0.18750000
v 0.43750000 -0.31250000 0.18750000
v 0.43750000 -0.18750000 0.18750000
v 0.43750000 0.43750000 0.18750000
v 0.43750000 0.56250000 0.18750000
v 0.56250000 0.43750000 0.18750000
v 0.56250000 0.56250000 0.18750000
v 0.56250000 0.68750000 0.18750000
v -0.56250000 0.31250000 0.31250000
v -0.56250000 0.43750000 0.31250000
v -0.56250000 0.56250000 0.31250000
v -0.43750000 0.31250000 0.31250000
v -0.43750000 0.43750000 0.31250000
v -0.43750000 0.56250000 0.31250000
v -0.31250000 -0.93750000 0.31250000
v -0.31250000 -0.81250000 0.31250000
v -0.31250000 -0.56250000 0.31250000
v -0.31250000 -0.43750000 0.31250000
v -0.31250000 -0.31250000 0.31250000
v -0.31250000 -0.18750000 0.31250000
v -0.31250000 0.06250000 0.31250000
v -0.31250000 0.18750000 0.31250000
v -0.31250000 0.31250000 0.31250000
v -0.31250000 0.43750000 0.31250000
v -0.31250000 0.56250000 0.31250000
v -0.31250000 0.68750000 0.31250000
v -0.31250000 0.81250000 0.31250000
v -0.31250000 0.93750000 0.31250000
v -0.18750000 -0.93750000 0.31250000
v -0.18750000 -0.81250000 0.31250000
v -0.18750000 -0.68750000 0.31250000
v -0.18750000 -0.56250000 0.31250000
v -0.18750000 -0.18750000 0.31250000
v -0.18750000 -0.06250000 0.31250000
v -0.18750000 0.06250000 0.31250000
v -0.18750000 0.18750000 0.31250000
v -0.18750000 0.31250000 0.31250000
v -0.18750000 0.43750000 0.31250000
v -0.18750000 0.56250000 0.31250000
v -0.18750000 0.68750000 0.31250000
v -0.18750000 0.81250000 0.31250000
v -0.18750000 0.93750000 0.31250000
v -0.06250000 -0.93750000 0.31250000
v -0.06250000 -0.81250000 0.31250000
v -0.06250000 -0.68750000 0.31250000
v -0.06250000 -0.56250000 0.31250000
v -0.06250000 0.56250000 0.31250000
v -0.06250000 0.68750000 0.31250000
v 0.06250000 -0.93750000 0.31250000
v 0.06250000 -0.81250000 0.31250000
v 0.06250000 -0.68750000 0.31250000
v 0.06250000 -0.56250000 0.31250000
v 0.06250000 0.56250000 0.31250000
v 0.06250000 0.68750000 0.31250000
v 0.06250000 0.81250000 0.31250000
v 0.18750000 -0.93750000 0.31250000
v 0.18750000 -0.81250000 0.31250000
v 0.18750000 -0.68750000 0.31250000
v 0.18750000 -0.56250000 0.31250000
v 0.18750000 -0.18750000 0.31250000
v 0.18750000 -0.06250000 0.31250000
v 0.18750000 0.06250000 0.31250000
v 0.18750000 0.18750000 0.31250000
v 0.18750000 0.31250000 0.31250000
v 0.18750000 0.43750000 0.31250000
v 0.18750000 0.56250000 0.31250000
v 0.18750000 0.68750000 0.31250000
v 0.18750000 0.81250000 0.31250000
v 0.18750000 0.93750000 0.31250000
v 0.31250000 -0.93750000 0.31250000
v 0.31250000 -0.81250000 0.31250000
v 0.31250000 -0.68750000 0.31250000
v 0.31250000 -0.56250000 0.31250000
v 0.31250000 -0.43750000 0.31250000
v 0.31250000 -0.31250000 0.31250000
v 0.31250000 -0.18750000 0.31250000
v 0.31250000 -0.06250000 0.31250000
v 0.31250000 0.06250000 0.31250000
v 0.31250000 0.18750000 0.31250000
v 0.31250000 0.31250000 0.31250000
v 0.31250000 0.43750000 0.31250000
v 0.31250000 0.56250000 0.31250000
v 0.31250000 0.68750000 0.31250000
v 0.31250000 0.81250000 0.31250000
v 0.31250000 0.93750000 0.31250000
v 0.43750000 0.31250000 0.31250000
v 0.43750000 0.43750000 0.31250000
v 0.43750000 0.56250000 0.31250000
v 0.43750000 0.68750000 0.31250000
v 0.56250000 0.31250000 0.31250000
v 0.56250000 0.43750000 0.31250000
v 0.56250000 0.56250000 0.31250000
v 0.56250000 0.68750000 0.31250000
v -0.56250000 0.43750000 0.43750000
v -0.56250000 0.56250000 0.43750000
v -0.43750000 0.31250000 0.43750000
v -0.43750000 0.43750000 0.43750000
v -0.43750000 0.56250000 0.43750000
v -0.31250000 -0.93750000 0.43750000
v -0.31250000 -0.43750000 0.43750000
v -0.31250000 -0.31250000 0.43750000
v -0.31250000 0.06250000 0.43750000
v -0.31250000 0.18750000 0.43750000
v -0.31250000 0.31250000 0.43750000
v -0.31250000 0.43750000 0.43750000
v -0.31250000 0.56250000 0.43750000
v -0.31250000 0.68750000 0.43750000
v -0.31250000 0.81250000 0.43750000
v -0.31250000 0.93750000 0.43750000
v -0.18750000 -0.93750000 0.43750000
v -0.18750000 -0.81250000 0.43750000
v -0.18750000 -0.68750000 0.43750000
v -0.18750000 -0.56250000 0.43750000
v -0.18750000 -0.43750000 0.43750000
v -0.18750000 -0.31250000 0.43750000
v -0.18750000 -0.18750000 0.43750000
v -0.18750000 -0.06250000 0.43750000
v -0.18750000 0.06250000 0.43750000
v -0.18750000 0.43750000 0.43750000
v -0.18750000 0.56250000 0.43750000
v -0.18750000 0.68750000 0.43750000
v -0.18750000 0.81250000 0.43750000
v -0.18750000 0.93750000 0.43750000
v -0.06250000 -0.93750000 0.43750000
v -0.06250000 -0.56250000 0.43750000
v -0.06250000 -0.43750000 0.43750000
v -0.06250000 -0.31250000 0.43750000
v -0.06250000 -0.18750000 0.43750000
v -0.06250000 -0.06250000 0.43750000
v -0.06250000 0.06250000 0.43750000
v -0.06250000 0.56250000 0.43750000
v -0.06250000 0.68750000 0.43750000
v 0.06250000 -0.93750000 0.43750000
v 0.06250000 -0.56250000 0.43750000
v 0.06250000 -0.43750000 0.43750000
v 0.06250000 -0.31250000 0.43750000
v 0.06250000 -0.18750000 0.43750000
v 0.06250000 -0.06250000 0.43750000
v 0.06250000 0.06250000 0.43750000
v 0.06250000 0.56250000 0.43750000
v 0.06250000 0.68750000 0.43750000
v 0.06250000 0.81250000 0.43750000
v 0.18750000 -0.93750000 0.43750000
v 0.18750000 -0.81250000 0.43750000
v 0.18750000 -0.68750000 0.43750000
v 0.18750000 -0.56250000 0.43750000
v 0.18750000 -0.43750000 0.43750000
v 0.18750000 -0.31250000 0.43750000
v 0.18750000 -0.18750000 0.43750000
v 0.18750000 -0.06250000 0.43750000
v 0.18750000 0.06250000 0.43750000
v 0.18750000 0.43750000 0.43750000
v 0.18750000 0.56250000 0.43750000
v 0.18750000 0.68750000 0.43750000
v 0.18750000 0.81250000 0.43750000
v 0.18750000 0.93750000 0.43750000
v 0.31250000 -0.93750000 0.43750000
v 0.31250000 -0.81250000 0.43750000
v 0.31250000 -0.43750000 0.43750000
v 0.31250000 -0.31250000 0.43750000
v 0.31250000 -0.18750000 0.43750000
v 0.31250000 0.06250000 0.43750000
v 0.31250000 0.18750000 0.43750000
v 0.31250000 0.31250000 0.43750000
v 0.31250000 0.43750000 0.43750000
v 0.31250000 0.56250000 0.43750000
v 0.31250000 0.68750000 0.43750000
v 0.31250000 0.81250000 0.43750000
v 0.31250000 0.93750000 0.43750000
v 0.43750000 0.31250000 0.43750000
v 0.43750000 0.43750000 0.43750000
v 0.43750000 0.56250000 0.43750000
v 0.56250000 0.56250000 0.43750000
v -0.31250000 0.06250000 0.56250000
v -0.31250000 0.18750000 0.56250000
v -0.31250000 0.31250000 0.56250000
v -0.31250000 0.43750000 0.56250000
v -0.31250000 0.56250000 0.56250000
v -0.31250000 0.68750000 0.56250000
v -0.31250000 0.81250000 0.56250000
v -0.18750000 -0.93750000 0.56250000
v -0.18750000 -0.43750000 0.56250000
v -0.18750000 -0.31250000 0.56250000
v -0.18750000 -0.18750000 0.56250000
v -0.18750000 0.06250000 0.56250000
v -0.18750000 0.18750000 0.56250000
v -0.18750000 0.31250000 0.56250000
v -0.18750000 0.43750000 0.56250000
v -0.18750000 0.56250000 0.56250000
v -0.18750000 0.68750000 0.56250000
v -0.18750000 0.81250000 0.56250000
v -0.06250000 -0.56250000 0.56250000
v -0.06250000 -0.43750000 0.56250000
v -0.06250000 -0.31250000 0.56250000
v -0.06250000 -0.18750000 0.56250000
v -0.06250000 -0.06250000 0.56250000
v -0.06250000 0.06250000 0.56250000
v -0.06250000 0.18750000 0.56250000
v -0.06250000 0.43750000 0.56250000
v -0.06250000 0.56250000 0.56250000
v -0.06250000 0.68750000 0.56250000
v 0.06250000 -0.56250000 0.56250000
v 0.06250000 -0.43750000 0.56250000
v 0.06250000 -0.31250000 0.56250000
v 0.06250000 -0.18750000 0.56250000
v 0.06250000 -0.06250000 0.56250000
v 0.06250000 0.06250000 0.56250000
v 0.06250000 0.43750000 0.56250000
v 0.06250000 0.56250000 0.56250000
v 0.06250000 0.68750000 0.56250000
v 0.18750000 -0.93750000 0.56250000
v 0.18750000 -0.43750000 0.56250000
v 0.18750000 -0.31250000 0.56250000
v 0.18750000 -0.18750000 0.56250000
v 0.18750000 -0.06250000 0.56250000
v 0.18750000 0.06250000 0.56250000
v 0.18750000 0.18750000 0.56250000
v 0.18750000 0.31250000 0.56250000
v 0.18750000 0.43750000 0.56250000
v 0.18750000 0.56250000 0.56250000
v 0.18750000 0.68750000 0.56250000
v 0.18750000 0.81250000 0.56250000
v 0.31250000 0.06250000 0.56250000
v 0.31250000 0.18750000 0.56250000
v 0.31250000 0.31250000 0.56250000
v 0.31250000 0.43750000 0.56250000
v 0.31250000 0.56250000 0.56250000
v 0.31250000 0.68750000 0.56250000
v 0.31250000 0.81250000 0.56250000
v -0.18750000 0.06250000 0.68750000
v -0.18750000 0.18750000 0.68750000
v -0.18750000 0.31250000 0.68750000
v -0.18750000 0.43750000 0.68750000
v -0.18750000 0.56250000 0.68750000
v -0.06250000 -0.18750000 0.68750000
v -0.06250000 -0.06250000 0.68750000
v -0.06250000 0.06250000 0.68750000
v -0.06250000 0.18750000 0.68750000
v -0.06250000 0.31250000 0.68750000
v -0.06250000 0.43750000 0.68750000
v -0.06250000 0.56250000 0.68750000
v 0.06250000 -0.18750000 0.68750000
v 0.06250000 -0.06250000 0.68750000
v 0.06250000 0.18750000 0.68750000
v 0.06250000 0.31250000 0.68750000
v 0.06250000 0.43750000 0.68750000
v 0.06250000 0.56250000 0.68750000
v 0.18750000 -0.06250000 0.68750000
v 0.18750000 0.06250000 0.68750000
v 0.18750000 0.18750000 0.68750000
v 0.18750000 0.31250000 0.68750000
v 0.18750000 0.43750000 0.68750000
v 0.18750000 0.56250000 0.68750000
v -0.06250000 -0.06250000 0.81250000
v -0.06250000 0.06250000 0.81250000
v -0.06250000 0.18750000 0.81250000
v 0.06250000 -0.06250000 0.81250000
v 0.06250000 0.06250000 0.81250000
v 0.06250000 0.18750000 0.81250000
v 0.18750000 0.06250000 0.81250000
v 0.18750000 0.18750000 0.81250000
f 1 2 4
f 1 2 8
f 1 4 12
f 1 8 12
f 2 3 6
f 2 3 9
f 2 4 5
f 2 5 6
f 2 8 9
f 3 6 10
f 3 9 10
f 4 5 12
f 5 6 13
f 5 12 13
f 6 10 14
f 6 13 14
f 19 7 23
f 8 9 31
f 8 30 12
f 8 30 31
f 9 31 10
f 10 11 14
f 10 11 15
f 10 14 15
f 10 32 14
f 31 10 32
f 11 14 15
f 12 13 37
f 30 12 36
f 12 36 37
f 13 37 14
f 32 14 38
f 37 14 38
f 16 41 47
f 17 18 22
f 17 18 49
f 17 21 22
f 17 21 54
f 17 22 54
f 17 49 54
f 18 19 22
f 18 22 50
f 18 49 50
f 19 20 24
f 19 20 52
f 19 22 23
f 19 22 56
f 19 23 24
f 19 23 56
f 19 24 52
f 19 51 52
f 19 51 56
f 20 24 52
f 21 22 54
f 22 23 55
f 22 23 56
f 22 50 55
f 22 54 55
f 22 55 56
f 23 27 60
f 23 55 56
f 23 56 60
f 24 25 29
f 24 25 52
f 24 28 61
f 24 29 61
f 25 26 30
f 25 26 58
f 25 29 30
f 25 52 53
f 25 53 58
f 26 30 31
f 26 31 59
f 26 58 59
f 27 60 61
f 29 30 36
f 29 35 36
f 29 35 61
f 30 31 36
f 31 32 38
f 31 36 37
f 31 37 38
f 31 37 65
f 31 59 62
f 31 62 65
f 33 41 68
f 33 63 68
f 34 42 35
f 34 35 64
f 34 42 69
f 34 64 69
f 35 36 44
f 42 35 43
f 35 43 44
f 35 61 64
f 36 44 37
f 44 37 71
f 37 65 71
f 39 40 45
f 39 40 66
f 39 45 66
f 40 41 47
f 40 41 67
f 40 41 68
f 40 45 46
f 40 45 66
f 40 46 47
f 40 46 73
f 40 47 68
f 40 66 67
f 40 67 68
f 40 67 73
f 41 42 47
f 41 42 69
f 41 47 68
f 41 67 68
f 41 68 69
f 42 43 75
f 42 47 48
f 42 47 75
f 42 48 75
f 43 44 70
f 43 70 76
f 43 75 76
f 44 70 71
f 45 46 72
f 45 66 72
f 46 72 73
f 47 48 75
f 47 68 74
f 47 74 75
f 49 50 55
f 49 54 55
f 49 78 54
f 49 54 82
f 49 78 82
f 51 52 79
f 51 56 83
f 51 79 83
f 52 79 53
f 53 80 58
f 79 53 80
f 78 54 82
f 56 57 57
f 56 83 60
f 58 59 87
f 80 58 86
f 58 86 87
f 59 62 90
f 59 87 90
f 60 61 89
f 83 60 89
f 61 89 64
f 62 91 65
f 62 90 91
f 63 68 64
f 68 64 69
f 68 96 64
f 89 64 92
f 96 64 92
f 65 71 100
f 91 65 94
f 65 93 94
f 65 93 100
f 65 100 94
f 66 67 72
f 66 95 72
f 66 72 102
f 66 95 102
f 67 72 73
f 68 96 74
f 70 71 100
f 70 76 77
f 95 72 102
f 74 75 103
f 96 74 103
f 75 103 76
f 76 104 77
f 103 76 104
f 99 104 77
f 79 80 85
f 79 83 84
f 79 84 85
f 80 81 86
f 80 81 107
f 80 85 110
f 80 107 110
f 81 86 87
f 81 87 111
f 81 107 111
f 83 84 89
f 84 85 109
f 84 89 115
f 84 109 115
f 85 109 110
f 87 88 91
f 87 88 112
f 87 90 91
f 87 111 112
f 88 91 113
f 88 112 113
f 89 92 117
f 89 114 115
f 89 114 117
f 91 94 116
f 91 113 116
f 96 92 97
f 92 97 118
f 92 117 118
f 93 100 94
f 100 94 101
f 94 101 123
f 94 116 119
f 94 119 123
f 96 97 103
f 97 98 103
f 97 98 120
f 97 118 120
f 98 103 104
f 98 104 121
f 98 120 121
f 99 100 105
f 99 104 105
f 100 101 122
f 100 105 126
f 100 122 126
f 101 122 123
f 104 105 125
f 104 121 125
f 105 125 126
f 106 107 110
f 106 127 107
f 106 109 110
f 106 127 109
f 107 108 111
f 107 128 108
f 127 107 128
f 108 111 112
f 108 129 112
f 128 108 129
f 114 109 115
f 114 135 109
f 127 109 132
f 135 109 132
f 112 133 113
f 129 112 133
f 113 116 136
f 133 113 136
f 114 117 138
f 114 135 138
f 116 119 139
f 116 136 139
f 117 118 120
f 117 138 120
f 119 139 123
f 120 121 125
f 120 124 125
f 120 143 124
f 138 120 143
f 122 123 145
f 122 126 149
f 122 144 145
f 122 144 149
f 139 123 145
f 124 146 125
f 143 124 146
f 125 147 126
f 146 125 147
f 147 126 148
f 126 148 149
f 127 128 155
f 127 128 156
f 127 132 160
f 127 155 156
f 127 155 160
f 127 156 160
f 128 129 156
f 128 155 156
f 129 130 133
f 129 130 157
f 129 156 157
f 130 133 158
f 130 157 158
f 131 135 132
f 131 132 160
f 131 135 165
f 131 165 160
f 133 134 136
f 133 134 161
f 133 158 161
f 134 136 166
f 134 161 162
f 134 162 166
f 135 138 171
f 135 165 171
f 136 139 172
f 136 166 172
f 137 140 168
f 137 140 174
f 137 168 174
f 138 142 143
f 138 142 171
f 139 145 172
f 140 168 174
f 140 174 175
f 141 169 170
f 141 169 175
f 141 170 176
f 141 175 176
f 142 143 177
f 142 171 177
f 143 146 182
f 143 177 182
f 144 145 178
f 144 149 185
f 144 178 185
f 145 172 179
f 145 178 179
f 146 147 182
f 146 147 183
f 146 182 183
f 147 151 148
f 147 151 189
f 147 182 183
f 147 183 189
f 148 149 153
f 151 148 152
f 148 152 153
f 149 150 154
f 149 150 185
f 149 153 154
f 150 154 186
f 150 185 186
f 151 152 189
f 152 153 191
f 152 189 190
f 152 190 191
f 153 154 191
f 154 186 192
f 154 191 192
f 155 156 160
f 155 194 156
f 155 156 195
f 155 194 195
f 156 157 196
f 194 156 195
f 156 195 196
f 157 158 161
f 157 197 161
f 157 196 197
f 159 200 200
f 165 210 160
f 210 160 202
f 161 204 162
f 197 161 204
f 162 163 167
f 162 163 206
f 162 166 167
f 162 205 166
f 204 162 205
f 162 205 206
f 163 167 213
f 163 206 213
f 164 168 214
f 198 164 207
f 164 207 214
f 165 171 218
f 165 210 218
f 166 167 172
f 205 166 212
f 167 168 173
f 167 168 214
f 167 172 173
f 167 213 214
f 168 169 174
f 168 169 215
f 168 173 174
f 168 214 215
f 169 170 216
f 169 174 175
f 169 174 222
f 169 175 222
f 169 215 216
f 169 215 222
f 170 176 224
f 170 216 217
f 170 217 224
f 171 218 177
f 172 179 173
f 173 174 221
f 179 173 180
f 173 220 180
f 173 220 221
f 174 175 222
f 174 221 222
f 175 176 223
f 175 222 223
f 176 223 224
f 177 182 183
f 218 177 226
f 178 228 179
f 178 185 238
f 178 228 238
f 179 229 180
f 179 180 230
f 228 179 229
f 179 229 230
f 220 180 230
f 229 180 230
f 181 187 241
f 221 181 231
f 181 231 241
f 182 235 183
f 182 183 236
f 182 235 236
f 183 189 245
f 235 183 236
f 183 236 245
f 184 184 184
f 185 238 186
f 247 186 192
f 238 186 239
f 238 247 186
f 188 244 244
f 189 190 246
f 189 245 246
f 190 191 247
f 190 246 247
f 191 247 192
f 193 200 200
f 194 195 202
f 194 195 262
f 194 202 261
f 194 261 262
f 195 196 263
f 195 202 203
f 195 262 263
f 196 197 264
f 196 263 264
f 197 204 264
f 198 207 266
f 198 207 280
f 198 266 280
f 199 200 271
f 199 270 271
f 200 271 272
f 201 210 202
f 201 202 276
f 201 210 289
f 201 274 275
f 201 274 289
f 201 275 276
f 201 275 289
f 210 202 211
f 202 261 276
f 204 205 278
f 204 264 277
f 204 277 278
f 205 206 278
f 205 206 279
f 205 278 279
f 206 213 207
f 206 278 279
f 207 208 215
f 207 208 281
f 213 207 214
f 207 214 215
f 207 266 280
f 207 266 281
f 207 280 281
f 208 215 209
f 208 209 282
f 208 281 282
f 215 209 216
f 209 216 282
f 210 211 290
f 210 218 289
f 210 289 290
f 216 217 291
f 216 282 291
f 217 224 291
f 218 219 226
f 218 219 295
f 218 219 296
f 218 225 226
f 218 225 295
f 218 289 295
f 218 295 296
f 219 295 296
f 220 230 221
f 221 231 222
f 230 221 231
f 222 223 233
f 231 222 232
f 222 232 233
f 223 224 297
f 223 233 309
f 223 309 297
f 224 291 297
f 225 226 235
f 225 234 235
f 225 234 316
f 225 295 302
f 225 302 316
f 226 227 236
f 226 235 236
f 228 229 239
f 228 238 239
f 229 230 239
f 229 230 305
f 229 230 306
f 229 239 321
f 229 305 306
f 229 305 321
f 230 231 240
f 230 240 322
f 230 305 306
f 230 306 322
f 231 232 308
f 231 240 241
f 231 241 307
f 231 307 308
f 232 233 309
f 232 308 309
f 234 235 317
f 234 316 317
f 235 236 318
f 235 317 318
f 236 245 237
f 236 237 319
f 236 318 319
f 237 246 238
f 237 238 319
f 245 237 246
f 238 239 320
f 246 238 247
f 238 319 320
f 239 320 321
f 240 241 322
f 241 307 322
f 241 307 323
f 241 322 323
f 242 248 325
f 242 248 332
f 242 325 326
f 242 326 332
f 243 244 328
f 244 328 329
f 248 249 250
f 248 249 332
f 248 250 331
f 248 325 331
f 248 331 332
f 249 250 251
f 249 251 332
f 250 251 335
f 250 331 335
f 251 252 337
f 251 332 336
f 251 332 337
f 251 335 336
f 251 336 337
f 253 254 256
f 253 254 257
f 253 256 257
f 254 255 258
f 254 255 339
f 254 256 257
f 254 257 258
f 254 338 257
f 254 338 339
f 255 258 342
f 255 339 342
f 256 257 268
f 256 267 268
f 256 267 348
f 256 340 348
f 257 268 258
f 268 258 269
f 268 258 350
f 258 269 350
f 258 342 350
f 259 260 274
f 259 343 260
f 259 273 274
f 259 273 354
f 259 343 354
f 260 274 355
f 343 260 355
f 261 262 344
f 261 276 357
f 261 344 357
f 262 263 345
f 262 344 345
f 263 264 360
f 263 345 360
f 264 277 360
f 265 266 280
f 265 346 266
f 265 279 280
f 265 346 279
f 266 267 281
f 266 347 267
f 266 280 281
f 346 266 347
f 267 268 282
f 267 281 282
f 347 267 348
f 268 269 350
f 268 349 282
f 268 350 282
f 268 349 350
f 270 271 285
f 270 351 271
f 270 284 285
f 270 351 284
f 271 272 285
f 271 352 272
f 351 271 352
f 272 285 286
f 272 353 286
f 352 272 353
f 273 274 288
f 273 287 288
f 273 354 287
f 274 275 289
f 274 288 289
f 274 355 288
f 275 276 357
f 275 356 289
f 275 289 357
f 275 356 357
f 277 360 278
f 278 361 279
f 360 278 361
f 346 279 362
f 361 279 362
f 282 283 291
f 350 282 283
f 282 363 283
f 349 350 282
f 349 282 363
f 350 282 363
f 283 364 291
f 350 363 283
f 350 283 364
f 363 283 364
f 284 365 285
f 351 364 284
f 364 284 365
f 285 366 286
f 365 285 366
f 353 366 286
f 353 286 367
f 366 286 367
f 287 368 288
f 354 287 368
f 368 355 288
f 289 290 369
f 289 369 295
f 356 289 357
f 289 357 369
f 291 297 384
f 364 291 375
f 291 375 384
f 292 298 299
f 375 292 298
f 292 376 299
f 375 292 376
f 293 294 301
f 293 377 294
f 293 300 301
f 293 300 387
f 293 377 387
f 294 301 388
f 377 294 388
f 295 302 296
f 295 296 378
f 295 302 378
f 369 295 378
f 302 296 303
f 302 296 378
f 302 296 390
f 296 303 390
f 296 378 390
f 309 297 310
f 309 297 397
f 297 310 397
f 297 384 397
f 298 385 299
f 375 384 298
f 384 298 385
f 376 299 386
f 385 299 386
f 300 301 314
f 300 387 314
f 301 302 316
f 301 314 315
f 301 315 316
f 301 388 315
f 302 303 390
f 302 389 316
f 302 378 390
f 302 389 390
f 304 305 321
f 304 393 305
f 304 320 321
f 304 320 405
f 304 393 405
f 305 394 306
f 393 305 394
f 306 395 322
f 394 306 395
f 307 308 323
f 307 322 323
f 308 309 324
f 308 323 324
f 309 310 397
f 309 324 325
f 309 325 326
f 309 396 326
f 309 396 397
f 311 312 327
f 311 398 312
f 311 410 327
f 397 311 398
f 397 311 410
f 312 313 329
f 312 399 313
f 312 327 328
f 312 328 329
f 398 312 399
f 313 400 329
f 399 313 400
f 314 401 315
f 387 314 401
f 388 401 315
f 388 315 402
f 401 315 402
f 389 316 317
f 317 318 403
f 389 390 317
f 390 317 403
f 318 319 404
f 318 403 404
f 319 404 320
f 404 320 405
f 322 406 323
f 395 322 406
f 323 407 324
f 406 323 407
f 324 330 325
f 324 408 330
f 407 324 408
f 330 325 331
f 326 332 416
f 396 326 410
f 326 410 416
f 327 411 328
f 410 327 411
f 328 412 329
f 411 328 412
f 400 412 329
f 400 329 413
f 412 329 413
f 330 331 334
f 330 331 335
f 330 331 415
f 330 334 335
f 408 330 414
f 408 330 415
f 330 414 415
f 331 332 336
f 331 332 416
f 331 334 335
f 331 335 336
f 331 416 336
f 331 415 416
f 332 333 337
f 332 336 337
f 332 416 336
f 332 416 337
f 416 336 337
f 336 417 337
f 416 336 417
f 416 417 337
f 338 339 341
f 339 341 342
f 340 348 341
f 340 341 349
f 340 348 349
f 341 349 342
f 348 341 349
f 349 342 350
f 343 354 355
f 344 345 359
f 344 357 358
f 344 358 359
f 345 359 360
f 346 347 419
f 346 362 429
f 346 418 419
f 346 418 429
f 347 348 419
f 348 349 421
f 348 419 420
f 348 420 421
f 349 350 363
f 349 350 421
f 349 350 422
f 349 363 432
f 349 421 422
f 349 421 432
f 349 422 432
f 350 351 364
f 350 351 423
f 350 363 364
f 350 421 422
f 350 422 423
f 351 352 423
f 352 353 366
f 352 366 435
f 352 423 424
f 352 424 435
f 353 366 367
f 354 368 355
f 354 425 425
f 357 369 358
f 358 359 427
f 369 358 370
f 369 358 437
f 358 370 437
f 358 426 427
f 358 426 437
f 359 360 428
f 359 371 427
f 359 371 438
f 359 427 438
f 359 438 428
f 360 361 428
f 360 361 439
f 360 372 439
f 360 428 439
f 361 373 362
f 361 373 440
f 361 428 439
f 361 439 440
f 373 362 374
f 362 374 441
f 362 429 441
f 364 375 365
f 365 366 434
f 375 365 376
f 375 365 445
f 365 376 445
f 365 434 445
f 366 434 435
f 369 370 436
f 369 370 437
f 369 378 437
f 369 436 437
f 370 436 437
f 371 427 438
f 372 381 439
f 372 381 449
f 372 439 449
f 373 374 440
f 374 440 441
f 375 376 444
f 375 376 445
f 375 444 445
f 376 386 454
f 376 444 445
f 376 445 454
f 377 387 388
f 378 379 391
f 378 379 447
f 378 390 391
f 378 391 447
f 378 437 446
f 378 437 447
f 378 446 447
f 379 391 447
f 380 392 448
f 380 392 457
f 380 448 457
f 381 393 449
f 381 393 458
f 381 439 449
f 381 449 458
f 382 383 395
f 382 383 450
f 382 394 395
f 382 394 450
f 383 395 451
f 383 450 451
f 384 397 385
f 384 385 453
f 384 385 454
f 384 453 454
f 385 386 454
f 397 385 398
f 385 398 454
f 385 453 454
f 387 388 401
f 387 455 455
f 388 401 402
f 390 391 403
f 391 392 403
f 391 392 457
f 391 447 456
f 391 456 457
f 392 393 404
f 392 393 448
f 392 393 458
f 392 403 404
f 392 448 457
f 392 448 458
f 393 394 449
f 393 394 458
f 393 404 405
f 393 448 449
f 393 448 458
f 393 449 458
f 394 449 450
f 394 449 458
f 394 450 459
f 395 406 467
f 395 451 460
f 395 460 467
f 396 397 410
f 396 409 410
f 396 409 463
f 396 409 470
f 396 410 470
f 396 463 470
f 398 399 465
f 398 454 465
f 399 400 412
f 399 412 466
f 399 465 466
f 400 412 413
f 406 407 468
f 406 467 468
f 407 408 468
f 408 409 415
f 408 409 470
f 408 414 415
f 408 468 469
f 408 469 470
f 409 410 416
f 409 410 470
f 409 410 471
f 409 415 416
f 409 463 470
f 409 463 471
f 409 470 471
f 410 411 471
f 410 470 471
f 411 412 472
f 411 471 472
f 412 466 472
f 412 466 473
f 412 472 473
f 418 419 474
f 418 429 474
f 419 420 431
f 419 430 431
f 419 474 430
f 419 430 475
f 419 474 475
f 420 421 432
f 420 431 476
f 420 476 432
f 421 422 432
f 422 423 478
f 422 432 478
f 423 424 434
f 423 478 434
f 424 434 435
f 426 427 438
f 426 437 438
f 438 428 439
f 429 441 481
f 429 474 481
f 430 482 431
f 430 442 482
f 474 430 475
f 430 475 482
f 482 431 476
f 432 443 484
f 476 432 477
f 432 477 478
f 432 477 484
f 432 484 478
f 433 444 434
f 433 478 434
f 433 478 444
f 444 434 445
f 478 444 434
f 436 437 446
f 436 437 447
f 436 446 447
f 437 438 447
f 437 438 448
f 437 446 447
f 437 447 448
f 438 439 449
f 438 447 448
f 438 448 449
f 439 440 449
f 439 479 449
f 440 480 441
f 440 449 450
f 440 480 450
f 480 441 481
f 443 484 444
f 443 444 485
f 443 484 485
f 444 485 445
f 484 478 444
f 484 444 485
f 485 445 454
f 447 456 448
f 448 449 458
f 456 448 457
f 479 449 486
f 450 451 460
f 450 459 460
f 450 487 460
f 480 450 487
f 452 490 453
f 452 453 491
f 452 490 463
f 452 490 491
f 453 454 465
f 453 491 454
f 453 464 465
f 453 464 497
f 453 497 465
f 490 453 491
f 490 496 453
f 496 453 497
f 485 491 454
f 460 493 467
f 487 460 493
f 461 462 468
f 461 462 495
f 461 494 468
f 488 461 494
f 488 461 495
f 462 468 469
f 462 495 469
f 463 470 471
f 495 463 470
f 463 497 471
f 490 463 496
f 495 463 496
f 463 496 497
f 464 497 465
f 465 466 472
f 497 465 472
f 466 472 473
f 493 467 468
f 493 494 468
f 495 469 470
f 497 471 472
f 474 481 475
f 481 475 482
f 476 483 477
f 482 476 483
f 477 484 478
f 483 477 484
f 480 481 499
f 480 487 501
f 480 498 499
f 480 498 501
f 480 499 501
f 481 482 499
f 482 483 489
f 482 488 489
f 482 488 503
f 482 499 500
f 482 499 503
f 482 500 503
f 483 484 490
f 483 489 490
f 484 485 491
f 484 490 491
f 487 493 502
f 487 501 502
f 488 489 495
f 488 494 503
f 489 490 496
f 489 495 496
f 492 492 492
f 493 494 504
f 493 502 504
f 494 504 503
f 494 503 505
f 494 504 505
f 498 499 501
f 499 500 503
f 499 501 502
f 499 502 503
f 502 504 503
f 504 503 505

