# https://github.com/mikedh/trimesh
v -0.25000000 -0.75000000 -0.75000000
v -0.25000000 -0.25000000 -0.75000000
v -0.25000000 0.25000000 -0.75000000
v 0.25000000 -0.75000000 -0.75000000
v 0.25000000 -0.25000000 -0.75000000
v 0.25000000 0.25000000 -0.75000000
v -0.25000000 -0.75000000 -0.25000000
v -0.25000000 -0.25000000 -0.25000000
v -0.25000000 0.25000000 -0.25000000
v 0.25000000 -0.75000000 -0.25000000
v 0.25000000 -0.25000000 -0.25000000
v 0.25000000 0.25000000 -0.25000000
v -0.75000000 0.25000000 0.25000000
v -0.75000000 0.75000000 0.25000000
v -0.25000000 -0.75000000 0.25000000
v -0.25000000 -0.25000000 0.25000000
v -0.25000000 0.25000000 0.25000000
v -0.25000000 0.75000000 0.25000000
v 0.25000000 -0.75000000 0.25000000
v 0.25000000 -0.25000000 0.25000000
v 0.25000000 0.25000000 0.25000000
v 0.25000000 0.75000000 0.25000000
v 0.75000000 0.25000000 0.25000000
v 0.75000000 0.75000000 0.25000000
v -0.25000000 -0.75000000 0.75000000
v -0.25000000 -0.25000000 0.75000000
v -0.25000000 0.25000000 0.75000000
v -0.25000000 0.75000000 0.75000000
v 0.25000000 -0.75000000 0.75000000
v 0.25000000 -0.25000000 0.75000000
v 0.25000000 0.25000000 0.75000000
v 0.25000000 0.75000000 0.75000000
f 1 7 2
f 2 3 5
f 2 3 6
f 2 5 6
f 7 2 5
f 2 5 11
f 7 2 8
f 2 8 11
f 3 5 6
f 4 10 5
f 7 10 5
f 10 5 11
f 7 8 15
f 7 8 16
f 7 10 19
f 7 15 16
f 7 15 19
f 8 11 20
f 8 15 16
f 8 16 20
f 9 12 17
f 9 12 21
f 9 17 21
f 10 11 19
f 10 11 20
f 10 19 20
f 11 19 20
f 12 17 21
f 13 17 14
f 13 14 18
f 13 17 18
f 17 14 18
f 15 25 16
f 15 16 26
f 15 26 19
f 15 25 26
f 16 17 20
f 16 26 17
f 16 26 20
f 16 20 30
f 25 16 26
f 25 16 30
f 16 26 30
f 17 18 22
f 17 27 18
f 17 18 28
f 17 20 21
f 26 17 20
f 17 21 22
f 26 17 27
f 17 27 28
f 18 22 32
f 27 18 28
f 27 18 32
f 18 28 32
f 26 19 20
f 19 20 30
f 26 19 29
f 26 19 30
f 19 29 30
f 20 30 21
f 26 20 30
f 21 23 22
f 21 22 24
f 21 31 22
f 21 22 32
f 21 23 24
f 30 21 31
f 21 31 32
f 23 22 24
f 31 22 32
f 25 26 29
f 25 26 30
f 25 29 30
f 26 27 30
f 26 29 30
f 27 28 32
f 27 30 31
f 27 31 32

