# https://github.com/mikedh/trimesh
v -0.12500000 -0.37500000 -0.87500000
v -0.12500000 -0.12500000 -0.87500000
v 0.12500000 -0.37500000 -0.87500000
v 0.12500000 -0.12500000 -0.87500000
v -0.37500000 -0.87500000 -0.62500000
v -0.37500000 -0.62500000 -0.62500000
v -0.12500000 -0.87500000 -0.62500000
v -0.12500000 -0.62500000 -0.62500000
v -0.12500000 -0.37500000 -0.62500000
v -0.12500000 -0.12500000 -0.62500000
v -0.12500000 0.12500000 -0.62500000
v 0.12500000 -0.87500000 -0.62500000
v 0.12500000 -0.62500000 -0.62500000
v 0.12500000 -0.37500000 -0.62500000
v 0.12500000 -0.12500000 -0.62500000
v 0.12500000 0.12500000 -0.62500000
v 0.37500000 -0.87500000 -0.62500000
v 0.37500000 -0.62500000 -0.62500000
v -0.37500000 -0.87500000 -0.37500000
v -0.37500000 -0.62500000 -0.37500000
v -0.37500000 -0.37500000 -0.37500000
v -0.12500000 -0.87500000 -0.37500000
v -0.12500000 -0.62500000 -0.37500000
v -0.12500000 -0.37500000 -0.37500000
v -0.12500000 -0.12500000 -0.37500000
v 0.12500000 -0.87500000 -0.37500000
v 0.12500000 -0.62500000 -0.37500000
v 0.12500000 -0.37500000 -0.37500000
v 0.12500000 -0.12500000 -0.37500000
v 0.37500000 -0.87500000 -0.37500000
v 0.37500000 -0.62500000 -0.37500000
v 0.37500000 -0.37500000 -0.37500000
v -0.37500000 -0.62500000 -0.12500000
v -0.37500000 -0.37500000 -0.12500000
v -0.37500000 -0.12500000 -0.12500000
v -0.12500000 -0.62500000 -0.12500000
v -0.12500000 -0.37500000 -0.12500000
v -0.12500000 -0.12500000 -0.12500000
v -0.12500000 0.12500000 -0.12500000
v 0.12500000 -0.62500000 -0.12500000
v 0.12500000 -0.37500000 -0.12500000
v 0.12500000 -0.12500000 -0.12500000
v 0.12500000 0.12500000 -0.12500000
v 0.12500000 0.37500000 -0.12500000
v 0.37500000 -0.62500000 -0.12500000
v 0.37500000 -0.37500000 -0.12500000
v 0.37500000 -0.12500000 -0.12500000
v -0.37500000 -0.62500000 0.12500000
v -0.37500000 -0.37500000 0.12500000
v -0.37500000 -0.12500000 0.12500000
v -0.37500000 0.12500000 0.12500000
v -0.37500000 0.87500000 0.12500000
v -0.12500000 -0.62500000 0.12500000
v -0.12500000 -0.37500000 0.12500000
v -0.12500000 -0.12500000 0.12500000
v -0.12500000 0.12500000 0.12500000
v -0.12500000 0.37500000 0.12500000
v -0.12500000 0.62500000 0.12500000
v 0.12500000 -0.62500000 0.12500000
v 0.12500000 -0.37500000 0.12500000
v 0.12500000 -0.12500000 0.12500000
v 0.12500000 0.12500000 0.12500000
v 0.12500000 0.37500000 0.12500000
v 0.12500000 0.62500000 0.12500000
v 0.37500000 -0.62500000 0.12500000
v 0.37500000 -0.37500000 0.12500000
v 0.37500000 -0.12500000 0.12500000
v 0.37500000 0.12500000 0.12500000
v 0.37500000 0.37500000 0.12500000
v 0.37500000 0.62500000 0.12500000
v 0.37500000 0.87500000 0.12500000
v 0.62500000 0.37500000 0.12500000
v 0.62500000 0.62500000 0.12500000
v -0.62500000 0.37500000 0.37500000
v -0.62500000 0.62500000 0.37500000
v -0.37500000 -0.87500000 0.37500000
v -0.37500000 -0.62500000 0.37500000
v -0.37500000 -0.37500000 0.37500000
v -0.37500000 -0.12500000 0.37500000
v -0.37500000 0.12500000 0.37500000
v -0.37500000 0.37500000 0.37500000
v -0.37500000 0.62500000 0.37500000
v -0.37500000 0.87500000 0.37500000
v -0.12500000 -0.87500000 0.37500000
v -0.12500000 -0.62500000 0.37500000
v -0.12500000 -0.37500000 0.37500000
v -0.12500000 -0.12500000 0.37500000
v -0.12500000 0.12500000 0.37500000
v -0.12500000 0.37500000 0.37500000
v -0.12500000 0.62500000 0.37500000
v -0.12500000 0.87500000 0.37500000
v 0.12500000 -0.87500000 0.37500000
v 0.12500000 -0.62500000 0.37500000
v 0.12500000 -0.37500000 0.37500000
v 0.12500000 -0.12500000 0.37500000
v 0.12500000 0.12500000 0.37500000
v 0.12500000 0.37500000 0.37500000
v 0.12500000 0.62500000 0.37500000
v 0.12500000 0.87500000 0.37500000
v 0.37500000 -0.87500000 0.37500000
v 0.37500000 -0.62500000 0.37500000
v 0.37500000 -0.37500000 0.37500000
v 0.37500000 -0.12500000 0.37500000
v 0.37500000 0.12500000 0.37500000
v 0.37500000 0.37500000 0.37500000
v 0.37500000 0.62500000 0.37500000
v 0.37500000 0.87500000 0.37500000
v 0.62500000 0.37500000 0.37500000
v 0.62500000 0.62500000 0.37500000
v -0.37500000 0.12500000 0.62500000
v -0.37500000 0.37500000 0.62500000
v -0.37500000 0.62500000 0.62500000
v -0.37500000 0.87500000 0.62500000
v -0.12500000 -0.87500000 0.62500000
v -0.12500000 -0.62500000 0.62500000
v -0.12500000 -0.37500000 0.62500000
v -0.12500000 -0.12500000 0.62500000
v -0.12500000 0.12500000 0.62500000
v -0.12500000 0.37500000 0.62500000
v -0.12500000 0.62500000 0.62500000
v -0.12500000 0.87500000 0.62500000
v 0.12500000 -0.87500000 0.62500000
v 0.12500000 -0.62500000 0.62500000
v 0.12500000 -0.37500000 0.62500000
v 0.12500000 -0.12500000 0.62500000
v 0.12500000 0.12500000 0.62500000
v 0.12500000 0.37500000 0.62500000
v 0.12500000 0.62500000 0.62500000
v 0.12500000 0.87500000 0.62500000
v 0.37500000 0.12500000 0.62500000
v 0.37500000 0.37500000 0.62500000
v 0.37500000 0.62500000 0.62500000
v 0.37500000 0.87500000 0.62500000
v -0.12500000 -0.12500000 0.87500000
v -0.12500000 0.12500000 0.87500000
v 0.12500000 -0.12500000 0.87500000
v 0.12500000 0.12500000 0.87500000
f 1 2 3
f 1 9 2
f 1 3 14
f 1 9 14
f 2 3 4
f 2 10 4
f 9 2 10
f 3 14 4
f 10 14 4
f 10 4 15
f 14 4 15
f 5 7 6
f 5 7 19
f 5 7 22
f 5 19 22
f 7 6 8
f 7 6 23
f 6 8 20
f 6 8 23
f 6 20 23
f 7 8 22
f 7 8 23
f 7 19 22
f 7 22 23
f 8 9 20
f 8 9 23
f 8 20 23
f 8 22 23
f 9 10 14
f 9 10 25
f 9 14 23
f 9 20 21
f 9 20 23
f 9 20 24
f 9 21 24
f 9 21 25
f 9 23 24
f 9 24 25
f 10 11 15
f 10 11 16
f 10 14 15
f 10 14 29
f 10 15 16
f 10 15 29
f 10 25 29
f 11 15 16
f 12 13 18
f 12 13 26
f 12 13 27
f 12 17 18
f 12 17 26
f 12 17 30
f 12 18 27
f 12 26 27
f 12 26 30
f 13 14 27
f 13 14 31
f 13 18 27
f 13 18 31
f 13 26 27
f 13 27 31
f 14 15 29
f 14 23 27
f 14 27 28
f 14 27 31
f 14 28 29
f 14 31 28
f 14 28 32
f 14 32 29
f 14 31 32
f 17 26 30
f 18 27 31
f 20 21 24
f 20 23 24
f 21 24 25
f 21 24 37
f 21 37 25
f 21 34 37
f 23 36 24
f 23 27 40
f 23 36 40
f 24 37 25
f 36 24 37
f 25 38 29
f 37 25 38
f 27 31 28
f 27 40 28
f 28 32 29
f 31 28 32
f 28 41 32
f 40 28 41
f 32 46 29
f 38 29 42
f 46 29 42
f 41 32 46
f 33 34 37
f 33 34 48
f 33 34 49
f 33 36 37
f 33 36 53
f 33 48 49
f 33 48 53
f 33 53 49
f 34 35 38
f 34 35 49
f 34 37 38
f 34 48 49
f 35 38 50
f 35 49 50
f 36 40 59
f 36 53 59
f 38 42 61
f 38 50 55
f 38 55 61
f 39 43 56
f 39 43 62
f 39 56 62
f 40 41 46
f 40 45 46
f 40 45 65
f 40 46 65
f 40 59 65
f 46 42 47
f 46 42 67
f 42 47 67
f 42 61 67
f 43 56 62
f 43 62 63
f 44 57 63
f 45 46 65
f 45 46 66
f 45 65 66
f 46 47 67
f 46 65 66
f 46 66 67
f 48 53 49
f 48 49 78
f 48 77 53
f 48 77 78
f 49 50 55
f 49 50 79
f 53 49 54
f 49 79 55
f 49 78 79
f 50 79 55
f 51 80 56
f 51 56 88
f 51 80 88
f 82 52 83
f 53 85 59
f 77 53 85
f 84 53 85
f 55 56 61
f 55 87 56
f 55 56 88
f 79 55 87
f 55 87 88
f 56 57 62
f 56 57 89
f 56 61 62
f 80 56 88
f 80 56 89
f 87 56 88
f 56 88 89
f 57 58 64
f 57 58 90
f 57 62 63
f 57 63 64
f 57 90 64
f 57 89 90
f 58 90 64
f 59 60 66
f 59 65 66
f 59 65 101
f 85 59 93
f 59 93 101
f 61 67 62
f 61 95 62
f 61 62 96
f 61 67 103
f 61 95 96
f 61 95 103
f 62 63 97
f 62 96 68
f 62 68 104
f 95 62 96
f 62 96 97
f 62 96 104
f 62 104 97
f 63 64 98
f 63 97 98
f 90 64 98
f 65 66 102
f 65 101 102
f 66 102 67
f 102 67 103
f 96 68 104
f 69 70 72
f 69 70 106
f 69 105 72
f 69 105 106
f 70 72 73
f 70 106 73
f 71 107 107
f 72 108 73
f 105 72 108
f 106 73 109
f 108 73 109
f 74 75 81
f 74 75 82
f 74 81 82
f 75 81 82
f 76 84 84
f 77 85 78
f 78 79 87
f 85 78 86
f 78 86 87
f 80 81 89
f 80 81 110
f 80 88 89
f 80 88 118
f 80 110 118
f 81 89 82
f 81 82 111
f 81 82 112
f 81 89 119
f 81 110 111
f 81 110 119
f 81 111 112
f 81 111 119
f 81 119 112
f 82 83 91
f 82 83 112
f 89 82 90
f 82 90 91
f 82 111 112
f 83 91 121
f 83 112 113
f 83 113 121
f 84 114 114
f 85 86 115
f 85 86 116
f 85 93 116
f 85 115 116
f 86 87 117
f 86 115 116
f 86 116 117
f 87 88 117
f 87 95 117
f 87 95 125
f 87 117 125
f 88 117 118
f 90 91 120
f 90 98 99
f 90 98 128
f 90 99 128
f 90 120 128
f 91 120 121
f 92 93 101
f 92 100 101
f 92 122 122
f 93 94 102
f 93 94 124
f 93 101 102
f 93 116 123
f 93 116 124
f 93 123 124
f 94 102 95
f 94 95 124
f 94 95 125
f 94 124 125
f 95 96 125
f 102 95 103
f 95 117 125
f 95 124 125
f 96 104 97
f 96 104 130
f 96 125 126
f 96 126 130
f 97 98 106
f 104 97 105
f 97 105 106
f 97 105 127
f 97 105 131
f 97 106 131
f 97 127 131
f 98 106 99
f 98 99 128
f 106 99 107
f 99 107 129
f 99 128 129
f 104 105 130
f 105 106 109
f 105 106 131
f 105 106 132
f 105 108 109
f 105 130 127
f 105 127 131
f 105 127 132
f 105 130 131
f 105 131 132
f 106 107 132
f 106 131 132
f 107 132 129
f 107 129 133
f 107 132 133
f 110 111 119
f 110 118 119
f 111 119 112
f 112 120 113
f 119 112 120
f 120 113 121
f 115 116 123
f 115 116 124
f 115 123 124
f 116 117 125
f 116 123 124
f 116 124 125
f 117 118 135
f 117 125 136
f 117 134 135
f 117 134 136
f 117 135 136
f 118 119 127
f 118 126 127
f 118 126 137
f 118 135 137
f 119 120 128
f 119 127 128
f 125 126 137
f 125 136 137
f 126 130 127
f 127 128 132
f 130 127 131
f 127 131 132
f 128 132 129
f 132 129 133
f 134 135 136
f 135 136 137

