# https://github.com/mikedh/trimesh
v -0.56250000 0.68750000 -0.68750000
v -0.43750000 0.68750000 -0.68750000
v -0.31250000 0.68750000 -0.68750000
v -0.18750000 0.68750000 -0.68750000
v -0.06250000 0.68750000 -0.68750000
v -0.06250000 0.81250000 -0.68750000
v 0.06250000 0.56250000 -0.68750000
v 0.06250000 0.68750000 -0.68750000
v 0.18750000 0.68750000 -0.68750000
v 0.31250000 0.56250000 -0.68750000
v 0.31250000 0.68750000 -0.68750000
v 0.43750000 0.68750000 -0.68750000
v 0.56250000 0.68750000 -0.68750000
v -0.56250000 0.68750000 -0.56250000
v -0.56250000 0.81250000 -0.56250000
v -0.43750000 0.18750000 -0.56250000
v -0.43750000 0.31250000 -0.56250000
v -0.43750000 0.43750000 -0.56250000
v -0.43750000 0.56250000 -0.56250000
v -0.43750000 0.81250000 -0.56250000
v -0.31250000 0.18750000 -0.56250000
v -0.31250000 0.31250000 -0.56250000
v -0.31250000 0.43750000 -0.56250000
v -0.31250000 0.56250000 -0.56250000
v -0.31250000 0.81250000 -0.56250000
v -0.18750000 0.18750000 -0.56250000
v -0.18750000 0.31250000 -0.56250000
v -0.18750000 0.56250000 -0.56250000
v -0.18750000 0.81250000 -0.56250000
v -0.06250000 0.18750000 -0.56250000
v -0.06250000 0.31250000 -0.56250000
v -0.06250000 0.43750000 -0.56250000
v -0.06250000 0.56250000 -0.56250000
v -0.06250000 0.81250000 -0.56250000
v 0.06250000 0.18750000 -0.56250000
v 0.06250000 0.31250000 -0.56250000
v 0.06250000 0.43750000 -0.56250000
v 0.06250000 0.56250000 -0.56250000
v 0.06250000 0.81250000 -0.56250000
v 0.18750000 0.18750000 -0.56250000
v 0.18750000 0.31250000 -0.56250000
v 0.18750000 0.56250000 -0.56250000
v 0.18750000 0.81250000 -0.56250000
v 0.31250000 0.18750000 -0.56250000
v 0.31250000 0.31250000 -0.56250000
v 0.31250000 0.43750000 -0.56250000
v 0.31250000 0.56250000 -0.56250000
v 0.31250000 0.81250000 -0.56250000
v 0.43750000 0.18750000 -0.56250000
v 0.43750000 0.31250000 -0.56250000
v 0.43750000 0.43750000 -0.56250000
v 0.43750000 0.56250000 -0.56250000
v 0.43750000 0.81250000 -0.56250000
v 0.56250000 0.68750000 -0.56250000
v 0.56250000 0.81250000 -0.56250000
v -0.56250000 0.81250000 -0.43750000
v -0.43750000 -0.31250000 -0.43750000
v -0.43750000 -0.18750000 -0.43750000
v -0.43750000 -0.06250000 -0.43750000
v -0.43750000 0.06250000 -0.43750000
v -0.43750000 0.18750000 -0.43750000
v -0.43750000 0.31250000 -0.43750000
v -0.43750000 0.43750000 -0.43750000
v -0.43750000 0.56250000 -0.43750000
v -0.43750000 0.68750000 -0.43750000
v -0.43750000 0.81250000 -0.43750000
v -0.31250000 -0.56250000 -0.43750000
v -0.31250000 -0.43750000 -0.43750000
v -0.31250000 -0.31250000 -0.43750000
v -0.31250000 -0.18750000 -0.43750000
v -0.31250000 -0.06250000 -0.43750000
v -0.31250000 0.06250000 -0.43750000
v -0.31250000 0.18750000 -0.43750000
v -0.31250000 0.31250000 -0.43750000
v -0.31250000 0.43750000 -0.43750000
v -0.31250000 0.56250000 -0.43750000
v -0.31250000 0.81250000 -0.43750000
v -0.18750000 -0.56250000 -0.43750000
v -0.18750000 -0.18750000 -0.43750000
v -0.18750000 -0.06250000 -0.43750000
v -0.18750000 0.06250000 -0.43750000
v -0.18750000 0.18750000 -0.43750000
v -0.18750000 0.31250000 -0.43750000
v -0.18750000 0.43750000 -0.43750000
v -0.18750000 0.56250000 -0.43750000
v -0.18750000 0.81250000 -0.43750000
v -0.06250000 -0.56250000 -0.43750000
v -0.06250000 -0.43750000 -0.43750000
v -0.06250000 -0.31250000 -0.43750000
v -0.06250000 -0.18750000 -0.43750000
v -0.06250000 -0.06250000 -0.43750000
v -0.06250000 0.06250000 -0.43750000
v -0.06250000 0.18750000 -0.43750000
v -0.06250000 0.31250000 -0.43750000
v -0.06250000 0.43750000 -0.43750000
v -0.06250000 0.56250000 -0.43750000
v -0.06250000 0.81250000 -0.43750000
v 0.06250000 -0.56250000 -0.43750000
v 0.06250000 -0.43750000 -0.43750000
v 0.06250000 -0.31250000 -0.43750000
v 0.06250000 -0.18750000 -0.43750000
v 0.06250000 -0.06250000 -0.43750000
v 0.06250000 0.06250000 -0.43750000
v 0.06250000 0.18750000 -0.43750000
v 0.06250000 0.31250000 -0.43750000
v 0.06250000 0.43750000 -0.43750000
v 0.06250000 0.56250000 -0.43750000
v 0.06250000 0.81250000 -0.43750000
v 0.18750000 -0.56250000 -0.43750000
v 0.18750000 -0.18750000 -0.43750000
v 0.18750000 -0.06250000 -0.43750000
v 0.18750000 0.06250000 -0.43750000
v 0.18750000 0.18750000 -0.43750000
v 0.18750000 0.31250000 -0.43750000
v 0.18750000 0.43750000 -0.43750000
v 0.18750000 0.56250000 -0.43750000
v 0.18750000 0.81250000 -0.43750000
v 0.31250000 -0.56250000 -0.43750000
v 0.31250000 -0.43750000 -0.43750000
v 0.31250000 -0.31250000 -0.43750000
v 0.31250000 -0.18750000 -0.43750000
v 0.31250000 -0.06250000 -0.43750000
v 0.31250000 0.06250000 -0.43750000
v 0.31250000 0.18750000 -0.43750000
v 0.31250000 0.43750000 -0.43750000
v 0.31250000 0.56250000 -0.43750000
v 0.31250000 0.81250000 -0.43750000
v 0.43750000 -0.31250000 -0.43750000
v 0.43750000 -0.18750000 -0.43750000
v 0.43750000 -0.06250000 -0.43750000
v 0.43750000 0.06250000 -0.43750000
v 0.43750000 0.18750000 -0.43750000
v 0.43750000 0.31250000 -0.43750000
v 0.43750000 0.43750000 -0.43750000
v 0.43750000 0.56250000 -0.43750000
v 0.43750000 0.81250000 -0.43750000
v 0.56250000 0.68750000 -0.43750000
v 0.56250000 0.81250000 -0.43750000
v -0.56250000 0.81250000 -0.31250000
v -0.43750000 -0.56250000 -0.31250000
v -0.43750000 -0.43750000 -0.31250000
v -0.43750000 -0.31250000 -0.31250000
v -0.43750000 -0.18750000 -0.31250000
v -0.43750000 -0.06250000 -0.31250000
v -0.43750000 0.06250000 -0.31250000
v -0.43750000 0.18750000 -0.31250000
v -0.43750000 0.31250000 -0.31250000
v -0.43750000 0.56250000 -0.31250000
v -0.43750000 0.68750000 -0.31250000
v -0.43750000 0.81250000 -0.31250000
v -0.43750000 0.93750000 -0.31250000
v -0.31250000 -0.56250000 -0.31250000
v -0.31250000 -0.43750000 -0.31250000
v -0.31250000 -0.31250000 -0.31250000
v -0.31250000 -0.18750000 -0.31250000
v -0.31250000 0.06250000 -0.31250000
v -0.31250000 0.18750000 -0.31250000
v -0.31250000 0.31250000 -0.31250000
v -0.31250000 0.43750000 -0.31250000
v -0.31250000 0.56250000 -0.31250000
v -0.31250000 0.81250000 -0.31250000
v -0.31250000 0.93750000 -0.31250000
v -0.18750000 -0.56250000 -0.31250000
v -0.18750000 -0.43750000 -0.31250000
v -0.18750000 -0.31250000 -0.31250000
v -0.18750000 -0.18750000 -0.31250000
v -0.18750000 0.06250000 -0.31250000
v -0.18750000 0.18750000 -0.31250000
v -0.18750000 0.81250000 -0.31250000
v -0.06250000 -0.56250000 -0.31250000
v -0.06250000 -0.43750000 -0.31250000
v -0.06250000 -0.31250000 -0.31250000
v -0.06250000 -0.18750000 -0.31250000
v -0.06250000 -0.06250000 -0.31250000
v -0.06250000 0.81250000 -0.31250000
v 0.06250000 -0.56250000 -0.31250000
v 0.06250000 -0.43750000 -0.31250000
v 0.06250000 -0.31250000 -0.31250000
v 0.06250000 -0.18750000 -0.31250000
v 0.06250000 -0.06250000 -0.31250000
v 0.06250000 0.81250000 -0.31250000
v 0.18750000 -0.56250000 -0.31250000
v 0.18750000 -0.43750000 -0.31250000
v 0.18750000 -0.31250000 -0.31250000
v 0.18750000 -0.18750000 -0.31250000
v 0.18750000 0.06250000 -0.31250000
v 0.18750000 0.18750000 -0.31250000
v 0.18750000 0.81250000 -0.31250000
v 0.31250000 -0.56250000 -0.31250000
v 0.31250000 -0.43750000 -0.31250000
v 0.31250000 -0.31250000 -0.31250000
v 0.31250000 -0.18750000 -0.31250000
v 0.31250000 0.06250000 -0.31250000
v 0.31250000 0.18750000 -0.31250000
v 0.31250000 0.43750000 -0.31250000
v 0.31250000 0.56250000 -0.31250000
v 0.31250000 0.93750000 -0.31250000
v 0.43750000 -0.56250000 -0.31250000
v 0.43750000 -0.43750000 -0.31250000
v 0.43750000 -0.31250000 -0.31250000
v 0.43750000 -0.18750000 -0.31250000
v 0.43750000 -0.06250000 -0.31250000
v 0.43750000 0.06250000 -0.31250000
v 0.43750000 0.18750000 -0.31250000
v 0.43750000 0.31250000 -0.31250000
v 0.43750000 0.56250000 -0.31250000
v 0.43750000 0.68750000 -0.31250000
v 0.43750000 0.81250000 -0.31250000
v 0.43750000 0.93750000 -0.31250000
v 0.56250000 0.68750000 -0.31250000
v 0.56250000 0.81250000 -0.31250000
v -0.81250000 -0.43750000 -0.18750000
v -0.68750000 -0.43750000 -0.18750000
v -0.68750000 -0.31250000 -0.18750000
v -0.56250000 0.81250000 -0.18750000
v -0.43750000 -0.56250000 -0.18750000
v -0.43750000 -0.43750000 -0.18750000
v -0.43750000 -0.31250000 -0.18750000
v -0.43750000 -0.18750000 -0.18750000
v -0.43750000 -0.06250000 -0.18750000
v -0.43750000 0.06250000 -0.18750000
v -0.43750000 0.18750000 -0.18750000
v -0.43750000 0.31250000 -0.18750000
v -0.43750000 0.43750000 -0.18750000
v -0.43750000 0.56250000 -0.18750000
v -0.43750000 0.68750000 -0.18750000
v -0.43750000 0.93750000 -0.18750000
v -0.31250000 -0.93750000 -0.18750000
v -0.31250000 -0.56250000 -0.18750000
v -0.31250000 -0.31250000 -0.18750000
v -0.31250000 -0.18750000 -0.18750000
v -0.31250000 0.18750000 -0.18750000
v -0.31250000 0.31250000 -0.18750000
v -0.31250000 0.43750000 -0.18750000
v -0.31250000 0.56250000 -0.18750000
v -0.31250000 0.93750000 -0.18750000
v -0.18750000 -0.93750000 -0.18750000
v -0.18750000 -0.81250000 -0.18750000
v -0.18750000 -0.68750000 -0.18750000
v -0.18750000 -0.56250000 -0.18750000
v -0.18750000 0.93750000 -0.18750000
v -0.06250000 -0.93750000 -0.18750000
v -0.06250000 -0.81250000 -0.18750000
v -0.06250000 -0.68750000 -0.18750000
v -0.06250000 -0.56250000 -0.18750000
v -0.06250000 0.93750000 -0.18750000
v 0.06250000 -0.93750000 -0.18750000
v 0.06250000 -0.81250000 -0.18750000
v 0.06250000 -0.68750000 -0.18750000
v 0.06250000 -0.56250000 -0.18750000
v 0.06250000 0.93750000 -0.18750000
v 0.18750000 -0.93750000 -0.18750000
v 0.18750000 -0.81250000 -0.18750000
v 0.18750000 -0.68750000 -0.18750000
v 0.18750000 -0.56250000 -0.18750000
v 0.18750000 0.93750000 -0.18750000
v 0.31250000 -0.93750000 -0.18750000
v 0.31250000 -0.56250000 -0.18750000
v 0.31250000 -0.31250000 -0.18750000
v 0.31250000 -0.18750000 -0.18750000
v 0.31250000 0.18750000 -0.18750000
v 0.31250000 0.31250000 -0.18750000
v 0.31250000 0.43750000 -0.18750000
v 0.31250000 0.56250000 -0.18750000
v 0.31250000 0.93750000 -0.18750000
v 0.43750000 -0.56250000 -0.18750000
v 0.43750000 -0.43750000 -0.18750000
v 0.43750000 -0.31250000 -0.18750000
v 0.43750000 -0.18750000 -0.18750000
v 0.43750000 -0.06250000 -0.18750000
v 0.43750000 0.06250000 -0.18750000
v 0.43750000 0.18750000 -0.18750000
v 0.43750000 0.31250000 -0.18750000
v 0.43750000 0.43750000 -0.18750000
v 0.43750000 0.56250000 -0.18750000
v 0.43750000 0.68750000 -0.18750000
v 0.43750000 0.93750000 -0.18750000
v 0.56250000 0.81250000 -0.18750000
v 0.68750000 -0.43750000 -0.18750000
v 0.81250000 -0.43750000 -0.18750000
v -0.81250000 -0.56250000 -0.06250000
v -0.81250000 -0.43750000 -0.06250000
v -0.81250000 -0.31250000 -0.06250000
v -0.68750000 -0.56250000 -0.06250000
v -0.68750000 -0.43750000 -0.06250000
v -0.68750000 -0.31250000 -0.06250000
v -0.68750000 -0.18750000 -0.06250000
v -0.56250000 -0.31250000 -0.06250000
v -0.56250000 -0.18750000 -0.06250000
v -0.56250000 -0.06250000 -0.06250000
v -0.56250000 0.81250000 -0.06250000
v -0.56250000 0.93750000 -0.06250000
v -0.43750000 -0.93750000 -0.06250000
v -0.43750000 -0.56250000 -0.06250000
v -0.43750000 -0.43750000 -0.06250000
v -0.43750000 -0.31250000 -0.06250000
v -0.43750000 -0.18750000 -0.06250000
v -0.43750000 -0.06250000 -0.06250000
v -0.43750000 0.06250000 -0.06250000
v -0.43750000 0.18750000 -0.06250000
v -0.43750000 0.31250000 -0.06250000
v -0.43750000 0.43750000 -0.06250000
v -0.43750000 0.56250000 -0.06250000
v -0.43750000 0.68750000 -0.06250000
v -0.43750000 0.93750000 -0.06250000
v -0.31250000 -0.93750000 -0.06250000
v -0.31250000 -0.81250000 -0.06250000
v -0.31250000 -0.56250000 -0.06250000
v -0.31250000 0.06250000 -0.06250000
v -0.31250000 0.18750000 -0.06250000
v -0.31250000 0.31250000 -0.06250000
v -0.31250000 0.93750000 -0.06250000
v -0.18750000 -0.93750000 -0.06250000
v -0.18750000 -0.81250000 -0.06250000
v -0.18750000 -0.68750000 -0.06250000
v -0.18750000 -0.56250000 -0.06250000
v -0.18750000 0.93750000 -0.06250000
v -0.06250000 -0.93750000 -0.06250000
v -0.06250000 -0.81250000 -0.06250000
v -0.06250000 -0.68750000 -0.06250000
v -0.06250000 -0.56250000 -0.06250000
v -0.06250000 0.18750000 -0.06250000
v -0.06250000 0.31250000 -0.06250000
v -0.06250000 0.43750000 -0.06250000
v -0.06250000 0.93750000 -0.06250000
v 0.06250000 -0.93750000 -0.06250000
v 0.06250000 -0.81250000 -0.06250000
v 0.06250000 -0.68750000 -0.06250000
v 0.06250000 -0.56250000 -0.06250000
v 0.06250000 0.18750000 -0.06250000
v 0.06250000 0.31250000 -0.06250000
v 0.06250000 0.43750000 -0.06250000
v 0.06250000 0.93750000 -0.06250000
v 0.18750000 -0.93750000 -0.06250000
v 0.18750000 -0.81250000 -0.06250000
v 0.18750000 -0.68750000 -0.06250000
v 0.18750000 -0.56250000 -0.06250000
v 0.18750000 0.93750000 -0.06250000
v 0.31250000 -0.93750000 -0.06250000
v 0.31250000 -0.81250000 -0.06250000
v 0.31250000 -0.56250000 -0.06250000
v 0.31250000 0.18750000 -0.06250000
v 0.31250000 0.31250000 -0.06250000
v 0.31250000 0.93750000 -0.06250000
v 0.43750000 -0.93750000 -0.06250000
v 0.43750000 -0.56250000 -0.06250000
v 0.43750000 -0.43750000 -0.06250000
v 0.43750000 -0.31250000 -0.06250000
v 0.43750000 -0.18750000 -0.06250000
v 0.43750000 -0.06250000 -0.06250000
v 0.43750000 0.06250000 -0.06250000
v 0.43750000 0.18750000 -0.06250000
v 0.43750000 0.31250000 -0.06250000
v 0.43750000 0.43750000 -0.06250000
v 0.43750000 0.56250000 -0.06250000
v 0.43750000 0.68750000 -0.06250000
v 0.43750000 0.93750000 -0.06250000
v 0.56250000 -0.31250000 -0.06250000
v 0.56250000 -0.18750000 -0.06250000
v 0.56250000 -0.06250000 -0.06250000
v 0.56250000 0.81250000 -0.06250000
v 0.56250000 0.93750000 -0.06250000
v 0.68750000 -0.56250000 -0.06250000
v 0.68750000 -0.43750000 -0.06250000
v 0.68750000 -0.31250000 -0.06250000
v 0.68750000 -0.18750000 -0.06250000
v 0.81250000 -0.56250000 -0.06250000
v 0.81250000 -0.43750000 -0.06250000
v 0.81250000 -0.31250000 -0.06250000
v -0.81250000 -0.56250000 0.06250000
v -0.81250000 -0.43750000 0.06250000
v -0.81250000 -0.31250000 0.06250000
v -0.68750000 -0.56250000 0.06250000
v -0.68750000 -0.43750000 0.06250000
v -0.68750000 -0.31250000 0.06250000
v -0.68750000 -0.18750000 0.06250000
v -0.56250000 -0.43750000 0.06250000
v -0.56250000 -0.31250000 0.06250000
v -0.56250000 -0.18750000 0.06250000
v -0.56250000 -0.06250000 0.06250000
v -0.56250000 0.68750000 0.06250000
v -0.56250000 0.81250000 0.06250000
v -0.56250000 0.93750000 0.06250000
v -0.43750000 -0.93750000 0.06250000
v -0.43750000 -0.81250000 0.06250000
v -0.43750000 -0.56250000 0.06250000
v -0.43750000 -0.43750000 0.06250000
v -0.43750000 -0.31250000 0.06250000
v -0.43750000 -0.18750000 0.06250000
v -0.43750000 -0.06250000 0.06250000
v -0.43750000 0.06250000 0.06250000
v -0.43750000 0.18750000 0.06250000
v -0.43750000 0.31250000 0.06250000
v -0.43750000 0.43750000 0.06250000
v -0.43750000 0.56250000 0.06250000
v -0.43750000 0.68750000 0.06250000
v -0.43750000 0.81250000 0.06250000
v -0.43750000 0.93750000 0.06250000
v -0.31250000 -0.93750000 0.06250000
v -0.31250000 -0.81250000 0.06250000
v -0.31250000 -0.56250000 0.06250000
v -0.31250000 -0.31250000 0.06250000
v -0.31250000 -0.18750000 0.06250000
v -0.31250000 0.68750000 0.06250000
v -0.31250000 0.81250000 0.06250000
v -0.31250000 0.93750000 0.06250000
v -0.18750000 -0.93750000 0.06250000
v -0.18750000 -0.81250000 0.06250000
v -0.18750000 -0.68750000 0.06250000
v -0.18750000 -0.56250000 0.06250000
v -0.18750000 -0.31250000 0.06250000
v -0.18750000 -0.18750000 0.06250000
v -0.18750000 0.31250000 0.06250000
v -0.18750000 0.43750000 0.06250000
v -0.18750000 0.68750000 0.06250000
v -0.18750000 0.81250000 0.06250000
v -0.18750000 0.93750000 0.06250000
v -0.06250000 -0.93750000 0.06250000
v -0.06250000 -0.68750000 0.06250000
v -0.06250000 -0.56250000 0.06250000
v -0.06250000 -0.18750000 0.06250000
v -0.06250000 -0.06250000 0.06250000
v -0.06250000 0.06250000 0.06250000
v -0.06250000 0.18750000 0.06250000
v -0.06250000 0.43750000 0.06250000
v -0.06250000 0.93750000 0.06250000
v 0.06250000 -0.93750000 0.06250000
v 0.06250000 -0.68750000 0.06250000
v 0.06250000 -0.56250000 0.06250000
v 0.06250000 -0.18750000 0.06250000
v 0.06250000 -0.06250000 0.06250000
v 0.06250000 0.06250000 0.06250000
v 0.06250000 0.18750000 0.06250000
v 0.06250000 0.43750000 0.06250000
v 0.06250000 0.93750000 0.06250000
v 0.18750000 -0.93750000 0.06250000
v 0.18750000 -0.81250000 0.06250000
v 0.18750000 -0.68750000 0.06250000
v 0.18750000 -0.56250000 0.06250000
v 0.18750000 -0.31250000 0.06250000
v 0.18750000 -0.18750000 0.06250000
v 0.18750000 0.31250000 0.06250000
v 0.18750000 0.43750000 0.06250000
v 0.18750000 0.81250000 0.06250000
v 0.18750000 0.93750000 0.06250000
v 0.31250000 -0.93750000 0.06250000
v 0.31250000 -0.81250000 0.06250000
v 0.31250000 -0.56250000 0.06250000
v 0.31250000 -0.31250000 0.06250000
v 0.31250000 -0.18750000 0.06250000
v 0.31250000 0.68750000 0.06250000
v 0.31250000 0.81250000 0.06250000
v 0.31250000 0.93750000 0.06250000
v 0.43750000 -0.93750000 0.06250000
v 0.43750000 -0.81250000 0.06250000
v 0.43750000 -0.56250000 0.06250000
v 0.43750000 -0.43750000 0.06250000
v 0.43750000 -0.31250000 0.06250000
v 0.43750000 -0.18750000 0.06250000
v 0.43750000 -0.06250000 0.06250000
v 0.43750000 0.06250000 0.06250000
v 0.43750000 0.18750000 0.06250000
v 0.43750000 0.31250000 0.06250000
v 0.43750000 0.43750000 0.06250000
v 0.43750000 0.56250000 0.06250000
v 0.43750000 0.68750000 0.06250000
v 0.43750000 0.81250000 0.06250000
v 0.43750000 0.93750000 0.06250000
v 0.56250000 -0.43750000 0.06250000
v 0.56250000 -0.31250000 0.06250000
v 0.56250000 -0.18750000 0.06250000
v 0.56250000 -0.06250000 0.06250000
v 0.56250000 0.68750000 0.06250000
v 0.56250000 0.81250000 0.06250000
v 0.56250000 0.93750000 0.06250000
v 0.68750000 -0.56250000 0.06250000
v 0.68750000 -0.43750000 0.06250000
v 0.68750000 -0.31250000 0.06250000
v 0.68750000 -0.18750000 0.06250000
v 0.81250000 -0.56250000 0.06250000
v 0.81250000 -0.43750000 0.06250000
v 0.81250000 -0.31250000 0.06250000
v -0.81250000 -0.43750000 0.18750000
v -0.68750000 -0.56250000 0.18750000
v -0.68750000 -0.43750000 0.18750000
v -0.68750000 -0.31250000 0.18750000
v -0.56250000 -0.43750000 0.18750000
v -0.56250000 -0.31250000 0.18750000
v -0.43750000 -0.56250000 0.18750000
v -0.43750000 -0.43750000 0.18750000
v -0.43750000 -0.31250000 0.18750000
v -0.43750000 -0.18750000 0.18750000
v -0.43750000 -0.06250000 0.18750000
v -0.43750000 0.06250000 0.18750000
v -0.43750000 0.18750000 0.18750000
v -0.43750000 0.31250000 0.18750000
v -0.43750000 0.43750000 0.18750000
v -0.43750000 0.56250000 0.18750000
v -0.43750000 0.68750000 0.18750000
v -0.43750000 0.81250000 0.18750000
v -0.31250000 -0.93750000 0.18750000
v -0.31250000 -0.81250000 0.18750000
v -0.31250000 -0.56250000 0.18750000
v -0.31250000 -0.43750000 0.18750000
v -0.31250000 -0.31250000 0.18750000
v -0.31250000 -0.18750000 0.18750000
v -0.31250000 -0.06250000 0.18750000
v -0.31250000 0.06250000 0.18750000
v -0.31250000 0.18750000 0.18750000
v -0.31250000 0.31250000 0.18750000
v -0.31250000 0.43750000 0.18750000
v -0.31250000 0.56250000 0.18750000
v -0.31250000 0.68750000 0.18750000
v -0.18750000 -0.93750000 0.18750000
v -0.18750000 -0.81250000 0.18750000
v -0.18750000 -0.56250000 0.18750000
v -0.18750000 -0.43750000 0.18750000
v -0.18750000 -0.31250000 0.18750000
v -0.18750000 -0.18750000 0.18750000
v -0.18750000 -0.06250000 0.18750000
v -0.18750000 0.06250000 0.18750000
v -0.18750000 0.18750000 0.18750000
v -0.18750000 0.31250000 0.18750000
v -0.18750000 0.43750000 0.18750000
v -0.18750000 0.56250000 0.18750000
v -0.18750000 0.68750000 0.18750000
v -0.18750000 0.81250000 0.18750000
v -0.06250000 -0.56250000 0.18750000
v -0.06250000 -0.43750000 0.18750000
v -0.06250000 -0.31250000 0.18750000
v -0.06250000 -0.18750000 0.18750000
v -0.06250000 -0.06250000 0.18750000
v -0.06250000 0.06250000 0.18750000
v -0.06250000 0.18750000 0.18750000
v -0.06250000 0.31250000 0.18750000
v -0.06250000 0.43750000 0.18750000
v -0.06250000 0.56250000 0.18750000
v -0.06250000 0.68750000 0.18750000
v -0.06250000 0.81250000 0.18750000
v -0.06250000 0.93750000 0.18750000
v 0.06250000 -0.56250000 0.18750000
v 0.06250000 -0.43750000 0.18750000
v 0.06250000 -0.31250000 0.18750000
v 0.06250000 -0.18750000 0.18750000
v 0.06250000 -0.06250000 0.18750000
v 0.06250000 0.06250000 0.18750000
v 0.06250000 0.18750000 0.18750000
v 0.06250000 0.31250000 0.18750000
v 0.06250000 0.43750000 0.18750000
v 0.06250000 0.56250000 0.18750000
v 0.06250000 0.68750000 0.18750000
v 0.06250000 0.81250000 0.18750000
v 0.06250000 0.93750000 0.18750000
v 0.18750000 -0.93750000 0.18750000
v 0.18750000 -0.81250000 0.18750000
v 0.18750000 -0.56250000 0.18750000
v 0.18750000 -0.43750000 0.18750000
v 0.18750000 -0.31250000 0.18750000
v 0.18750000 -0.18750000 0.18750000
v 0.18750000 -0.06250000 0.18750000
v 0.18750000 0.06250000 0.18750000
v 0.18750000 0.18750000 0.18750000
v 0.18750000 0.31250000 0.18750000
v 0.18750000 0.43750000 0.18750000
v 0.18750000 0.56250000 0.18750000
v 0.18750000 0.68750000 0.18750000
v 0.18750000 0.81250000 0.18750000
v 0.31250000 -0.93750000 0.18750000
v 0.31250000 -0.81250000 0.18750000
v 0.31250000 -0.56250000 0.18750000
v 0.31250000 -0.43750000 0.18750000
v 0.31250000 -0.31250000 0.18750000
v 0.31250000 -0.18750000 0.18750000
v 0.31250000 -0.06250000 0.18750000
v 0.31250000 0.06250000 0.18750000
v 0.31250000 0.18750000 0.18750000
v 0.31250000 0.31250000 0.18750000
v 0.31250000 0.43750000 0.18750000
v 0.31250000 0.56250000 0.18750000
v 0.31250000 0.68750000 0.18750000
v 0.43750000 -0.56250000 0.18750000
v 0.43750000 -0.43750000 0.18750000
v 0.43750000 -0.31250000 0.18750000
v 0.43750000 -0.18750000 0.18750000
v 0.43750000 -0.06250000 0.18750000
v 0.43750000 0.06250000 0.18750000
v 0.43750000 0.18750000 0.18750000
v 0.43750000 0.31250000 0.18750000
v 0.43750000 0.43750000 0.18750000
v 0.43750000 0.56250000 0.18750000
v 0.43750000 0.68750000 0.18750000
v 0.43750000 0.81250000 0.18750000
v 0.56250000 -0.43750000 0.18750000
v 0.56250000 -0.31250000 0.18750000
v 0.68750000 -0.56250000 0.18750000
v 0.68750000 -0.43750000 0.18750000
v 0.68750000 -0.31250000 0.18750000
v 0.81250000 -0.43750000 0.18750000
v -0.18750000 0.31250000 0.31250000
v -0.18750000 0.43750000 0.31250000
v -0.06250000 0.18750000 0.31250000
v -0.06250000 0.31250000 0.31250000
v -0.06250000 0.43750000 0.31250000
v 0.06250000 0.18750000 0.31250000
v 0.06250000 0.31250000 0.31250000
v 0.06250000 0.43750000 0.31250000
v 0.18750000 0.31250000 0.31250000
v 0.18750000 0.43750000 0.31250000
v -0.06250000 0.31250000 0.43750000
v -0.06250000 0.43750000 0.43750000
v 0.06250000 0.31250000 0.43750000
v 0.06250000 0.43750000 0.43750000
v -0.06250000 0.31250000 0.56250000
v -0.06250000 0.43750000 0.56250000
v -0.06250000 0.56250000 0.56250000
v 0.06250000 0.31250000 0.56250000
v 0.06250000 0.43750000 0.56250000
v 0.06250000 0.56250000 0.56250000
v -0.06250000 0.43750000 0.68750000
v -0.06250000 0.56250000 0.68750000
v 0.06250000 0.43750000 0.68750000
v 0.06250000 0.56250000 0.68750000
f 1 14 2
f 1 19 2
f 1 14 19
f 24 2 3
f 2 3 25
f 14 15 2
f 14 19 2
f 15 2 20
f 19 24 2
f 2 20 25
f 24 3 4
f 3 4 29
f 3 25 29
f 33 4 5
f 4 5 34
f 24 28 4
f 28 33 4
f 4 29 34
f 5 6 8
f 5 6 34
f 5 7 8
f 33 5 7
f 6 8 39
f 6 34 39
f 7 38 8
f 33 7 38
f 38 8 9
f 8 9 39
f 9 10 11
f 42 9 10
f 9 43 11
f 38 42 9
f 9 39 43
f 10 47 11
f 42 10 47
f 11 12 48
f 52 11 12
f 43 11 48
f 47 52 11
f 52 12 13
f 12 13 54
f 12 48 53
f 52 12 54
f 12 53 54
f 52 13 54
f 14 15 56
f 14 19 65
f 14 56 65
f 15 20 66
f 15 56 66
f 16 21 17
f 16 17 62
f 16 21 61
f 16 61 62
f 17 18 23
f 17 18 62
f 21 17 22
f 17 22 23
f 18 23 19
f 18 19 64
f 18 62 63
f 18 63 64
f 23 19 24
f 19 64 65
f 20 25 77
f 20 66 77
f 21 22 27
f 21 26 27
f 21 26 82
f 21 61 73
f 21 73 82
f 22 23 75
f 22 27 83
f 22 74 83
f 22 75 83
f 23 24 76
f 23 75 76
f 24 28 85
f 24 76 85
f 25 29 86
f 25 77 86
f 26 27 31
f 26 30 31
f 26 30 93
f 26 31 93
f 26 82 93
f 27 31 94
f 27 83 94
f 28 33 85
f 29 34 97
f 29 86 97
f 30 31 93
f 31 32 36
f 31 32 95
f 31 36 104
f 31 93 104
f 31 94 95
f 32 33 37
f 32 33 96
f 32 36 37
f 32 95 96
f 33 37 38
f 33 85 96
f 34 39 97
f 34 39 108
f 34 97 108
f 35 40 36
f 35 36 104
f 35 40 104
f 36 37 106
f 40 36 41
f 40 36 104
f 36 41 114
f 36 105 106
f 36 105 114
f 36 114 106
f 37 38 107
f 37 106 107
f 38 42 116
f 38 107 116
f 39 43 108
f 39 97 108
f 40 41 44
f 40 44 113
f 40 104 113
f 41 44 45
f 41 45 114
f 42 47 116
f 43 48 117
f 43 108 117
f 44 49 45
f 44 49 132
f 44 113 124
f 44 124 132
f 45 46 51
f 45 46 125
f 49 45 50
f 45 50 51
f 45 114 125
f 46 47 52
f 46 47 126
f 46 51 52
f 46 125 126
f 47 116 126
f 48 53 127
f 48 117 127
f 49 50 133
f 49 132 133
f 50 51 133
f 51 52 135
f 51 133 134
f 51 134 135
f 52 54 137
f 52 135 137
f 53 54 55
f 53 54 138
f 53 127 136
f 53 136 138
f 54 137 138
f 56 65 149
f 56 139 66
f 56 139 149
f 57 58 70
f 57 142 58
f 68 57 69
f 141 68 57
f 57 69 70
f 141 57 142
f 58 59 71
f 58 143 59
f 58 70 71
f 142 58 143
f 59 71 60
f 59 60 145
f 143 59 144
f 59 144 145
f 60 72 61
f 60 61 146
f 71 60 72
f 60 145 146
f 61 62 147
f 72 61 73
f 61 146 147
f 62 147 63
f 63 75 64
f 63 159 64
f 63 75 159
f 147 63 159
f 64 65 149
f 75 64 76
f 75 159 64
f 64 76 160
f 64 148 149
f 64 148 160
f 159 64 160
f 66 77 161
f 139 66 150
f 66 150 161
f 140 67 68
f 67 68 153
f 67 152 78
f 67 78 164
f 140 67 152
f 67 153 164
f 68 69 154
f 140 141 68
f 68 153 154
f 69 70 155
f 69 154 155
f 70 71 80
f 70 79 80
f 70 79 166
f 70 155 166
f 71 72 80
f 72 156 73
f 72 80 81
f 72 81 167
f 72 156 167
f 73 157 82
f 156 73 157
f 75 76 84
f 75 83 84
f 76 84 85
f 77 86 169
f 77 161 169
f 78 87 88
f 78 163 87
f 78 164 88
f 152 78 163
f 79 80 91
f 79 90 91
f 79 166 90
f 80 81 92
f 80 91 92
f 81 167 92
f 82 168 93
f 157 82 168
f 83 94 84
f 84 95 85
f 94 84 95
f 95 85 96
f 86 97 175
f 86 169 175
f 87 88 99
f 87 98 99
f 87 170 98
f 163 87 170
f 88 89 100
f 88 89 172
f 88 99 100
f 164 88 171
f 164 88 172
f 88 171 172
f 89 90 101
f 89 172 90
f 89 100 101
f 90 91 174
f 90 173 101
f 172 166 90
f 90 173 174
f 91 92 103
f 91 102 103
f 91 174 102
f 92 93 103
f 92 168 93
f 167 92 168
f 93 103 104
f 97 175 108
f 98 109 99
f 98 109 182
f 170 98 176
f 98 176 182
f 99 100 178
f 109 99 183
f 99 177 178
f 99 177 183
f 100 178 101
f 101 110 102
f 101 102 180
f 101 110 185
f 173 101 179
f 173 101 180
f 178 101 185
f 101 179 180
f 102 111 103
f 110 102 111
f 174 102 180
f 103 186 104
f 111 103 112
f 103 112 186
f 104 113 187
f 186 104 187
f 105 114 106
f 106 107 116
f 114 106 115
f 106 115 116
f 108 181 117
f 175 108 181
f 109 183 118
f 109 118 189
f 109 182 189
f 110 111 121
f 110 185 121
f 111 112 122
f 111 121 122
f 112 122 123
f 112 123 193
f 112 186 193
f 113 187 124
f 114 115 125
f 115 116 126
f 115 125 126
f 117 188 127
f 181 117 188
f 118 119 190
f 118 198 119
f 183 118 190
f 118 189 198
f 119 120 191
f 119 199 120
f 119 190 191
f 198 119 199
f 120 128 121
f 120 191 121
f 199 120 128
f 121 129 122
f 128 121 129
f 185 191 121
f 185 121 192
f 191 121 192
f 122 123 131
f 129 122 130
f 122 130 131
f 123 131 124
f 123 193 124
f 131 124 132
f 187 193 124
f 187 124 194
f 193 124 194
f 125 126 135
f 125 134 135
f 125 195 134
f 126 196 135
f 127 136 209
f 188 127 197
f 127 197 209
f 128 200 129
f 199 128 200
f 129 201 130
f 200 129 201
f 130 131 203
f 201 130 202
f 130 202 203
f 131 132 204
f 131 203 204
f 132 133 205
f 132 204 205
f 133 205 134
f 134 196 135
f 195 134 196
f 205 195 134
f 135 207 137
f 196 135 206
f 135 206 207
f 136 208 138
f 136 208 209
f 137 210 138
f 207 137 210
f 208 138 211
f 210 138 211
f 139 149 215
f 139 150 215
f 140 141 216
f 140 152 216
f 141 142 218
f 141 216 217
f 141 217 218
f 142 143 219
f 142 218 219
f 143 144 220
f 143 219 220
f 144 145 220
f 145 146 221
f 145 220 221
f 146 147 222
f 146 221 222
f 147 158 159
f 147 159 223
f 147 222 223
f 148 149 226
f 148 160 235
f 148 225 226
f 148 225 235
f 150 151 162
f 150 151 227
f 150 161 162
f 150 215 227
f 151 162 236
f 151 227 236
f 152 163 229
f 152 216 229
f 153 154 165
f 153 164 165
f 154 155 165
f 155 165 166
f 156 157 168
f 156 167 168
f 159 160 234
f 159 223 234
f 160 234 235
f 161 162 169
f 162 169 241
f 162 236 241
f 163 170 240
f 163 229 240
f 164 165 172
f 164 171 172
f 165 172 166
f 169 175 246
f 169 241 246
f 170 176 245
f 170 240 245
f 173 174 180
f 173 179 180
f 175 181 246
f 176 182 250
f 176 245 250
f 177 178 184
f 177 183 184
f 178 184 185
f 181 188 251
f 181 246 251
f 182 189 255
f 182 250 255
f 183 184 190
f 184 185 191
f 184 190 191
f 185 191 192
f 186 187 193
f 187 193 194
f 188 197 256
f 188 251 256
f 189 198 258
f 189 255 258
f 195 196 263
f 205 195 273
f 195 273 263
f 196 206 264
f 196 263 264
f 197 209 265
f 197 256 265
f 198 199 266
f 198 258 266
f 199 200 268
f 199 266 267
f 199 267 268
f 200 201 269
f 200 268 269
f 201 202 270
f 201 269 270
f 202 203 270
f 203 204 271
f 203 270 271
f 204 205 272
f 204 271 272
f 205 272 273
f 206 207 276
f 206 264 275
f 206 275 276
f 207 210 276
f 208 209 277
f 208 211 277
f 209 265 277
f 210 211 278
f 210 276 278
f 211 277 278
f 212 282 213
f 212 213 285
f 212 282 285
f 213 214 286
f 282 213 285
f 282 213 286
f 213 285 286
f 215 292 227
f 215 291 292
f 216 294 217
f 216 229 308
f 216 294 308
f 217 218 296
f 294 217 295
f 217 295 296
f 218 219 231
f 218 230 231
f 218 296 231
f 219 220 298
f 219 297 231
f 219 297 298
f 220 298 221
f 221 222 232
f 221 299 232
f 298 221 299
f 222 232 223
f 223 224 234
f 223 301 224
f 232 223 233
f 232 223 311
f 223 233 234
f 223 233 311
f 223 301 311
f 301 224 302
f 225 303 226
f 234 225 235
f 302 225 303
f 303 226 304
f 227 305 236
f 292 227 305
f 228 237 238
f 228 237 313
f 228 307 238
f 228 306 307
f 228 306 313
f 229 308 240
f 296 297 231
f 232 233 311
f 299 232 310
f 232 310 311
f 236 312 241
f 305 236 312
f 237 242 238
f 237 313 242
f 238 243 239
f 238 239 244
f 238 314 239
f 238 239 315
f 242 238 243
f 238 243 244
f 238 314 243
f 307 238 314
f 238 314 315
f 239 244 240
f 239 240 245
f 239 315 240
f 239 240 316
f 243 239 244
f 314 243 239
f 239 244 245
f 314 239 315
f 239 315 316
f 244 240 245
f 308 240 316
f 315 240 316
f 241 317 246
f 312 241 317
f 242 243 319
f 313 242 318
f 242 318 319
f 243 319 244
f 243 244 320
f 314 243 319
f 314 243 320
f 243 319 320
f 244 320 245
f 244 245 321
f 319 244 320
f 244 320 321
f 245 250 329
f 320 245 321
f 245 321 329
f 246 325 251
f 317 246 325
f 247 248 253
f 247 248 327
f 247 252 253
f 247 326 252
f 247 326 327
f 248 253 249
f 248 249 254
f 248 327 249
f 248 249 328
f 248 253 254
f 248 253 335
f 248 335 254
f 248 327 328
f 248 327 335
f 249 254 250
f 249 250 255
f 249 328 250
f 249 250 329
f 253 249 254
f 249 254 255
f 327 249 328
f 249 328 329
f 254 250 255
f 328 250 329
f 251 256 338
f 325 251 333
f 251 333 338
f 252 253 257
f 252 334 257
f 326 252 334
f 253 335 254
f 253 254 336
f 253 257 340
f 253 335 336
f 253 335 340
f 254 336 255
f 254 255 337
f 335 254 336
f 254 336 337
f 255 337 258
f 336 255 337
f 256 338 265
f 334 257 339
f 257 339 340
f 258 341 266
f 337 258 341
f 259 260 269
f 259 268 269
f 260 269 349
f 261 262 273
f 261 262 343
f 271 261 272
f 271 351 261
f 261 272 273
f 261 343 273
f 261 342 343
f 351 261 342
f 262 273 263
f 262 343 273
f 263 264 275
f 273 263 274
f 263 274 354
f 263 354 275
f 265 277 357
f 338 265 344
f 265 344 357
f 266 346 267
f 341 266 346
f 267 268 348
f 346 267 347
f 267 347 348
f 268 348 269
f 269 349 270
f 348 269 349
f 270 350 271
f 349 270 350
f 350 271 351
f 273 353 274
f 343 273 353
f 353 274 354
f 275 355 276
f 354 275 355
f 276 356 278
f 355 276 356
f 277 278 362
f 277 357 362
f 356 278 361
f 278 361 362
f 279 364 280
f 279 280 368
f 279 364 365
f 279 364 368
f 279 365 368
f 364 280 368
f 281 282 285
f 281 282 371
f 281 284 285
f 281 284 373
f 281 285 373
f 281 370 371
f 281 370 373
f 281 371 373
f 282 283 286
f 282 283 372
f 282 285 286
f 282 371 372
f 283 286 287
f 283 287 372
f 284 285 373
f 285 286 374
f 285 373 374
f 286 288 287
f 286 288 378
f 286 374 378
f 288 287 289
f 287 289 290
f 287 289 379
f 287 290 376
f 287 290 379
f 287 372 376
f 287 376 379
f 288 289 378
f 288 296 378
f 289 290 379
f 289 378 379
f 290 298 299
f 290 299 380
f 290 376 379
f 290 376 380
f 290 379 380
f 291 292 383
f 291 381 382
f 291 382 383
f 292 305 383
f 293 306 307
f 293 306 384
f 293 307 385
f 293 384 385
f 294 295 387
f 294 308 386
f 294 386 387
f 295 296 388
f 295 387 388
f 296 297 389
f 296 378 388
f 296 388 389
f 297 298 390
f 297 389 390
f 298 299 390
f 299 300 310
f 299 300 392
f 299 309 310
f 299 380 390
f 299 380 391
f 299 390 391
f 299 391 392
f 300 310 301
f 300 301 392
f 301 302 393
f 310 301 311
f 301 392 393
f 302 303 395
f 302 393 394
f 302 394 395
f 303 304 395
f 304 381 395
f 305 312 398
f 305 383 398
f 306 313 407
f 306 384 399
f 306 399 407
f 307 314 400
f 307 385 400
f 308 316 410
f 308 386 401
f 308 401 410
f 312 317 406
f 312 398 406
f 313 318 407
f 314 319 315
f 314 315 320
f 314 319 320
f 314 319 408
f 314 400 408
f 315 320 316
f 315 316 409
f 315 316 410
f 319 315 320
f 315 320 409
f 315 320 419
f 315 409 410
f 315 409 419
f 315 419 410
f 320 316 321
f 320 316 409
f 320 316 420
f 316 321 410
f 316 321 420
f 316 409 410
f 316 410 420
f 317 325 417
f 317 406 417
f 318 319 418
f 318 407 418
f 319 418 408
f 320 321 419
f 320 321 420
f 320 409 419
f 320 419 420
f 321 329 429
f 321 419 410
f 321 410 420
f 321 419 420
f 321 420 429
f 322 323 331
f 322 323 413
f 322 330 331
f 322 330 424
f 322 424 413
f 323 324 332
f 323 324 425
f 323 331 332
f 323 413 425
f 324 332 434
f 324 425 434
f 325 417 426
f 326 327 427
f 326 334 436
f 326 427 436
f 327 328 336
f 327 335 336
f 327 335 437
f 327 427 437
f 328 336 329
f 328 329 428
f 328 329 429
f 328 336 438
f 328 428 429
f 328 428 438
f 336 329 337
f 336 329 439
f 329 337 429
f 329 337 439
f 329 428 429
f 329 428 439
f 329 429 439
f 330 331 442
f 330 424 433
f 330 433 442
f 331 332 434
f 331 442 434
f 333 338 445
f 333 435 445
f 334 339 436
f 335 340 447
f 335 437 447
f 336 337 438
f 336 337 439
f 336 438 439
f 337 341 439
f 337 429 439
f 337 438 439
f 338 344 453
f 338 445 453
f 339 345 340
f 339 340 454
f 339 345 454
f 339 436 446
f 339 446 454
f 345 340 454
f 340 454 447
f 340 447 455
f 340 454 455
f 341 346 456
f 341 439 448
f 341 448 456
f 342 343 353
f 351 342 352
f 342 352 353
f 344 357 468
f 344 453 468
f 346 347 457
f 346 456 457
f 347 348 458
f 347 457 458
f 348 349 459
f 348 358 458
f 348 458 459
f 349 350 460
f 349 459 460
f 350 351 360
f 350 351 460
f 351 352 462
f 351 360 472
f 351 460 461
f 351 460 472
f 351 461 462
f 351 461 472
f 352 353 462
f 353 354 463
f 353 462 463
f 354 355 465
f 354 463 464
f 354 464 465
f 355 356 465
f 356 361 473
f 356 465 473
f 357 362 475
f 357 468 475
f 358 359 366
f 358 359 470
f 358 365 366
f 358 365 470
f 358 458 470
f 359 366 360
f 359 360 471
f 359 366 471
f 359 470 471
f 366 360 471
f 366 360 479
f 360 471 472
f 360 471 479
f 360 479 472
f 361 362 475
f 361 473 474
f 361 474 475
f 363 364 368
f 363 364 476
f 363 367 368
f 363 367 476
f 364 365 368
f 364 365 478
f 364 476 477
f 364 477 478
f 365 366 369
f 365 368 369
f 365 470 478
f 366 369 479
f 366 471 479
f 367 368 481
f 367 476 480
f 367 476 481
f 367 480 481
f 368 369 482
f 368 481 482
f 369 479 482
f 370 371 373
f 370 371 374
f 370 373 374
f 371 372 375
f 371 373 374
f 371 374 375
f 371 374 485
f 371 485 375
f 371 483 485
f 372 375 376
f 373 484 374
f 374 375 378
f 374 485 375
f 374 377 378
f 484 374 485
f 375 378 376
f 485 375 486
f 378 376 379
f 376 379 380
f 377 378 387
f 377 487 378
f 377 378 488
f 377 487 387
f 377 487 488
f 378 387 388
f 487 378 387
f 378 488 388
f 487 378 488
f 380 390 391
f 381 382 396
f 381 395 396
f 382 383 397
f 382 396 397
f 383 397 398
f 384 385 400
f 384 399 501
f 384 501 400
f 386 387 490
f 386 489 401
f 386 489 490
f 387 388 491
f 487 387 490
f 387 490 491
f 388 389 492
f 488 388 491
f 388 491 492
f 389 492 390
f 390 493 391
f 492 390 493
f 391 392 495
f 493 391 494
f 391 494 495
f 392 495 393
f 393 496 394
f 495 393 496
f 394 497 395
f 496 394 497
f 395 396 499
f 497 395 498
f 395 498 499
f 396 404 397
f 396 499 397
f 396 499 404
f 397 405 398
f 397 500 398
f 404 397 405
f 499 404 397
f 405 398 406
f 399 407 514
f 399 501 514
f 400 408 515
f 501 400 502
f 400 502 515
f 401 503 410
f 489 401 503
f 402 403 411
f 402 403 506
f 504 402 411
f 504 402 505
f 402 505 506
f 403 411 412
f 403 411 519
f 403 412 519
f 403 506 519
f 404 405 416
f 404 526 416
f 499 404 513
f 404 513 526
f 405 406 527
f 405 416 527
f 406 527 417
f 407 418 408
f 407 514 408
f 514 408 515
f 409 419 410
f 419 410 420
f 410 420 528
f 503 410 516
f 410 516 528
f 411 412 519
f 504 517 411
f 517 411 518
f 411 518 519
f 413 414 425
f 413 414 524
f 424 413 523
f 413 524 425
f 413 523 524
f 414 524 425
f 415 526 526
f 526 416 527
f 417 426 540
f 527 417 540
f 420 528 429
f 421 422 431
f 421 531 422
f 421 430 431
f 421 531 430
f 422 423 431
f 422 532 423
f 531 422 532
f 423 431 432
f 532 423 533
f 424 534 433
f 424 534 523
f 425 536 434
f 524 425 536
f 426 435 553
f 426 540 553
f 427 436 437
f 428 429 439
f 428 438 439
f 429 541 439
f 528 429 541
f 430 544 431
f 531 430 544
f 544 431 545
f 433 442 563
f 534 433 547
f 433 547 563
f 442 434 443
f 442 434 564
f 434 443 564
f 536 434 549
f 434 549 564
f 435 553 445
f 436 554 437
f 436 446 568
f 436 554 568
f 437 555 447
f 554 437 555
f 439 556 448
f 541 439 556
f 440 441 449
f 440 441 559
f 440 571 449
f 557 440 558
f 557 440 571
f 440 558 559
f 441 449 450
f 441 559 450
f 442 443 564
f 442 563 564
f 444 451 452
f 566 444 451
f 444 567 452
f 566 444 567
f 567 445 453
f 567 553 445
f 446 568 454
f 454 447 455
f 568 454 447
f 555 447 569
f 568 447 569
f 448 456 581
f 556 448 570
f 448 570 581
f 449 450 573
f 571 449 572
f 449 572 573
f 559 450 573
f 451 580 452
f 566 451 580
f 452 467 453
f 567 452 453
f 580 452 467
f 467 453 468
f 456 457 582
f 456 581 582
f 457 458 470
f 457 458 583
f 457 469 470
f 457 469 593
f 457 593 470
f 457 582 583
f 457 582 593
f 458 459 584
f 458 470 594
f 458 583 584
f 458 583 594
f 459 584 460
f 460 461 472
f 460 585 461
f 584 460 585
f 461 462 587
f 585 461 586
f 461 586 587
f 462 587 463
f 463 588 464
f 587 463 588
f 464 589 465
f 588 464 589
f 465 466 473
f 465 466 591
f 589 465 590
f 465 590 591
f 466 467 474
f 466 591 467
f 466 473 474
f 467 468 475
f 467 592 468
f 467 474 475
f 580 591 467
f 469 477 470
f 469 470 478
f 469 593 470
f 469 470 594
f 469 477 478
f 469 593 594
f 470 471 479
f 477 470 478
f 470 478 479
f 593 470 594
f 471 479 472
f 476 477 481
f 476 595 477
f 476 477 596
f 476 480 481
f 476 596 481
f 476 595 596
f 477 478 481
f 477 596 478
f 477 596 481
f 595 477 596
f 478 479 482
f 478 481 482
f 596 478 481
f 596 478 597
f 596 481 598
f 487 488 490
f 488 490 491
f 489 503 490
f 490 504 491
f 503 490 504
f 491 492 506
f 504 491 505
f 491 505 506
f 492 506 493
f 493 507 494
f 506 493 507
f 494 495 509
f 507 494 508
f 494 508 509
f 495 509 496
f 496 510 497
f 509 496 510
f 497 511 498
f 510 497 511
f 498 512 499
f 511 498 512
f 512 499 513
f 501 502 514
f 502 514 515
f 503 504 517
f 503 516 517
f 506 507 520
f 506 519 520
f 507 508 520
f 508 509 521
f 508 520 521
f 509 510 522
f 509 521 522
f 510 511 523
f 510 522 523
f 511 512 525
f 511 523 524
f 511 524 525
f 512 513 525
f 513 525 526
f 516 517 529
f 516 528 529
f 517 518 530
f 517 529 530
f 518 530 519
f 519 520 532
f 530 519 531
f 519 531 532
f 520 532 521
f 521 533 522
f 532 521 533
f 522 534 523
f 533 522 534
f 523 524 536
f 523 535 536
f 524 536 525
f 525 526 538
f 536 525 537
f 525 537 538
f 526 527 539
f 526 538 539
f 527 539 540
f 528 529 541
f 529 530 542
f 529 541 542
f 530 531 543
f 530 542 543
f 531 543 544
f 533 534 601
f 533 534 604
f 533 545 546
f 533 546 604
f 533 601 604
f 534 547 604
f 534 601 604
f 535 536 549
f 535 536 602
f 535 548 549
f 535 548 602
f 536 537 549
f 536 549 603
f 536 600 603
f 536 602 603
f 537 538 550
f 537 549 550
f 538 539 552
f 538 550 551
f 538 551 552
f 539 540 553
f 539 552 553
f 541 556 542
f 542 557 543
f 556 542 557
f 543 544 559
f 557 543 558
f 543 558 559
f 544 559 545
f 545 546 561
f 559 545 560
f 545 560 561
f 546 547 562
f 546 547 604
f 546 561 562
f 547 562 563
f 548 549 564
f 548 563 564
f 548 563 605
f 548 602 605
f 549 550 565
f 549 564 565
f 549 564 606
f 549 603 606
f 550 551 566
f 550 565 566
f 551 552 567
f 551 566 567
f 552 567 553
f 554 555 569
f 554 568 569
f 556 557 570
f 557 570 571
f 559 560 573
f 560 561 575
f 560 573 574
f 560 574 575
f 561 562 576
f 561 575 576
f 562 563 577
f 562 576 577
f 563 564 577
f 563 564 607
f 563 605 607
f 564 565 579
f 564 577 578
f 564 578 579
f 564 607 606
f 564 606 608
f 564 607 608
f 565 566 579
f 566 579 580
f 570 581 571
f 571 572 583
f 581 571 582
f 571 582 583
f 572 583 573
f 573 574 585
f 583 573 584
f 573 584 585
f 574 575 586
f 574 585 586
f 575 586 576
f 576 577 588
f 586 576 587
f 576 587 588
f 577 578 589
f 577 588 589
f 578 579 590
f 578 589 590
f 579 580 591
f 579 590 591
f 582 583 594
f 582 593 594
f 599 600 603
f 599 602 603
f 599 602 609
f 599 609 603
f 602 609 603
f 602 609 605
f 603 610 606
f 609 603 610
f 605 607 606
f 605 611 606
f 605 611 607
f 609 605 611
f 607 606 608
f 611 607 606
f 610 606 612
f 611 606 612
f 609 610 614
f 609 611 616
f 609 613 614
f 609 613 616
f 610 612 617
f 610 614 617
f 611 612 617
f 611 616 617
f 613 614 617
f 613 616 617
f 614 615 617
f 614 619 615
f 614 619 617
f 615 617 618
f 619 615 617
f 615 620 618
f 619 615 620
f 617 621 618
f 619 617 621
f 620 618 622
f 621 618 622
f 619 620 622
f 619 621 622

