# https://github.com/mikedh/trimesh
v -0.75000000 0.75000000 -0.75000000
v -0.25000000 0.25000000 -0.75000000
v -0.25000000 0.75000000 -0.75000000
v 0.25000000 0.25000000 -0.75000000
v 0.25000000 0.75000000 -0.75000000
v 0.75000000 0.75000000 -0.75000000
v -0.75000000 -0.75000000 -0.25000000
v -0.75000000 -0.25000000 -0.25000000
v -0.75000000 0.75000000 -0.25000000
v -0.25000000 -0.75000000 -0.25000000
v -0.25000000 -0.25000000 -0.25000000
v -0.25000000 0.25000000 -0.25000000
v -0.25000000 0.75000000 -0.25000000
v 0.25000000 -0.75000000 -0.25000000
v 0.25000000 -0.25000000 -0.25000000
v 0.25000000 0.25000000 -0.25000000
v 0.25000000 0.75000000 -0.25000000
v 0.75000000 -0.75000000 -0.25000000
v 0.75000000 -0.25000000 -0.25000000
v 0.75000000 0.75000000 -0.25000000
v -0.75000000 -0.75000000 0.25000000
v -0.75000000 -0.25000000 0.25000000
v -0.75000000 0.75000000 0.25000000
v -0.25000000 -0.75000000 0.25000000
v -0.25000000 -0.25000000 0.25000000
v -0.25000000 0.25000000 0.25000000
v -0.25000000 0.75000000 0.25000000
v 0.25000000 -0.75000000 0.25000000
v 0.25000000 -0.25000000 0.25000000
v 0.25000000 0.25000000 0.25000000
v 0.25000000 0.75000000 0.25000000
v 0.75000000 -0.75000000 0.25000000
v 0.75000000 -0.25000000 0.25000000
v 0.75000000 0.75000000 0.25000000
v -0.25000000 0.25000000 0.75000000
v -0.25000000 0.75000000 0.75000000
v 0.25000000 0.25000000 0.75000000
v 0.25000000 0.75000000 0.75000000
f 1 3 13
f 1 9 13
f 2 3 4
f 2 3 13
f 2 4 16
f 2 12 13
f 2 12 16
f 3 4 5
f 3 4 17
f 3 13 5
f 3 5 17
f 3 13 17
f 4 5 17
f 4 16 17
f 5 6 20
f 13 5 17
f 5 17 20
f 7 8 21
f 7 8 22
f 7 21 22
f 8 11 12
f 8 11 22
f 8 12 22
f 8 21 22
f 9 13 23
f 10 11 15
f 10 11 25
f 10 14 15
f 10 14 28
f 10 24 25
f 10 24 28
f 10 25 28
f 11 12 16
f 11 12 22
f 11 12 25
f 11 15 16
f 11 22 25
f 12 13 27
f 12 16 26
f 12 16 30
f 12 22 25
f 12 22 26
f 12 25 26
f 12 26 27
f 12 26 30
f 12 27 30
f 13 23 27
f 14 15 29
f 14 28 29
f 15 19 16
f 15 16 29
f 15 19 29
f 16 17 31
f 19 16 29
f 19 16 33
f 16 26 29
f 16 26 30
f 16 29 30
f 16 29 33
f 16 30 31
f 16 33 30
f 17 20 34
f 17 31 34
f 18 19 32
f 18 19 33
f 18 32 33
f 19 29 33
f 19 32 33
f 22 25 26
f 24 25 28
f 25 26 29
f 25 28 29
f 26 27 30
f 26 29 30
f 26 30 37
f 26 35 37
f 27 30 31
f 29 33 30
f 35 36 37
f 35 36 38
f 35 37 38
f 36 37 38

