# https://github.com/mikedh/trimesh
v -0.62500000 0.62500000 -0.62500000
v -0.62500000 0.87500000 -0.62500000
v -0.37500000 0.12500000 -0.62500000
v -0.37500000 0.37500000 -0.62500000
v -0.37500000 0.62500000 -0.62500000
v -0.37500000 0.87500000 -0.62500000
v -0.12500000 0.12500000 -0.62500000
v -0.12500000 0.37500000 -0.62500000
v -0.12500000 0.62500000 -0.62500000
v -0.12500000 0.87500000 -0.62500000
v 0.12500000 0.12500000 -0.62500000
v 0.12500000 0.37500000 -0.62500000
v 0.12500000 0.62500000 -0.62500000
v 0.12500000 0.87500000 -0.62500000
v 0.37500000 0.12500000 -0.62500000
v 0.37500000 0.37500000 -0.62500000
v 0.37500000 0.62500000 -0.62500000
v 0.37500000 0.87500000 -0.62500000
v 0.62500000 0.62500000 -0.62500000
v 0.62500000 0.87500000 -0.62500000
v -0.62500000 0.87500000 -0.37500000
v -0.37500000 -0.62500000 -0.37500000
v -0.37500000 -0.37500000 -0.37500000
v -0.37500000 -0.12500000 -0.37500000
v -0.37500000 0.12500000 -0.37500000
v -0.37500000 0.37500000 -0.37500000
v -0.37500000 0.62500000 -0.37500000
v -0.37500000 0.87500000 -0.37500000
v -0.12500000 -0.62500000 -0.37500000
v -0.12500000 -0.37500000 -0.37500000
v -0.12500000 -0.12500000 -0.37500000
v -0.12500000 0.12500000 -0.37500000
v -0.12500000 0.37500000 -0.37500000
v -0.12500000 0.62500000 -0.37500000
v -0.12500000 0.87500000 -0.37500000
v 0.12500000 -0.62500000 -0.37500000
v 0.12500000 -0.37500000 -0.37500000
v 0.12500000 -0.12500000 -0.37500000
v 0.12500000 0.12500000 -0.37500000
v 0.12500000 0.37500000 -0.37500000
v 0.12500000 0.62500000 -0.37500000
v 0.12500000 0.87500000 -0.37500000
v 0.37500000 -0.62500000 -0.37500000
v 0.37500000 -0.37500000 -0.37500000
v 0.37500000 -0.12500000 -0.37500000
v 0.37500000 0.12500000 -0.37500000
v 0.37500000 0.37500000 -0.37500000
v 0.37500000 0.62500000 -0.37500000
v 0.37500000 0.87500000 -0.37500000
v 0.62500000 0.62500000 -0.37500000
v 0.62500000 0.87500000 -0.37500000
v -0.87500000 -0.62500000 -0.12500000
v -0.87500000 -0.37500000 -0.12500000
v -0.62500000 -0.62500000 -0.12500000
v -0.62500000 -0.37500000 -0.12500000
v -0.62500000 -0.12500000 -0.12500000
v -0.62500000 0.87500000 -0.12500000
v -0.37500000 -0.87500000 -0.12500000
v -0.37500000 -0.62500000 -0.12500000
v -0.37500000 -0.37500000 -0.12500000
v -0.37500000 -0.12500000 -0.12500000
v -0.37500000 0.12500000 -0.12500000
v -0.37500000 0.37500000 -0.12500000
v -0.37500000 0.62500000 -0.12500000
v -0.37500000 0.87500000 -0.12500000
v -0.12500000 -0.87500000 -0.12500000
v -0.12500000 -0.62500000 -0.12500000
v -0.12500000 0.12500000 -0.12500000
v -0.12500000 0.37500000 -0.12500000
v -0.12500000 0.87500000 -0.12500000
v 0.12500000 -0.87500000 -0.12500000
v 0.12500000 -0.62500000 -0.12500000
v 0.12500000 0.12500000 -0.12500000
v 0.12500000 0.37500000 -0.12500000
v 0.12500000 0.87500000 -0.12500000
v 0.37500000 -0.87500000 -0.12500000
v 0.37500000 -0.62500000 -0.12500000
v 0.37500000 -0.37500000 -0.12500000
v 0.37500000 -0.12500000 -0.12500000
v 0.37500000 0.12500000 -0.12500000
v 0.37500000 0.37500000 -0.12500000
v 0.37500000 0.62500000 -0.12500000
v 0.37500000 0.87500000 -0.12500000
v 0.62500000 -0.62500000 -0.12500000
v 0.62500000 -0.37500000 -0.12500000
v 0.62500000 -0.12500000 -0.12500000
v 0.62500000 0.87500000 -0.12500000
v 0.87500000 -0.62500000 -0.12500000
v 0.87500000 -0.37500000 -0.12500000
v -0.87500000 -0.62500000 0.12500000
v -0.87500000 -0.37500000 0.12500000
v -0.62500000 -0.62500000 0.12500000
v -0.62500000 -0.37500000 0.12500000
v -0.62500000 -0.12500000 0.12500000
v -0.62500000 0.62500000 0.12500000
v -0.62500000 0.87500000 0.12500000
v -0.37500000 -0.87500000 0.12500000
v -0.37500000 -0.62500000 0.12500000
v -0.37500000 -0.37500000 0.12500000
v -0.37500000 -0.12500000 0.12500000
v -0.37500000 0.12500000 0.12500000
v -0.37500000 0.37500000 0.12500000
v -0.37500000 0.62500000 0.12500000
v -0.37500000 0.87500000 0.12500000
v -0.12500000 -0.87500000 0.12500000
v -0.12500000 -0.62500000 0.12500000
v -0.12500000 -0.37500000 0.12500000
v -0.12500000 -0.12500000 0.12500000
v -0.12500000 0.12500000 0.12500000
v -0.12500000 0.37500000 0.12500000
v -0.12500000 0.62500000 0.12500000
v -0.12500000 0.87500000 0.12500000
v 0.12500000 -0.87500000 0.12500000
v 0.12500000 -0.62500000 0.12500000
v 0.12500000 -0.37500000 0.12500000
v 0.12500000 -0.12500000 0.12500000
v 0.12500000 0.12500000 0.12500000
v 0.12500000 0.37500000 0.12500000
v 0.12500000 0.62500000 0.12500000
v 0.12500000 0.87500000 0.12500000
v 0.37500000 -0.87500000 0.12500000
v 0.37500000 -0.62500000 0.12500000
v 0.37500000 -0.37500000 0.12500000
v 0.37500000 -0.12500000 0.12500000
v 0.37500000 0.12500000 0.12500000
v 0.37500000 0.37500000 0.12500000
v 0.37500000 0.62500000 0.12500000
v 0.37500000 0.87500000 0.12500000
v 0.62500000 -0.62500000 0.12500000
v 0.62500000 -0.37500000 0.12500000
v 0.62500000 -0.12500000 0.12500000
v 0.62500000 0.62500000 0.12500000
v 0.62500000 0.87500000 0.12500000
v 0.87500000 -0.62500000 0.12500000
v 0.87500000 -0.37500000 0.12500000
v -0.12500000 0.12500000 0.37500000
v -0.12500000 0.37500000 0.37500000
v 0.12500000 0.12500000 0.37500000
v 0.12500000 0.37500000 0.37500000
v -0.12500000 0.37500000 0.62500000
v -0.12500000 0.62500000 0.62500000
v 0.12500000 0.37500000 0.62500000
v 0.12500000 0.62500000 0.62500000
f 1 2 5
f 1 2 21
f 1 5 27
f 1 21 27
f 2 5 6
f 2 6 28
f 2 21 28
f 3 4 8
f 3 4 26
f 3 7 8
f 3 7 32
f 3 8 32
f 3 25 26
f 3 25 32
f 4 5 27
f 4 8 33
f 4 26 27
f 4 26 33
f 4 33 27
f 5 6 10
f 5 9 10
f 5 9 34
f 5 27 34
f 6 10 35
f 6 28 35
f 7 8 32
f 8 9 12
f 8 9 34
f 8 12 39
f 8 32 39
f 8 33 34
f 9 10 13
f 9 12 13
f 10 13 14
f 10 14 35
f 10 14 42
f 10 35 42
f 11 15 12
f 11 12 39
f 11 15 39
f 12 13 41
f 15 12 16
f 15 12 39
f 12 16 40
f 12 40 41
f 13 17 14
f 13 17 41
f 17 14 18
f 14 18 42
f 14 35 42
f 15 16 47
f 15 39 46
f 15 46 47
f 16 17 48
f 16 40 47
f 16 40 48
f 16 47 48
f 17 18 19
f 17 19 50
f 17 41 48
f 17 48 50
f 18 19 20
f 18 19 51
f 18 42 49
f 18 49 51
f 19 50 51
f 21 57 27
f 21 57 28
f 22 23 30
f 22 59 23
f 22 29 30
f 22 59 29
f 23 30 24
f 23 24 61
f 59 23 60
f 23 60 61
f 24 31 25
f 24 61 25
f 30 24 31
f 25 62 26
f 31 25 32
f 61 25 62
f 26 33 27
f 26 63 27
f 62 26 63
f 33 27 34
f 63 27 64
f 28 35 70
f 57 28 65
f 28 65 70
f 29 30 37
f 29 36 37
f 29 67 36
f 59 29 67
f 30 31 38
f 30 37 38
f 31 32 39
f 31 38 39
f 35 70 42
f 36 43 37
f 36 72 43
f 67 36 72
f 37 44 38
f 43 37 44
f 38 45 39
f 44 38 45
f 45 39 46
f 40 41 48
f 40 47 48
f 42 75 49
f 70 42 75
f 43 77 44
f 72 43 77
f 44 45 79
f 77 44 78
f 44 78 79
f 45 79 46
f 46 80 47
f 79 46 80
f 47 81 48
f 80 47 81
f 48 82 50
f 81 48 82
f 49 83 51
f 75 49 83
f 50 51 87
f 82 50 87
f 83 51 87
f 52 53 55
f 52 53 91
f 52 54 55
f 52 54 92
f 52 55 92
f 52 90 91
f 52 90 92
f 52 92 91
f 53 55 56
f 53 56 91
f 54 55 92
f 55 56 93
f 55 60 93
f 55 92 93
f 56 61 62
f 56 62 94
f 56 91 93
f 56 91 94
f 56 93 94
f 57 65 96
f 57 95 96
f 58 66 97
f 58 66 105
f 58 97 105
f 59 60 99
f 59 67 106
f 59 98 99
f 59 98 106
f 60 61 100
f 60 93 99
f 60 99 100
f 61 62 100
f 62 63 101
f 62 94 100
f 62 94 101
f 62 100 101
f 63 64 103
f 63 101 102
f 63 102 103
f 64 95 103
f 65 70 104
f 65 96 104
f 66 67 67
f 66 97 105
f 67 72 114
f 67 106 114
f 68 69 74
f 68 69 110
f 68 73 74
f 68 73 109
f 68 109 110
f 69 74 118
f 69 110 118
f 70 104 112
f 71 72 72
f 71 76 113
f 71 76 121
f 71 113 121
f 72 77 114
f 73 74 118
f 73 109 117
f 73 117 118
f 75 83 128
f 75 120 128
f 76 113 121
f 77 78 123
f 77 114 122
f 77 122 123
f 78 79 124
f 78 85 123
f 78 123 124
f 79 80 86
f 79 80 124
f 80 81 125
f 80 86 131
f 80 124 125
f 80 124 131
f 80 125 131
f 81 82 127
f 81 125 126
f 81 126 127
f 82 87 132
f 82 127 132
f 83 87 133
f 83 128 133
f 84 85 89
f 84 85 129
f 84 88 89
f 84 88 129
f 85 89 86
f 85 86 130
f 85 123 130
f 85 129 130
f 89 86 131
f 86 130 131
f 87 132 133
f 88 89 135
f 88 129 134
f 88 129 135
f 88 134 135
f 89 135 131
f 90 92 91
f 90 91 93
f 90 92 93
f 92 91 93
f 91 93 94
f 94 100 101
f 95 96 103
f 96 103 104
f 98 99 107
f 98 106 107
f 99 107 100
f 100 108 101
f 107 100 108
f 101 109 102
f 108 101 109
f 102 103 111
f 109 102 110
f 102 110 111
f 103 104 112
f 103 111 112
f 106 107 114
f 107 108 115
f 107 114 115
f 108 109 116
f 108 115 116
f 109 116 117
f 109 117 138
f 109 136 138
f 110 111 118
f 110 137 118
f 111 112 120
f 111 118 119
f 111 119 120
f 114 122 115
f 115 123 116
f 122 115 123
f 116 117 125
f 123 116 124
f 116 124 125
f 117 118 126
f 117 125 126
f 118 119 127
f 118 126 127
f 137 118 139
f 119 127 120
f 127 120 128
f 124 125 131
f 127 128 133
f 127 132 133
f 129 130 135
f 129 134 135
f 130 135 131
f 137 139 142
f 137 140 142
f 140 141 142
f 140 141 143
f 140 142 143
f 141 142 143

